<?xml version="1.0" encoding="UTF-8" standalone="no"?>
<svg width="102px" height="15px" viewBox="0 0 102 15" version="1.1" xmlns="http://www.w3.org/2000/svg" xmlns:xlink="http://www.w3.org/1999/xlink">
    <!-- Generator: Sketch 42 (36781) - http://www.bohemiancoding.com/sketch -->
    <title>Alvean Ekman</title>
    <desc>Created with Sketch.</desc>
    <defs></defs>
    <g id="Landing-Pages" stroke="none" stroke-width="1" fill="none" fill-rule="evenodd">
        <g id="webpage-with-testimonials" transform="translate(-672.000000, -1085.000000)" fill="#000000">
            <g id="Group-17" transform="translate(572.000000, 965.000000)">
                <path d="M111.11874,134.517327 C111.11874,134.832921 110.902141,135 110.505043,135 C110.360644,135 110.180145,134.777228 109.999646,134.350248 C109.783047,133.923267 109.692798,133.626238 109.692798,133.440594 C109.692798,133.366337 109.710848,133.273515 109.764997,133.162129 C109.656698,132.716584 109.476199,132.066832 109.2596,131.194307 C108.302955,130.915842 107.183861,130.767327 105.884268,130.767327 C105.252522,130.767327 104.368076,130.841584 103.212883,130.95297 C102.996284,132.029703 102.906034,132.846535 102.906034,133.366337 C102.906034,133.570545 102.924084,133.793317 102.960184,134.034653 C102.851885,134.331683 102.671386,134.480198 102.436737,134.480198 C101.967439,134.480198 101.750841,134.127475 101.750841,133.459158 C101.78694,133.180693 101.84109,132.809406 101.91329,132.326733 C101.949389,132.066832 102.021589,131.639851 102.129889,131.064356 C101.696691,131.138614 101.173244,131.231436 100.577597,131.305693 C100.180499,131.305693 100,131.138614 100,130.767327 C100,130.433168 100.216599,130.247525 100.667846,130.173267 C100.920545,130.136139 101.480092,130.061881 102.346487,129.969059 C102.851885,127.685644 103.77243,124.826733 105.126172,121.410891 C105.451071,120.538366 105.739869,120.092822 105.992568,120.092822 C106.317466,120.092822 106.642364,120.519802 106.985312,121.336634 C108.880552,126.014851 110.216245,130.154703 110.992391,133.793317 C111.06459,134.201733 111.11874,134.443069 111.11874,134.517327 Z M108.934702,129.987624 C108.609804,128.873762 108.284905,127.871287 107.996107,126.961634 C107.292161,124.845297 106.624314,123.137376 106.010618,121.837871 C104.945673,124.511139 104.097328,127.165842 103.447531,129.839109 C104.656875,129.727723 105.50522,129.67203 105.992568,129.67203 C106.895063,129.67203 107.869758,129.783416 108.934702,129.987624 Z M115.811715,121.132426 C115.811715,120.909653 115.667316,120.649752 115.396567,120.389851 C115.107769,120.12995 114.89117,120 114.710671,120 C114.566271,120 114.476022,120.12995 114.403822,120.371287 C113.609627,123.100248 113.230579,125.643564 113.230579,128.001238 C113.230579,129.207921 113.248629,130.191832 113.320828,130.934406 C113.212529,131.12005 113.158379,131.342822 113.158379,131.621287 C113.158379,131.695545 113.158379,131.899752 113.176429,132.252475 C113.176429,132.623762 113.194479,132.82797 113.194479,132.902228 C113.194479,133.180693 113.302778,133.514851 113.555477,133.904703 C113.808176,134.313119 114.060874,134.535891 114.313573,134.535891 C114.494072,134.535891 114.584321,134.443069 114.584321,134.257426 C114.403822,132.772277 114.331623,130.878713 114.331623,128.595297 C114.331623,127.648515 114.403822,126.47896 114.584321,125.105198 C114.728721,123.824257 114.90922,122.784653 115.107769,121.986386 L115.234118,121.875 C115.613166,121.689356 115.811715,121.429455 115.811715,121.132426 Z M124.331269,126.664604 C124.331269,126.256188 124.11467,126.033416 123.717572,126.033416 C123.374624,126.033416 123.194125,126.293317 123.176075,126.794554 C121.226686,129.096535 119.818793,130.971535 118.934348,132.456683 C118.699699,131.12005 118.50115,129.894802 118.356751,128.780941 C118.284551,128.205446 118.212352,127.704208 118.158202,127.277228 C118.013803,126.980198 117.851354,126.813119 117.634755,126.813119 C117.508406,126.813119 117.382056,126.868812 117.273757,126.980198 C117.165457,127.091584 117.111308,127.240099 117.111308,127.388614 C117.111308,127.537129 117.183507,128.186881 117.327907,129.300743 C117.562555,131.045792 117.833304,132.456683 118.158202,133.514851 C118.320651,134.108911 118.57335,134.424505 118.916298,134.424505 C119.132897,134.424505 119.367546,134.14604 119.638294,133.607673 C120.39639,132.085396 121.569634,130.39604 123.194125,128.558168 C123.591223,128.094059 123.843921,127.815594 123.916121,127.704208 C124.18687,127.332921 124.331269,126.998762 124.331269,126.664604 Z M132.255176,133.663366 C132.255176,134.14604 131.695629,134.405941 130.612635,134.405941 C129.204743,134.405941 128.193948,133.719059 127.580251,132.345297 C127.435852,132.382426 127.255353,132.40099 127.074854,132.40099 C126.443107,132.40099 125.93771,132.289604 125.576712,132.048267 C125.125465,131.788366 124.908866,131.509901 124.908866,131.212871 C124.908866,130.804455 125.089365,130.600248 125.450363,130.600248 C125.504512,130.600248 125.685012,130.711634 125.99186,130.934406 C126.298708,131.138614 126.605557,131.231436 126.912405,131.231436 C127.020704,131.231436 127.147054,131.231436 127.255353,131.212871 C127.201203,130.915842 127.183153,130.637376 127.183153,130.358911 C127.183153,129.467822 127.399752,128.595297 127.83295,127.759901 C128.320297,126.813119 128.933994,126.330446 129.67404,126.330446 C130.125288,126.330446 130.576535,126.590347 131.045833,127.07302 C131.370731,127.444307 131.55123,127.871287 131.55123,128.35396 C131.55123,129.096535 131.244382,129.80198 130.648735,130.507426 C130.107238,131.157178 129.439391,131.658416 128.645196,132.011139 C129.006194,132.790842 129.565741,133.180693 130.359936,133.180693 C130.522385,133.180693 130.775084,133.162129 131.118032,133.087871 C131.44293,133.050743 131.641479,133.032178 131.731729,133.032178 C131.876128,133.032178 131.984428,133.106436 132.092727,133.236386 C132.201026,133.384901 132.255176,133.514851 132.255176,133.663366 Z M130.486286,128.446782 C130.486286,128.22401 130.377986,128.019802 130.197487,127.834158 C129.998938,127.667079 129.800389,127.574257 129.60184,127.574257 C129.240842,127.574257 128.933994,127.871287 128.681295,128.428218 C128.428597,128.985149 128.302247,129.579208 128.302247,130.173267 C128.302247,130.39604 128.320297,130.655941 128.356397,130.915842 C128.933994,130.655941 129.439391,130.303218 129.854539,129.839109 C130.269687,129.412129 130.486286,128.94802 130.486286,128.446782 Z M139.781985,129.467822 C139.781985,129.542079 139.745886,129.653465 139.709786,129.80198 C139.439037,130.581683 139.312688,131.417079 139.312688,132.27104 C139.312688,132.586634 139.330738,132.902228 139.402938,133.199257 C139.511237,133.756188 139.583437,134.034653 139.583437,134.071782 C139.583437,134.424505 139.384888,134.610149 139.00584,134.610149 C138.644842,134.610149 138.446293,134.294554 138.392143,133.700495 C138.356043,133.384901 138.301893,132.883663 138.229694,132.196782 C137.236949,133.42203 136.280304,134.034653 135.359759,134.034653 C134.872412,134.034653 134.457264,133.811881 134.114316,133.329208 C133.771368,132.920792 133.608919,132.438119 133.608919,131.899752 C133.608919,131.045792 133.969917,130.154703 134.728013,129.189356 C134.872412,129.003713 135.143161,128.706683 135.522208,128.335396 C136.713502,127.221535 137.706247,126.664604 138.536542,126.664604 C138.717041,126.664604 138.91559,126.757426 139.114139,126.905941 C139.294638,127.07302 139.402938,127.258663 139.402938,127.462871 C139.402938,127.5 139.384888,127.592822 139.348788,127.722772 C139.493187,128.094059 139.565387,128.52104 139.565387,128.985149 C139.709786,129.170792 139.781985,129.337871 139.781985,129.467822 Z M138.518492,128.94802 C138.518492,128.298267 138.356043,127.964109 138.067245,127.964109 C137.832596,127.964109 137.453548,128.168317 136.948151,128.558168 C136.478853,128.910891 136.099805,129.263614 135.811007,129.616337 C135.052911,130.488861 134.691913,131.231436 134.691913,131.844059 C134.691913,132.493812 134.926562,132.809406 135.431959,132.809406 C136.117855,132.809406 136.785702,132.382426 137.471598,131.491337 C138.157494,130.600248 138.518492,129.764851 138.518492,128.94802 Z M148.012741,128.35396 C148.012741,128.168317 147.922492,127.982673 147.760042,127.79703 C147.597593,127.648515 147.417094,127.555693 147.200495,127.537129 C145.720403,128.446782 144.276411,129.857673 142.850469,131.769802 C142.850469,130.266089 142.976818,128.873762 143.265617,127.592822 C143.319766,127.332921 143.373916,127.128713 143.410016,126.943069 C143.410016,126.720297 143.337816,126.497525 143.193417,126.293317 C143.012918,126.107673 142.832419,125.996287 142.63387,125.996287 C142.489471,125.996287 142.417271,126.107673 142.381171,126.293317 C141.984074,128.205446 141.803575,129.727723 141.803575,130.860149 C141.803575,131.936881 141.911874,132.790842 142.128473,133.459158 C142.272872,133.904703 142.507521,134.127475 142.868519,134.127475 C142.940718,134.127475 143.030968,133.97896 143.157317,133.719059 C143.265617,133.477723 143.355866,133.236386 143.464166,132.976485 C144.113962,131.639851 145.305256,130.340347 147.019996,129.07797 L146.713148,132.215347 C146.640949,132.735149 146.604849,133.143564 146.586799,133.403465 C146.586799,133.607673 146.658998,133.793317 146.803398,133.97896 C146.947797,134.14604 147.128296,134.238861 147.326845,134.238861 C147.471244,134.238861 147.543444,134.127475 147.579543,133.941832 C147.687843,132.939356 147.760042,132.10396 147.832242,131.454208 C147.940541,130.22896 148.012741,129.189356 148.012741,128.35396 Z M163.842506,131.212871 C163.842506,130.804455 163.662007,130.600248 163.301009,130.600248 C163.10246,130.600248 162.867811,130.804455 162.597062,131.212871 C162.163865,131.806931 161.820917,132.196782 161.532118,132.419554 C161.13502,132.716584 160.611573,132.846535 159.979827,132.846535 C159.077331,132.846535 158.373385,132.568069 157.867988,131.97401 C157.362591,131.398515 157.109892,130.618812 157.109892,129.653465 C157.109892,129.430693 157.127942,129.170792 157.164042,128.892327 C157.52504,128.743812 158.066537,128.576733 158.788533,128.391089 C159.979827,128.094059 160.972571,127.852723 161.766767,127.685644 C161.947266,127.92698 162.181915,128.038366 162.470713,128.038366 C162.615112,128.038366 162.867811,127.889851 163.264909,127.592822 C163.643957,127.314356 163.842506,127.035891 163.842506,126.757426 C163.842506,126.404703 163.662007,126.219059 163.301009,126.219059 C163.13856,126.219059 162.831711,126.256188 162.398514,126.330446 C161.13502,126.571782 159.510529,126.980198 157.48894,127.555693 C158.048487,126.219059 158.427535,125.32797 158.644134,124.882426 C158.788533,124.622525 158.914882,124.362624 159.059282,124.102723 C159.239781,123.731436 159.34808,123.471535 159.34808,123.32302 C159.34808,123.137376 159.25783,122.858911 159.113431,122.506188 C160.467174,122.023515 161.586268,121.782178 162.452663,121.782178 C162.560963,121.782178 162.687312,121.819307 162.867811,121.875 C163.03026,121.949257 163.174659,121.967822 163.282959,121.967822 C163.643957,121.967822 163.842506,121.800743 163.842506,121.466584 C163.842506,121.225248 163.752256,121.039604 163.571757,120.928218 C163.264909,120.705446 162.867811,120.594059 162.398514,120.594059 C160.900372,120.631188 159.25783,121.095297 157.48894,122.00495 C156.803044,122.376238 156.460096,122.691832 156.460096,122.970297 C156.460096,123.360149 156.640595,123.545792 157.019643,123.545792 C157.091842,123.545792 157.57919,123.32302 158.445585,122.840347 C156.839144,125.75495 156.044948,127.964109 156.044948,129.449257 C156.044948,130.804455 156.369846,131.899752 157.055742,132.716584 C157.759689,133.607673 158.734383,134.034653 159.961777,134.034653 C160.792072,134.034653 161.532118,133.830446 162.218015,133.42203 C162.903911,132.99505 163.409308,132.382426 163.734206,131.584158 C163.806406,131.435644 163.842506,131.324257 163.842506,131.212871 Z M172.686958,125.773515 C172.686958,125.402228 172.470359,125.19802 172.055211,125.19802 C172.001062,125.19802 171.874712,125.290842 171.658114,125.457921 C170.665369,126.200495 169.131127,126.850248 167.037339,127.407178 C167.253937,125.309406 167.506636,123.32302 167.813484,121.429455 C167.921784,120.835396 167.975933,120.538366 167.975933,120.519802 C167.975933,120.185644 167.777385,120 167.416386,120 C167.109538,120 166.929039,120.204208 166.856839,120.594059 C166.568041,122.153465 166.315342,123.917079 166.134843,125.92203 C165.918245,127.92698 165.809945,129.597772 165.809945,130.915842 C165.809945,130.990099 165.809945,131.101485 165.827995,131.25 C165.827995,131.417079 165.846045,131.509901 165.846045,131.509901 C165.846045,131.54703 165.827995,131.621287 165.827995,131.714109 C165.809945,131.806931 165.809945,131.862624 165.809945,131.899752 C165.719696,132.029703 165.683596,132.178218 165.683596,132.363861 C165.683596,132.69802 165.737746,132.99505 165.846045,133.292079 C165.990444,133.663366 166.170943,133.830446 166.405592,133.830446 C166.74854,133.830446 166.929039,133.589109 166.929039,133.069307 C166.929039,132.957921 166.910989,132.438119 166.910989,131.472772 C166.892939,130.39604 166.892939,129.764851 166.892939,129.597772 C168.192532,131.045792 169.383826,132.308168 170.44877,133.403465 C170.918068,133.886139 171.224916,134.127475 171.405415,134.127475 C171.802513,134.127475 172.001062,133.923267 172.001062,133.514851 C172.001062,133.384901 171.946912,133.273515 171.856663,133.162129 L170.755618,132.029703 C169.311626,130.544554 168.228632,129.375 167.506636,128.558168 C169.058928,128.131188 170.232171,127.704208 171.062467,127.277228 C172.145461,126.720297 172.686958,126.219059 172.686958,125.773515 Z M186.116086,133.199257 C186.116086,133.125 186.025836,132.99505 185.881437,132.772277 C185.628738,132.456683 185.448239,131.899752 185.30384,131.101485 C185.177491,130.451733 185.123341,129.857673 185.123341,129.300743 C185.123341,128.446782 184.960892,128.001238 184.654044,128.001238 C183.877898,128.001238 182.560255,129.356436 180.701115,132.029703 C180.412316,131.287129 180.267917,130.09901 180.267917,128.465347 C180.267917,127.648515 180.123518,127.221535 179.852769,127.221535 C179.311272,127.221535 177.92143,128.465347 175.647142,130.915842 C175.773491,130.284653 175.899841,129.653465 176.04424,129.003713 C176.206689,128.22401 176.296939,127.574257 176.296939,127.091584 C176.296939,126.014851 176.08034,125.476485 175.665192,125.476485 C175.484693,125.476485 175.322244,125.550743 175.159795,125.680693 C174.943196,125.847772 174.816847,126.033416 174.780747,126.256188 C174.979296,126.738861 175.087595,127.128713 175.087595,127.462871 C175.087595,127.945545 174.925146,128.94802 174.636348,130.433168 C174.383649,131.67698 174.2573,132.605198 174.2573,133.199257 C174.2573,134.053218 174.473898,134.498762 174.943196,134.498762 C175.195895,134.498762 175.412493,134.164604 175.556893,133.514851 C175.737392,132.735149 176.224739,131.881188 177.055035,130.915842 C177.704831,130.136139 178.390727,129.486386 179.094674,129.003713 C179.112723,130.655941 179.311272,131.936881 179.70837,132.846535 C179.943019,133.42203 180.195718,133.700495 180.484516,133.700495 C180.755265,133.700495 181.062113,133.440594 181.387011,132.902228 C182.145107,131.639851 183.011502,130.52599 183.950097,129.542079 C184.238896,132.456683 184.708193,133.904703 185.33994,133.904703 C185.845337,133.904703 186.116086,133.681931 186.116086,133.199257 Z M193.769244,129.467822 C193.769244,129.542079 193.733145,129.653465 193.697045,129.80198 C193.426296,130.581683 193.299947,131.417079 193.299947,132.27104 C193.299947,132.586634 193.317997,132.902228 193.390196,133.199257 C193.498496,133.756188 193.570695,134.034653 193.570695,134.071782 C193.570695,134.424505 193.372147,134.610149 192.993099,134.610149 C192.632101,134.610149 192.433552,134.294554 192.379402,133.700495 C192.343302,133.384901 192.289152,132.883663 192.216953,132.196782 C191.224208,133.42203 190.267563,134.034653 189.347018,134.034653 C188.859671,134.034653 188.444523,133.811881 188.101575,133.329208 C187.758627,132.920792 187.596178,132.438119 187.596178,131.899752 C187.596178,131.045792 187.957176,130.154703 188.715272,129.189356 C188.859671,129.003713 189.130419,128.706683 189.509467,128.335396 C190.700761,127.221535 191.693506,126.664604 192.523801,126.664604 C192.7043,126.664604 192.902849,126.757426 193.101398,126.905941 C193.281897,127.07302 193.390196,127.258663 193.390196,127.462871 C193.390196,127.5 193.372147,127.592822 193.336047,127.722772 C193.480446,128.094059 193.552646,128.52104 193.552646,128.985149 C193.697045,129.170792 193.769244,129.337871 193.769244,129.467822 Z M192.505751,128.94802 C192.505751,128.298267 192.343302,127.964109 192.054504,127.964109 C191.819855,127.964109 191.440807,128.168317 190.93541,128.558168 C190.466112,128.910891 190.087064,129.263614 189.798266,129.616337 C189.04017,130.488861 188.679172,131.231436 188.679172,131.844059 C188.679172,132.493812 188.913821,132.809406 189.419218,132.809406 C190.105114,132.809406 190.772961,132.382426 191.458857,131.491337 C192.144753,130.600248 192.505751,129.764851 192.505751,128.94802 Z M202,128.35396 C202,128.168317 201.90975,127.982673 201.747301,127.79703 C201.584852,127.648515 201.404353,127.555693 201.187754,127.537129 C199.707662,128.446782 198.26367,129.857673 196.837728,131.769802 C196.837728,130.266089 196.964077,128.873762 197.252876,127.592822 C197.307025,127.332921 197.361175,127.128713 197.397275,126.943069 C197.397275,126.720297 197.325075,126.497525 197.180676,126.293317 C197.000177,126.107673 196.819678,125.996287 196.621129,125.996287 C196.47673,125.996287 196.40453,126.107673 196.36843,126.293317 C195.971333,128.205446 195.790833,129.727723 195.790833,130.860149 C195.790833,131.936881 195.899133,132.790842 196.115732,133.459158 C196.260131,133.904703 196.49478,134.127475 196.855778,134.127475 C196.927977,134.127475 197.018227,133.97896 197.144576,133.719059 C197.252876,133.477723 197.343125,133.236386 197.451425,132.976485 C198.101221,131.639851 199.292515,130.340347 201.007255,129.07797 L200.700407,132.215347 C200.628207,132.735149 200.592108,133.143564 200.574058,133.403465 C200.574058,133.607673 200.646257,133.793317 200.790657,133.97896 C200.935056,134.14604 201.115555,134.238861 201.314104,134.238861 C201.458503,134.238861 201.530703,134.127475 201.566802,133.941832 C201.675102,132.939356 201.747301,132.10396 201.819501,131.454208 C201.9278,130.22896 202,129.189356 202,128.35396 Z" id="Alvean-Ekman"></path>
            </g>
        </g>
    </g>
</svg>