<?xml version="1.0" encoding="UTF-8" standalone="no"?>
<svg width="94px" height="15px" viewBox="0 0 94 15" version="1.1" xmlns="http://www.w3.org/2000/svg" xmlns:xlink="http://www.w3.org/1999/xlink">
    <!-- Generator: Sketch 42 (36781) - http://www.bohemiancoding.com/sketch -->
    <title>Emil Ahlbäck</title>
    <desc>Created with Sketch.</desc>
    <defs></defs>
    <g id="Landing-Pages" stroke="none" stroke-width="1" fill="none" fill-rule="evenodd">
        <g id="webpage-with-testimonials" transform="translate(-310.000000, -1117.000000)" fill="#000000">
            <g id="Group-13" transform="translate(211.000000, 966.000000)">
                <path d="M106.77782,162.344086 C106.77782,161.949821 106.597778,161.752688 106.237694,161.752688 C106.039648,161.752688 105.805593,161.949821 105.53553,162.344086 C105.103428,162.917563 104.761348,163.293907 104.473281,163.508961 C104.077188,163.795699 103.555066,163.921147 102.924919,163.921147 C102.024708,163.921147 101.322544,163.65233 100.818426,163.078853 C100.314308,162.523297 100.062249,161.770609 100.062249,160.83871 C100.062249,160.623656 100.080253,160.37276 100.116261,160.103943 C100.476346,159.960573 101.016472,159.799283 101.73664,159.620072 C102.924919,159.333333 103.91515,159.100358 104.707336,158.939068 C104.887378,159.172043 105.121433,159.27957 105.4095,159.27957 C105.553534,159.27957 105.805593,159.136201 106.201686,158.849462 C106.579774,158.580645 106.77782,158.311828 106.77782,158.043011 C106.77782,157.702509 106.597778,157.523297 106.237694,157.523297 C106.075656,157.523297 105.769584,157.55914 105.337483,157.630824 C104.077188,157.863799 102.456809,158.258065 100.440337,158.81362 C100.998468,157.523297 101.376556,156.663082 101.592607,156.232975 C101.73664,155.982079 101.86267,155.731183 102.006704,155.480287 C102.186746,155.121864 102.294771,154.870968 102.294771,154.727599 C102.294771,154.548387 102.20475,154.27957 102.060716,153.939068 C103.411032,153.473118 104.527294,153.240143 105.391496,153.240143 C105.499521,153.240143 105.625551,153.275986 105.805593,153.329749 C105.967631,153.401434 106.111664,153.419355 106.21969,153.419355 C106.579774,153.419355 106.77782,153.258065 106.77782,152.935484 C106.77782,152.702509 106.687799,152.523297 106.507757,152.415771 C106.201686,152.200717 105.805593,152.09319 105.337483,152.09319 C103.843133,152.129032 102.20475,152.577061 100.440337,153.455197 C99.756177,153.81362 99.4140969,154.11828 99.4140969,154.387097 C99.4140969,154.763441 99.5941391,154.942652 99.9722275,154.942652 C100.044244,154.942652 100.530358,154.727599 101.39456,154.261649 C99.7921854,157.075269 99,159.207885 99,160.641577 C99,161.949821 99.3240758,163.007168 100.008236,163.795699 C100.7104,164.655914 101.682628,165.0681 102.906914,165.0681 C103.735108,165.0681 104.473281,164.870968 105.157441,164.476703 C105.841601,164.064516 106.345719,163.473118 106.669795,162.702509 C106.741812,162.55914 106.77782,162.451613 106.77782,162.344086 Z M120.623061,164.261649 C120.623061,164.189964 120.53304,164.064516 120.389006,163.849462 C120.136947,163.544803 119.956905,163.007168 119.812871,162.236559 C119.686842,161.609319 119.632829,161.035842 119.632829,160.498208 C119.632829,159.673835 119.470791,159.243728 119.164719,159.243728 C118.390538,159.243728 117.076231,160.551971 115.221797,163.132616 C114.933729,162.415771 114.789695,161.268817 114.789695,159.691756 C114.789695,158.903226 114.645662,158.491039 114.375599,158.491039 C113.835472,158.491039 112.449148,159.691756 110.180617,162.057348 C110.306646,161.448029 110.432676,160.83871 110.576709,160.21147 C110.738747,159.458781 110.828768,158.831541 110.828768,158.365591 C110.828768,157.326165 110.612718,156.806452 110.198621,156.806452 C110.018579,156.806452 109.856541,156.878136 109.694503,157.003584 C109.478452,157.164875 109.352423,157.344086 109.316414,157.55914 C109.514461,158.02509 109.622486,158.401434 109.622486,158.724014 C109.622486,159.189964 109.460448,160.157706 109.172381,161.591398 C108.920322,162.792115 108.794292,163.688172 108.794292,164.261649 C108.794292,165.086022 109.010343,165.516129 109.478452,165.516129 C109.730511,165.516129 109.946562,165.193548 110.090596,164.566308 C110.270638,163.81362 110.756752,162.989247 111.584945,162.057348 C112.233097,161.304659 112.917257,160.677419 113.619422,160.21147 C113.637426,161.806452 113.835472,163.043011 114.231565,163.921147 C114.46562,164.476703 114.717679,164.74552 115.005746,164.74552 C115.275809,164.74552 115.581881,164.494624 115.905957,163.97491 C116.662134,162.756272 117.526336,161.681004 118.462555,160.731183 C118.750622,163.544803 119.218732,164.942652 119.84888,164.942652 C120.352998,164.942652 120.623061,164.727599 120.623061,164.261649 Z M125.412182,152.218638 C125.412182,151.46595 125.10611,151.071685 124.511971,151 C124.043861,151.16129 123.791802,151.430108 123.755794,151.824373 C123.755794,151.949821 123.773798,152.057348 123.773798,152.164875 C123.773798,152.792115 124.115878,153.168459 124.818043,153.293907 C125.214135,153.258065 125.412182,152.899642 125.412182,152.218638 Z M124.439954,158.97491 C124.439954,158.401434 124.097874,158.078853 123.431718,158.043011 C123.251676,158.150538 123.161655,158.293907 123.161655,158.455197 C123.161655,158.508961 123.179659,158.65233 123.215667,158.867384 C122.71155,161.340502 122.477495,162.792115 122.477495,163.258065 C122.477495,163.831541 122.567516,164.27957 122.747558,164.637993 C122.981613,165.086022 123.233672,165.318996 123.521739,165.318996 C123.73779,165.318996 123.863819,165.193548 123.863819,164.942652 C123.863819,164.655914 123.73779,164.369176 123.503735,164.11828 C123.503735,163.18638 123.701781,161.878136 124.115878,160.193548 C124.241908,159.727599 124.349933,159.333333 124.439954,158.97491 Z M130.093277,152.612903 C130.093277,152.397849 129.949243,152.146953 129.67918,151.896057 C129.391113,151.645161 129.175062,151.519713 128.99502,151.519713 C128.850986,151.519713 128.760965,151.645161 128.688948,151.878136 C127.896763,154.512545 127.518675,156.967742 127.518675,159.243728 C127.518675,160.408602 127.536679,161.358423 127.608696,162.075269 C127.50067,162.25448 127.446658,162.469534 127.446658,162.738351 C127.446658,162.810036 127.446658,163.007168 127.464662,163.34767 C127.464662,163.706093 127.482666,163.903226 127.482666,163.97491 C127.482666,164.243728 127.590691,164.566308 127.84275,164.942652 C128.094809,165.336918 128.346868,165.551971 128.598927,165.551971 C128.77897,165.551971 128.868991,165.462366 128.868991,165.283154 C128.688948,163.849462 128.616932,162.021505 128.616932,159.817204 C128.616932,158.903226 128.688948,157.774194 128.868991,156.448029 C129.013024,155.21147 129.193066,154.207885 129.391113,153.437276 L129.517142,153.329749 C129.895231,153.150538 130.093277,152.899642 130.093277,152.612903 Z M148.259529,165.53405 C148.259529,165.83871 148.043478,166 147.647386,166 C147.503352,166 147.32331,165.784946 147.143268,165.37276 C146.927217,164.960573 146.837196,164.673835 146.837196,164.494624 C146.837196,164.422939 146.8552,164.333333 146.909213,164.225806 C146.801188,163.795699 146.621145,163.168459 146.405095,162.326165 C145.450871,162.057348 144.33461,161.913978 143.038307,161.913978 C142.408159,161.913978 141.525953,161.985663 140.373683,162.09319 C140.157633,163.132616 140.067612,163.921147 140.067612,164.422939 C140.067612,164.620072 140.085616,164.835125 140.121624,165.0681 C140.013599,165.354839 139.833557,165.498208 139.599502,165.498208 C139.131392,165.498208 138.915342,165.157706 138.915342,164.512545 C138.95135,164.243728 139.005363,163.885305 139.07738,163.419355 C139.113388,163.168459 139.185405,162.756272 139.29343,162.200717 C138.861329,162.272401 138.339207,162.362007 137.745068,162.433692 C137.348975,162.433692 137.168933,162.272401 137.168933,161.913978 C137.168933,161.591398 137.384984,161.412186 137.835089,161.340502 C138.087148,161.304659 138.645279,161.232975 139.509481,161.143369 C140.013599,158.939068 140.931814,156.179211 142.28213,152.88172 C142.606206,152.039427 142.894273,151.609319 143.146332,151.609319 C143.470408,151.609319 143.794484,152.021505 144.136564,152.810036 C146.027006,157.326165 147.359318,161.322581 148.133499,164.835125 C148.205516,165.229391 148.259529,165.462366 148.259529,165.53405 Z M146.081019,161.16129 C145.756943,160.086022 145.432867,159.11828 145.1448,158.240143 C144.442636,156.197133 143.77648,154.548387 143.164336,153.293907 C142.102088,155.874552 141.25589,158.437276 140.607738,161.017921 C141.81402,160.910394 142.660218,160.856631 143.146332,160.856631 C144.046543,160.856631 145.01877,160.964158 146.081019,161.16129 Z M156.109366,165.21147 C156.037349,164.727599 156.001341,164.351254 155.965332,164.064516 C155.857307,162.953405 155.821299,162.129032 155.821299,161.573477 C155.821299,161.376344 155.821299,161.071685 155.857307,160.677419 C155.893315,160.301075 155.91132,160.050179 155.91132,159.924731 C155.91132,159.673835 155.839303,159.458781 155.695269,159.243728 C155.533231,159.046595 155.353189,158.939068 155.137138,158.939068 C154.777054,158.939068 154.056886,159.369176 152.994637,160.229391 C152.058418,161 151.302241,161.734767 150.726106,162.433692 C150.942157,160.301075 151.392262,157.451613 152.112431,153.867384 C152.274468,152.989247 152.36449,152.523297 152.36449,152.469534 C152.36449,152.25448 152.292473,152.039427 152.148439,151.824373 C152.004405,151.62724 151.824363,151.519713 151.644321,151.519713 C151.518292,151.519713 151.42827,151.609319 151.374258,151.752688 C151.338249,151.842294 151.284237,152.075269 151.21222,152.469534 L150.87014,154.476703 C150.40203,157.075269 150.167975,158.437276 150.167975,158.544803 C149.897912,160.247312 149.771883,161.716846 149.771883,162.935484 C149.771883,163.007168 149.771883,163.168459 149.789887,163.383513 L149.789887,163.831541 C149.789887,163.867384 149.771883,163.97491 149.771883,164.154122 C149.735874,164.333333 149.735874,164.44086 149.735874,164.476703 C149.735874,164.673835 149.807891,164.853047 149.969929,165.032258 C150.131967,165.21147 150.312009,165.301075 150.52806,165.301075 C150.618081,165.301075 150.762115,165.0681 150.960161,164.637993 C151.068186,164.369176 151.194216,164.100358 151.338249,163.81362 C151.914384,162.72043 153.04865,161.609319 154.75905,160.462366 L154.885079,163.634409 C154.921088,164.888889 155.245164,165.53405 155.839303,165.53405 C156.019345,165.53405 156.109366,165.426523 156.109366,165.21147 Z M161.16855,152.612903 C161.16855,152.397849 161.024516,152.146953 160.754453,151.896057 C160.466386,151.645161 160.250335,151.519713 160.070293,151.519713 C159.926259,151.519713 159.836238,151.645161 159.764221,151.878136 C158.972036,154.512545 158.593948,156.967742 158.593948,159.243728 C158.593948,160.408602 158.611952,161.358423 158.683969,162.075269 C158.575943,162.25448 158.521931,162.469534 158.521931,162.738351 C158.521931,162.810036 158.521931,163.007168 158.539935,163.34767 C158.539935,163.706093 158.557939,163.903226 158.557939,163.97491 C158.557939,164.243728 158.665964,164.566308 158.918023,164.942652 C159.170082,165.336918 159.422141,165.551971 159.6742,165.551971 C159.854242,165.551971 159.944264,165.462366 159.944264,165.283154 C159.764221,163.849462 159.692205,162.021505 159.692205,159.817204 C159.692205,158.903226 159.764221,157.774194 159.944264,156.448029 C160.088297,155.21147 160.268339,154.207885 160.466386,153.437276 L160.592415,153.329749 C160.970504,153.150538 161.16855,152.899642 161.16855,152.612903 Z M169.504501,160.713262 C169.504501,161.412186 169.198429,162.129032 168.60429,162.88172 C168.028156,163.580645 167.307987,164.172043 166.407776,164.673835 C165.921663,164.942652 165.381536,165.175627 164.805401,165.354839 C164.193258,165.53405 163.761157,165.641577 163.473089,165.641577 C163.022984,165.641577 162.752921,165.444444 162.644896,165.050179 C162.680904,164.835125 162.842942,164.637993 163.149014,164.458781 C163.076997,163.670251 163.040988,162.845878 163.040988,161.985663 C163.040988,158.921147 163.329056,155.892473 163.941199,152.899642 C164.121241,151.985663 164.391304,151.519713 164.733384,151.519713 C165.129477,151.519713 165.327523,151.78853 165.327523,152.308244 C165.327523,152.523297 165.273511,152.88172 165.18349,153.34767 C165.093469,153.885305 165.003448,154.261649 164.931431,154.44086 C164.84141,154.655914 164.71538,154.799283 164.571346,154.870968 C164.319287,156.358423 164.15725,158.473118 164.049224,161.232975 C165.453553,159.494624 166.641831,158.616487 167.650067,158.616487 C168.226202,158.616487 168.694311,158.81362 169.018387,159.207885 C169.342463,159.602151 169.504501,160.103943 169.504501,160.713262 Z M168.478261,160.731183 C168.478261,160.103943 168.172189,159.781362 167.560046,159.781362 C167.23597,159.781362 166.803869,159.996416 166.299751,160.408602 C165.489561,161.053763 164.859414,161.806452 164.391304,162.702509 C164.247271,162.989247 164.175254,163.258065 164.175254,163.491039 C164.175254,163.741935 164.175254,164.046595 164.211262,164.405018 C165.147481,164.189964 166.047692,163.724014 166.947903,163.043011 C167.956139,162.272401 168.478261,161.501792 168.478261,160.731183 Z M176.97625,155.444444 C176.97625,154.763441 176.742195,154.422939 176.274085,154.422939 C176.076039,154.422939 175.895997,154.494624 175.733959,154.637993 C175.571921,154.781362 175.499904,154.960573 175.499904,155.139785 C175.445892,155.247312 175.427887,155.318996 175.427887,155.354839 C175.427887,155.695341 175.589925,155.892473 175.932005,155.928315 C176.040031,156 176.184064,156.035842 176.382111,156.035842 C176.526144,156.035842 176.670178,155.982079 176.796208,155.856631 C176.904233,155.749104 176.97625,155.605735 176.97625,155.444444 Z M174.275618,155.336918 C174.275618,155.086022 174.185597,154.870968 174.005554,154.691756 C173.825512,154.512545 173.609462,154.422939 173.393411,154.422939 C173.213369,154.422939 173.069335,154.530466 172.925302,154.709677 C172.74526,154.888889 172.673243,155.086022 172.673243,155.265233 C172.673243,155.462366 172.763264,155.641577 172.96131,155.802867 C173.141352,155.982079 173.357403,156.071685 173.573453,156.071685 C173.753495,156.071685 173.915533,156 174.077571,155.83871 C174.203601,155.695341 174.275618,155.53405 174.275618,155.336918 Z M177.336334,160.659498 C177.336334,160.731183 177.300326,160.83871 177.264317,160.982079 C176.994254,161.734767 176.868224,162.541219 176.868224,163.365591 C176.868224,163.670251 176.886229,163.97491 176.958246,164.261649 C177.066271,164.799283 177.138288,165.0681 177.138288,165.103943 C177.138288,165.444444 176.940241,165.623656 176.562153,165.623656 C176.202069,165.623656 176.004022,165.318996 175.95001,164.74552 C175.914001,164.44086 175.859989,163.956989 175.787972,163.293907 C174.79774,164.476703 173.843517,165.0681 172.925302,165.0681 C172.439188,165.0681 172.025091,164.853047 171.683011,164.387097 C171.340931,163.992832 171.178893,163.526882 171.178893,163.007168 C171.178893,162.182796 171.538977,161.322581 172.295154,160.390681 C172.439188,160.21147 172.709251,159.924731 173.08734,159.566308 C174.275618,158.491039 175.265849,157.953405 176.094043,157.953405 C176.274085,157.953405 176.472132,158.043011 176.670178,158.18638 C176.85022,158.34767 176.958246,158.526882 176.958246,158.724014 C176.958246,158.759857 176.940241,158.849462 176.904233,158.97491 C177.048267,159.333333 177.120283,159.74552 177.120283,160.193548 C177.264317,160.37276 177.336334,160.53405 177.336334,160.659498 Z M176.076039,160.157706 C176.076039,159.530466 175.914001,159.207885 175.625934,159.207885 C175.391879,159.207885 175.01379,159.405018 174.509672,159.781362 C174.041563,160.121864 173.663474,160.462366 173.375407,160.802867 C172.61923,161.645161 172.259146,162.362007 172.259146,162.953405 C172.259146,163.580645 172.493201,163.885305 172.997319,163.885305 C173.681479,163.885305 174.347635,163.473118 175.031795,162.612903 C175.715955,161.752688 176.076039,160.946237 176.076039,160.157706 Z M184.339973,163.329749 C184.339973,163.18638 184.285961,163.060932 184.177935,162.917563 C184.06991,162.774194 183.94388,162.702509 183.817851,162.702509 C183.673817,162.702509 183.493775,162.827957 183.277725,163.060932 C182.989657,163.329749 182.791611,163.526882 182.683586,163.65233 C182.35951,163.903226 181.945413,164.028674 181.441295,164.028674 C181.045202,164.028674 180.757135,163.885305 180.541084,163.580645 C180.325034,163.275986 180.235012,162.88172 180.235012,162.415771 C180.235012,161.071685 180.847156,159.942652 182.107451,159.046595 C182.323501,159.207885 182.647577,159.27957 183.079678,159.27957 C183.475771,159.27957 183.763838,159.046595 183.925876,158.544803 C183.907872,158.007168 183.6018,157.72043 183.007661,157.72043 C182.467535,157.72043 182.01743,157.845878 181.621337,158.078853 C180.901168,158.544803 180.307029,159.172043 179.856924,159.978495 C179.388814,160.802867 179.172764,161.681004 179.172764,162.594982 C179.172764,163.34767 179.388814,163.956989 179.856924,164.458781 C180.307029,164.942652 180.901168,165.193548 181.621337,165.193548 C182.269489,165.193548 182.91764,164.924731 183.565792,164.387097 C184.06991,163.97491 184.339973,163.616487 184.339973,163.329749 Z M193,157.09319 C193,156.734767 192.783949,156.537634 192.369853,156.537634 C192.31584,156.537634 192.18981,156.62724 191.97376,156.78853 C190.983528,157.505376 189.45317,158.132616 187.364681,158.670251 C187.580732,156.645161 187.832791,154.727599 188.138862,152.899642 C188.246888,152.326165 188.3009,152.039427 188.3009,152.021505 C188.3009,151.698925 188.102854,151.519713 187.74277,151.519713 C187.436698,151.519713 187.256656,151.716846 187.184639,152.09319 C186.896572,153.598566 186.644513,155.301075 186.46447,157.236559 C186.24842,159.172043 186.140395,160.784946 186.140395,162.057348 C186.140395,162.129032 186.140395,162.236559 186.158399,162.379928 C186.158399,162.541219 186.176403,162.630824 186.176403,162.630824 C186.176403,162.666667 186.158399,162.738351 186.158399,162.827957 C186.140395,162.917563 186.140395,162.971326 186.140395,163.007168 C186.050373,163.132616 186.014365,163.275986 186.014365,163.455197 C186.014365,163.777778 186.068378,164.064516 186.176403,164.351254 C186.320437,164.709677 186.500479,164.870968 186.734534,164.870968 C187.076614,164.870968 187.256656,164.637993 187.256656,164.136201 C187.256656,164.028674 187.238652,163.526882 187.238652,162.594982 C187.220647,161.555556 187.220647,160.946237 187.220647,160.784946 C188.516951,162.182796 189.705229,163.401434 190.767477,164.458781 C191.235587,164.924731 191.541659,165.157706 191.721701,165.157706 C192.117794,165.157706 192.31584,164.960573 192.31584,164.566308 C192.31584,164.44086 192.261827,164.333333 192.171806,164.225806 L191.073549,163.132616 C189.633212,161.698925 188.552959,160.569892 187.832791,159.781362 C189.381153,159.369176 190.551427,158.956989 191.379621,158.544803 C192.459874,158.007168 193,157.523297 193,157.09319 Z" id="Emil-Ahlbäck"></path>
            </g>
        </g>
    </g>
</svg>