<?xml version="1.0" encoding="UTF-8" standalone="no"?>
<svg width="124px" height="16px" viewBox="0 0 124 16" version="1.1" xmlns="http://www.w3.org/2000/svg" xmlns:xlink="http://www.w3.org/1999/xlink">
    <!-- Generator: Sketch 42 (36781) - http://www.bohemiancoding.com/sketch -->
    <title>Hermerson Carlin</title>
    <desc>Created with Sketch.</desc>
    <defs></defs>
    <g id="Landing-Pages" stroke="none" stroke-width="1" fill="none" fill-rule="evenodd">
        <g id="webpage-with-testimonials" transform="translate(-1029.000000, -1114.000000)" fill="#000000">
            <g id="Group-18" transform="translate(932.000000, 965.000000)">
                <path d="M107.28091,150.984073 C107.28091,150.67463 107.101174,150.474403 106.741702,150.401593 C106.418177,150.474403 106.23844,150.620023 106.202493,150.82025 C105.896942,152.458476 105.645311,154.169511 105.429627,155.971559 C103.919843,156.499431 102.176402,156.827076 100.199304,156.954494 C100.361067,155.370876 100.57675,154.005688 100.828381,152.858931 C101.026091,152.021615 101.16988,151.457338 101.277721,151.147895 C101.583273,150.255973 101.745036,149.7281 101.745036,149.564278 C101.745036,149.200228 101.547326,149 101.16988,149 C100.900275,149 100.648645,149.36405 100.397014,150.09215 C99.7499638,151.930603 99.2826497,154.224118 99.031019,156.954494 C98.3120742,156.918089 97.7728656,156.881684 97.4493405,156.845279 C97.143789,156.845279 97,157.045506 97,157.445961 C97,157.810011 97.2696043,158.010239 97.8447601,158.028441 C98.276127,158.064846 98.6355994,158.083049 98.9411509,158.083049 C98.8692564,159.102389 98.8153356,160.085324 98.7793883,161.068259 C98.7614147,161.341297 98.7254675,161.923777 98.6895202,162.833902 C98.653573,163.562002 98.6355994,164.05347 98.6355994,164.326507 C98.653573,164.672355 98.8153356,164.872582 99.1388607,164.945392 C99.4983331,164.836177 99.7140165,164.617747 99.7499638,164.290102 C99.8937527,161.541524 100.019568,159.466439 100.091463,158.064846 C101.745036,157.973834 103.470503,157.682594 105.303812,157.191126 C105.19597,158.174061 105.124076,158.683732 105.124076,158.738339 C104.962313,160.449374 104.890419,161.996587 104.890419,163.416382 C104.890419,163.98066 104.908393,164.362912 104.980287,164.56314 C105.070155,164.817975 105.267865,164.963595 105.573416,165 C105.860994,164.92719 106.058704,164.690557 106.148572,164.2719 C106.148572,164.19909 106.130599,163.98066 106.112625,163.598407 C106.094651,163.197952 106.094651,162.870307 106.094651,162.59727 C106.094651,160.230944 106.346282,157.318544 106.849543,153.823663 C107.065227,152.422071 107.209016,151.47554 107.28091,150.984073 Z M115.908248,163.725825 C115.908248,164.19909 115.351065,164.453925 114.272648,164.453925 C112.870706,164.453925 111.864183,163.780432 111.25308,162.433447 C111.109291,162.469852 110.929555,162.488055 110.749819,162.488055 C110.120742,162.488055 109.617481,162.37884 109.258008,162.142207 C108.808668,161.887372 108.592984,161.614334 108.592984,161.323094 C108.592984,160.922639 108.772721,160.722412 109.132193,160.722412 C109.186114,160.722412 109.36585,160.831627 109.671402,161.050057 C109.976953,161.250284 110.282505,161.341297 110.588056,161.341297 C110.695898,161.341297 110.821713,161.341297 110.929555,161.323094 C110.875634,161.031854 110.857661,160.758817 110.857661,160.485779 C110.857661,159.612059 111.073344,158.756542 111.504711,157.937429 C111.989999,157.009101 112.601102,156.535836 113.33802,156.535836 C113.78736,156.535836 114.236701,156.790671 114.704015,157.263936 C115.02754,157.627986 115.207276,158.046644 115.207276,158.519909 C115.207276,159.248009 114.901725,159.939704 114.308595,160.631399 C113.769387,161.268487 113.104363,161.759954 112.313524,162.105802 C112.672996,162.870307 113.230178,163.25256 114.021018,163.25256 C114.18278,163.25256 114.434411,163.234357 114.77591,163.161547 C115.099435,163.125142 115.297145,163.10694 115.387013,163.10694 C115.530802,163.10694 115.638643,163.17975 115.746485,163.307167 C115.854327,163.452787 115.908248,163.580205 115.908248,163.725825 Z M114.146833,158.610922 C114.146833,158.392491 114.038991,158.192264 113.859255,158.010239 C113.661545,157.846416 113.463835,157.755404 113.266126,157.755404 C112.906653,157.755404 112.601102,158.046644 112.349471,158.592719 C112.09784,159.138794 111.972025,159.721274 111.972025,160.303754 C111.972025,160.522184 111.989999,160.777019 112.025946,161.031854 C112.601102,160.777019 113.104363,160.431172 113.517756,159.976109 C113.931149,159.557452 114.146833,159.102389 114.146833,158.610922 Z M123.565009,157.464164 C123.547036,157.263936 123.475141,157.063709 123.331352,156.881684 C123.151616,156.699659 122.97188,156.608646 122.792144,156.608646 C122.073199,156.608646 121.372228,156.881684 120.68923,157.427759 C119.970286,157.992036 119.413103,158.683732 118.981736,159.502844 C118.909842,159.138794 118.802,158.629124 118.658211,157.937429 C118.514422,157.282139 118.244818,156.936291 117.849398,156.936291 C117.75953,156.936291 117.687636,157.009101 117.615741,157.154721 C117.525873,157.300341 117.489926,157.427759 117.489926,157.536974 C117.489926,157.828214 117.525873,158.228669 117.615741,158.720137 C117.651689,158.974972 117.75953,159.229807 117.975214,159.448237 C118.083056,159.976109 118.15495,160.503982 118.15495,161.031854 C118.15495,161.505119 118.101029,162.01479 118.011161,162.560865 C117.921293,163.015927 117.849398,163.32537 117.813451,163.507395 C117.813451,163.76223 117.885346,163.962457 118.029135,164.180887 C118.172924,164.399317 118.334686,164.526735 118.532396,164.526735 C118.766053,164.526735 118.963763,163.90785 119.125525,162.688282 C119.413103,160.358362 120.347732,158.847554 121.893463,158.119454 C122.109146,158.192264 122.216988,158.228669 122.252935,158.228669 C122.432671,158.228669 122.666328,158.155859 122.989854,158.010239 C123.3673,157.846416 123.565009,157.664391 123.565009,157.464164 Z M136.272358,163.270762 C136.272358,163.197952 136.18249,163.070535 136.038701,162.852105 C135.787071,162.542662 135.607334,161.996587 135.463545,161.213879 C135.33773,160.576792 135.283809,159.994312 135.283809,159.448237 C135.283809,158.610922 135.122047,158.174061 134.816495,158.174061 C134.04363,158.174061 132.731555,159.502844 130.880273,162.124005 C130.592695,161.395904 130.448906,160.230944 130.448906,158.629124 C130.448906,157.828214 130.305117,157.409556 130.035512,157.409556 C129.496304,157.409556 128.112335,158.629124 125.847659,161.031854 C125.973474,160.412969 126.09929,159.794084 126.243079,159.156997 C126.404841,158.392491 126.494709,157.755404 126.494709,157.282139 C126.494709,156.226394 126.279026,155.698521 125.865633,155.698521 C125.685897,155.698521 125.524134,155.771331 125.362371,155.898749 C125.146688,156.062571 125.020873,156.244596 124.984925,156.463026 C125.182635,156.936291 125.290477,157.318544 125.290477,157.646189 C125.290477,158.119454 125.128714,159.102389 124.841136,160.558589 C124.589506,161.778157 124.46369,162.688282 124.46369,163.270762 C124.46369,164.108077 124.679374,164.544937 125.146688,164.544937 C125.398319,164.544937 125.614002,164.217292 125.757791,163.580205 C125.937527,162.8157 126.422815,161.978385 127.249601,161.031854 C127.896652,160.267349 128.579649,159.630262 129.28062,159.156997 C129.298594,160.777019 129.496304,162.032992 129.891723,162.924915 C130.12538,163.489192 130.377011,163.76223 130.664589,163.76223 C130.934193,163.76223 131.239745,163.507395 131.56327,162.979522 C132.318162,161.741752 133.180896,160.649602 134.115524,159.684869 C134.403102,162.542662 134.870416,163.962457 135.499493,163.962457 C136.002754,163.962457 136.272358,163.744027 136.272358,163.270762 Z M144.540223,163.725825 C144.540223,164.19909 143.983041,164.453925 142.904624,164.453925 C141.502682,164.453925 140.496159,163.780432 139.885056,162.433447 C139.741267,162.469852 139.561531,162.488055 139.381794,162.488055 C138.752718,162.488055 138.249456,162.37884 137.889984,162.142207 C137.440644,161.887372 137.22496,161.614334 137.22496,161.323094 C137.22496,160.922639 137.404696,160.722412 137.764169,160.722412 C137.81809,160.722412 137.997826,160.831627 138.303377,161.050057 C138.608929,161.250284 138.91448,161.341297 139.220032,161.341297 C139.327874,161.341297 139.453689,161.341297 139.561531,161.323094 C139.50761,161.031854 139.489636,160.758817 139.489636,160.485779 C139.489636,159.612059 139.70532,158.756542 140.136686,157.937429 C140.621974,157.009101 141.233077,156.535836 141.969996,156.535836 C142.419336,156.535836 142.868677,156.790671 143.335991,157.263936 C143.659516,157.627986 143.839252,158.046644 143.839252,158.519909 C143.839252,159.248009 143.533701,159.939704 142.940571,160.631399 C142.401363,161.268487 141.736339,161.759954 140.945499,162.105802 C141.304972,162.870307 141.862154,163.25256 142.652993,163.25256 C142.814756,163.25256 143.066386,163.234357 143.407885,163.161547 C143.73141,163.125142 143.92912,163.10694 144.018988,163.10694 C144.162777,163.10694 144.270619,163.17975 144.378461,163.307167 C144.486302,163.452787 144.540223,163.580205 144.540223,163.725825 Z M142.778809,158.610922 C142.778809,158.392491 142.670967,158.192264 142.491231,158.010239 C142.293521,157.846416 142.095811,157.755404 141.898101,157.755404 C141.538629,157.755404 141.233077,158.046644 140.981447,158.592719 C140.729816,159.138794 140.604001,159.721274 140.604001,160.303754 C140.604001,160.522184 140.621974,160.777019 140.657921,161.031854 C141.233077,160.777019 141.736339,160.431172 142.149732,159.976109 C142.563125,159.557452 142.778809,159.102389 142.778809,158.610922 Z M152.196985,157.464164 C152.179011,157.263936 152.107117,157.063709 151.963328,156.881684 C151.783592,156.699659 151.603856,156.608646 151.424119,156.608646 C150.705175,156.608646 150.004204,156.881684 149.321206,157.427759 C148.602261,157.992036 148.045079,158.683732 147.613712,159.502844 C147.541818,159.138794 147.433976,158.629124 147.290187,157.937429 C147.146398,157.282139 146.876794,156.936291 146.481374,156.936291 C146.391506,156.936291 146.319612,157.009101 146.247717,157.154721 C146.157849,157.300341 146.121902,157.427759 146.121902,157.536974 C146.121902,157.828214 146.157849,158.228669 146.247717,158.720137 C146.283664,158.974972 146.391506,159.229807 146.607189,159.448237 C146.715031,159.976109 146.786926,160.503982 146.786926,161.031854 C146.786926,161.505119 146.733005,162.01479 146.643137,162.560865 C146.553269,163.015927 146.481374,163.32537 146.445427,163.507395 C146.445427,163.76223 146.517321,163.962457 146.66111,164.180887 C146.804899,164.399317 146.966662,164.526735 147.164372,164.526735 C147.398029,164.526735 147.595739,163.90785 147.757501,162.688282 C148.045079,160.358362 148.979707,158.847554 150.525438,158.119454 C150.741122,158.192264 150.848964,158.228669 150.884911,158.228669 C151.064647,158.228669 151.298304,158.155859 151.621829,158.010239 C151.999275,157.846416 152.196985,157.664391 152.196985,157.464164 Z M157.678939,157.136519 C157.625018,156.972696 157.589071,156.845279 157.571097,156.754266 C157.481229,156.426621 157.355414,156.244596 157.193651,156.189989 C156.870126,156.098976 156.600522,156.044369 156.402812,156.044369 C155.899551,156.044369 155.576026,156.189989 155.468184,156.481229 C154.641397,156.790671 154.245978,157.336746 154.245978,158.137656 C154.245978,158.465301 154.299899,158.792947 154.425714,159.138794 C154.569503,159.502844 154.695318,159.848692 154.821133,160.176337 C155.342368,161.668942 155.611973,162.560865 155.611973,162.8157 C155.611973,163.39818 155.180606,163.671217 154.317872,163.671217 C154.15611,163.671217 153.922453,163.653015 153.616901,163.598407 C153.293376,163.562002 153.11364,163.5438 153.041745,163.5438 C152.736194,163.5438 152.592405,163.780432 152.592405,164.235495 C152.592405,164.63595 153.149587,164.85438 154.263951,164.85438 C154.946949,164.85438 155.504131,164.726962 155.935498,164.49033 C156.438759,164.180887 156.69039,163.744027 156.69039,163.143345 C156.69039,162.67008 156.49268,161.887372 156.115234,160.777019 C155.953472,160.340159 155.791709,159.903299 155.611973,159.466439 C155.396289,158.920364 155.306421,158.556314 155.306421,158.392491 C155.306421,157.864619 155.593999,157.591581 156.205102,157.591581 C156.312944,157.591581 156.474706,157.609784 156.69039,157.627986 C156.906073,157.664391 157.067836,157.664391 157.175678,157.664391 C157.481229,157.664391 157.642992,157.500569 157.678939,157.136519 Z M164.562835,159.866894 C164.562835,160.576792 164.472967,161.159272 164.293231,161.614334 C164.23931,161.759954 164.167416,161.978385 164.059574,162.269625 C163.879838,162.761092 163.556313,163.197952 163.053051,163.598407 C162.54979,163.998862 162.082476,164.217292 161.615162,164.217292 C160.86027,164.217292 160.249167,163.889647 159.781852,163.197952 C159.332512,162.59727 159.116829,161.887372 159.116829,161.068259 C159.116829,160.321957 159.296565,159.575654 159.656037,158.847554 C160.033483,158.064846 160.518771,157.518771 161.129874,157.191126 C161.453399,157.027304 161.687056,156.863481 161.830845,156.681456 C161.90274,156.663254 161.992608,156.645051 162.082476,156.645051 C162.118423,156.645051 162.262212,156.681456 162.477895,156.754266 C163.088998,156.990899 163.59226,157.391354 163.987679,157.973834 C164.365125,158.556314 164.562835,159.193402 164.562835,159.866894 Z M163.520365,160.139932 C163.520365,159.284414 163.268735,158.701934 162.80142,158.374289 C162.513843,158.374289 162.262212,158.301479 162.082476,158.192264 C161.453399,158.228669 160.968111,158.556314 160.608639,159.175199 C160.303087,159.721274 160.159298,160.358362 160.159298,161.068259 C160.159298,161.632537 160.285114,162.0876 160.554718,162.45165 C160.824322,162.852105 161.165821,163.03413 161.597188,163.03413 C162.064502,163.03413 162.495869,162.688282 162.927236,161.996587 C163.322655,161.359499 163.520365,160.740614 163.520365,160.139932 Z M172.758806,158.519909 C172.758806,158.337884 172.668938,158.155859 172.507175,157.973834 C172.345412,157.828214 172.165676,157.737201 171.949993,157.718999 C170.476156,158.610922 169.038266,159.994312 167.61835,161.86917 C167.61835,160.394767 167.744166,159.029579 168.031744,157.773606 C168.085665,157.518771 168.139585,157.318544 168.175533,157.136519 C168.175533,156.918089 168.103638,156.699659 167.959849,156.499431 C167.780113,156.317406 167.600377,156.208191 167.402667,156.208191 C167.258878,156.208191 167.186984,156.317406 167.151036,156.499431 C166.755617,158.374289 166.575881,159.866894 166.575881,160.977247 C166.575881,162.032992 166.683722,162.870307 166.899406,163.525597 C167.043195,163.962457 167.276852,164.180887 167.636324,164.180887 C167.708219,164.180887 167.798087,164.035267 167.923902,163.780432 C168.031744,163.5438 168.121612,163.307167 168.229454,163.052332 C168.876504,161.741752 170.062763,160.467577 171.770257,159.229807 L171.464705,162.30603 C171.392811,162.8157 171.356863,163.216155 171.33889,163.47099 C171.33889,163.671217 171.410784,163.853242 171.554573,164.035267 C171.698362,164.19909 171.878098,164.290102 172.075808,164.290102 C172.219597,164.290102 172.291492,164.180887 172.327439,163.998862 C172.43528,163.015927 172.507175,162.196815 172.579069,161.559727 C172.686911,160.358362 172.758806,159.339022 172.758806,158.519909 Z M188.52167,162.415245 C188.52167,162.269625 188.449775,162.105802 188.305986,161.94198 C188.162197,161.796359 188.018408,161.723549 187.87462,161.723549 C187.802725,161.723549 187.533121,161.887372 187.029859,162.178612 C185.987389,162.797497 185.052761,163.10694 184.208001,163.10694 C182.698217,163.10694 181.961299,162.01479 181.961299,159.794084 C181.961299,158.174061 182.302798,156.554039 183.003769,154.934016 C183.776634,153.113766 184.693289,152.203641 185.735759,152.203641 C186.04131,152.203641 186.328888,152.312856 186.580519,152.531286 C186.63444,152.585893 186.814176,152.804323 187.137701,153.186576 C187.389332,153.514221 187.605015,153.659841 187.748804,153.659841 C188.162197,153.659841 188.377881,153.459613 188.377881,153.040956 C188.377881,152.822526 188.216118,152.513083 187.910567,152.112628 C187.263516,151.348123 186.598493,150.96587 185.879548,150.96587 C184.369764,150.96587 183.093637,152.094425 182.051167,154.315131 C181.188433,156.189989 180.757066,157.992036 180.757066,159.721274 C180.757066,161.050057 181.008697,162.124005 181.511958,162.943117 C182.105088,163.926052 183.003769,164.41752 184.190028,164.41752 C184.5495,164.41752 185.070735,164.308305 185.753732,164.108077 C186.43673,163.90785 187.029859,163.671217 187.551094,163.379977 C187.92854,163.161547 188.144224,163.052332 188.180171,163.03413 C188.395854,162.852105 188.52167,162.651877 188.52167,162.415245 Z M196.501957,159.612059 C196.501957,159.684869 196.46601,159.794084 196.430062,159.939704 C196.160458,160.704209 196.034643,161.523322 196.034643,162.360637 C196.034643,162.67008 196.052616,162.979522 196.124511,163.270762 C196.232353,163.816837 196.304247,164.089875 196.304247,164.12628 C196.304247,164.472127 196.106537,164.654152 195.729091,164.654152 C195.369619,164.654152 195.171909,164.34471 195.117988,163.76223 C195.082041,163.452787 195.02812,162.96132 194.956226,162.287827 C193.967676,163.489192 193.015075,164.089875 192.09842,164.089875 C191.613132,164.089875 191.199739,163.871445 190.85824,163.39818 C190.516742,162.997725 190.354979,162.52446 190.354979,161.996587 C190.354979,161.159272 190.714451,160.285552 191.469343,159.339022 C191.613132,159.156997 191.882737,158.865757 192.260183,158.501706 C193.446442,157.409556 194.434991,156.863481 195.261777,156.863481 C195.441513,156.863481 195.639223,156.954494 195.836933,157.100114 C196.016669,157.263936 196.124511,157.445961 196.124511,157.646189 C196.124511,157.682594 196.106537,157.773606 196.07059,157.901024 C196.214379,158.265074 196.286273,158.683732 196.286273,159.138794 C196.430062,159.320819 196.501957,159.484642 196.501957,159.612059 Z M195.243803,159.102389 C195.243803,158.465301 195.082041,158.137656 194.794463,158.137656 C194.560806,158.137656 194.18336,158.337884 193.680099,158.720137 C193.212784,159.065984 192.835338,159.411832 192.547761,159.757679 C191.792869,160.613197 191.433396,161.341297 191.433396,161.94198 C191.433396,162.579067 191.667053,162.88851 192.170315,162.88851 C192.853312,162.88851 193.518336,162.469852 194.201334,161.596132 C194.884331,160.722412 195.243803,159.903299 195.243803,159.102389 Z M204.644006,157.464164 C204.626033,157.263936 204.554138,157.063709 204.410349,156.881684 C204.230613,156.699659 204.050877,156.608646 203.871141,156.608646 C203.152196,156.608646 202.451225,156.881684 201.768227,157.427759 C201.049283,157.992036 200.4921,158.683732 200.060733,159.502844 C199.988839,159.138794 199.880997,158.629124 199.737208,157.937429 C199.593419,157.282139 199.323815,156.936291 198.928395,156.936291 C198.838527,156.936291 198.766633,157.009101 198.694738,157.154721 C198.60487,157.300341 198.568923,157.427759 198.568923,157.536974 C198.568923,157.828214 198.60487,158.228669 198.694738,158.720137 C198.730686,158.974972 198.838527,159.229807 199.054211,159.448237 C199.162052,159.976109 199.233947,160.503982 199.233947,161.031854 C199.233947,161.505119 199.180026,162.01479 199.090158,162.560865 C199.00029,163.015927 198.928395,163.32537 198.892448,163.507395 C198.892448,163.76223 198.964343,163.962457 199.108132,164.180887 C199.251921,164.399317 199.413683,164.526735 199.611393,164.526735 C199.84505,164.526735 200.04276,163.90785 200.204522,162.688282 C200.4921,160.358362 201.426729,158.847554 202.97246,158.119454 C203.188143,158.192264 203.295985,158.228669 203.331932,158.228669 C203.511668,158.228669 203.745325,158.155859 204.068851,158.010239 C204.446297,157.846416 204.644006,157.664391 204.644006,157.464164 Z M208.562255,151.439135 C208.562255,151.220705 208.418466,150.96587 208.148862,150.711035 C207.861284,150.4562 207.645601,150.328783 207.465865,150.328783 C207.322076,150.328783 207.232208,150.4562 207.160313,150.692833 C206.369474,153.368601 205.992028,155.862344 205.992028,158.174061 C205.992028,159.357224 206.010001,160.321957 206.081896,161.050057 C205.974054,161.232082 205.920133,161.450512 205.920133,161.723549 C205.920133,161.796359 205.920133,161.996587 205.938107,162.342435 C205.938107,162.706485 205.956081,162.906712 205.956081,162.979522 C205.956081,163.25256 206.063922,163.580205 206.315553,163.962457 C206.567184,164.362912 206.818814,164.581342 207.070445,164.581342 C207.250181,164.581342 207.340049,164.49033 207.340049,164.308305 C207.160313,162.852105 207.088419,160.995449 207.088419,158.756542 C207.088419,157.828214 207.160313,156.681456 207.340049,155.334471 C207.483838,154.078498 207.663574,153.059158 207.861284,152.276451 L207.9871,152.167235 C208.364546,151.98521 208.562255,151.730375 208.562255,151.439135 Z M213.163502,151.03868 C213.163502,150.274175 212.85795,149.87372 212.264821,149.80091 C211.797507,149.964733 211.545876,150.23777 211.509929,150.638225 C211.509929,150.765643 211.527903,150.874858 211.527903,150.984073 C211.527903,151.62116 211.869401,152.003413 212.570373,152.13083 C212.965792,152.094425 213.163502,151.730375 213.163502,151.03868 Z M212.192927,157.901024 C212.192927,157.318544 211.851428,156.990899 211.186404,156.954494 C211.006668,157.063709 210.9168,157.209329 210.9168,157.373151 C210.9168,157.427759 210.934773,157.573379 210.97072,157.791809 C210.467459,160.303754 210.233802,161.778157 210.233802,162.251422 C210.233802,162.833902 210.32367,163.288965 210.503406,163.653015 C210.737063,164.108077 210.988694,164.34471 211.276272,164.34471 C211.491955,164.34471 211.617771,164.217292 211.617771,163.962457 C211.617771,163.671217 211.491955,163.379977 211.258298,163.125142 C211.258298,162.178612 211.456008,160.849829 211.869401,159.138794 C211.995217,158.665529 212.103058,158.265074 212.192927,157.901024 Z M221,158.519909 C221,158.337884 220.910132,158.155859 220.748369,157.973834 C220.586607,157.828214 220.406871,157.737201 220.191187,157.718999 C218.71735,158.610922 217.279461,159.994312 215.859545,161.86917 C215.859545,160.394767 215.98536,159.029579 216.272938,157.773606 C216.326859,157.518771 216.38078,157.318544 216.416727,157.136519 C216.416727,156.918089 216.344833,156.699659 216.201044,156.499431 C216.021307,156.317406 215.841571,156.208191 215.643861,156.208191 C215.500072,156.208191 215.428178,156.317406 215.392231,156.499431 C214.996811,158.374289 214.817075,159.866894 214.817075,160.977247 C214.817075,162.032992 214.924917,162.870307 215.1406,163.525597 C215.284389,163.962457 215.518046,164.180887 215.877518,164.180887 C215.949413,164.180887 216.039281,164.035267 216.165096,163.780432 C216.272938,163.5438 216.362806,163.307167 216.470648,163.052332 C217.117698,161.741752 218.303957,160.467577 220.011451,159.229807 L219.705899,162.30603 C219.634005,162.8157 219.598058,163.216155 219.580084,163.47099 C219.580084,163.671217 219.651979,163.853242 219.795768,164.035267 C219.939556,164.19909 220.119293,164.290102 220.317002,164.290102 C220.460791,164.290102 220.532686,164.180887 220.568633,163.998862 C220.676475,163.015927 220.748369,162.196815 220.820264,161.559727 C220.928106,160.358362 221,159.339022 221,158.519909 Z" id="Hermerson-Carlin"></path>
            </g>
        </g>
    </g>
</svg>