<?xml version="1.0" encoding="UTF-8" standalone="no"?>
<svg width="92px" height="18px" viewBox="0 0 92 18" version="1.1" xmlns="http://www.w3.org/2000/svg" xmlns:xlink="http://www.w3.org/1999/xlink">
    <!-- Generator: Sketch 42 (36781) - http://www.bohemiancoding.com/sketch -->
    <title>Nilufar Bava</title>
    <desc>Created with Sketch.</desc>
    <defs></defs>
    <g id="Landing-Pages" stroke="none" stroke-width="1" fill="none" fill-rule="evenodd">
        <g id="webpage-with-testimonials" transform="translate(-1030.000000, -1356.000000)" fill="#000000">
            <g id="Group-19" transform="translate(931.000000, 1224.000000)">
                <path d="M108.73459,133.380478 C108.73459,133.237052 108.680408,133.111554 108.590106,132.986056 C108.481743,132.878486 108.37338,132.806773 108.246957,132.806773 C107.994111,132.806773 107.813506,132.950199 107.705143,133.237052 C107.380055,134.061753 107.109148,135.316733 106.874362,136.966135 C106.657636,138.507968 106.549274,139.798805 106.549274,140.838645 C106.549274,142.003984 106.603455,142.954183 106.729878,143.689243 C104.363958,140.89243 102.792697,138.723108 101.998037,137.181275 C101.546525,136.338645 101.311739,135.800797 101.293679,135.585657 C101.3298,135.442231 101.365921,135.334661 101.365921,135.227092 C101.365921,134.850598 101.167256,134.653386 100.787986,134.653386 C100.643502,134.653386 100.499018,134.743028 100.372595,134.922311 C100.191991,135.065737 100.101688,135.209163 100.101688,135.35259 C100.101688,135.406375 100.119749,135.478088 100.17393,135.585657 C99.3792697,139.314741 99,142.667331 99,145.643426 L99,147.221116 C99,147.364542 99.0361209,147.507968 99.1444837,147.651394 C99.2528465,147.758964 99.3792697,147.812749 99.5237534,147.812749 C99.7585395,147.812749 99.9210836,147.651394 100.011386,147.346614 C100.228112,146.360558 100.354535,145.625498 100.354535,145.105578 C100.354535,145.051793 100.318414,144.962151 100.282293,144.854582 L100.119749,144.854582 C100.17393,142.631474 100.426777,140.139442 100.896349,137.360558 C102.377307,139.888446 104.273655,142.47012 106.621516,145.123506 C106.765999,145.302789 106.910483,145.374502 107.018846,145.374502 C107.18139,145.517928 107.307813,145.571713 107.416176,145.571713 C107.759325,145.571713 107.939929,145.39243 107.939929,145.033865 C107.903808,144.854582 107.885748,144.693227 107.885748,144.585657 C107.705143,143.187251 107.614841,142.093625 107.614841,141.268924 C107.614841,138.507968 107.939929,136.051793 108.590106,133.936255 C108.680408,133.649402 108.73459,133.47012 108.73459,133.380478 Z M113.484492,133.219124 C113.484492,132.466135 113.177464,132.071713 112.581468,132 C112.111896,132.161355 111.85905,132.430279 111.822929,132.824701 C111.822929,132.950199 111.840989,133.057769 111.840989,133.165339 C111.840989,133.792829 112.184138,134.169323 112.888496,134.294821 C113.285826,134.258964 113.484492,133.900398 113.484492,133.219124 Z M112.509227,139.978088 C112.509227,139.404382 112.166078,139.081673 111.497841,139.045817 C111.317236,139.153386 111.226934,139.296813 111.226934,139.458167 C111.226934,139.511952 111.244994,139.655378 111.281115,139.870518 C110.775422,142.344622 110.540636,143.796813 110.540636,144.262948 C110.540636,144.836653 110.630938,145.284861 110.811543,145.643426 C111.046329,146.091633 111.299176,146.324701 111.588143,146.324701 C111.804868,146.324701 111.931292,146.199203 111.931292,145.948207 C111.931292,145.661355 111.804868,145.374502 111.570082,145.123506 C111.570082,144.191235 111.768748,142.88247 112.184138,141.197211 C112.310561,140.731076 112.418924,140.336653 112.509227,139.978088 Z M118.180212,133.613546 C118.180212,133.398406 118.035728,133.14741 117.764821,132.896414 C117.475854,132.645418 117.259128,132.51992 117.078524,132.51992 C116.93404,132.51992 116.843738,132.645418 116.771496,132.878486 C115.976835,135.513944 115.597566,137.97012 115.597566,140.247012 C115.597566,141.412351 115.615626,142.36255 115.687868,143.079681 C115.579505,143.258964 115.525324,143.474104 115.525324,143.743028 C115.525324,143.814741 115.525324,144.011952 115.543384,144.35259 C115.543384,144.711155 115.561445,144.908367 115.561445,144.98008 C115.561445,145.249004 115.669808,145.571713 115.922654,145.948207 C116.175501,146.342629 116.428347,146.557769 116.681194,146.557769 C116.861798,146.557769 116.952101,146.468127 116.952101,146.288845 C116.771496,144.854582 116.699254,143.025896 116.699254,140.820717 C116.699254,139.906375 116.771496,138.776892 116.952101,137.450199 C117.096584,136.213147 117.277189,135.209163 117.475854,134.438247 L117.602277,134.330677 C117.981547,134.151394 118.180212,133.900398 118.180212,133.613546 Z M126.722811,139.691235 C126.722811,139.368526 126.560267,139.189243 126.253239,139.189243 C126.108755,139.189243 125.982332,139.296813 125.855909,139.511952 C125.061249,140.856574 124.284649,141.986056 123.489988,142.918327 C122.40636,144.209163 121.503337,144.836653 120.798979,144.836653 C120.618375,144.836653 120.528072,144.711155 120.528072,144.460159 C120.528072,144.35259 120.564193,144.047809 120.654495,143.545817 C120.997644,141.609562 121.178249,140.444223 121.178249,140.049801 C121.178249,139.404382 121.015705,139.081673 120.726737,139.081673 C120.582254,139.081673 120.45583,139.153386 120.347468,139.278884 C120.239105,139.422311 120.184923,139.547809 120.184923,139.691235 C120.184923,139.727092 120.184923,139.798805 120.202984,139.870518 L120.202984,140.067729 C120.202984,140.569721 120.076561,141.430279 119.841775,142.649402 C119.588928,143.796813 119.480565,144.549801 119.480565,144.890438 C119.480565,145.249004 119.606989,145.535857 119.859835,145.750996 C120.094621,145.966135 120.419709,146.073705 120.81704,146.073705 C121.720063,146.073705 123.1649,144.908367 125.151551,142.577689 C124.970946,143.492032 124.862583,144.460159 124.826463,145.482072 C124.73616,145.60757 124.700039,145.733068 124.700039,145.858566 C124.700039,146.001992 124.772281,146.109562 124.916765,146.217131 C125.043188,146.306773 125.187672,146.360558 125.332155,146.360558 C125.765607,146.360558 126.000393,146.109562 126.000393,145.643426 C126.000393,145.60757 125.964272,145.446215 125.928151,145.159363 C125.89203,144.908367 125.873969,144.729084 125.873969,144.621514 C125.873969,144.478088 125.89203,144.209163 125.946211,143.814741 C126.180997,142.021912 126.397723,140.838645 126.596388,140.282869 C126.66863,140.085657 126.722811,139.888446 126.722811,139.691235 Z M136.060071,132.932271 C136.060071,132.663347 135.825285,132.51992 135.373773,132.51992 C135.084806,132.51992 134.705536,132.645418 134.199843,132.896414 C133.658029,133.14741 133.278759,133.36255 133.043973,133.577689 C131.436592,134.976096 130.407146,137.557769 129.973695,141.286853 C129.648606,141.376494 129.431881,141.430279 129.341578,141.448207 C128.980369,141.51992 128.709462,141.555777 128.546918,141.555777 C128.185709,141.555777 128.023165,141.770916 128.023165,142.165339 C128.023165,142.308765 128.059285,142.452191 128.167648,142.559761 C128.276011,142.667331 128.402434,142.721116 128.546918,142.721116 C128.727523,142.721116 129.160974,142.649402 129.829211,142.488048 C129.39576,146.055777 128.926188,148.081673 128.402434,148.583665 C128.294071,148.673307 128.203769,148.762948 128.131527,148.85259 C128.059285,148.924303 128.023165,149.049801 128.023165,149.229084 C128.023165,149.408367 128.077346,149.569721 128.22183,149.749004 C128.348253,149.910359 128.510797,150 128.691402,150 C128.872006,150 129.088732,149.766932 129.341578,149.336653 C129.991755,148.081673 130.497448,145.715139 130.894778,142.237052 C132.628583,141.842629 133.874755,141.573705 134.597173,141.448207 C134.705536,141.484064 134.795838,141.501992 134.904201,141.501992 C135.120927,141.501992 135.319592,141.430279 135.536317,141.286853 C135.734982,141.179283 135.843345,141 135.843345,140.766932 C135.843345,140.390438 135.64468,140.193227 135.26541,140.193227 C134.904201,140.193227 134.542992,140.247012 134.181782,140.318725 C132.755006,140.659363 131.707499,140.910359 131.039262,141.053785 C131.310169,138.705179 131.888104,136.822709 132.791127,135.388446 C133.441303,134.348606 134.416569,133.756972 135.680801,133.631474 C135.933647,133.488048 136.060071,133.25498 136.060071,132.932271 Z M142.742442,141.663347 C142.742442,141.73506 142.706321,141.842629 142.6702,141.986056 C142.399293,142.739044 142.27287,143.545817 142.27287,144.370518 C142.27287,144.675299 142.290931,144.98008 142.363172,145.266932 C142.471535,145.804781 142.543777,146.073705 142.543777,146.109562 C142.543777,146.450199 142.345112,146.629482 141.965842,146.629482 C141.604633,146.629482 141.405968,146.324701 141.351786,145.750996 C141.315665,145.446215 141.261484,144.962151 141.189242,144.298805 C140.195917,145.482072 139.238712,146.073705 138.317629,146.073705 C137.829996,146.073705 137.414605,145.858566 137.071457,145.39243 C136.728308,144.998008 136.565764,144.531873 136.565764,144.011952 C136.565764,143.187251 136.926973,142.326693 137.685512,141.394422 C137.829996,141.215139 138.100903,140.928287 138.480173,140.569721 C139.672163,139.494024 140.665489,138.956175 141.49627,138.956175 C141.676875,138.956175 141.87554,139.045817 142.074205,139.189243 C142.25481,139.350598 142.363172,139.52988 142.363172,139.727092 C142.363172,139.762948 142.345112,139.85259 142.308991,139.978088 C142.453475,140.336653 142.525717,140.749004 142.525717,141.197211 C142.6702,141.376494 142.742442,141.537849 142.742442,141.663347 Z M141.47821,141.161355 C141.47821,140.533865 141.315665,140.211155 141.026698,140.211155 C140.791912,140.211155 140.412642,140.408367 139.906949,140.784861 C139.437377,141.125498 139.058108,141.466135 138.76914,141.806773 C138.010601,142.649402 137.649391,143.366534 137.649391,143.958167 C137.649391,144.585657 137.884177,144.890438 138.38987,144.890438 C139.076168,144.890438 139.744405,144.478088 140.430703,143.61753 C141.117,142.756972 141.47821,141.950199 141.47821,141.161355 Z M150.923832,139.547809 C150.905771,139.350598 150.83353,139.153386 150.689046,138.974104 C150.508441,138.794821 150.327837,138.705179 150.147232,138.705179 C149.424814,138.705179 148.720455,138.974104 148.034158,139.511952 C147.311739,140.067729 146.751865,140.749004 146.318414,141.555777 C146.246172,141.197211 146.137809,140.695219 145.993325,140.013944 C145.848842,139.368526 145.577935,139.027888 145.180605,139.027888 C145.090302,139.027888 145.01806,139.099602 144.945819,139.243028 C144.855516,139.386454 144.819395,139.511952 144.819395,139.619522 C144.819395,139.906375 144.855516,140.300797 144.945819,140.784861 C144.98194,141.035857 145.090302,141.286853 145.307028,141.501992 C145.415391,142.021912 145.487633,142.541833 145.487633,143.061753 C145.487633,143.527888 145.433451,144.02988 145.343149,144.567729 C145.252846,145.015936 145.180605,145.320717 145.144484,145.5 C145.144484,145.750996 145.216726,145.948207 145.361209,146.163347 C145.505693,146.378486 145.668237,146.503984 145.866902,146.503984 C146.101688,146.503984 146.300353,145.894422 146.462898,144.693227 C146.751865,142.398406 147.691009,140.910359 149.244209,140.193227 C149.460934,140.26494 149.569297,140.300797 149.605418,140.300797 C149.786023,140.300797 150.020809,140.229084 150.345897,140.085657 C150.725167,139.924303 150.923832,139.74502 150.923832,139.547809 Z M166.618375,142.021912 C166.618375,142.649402 166.473891,143.133466 166.221044,143.474104 C165.625049,144.227092 164.595603,144.87251 163.114645,145.410359 C162.446408,145.661355 161.218296,146.01992 159.448371,146.503984 C158.762073,146.683267 158.346682,146.772908 158.23832,146.772908 C158.129957,146.772908 158.021594,146.719124 157.913231,146.629482 C157.768748,146.521912 157.696506,146.396414 157.696506,146.23506 C157.696506,145.912351 157.822929,145.715139 158.111896,145.625498 L158.960738,145.410359 C158.960738,145.302789 158.960738,144.24502 158.978799,142.25498 L158.978799,138.472112 C158.978799,137.719124 158.996859,136.517928 159.05104,134.832669 L158.093836,134.922311 C157.660385,134.922311 157.443659,134.743028 157.443659,134.366534 C157.443659,134.133466 157.497841,133.99004 157.606203,133.918327 C157.696506,133.846614 157.87711,133.810757 158.166078,133.7749 C160.387515,133.595618 161.868473,133.505976 162.590891,133.505976 C163.385552,133.505976 164.053789,133.649402 164.577542,133.918327 C165.245779,134.276892 165.588928,134.850598 165.588928,135.603586 C165.588928,136.750996 164.126031,138.113546 161.218296,139.727092 C162.735375,139.798805 163.819003,139.924303 164.48724,140.085657 C165.895956,140.462151 166.618375,141.10757 166.618375,142.021912 Z M164.396938,135.675299 C164.396938,134.994024 163.746761,134.653386 162.446408,134.653386 C161.615626,134.653386 160.857087,134.689243 160.170789,134.7251 C160.134668,135.549801 160.116608,136.320717 160.116608,137.01992 L160.116608,139.045817 C162.970161,137.629482 164.396938,136.5 164.396938,135.675299 Z M165.480565,142.290837 C165.480565,141.573705 164.758147,141.143426 163.349431,141 L160.062426,140.713147 L160.062426,145.105578 C163.674519,144.191235 165.480565,143.258964 165.480565,142.290837 Z M174.655281,141.663347 C174.655281,141.73506 174.61916,141.842629 174.583039,141.986056 C174.312132,142.739044 174.185709,143.545817 174.185709,144.370518 C174.185709,144.675299 174.203769,144.98008 174.276011,145.266932 C174.384374,145.804781 174.456616,146.073705 174.456616,146.109562 C174.456616,146.450199 174.257951,146.629482 173.878681,146.629482 C173.517472,146.629482 173.318806,146.324701 173.264625,145.750996 C173.228504,145.446215 173.174323,144.962151 173.102081,144.298805 C172.108755,145.482072 171.151551,146.073705 170.230467,146.073705 C169.742835,146.073705 169.327444,145.858566 168.984295,145.39243 C168.641146,144.998008 168.478602,144.531873 168.478602,144.011952 C168.478602,143.187251 168.839812,142.326693 169.598351,141.394422 C169.742835,141.215139 170.013742,140.928287 170.393011,140.569721 C171.585002,139.494024 172.578327,138.956175 173.409109,138.956175 C173.589713,138.956175 173.788378,139.045817 173.987044,139.189243 C174.167648,139.350598 174.276011,139.52988 174.276011,139.727092 C174.276011,139.762948 174.257951,139.85259 174.22183,139.978088 C174.366313,140.336653 174.438555,140.749004 174.438555,141.197211 C174.583039,141.376494 174.655281,141.537849 174.655281,141.663347 Z M173.391048,141.161355 C173.391048,140.533865 173.228504,140.211155 172.939537,140.211155 C172.704751,140.211155 172.325481,140.408367 171.819788,140.784861 C171.350216,141.125498 170.970946,141.466135 170.681979,141.806773 C169.923439,142.649402 169.56223,143.366534 169.56223,143.958167 C169.56223,144.585657 169.797016,144.890438 170.302709,144.890438 C170.989007,144.890438 171.657244,144.478088 172.343541,143.61753 C173.029839,142.756972 173.391048,141.950199 173.391048,141.161355 Z M183.721633,138.956175 C183.721633,138.561753 183.504908,138.346614 183.107578,138.346614 C182.764429,138.346614 182.583824,138.59761 182.565764,139.081673 C180.615234,141.304781 179.206517,143.115538 178.321555,144.549801 C178.086769,143.258964 177.888104,142.075697 177.74362,141 C177.671378,140.444223 177.599136,139.960159 177.544955,139.547809 C177.400471,139.260956 177.237927,139.099602 177.021201,139.099602 C176.894778,139.099602 176.768355,139.153386 176.659992,139.260956 C176.551629,139.368526 176.497448,139.511952 176.497448,139.655378 C176.497448,139.798805 176.56969,140.426295 176.714174,141.501992 C176.94896,143.187251 177.219867,144.549801 177.544955,145.571713 C177.707499,146.145418 177.960346,146.450199 178.303494,146.450199 C178.52022,146.450199 178.755006,146.181275 179.025913,145.661355 C179.784452,144.191235 180.958382,142.559761 182.583824,140.784861 C182.981154,140.336653 183.234001,140.067729 183.306243,139.960159 C183.57715,139.601594 183.721633,139.278884 183.721633,138.956175 Z M191,141.663347 C191,141.73506 190.963879,141.842629 190.927758,141.986056 C190.656851,142.739044 190.530428,143.545817 190.530428,144.370518 C190.530428,144.675299 190.548488,144.98008 190.62073,145.266932 C190.729093,145.804781 190.801335,146.073705 190.801335,146.109562 C190.801335,146.450199 190.60267,146.629482 190.2234,146.629482 C189.862191,146.629482 189.663526,146.324701 189.609344,145.750996 C189.573223,145.446215 189.519042,144.962151 189.4468,144.298805 C188.453475,145.482072 187.49627,146.073705 186.575186,146.073705 C186.087554,146.073705 185.672163,145.858566 185.329015,145.39243 C184.985866,144.998008 184.823322,144.531873 184.823322,144.011952 C184.823322,143.187251 185.184531,142.326693 185.94307,141.394422 C186.087554,141.215139 186.358461,140.928287 186.737731,140.569721 C187.929721,139.494024 188.923047,138.956175 189.753828,138.956175 C189.934433,138.956175 190.133098,139.045817 190.331763,139.189243 C190.512367,139.350598 190.62073,139.52988 190.62073,139.727092 C190.62073,139.762948 190.60267,139.85259 190.566549,139.978088 C190.711033,140.336653 190.783274,140.749004 190.783274,141.197211 C190.927758,141.376494 191,141.537849 191,141.663347 Z M189.735768,141.161355 C189.735768,140.533865 189.573223,140.211155 189.284256,140.211155 C189.04947,140.211155 188.6702,140.408367 188.164507,140.784861 C187.694935,141.125498 187.315665,141.466135 187.026698,141.806773 C186.268159,142.649402 185.906949,143.366534 185.906949,143.958167 C185.906949,144.585657 186.141735,144.890438 186.647428,144.890438 C187.333726,144.890438 188.001963,144.478088 188.688261,143.61753 C189.374558,142.756972 189.735768,141.950199 189.735768,141.161355 Z" id="Nilufar-Bava"></path>
            </g>
        </g>
    </g>
</svg>