<?xml version="1.0" encoding="UTF-8" standalone="no"?>
<svg width="105px" height="19px" viewBox="0 0 105 19" version="1.1" xmlns="http://www.w3.org/2000/svg" xmlns:xlink="http://www.w3.org/1999/xlink">
    <!-- Generator: Sketch 42 (36781) - http://www.bohemiancoding.com/sketch -->
    <title>Shuhei Kagawa</title>
    <desc>Created with Sketch.</desc>
    <defs></defs>
    <g id="Landing-Pages" stroke="none" stroke-width="1" fill="none" fill-rule="evenodd">
        <g id="webpage-with-testimonials" transform="translate(-669.000000, -1376.000000)" fill="#000000">
            <g id="Group-16" transform="translate(571.000000, 1226.000000)">
                <path d="M104.252567,153.101313 C104.252567,152.620075 103.965092,152.370544 103.408111,152.370544 C102.940965,152.370544 102.581622,152.566604 102.366016,152.940901 C101.287988,153.368668 100.425565,153.903377 99.7428131,154.509381 C98.7905544,155.347092 98.3234086,156.238274 98.3234086,157.165103 C98.3234086,157.967167 98.5749487,158.590994 99.113963,159.036585 C99.3655031,159.250469 99.9224846,159.571295 100.820842,159.963415 C101.575462,160.319887 102.042608,160.569418 102.258214,160.712008 C102.581622,160.997186 102.743326,161.353659 102.743326,161.79925 C102.743326,162.494371 102.348049,163.082552 101.593429,163.581614 C100.89271,164.045028 100.191992,164.258912 99.5092402,164.258912 C99.4014374,164.258912 99.2397331,164.241088 99.0241273,164.169794 C98.8085216,164.134146 98.6647844,164.098499 98.5569815,164.098499 C98.3952772,164.098499 98.2695072,164.169794 98.1617043,164.294559 C98.0539014,164.437148 98,164.561914 98,164.704503 C98,165.203565 98.4851129,165.453096 99.4553388,165.453096 C100.461499,165.453096 101.413758,165.13227 102.330082,164.490619 C103.336242,163.777674 103.839322,162.904315 103.839322,161.906191 C103.839322,161.121951 103.569815,160.4803 103.066735,159.999062 C102.743326,159.713884 102.150411,159.375235 101.270021,158.983114 C100.551335,158.662289 100.120123,158.448405 99.976386,158.32364 C99.599076,158.056285 99.4194045,157.699812 99.4194045,157.236398 C99.4194045,156.363039 99.976386,155.560976 101.090349,154.830206 C101.898871,154.313321 102.815195,153.921201 103.839322,153.67167 C104.10883,153.600375 104.252567,153.422139 104.252567,153.101313 Z M112.265914,165.239212 C112.194045,164.757974 112.158111,164.383677 112.122177,164.098499 C112.014374,162.993433 111.978439,162.173546 111.978439,161.621013 C111.978439,161.424953 111.978439,161.121951 112.014374,160.729831 C112.050308,160.355535 112.068275,160.106004 112.068275,159.981238 C112.068275,159.731707 111.996407,159.517824 111.852669,159.30394 C111.690965,159.10788 111.511294,159.000938 111.295688,159.000938 C110.936345,159.000938 110.217659,159.428705 109.157598,160.28424 C108.223306,161.050657 107.468686,161.781426 106.893737,162.476548 C107.109343,160.355535 107.558522,157.521576 108.277207,153.956848 C108.438912,153.08349 108.528747,152.620075 108.528747,152.566604 C108.528747,152.35272 108.456879,152.138837 108.313142,151.924953 C108.169405,151.728893 107.989733,151.621951 107.810062,151.621951 C107.684292,151.621951 107.594456,151.711069 107.540554,151.853659 C107.50462,151.942777 107.450719,152.174484 107.37885,152.566604 L107.037474,154.562852 C106.570329,157.14728 106.336756,158.501876 106.336756,158.608818 C106.067248,160.302064 105.941478,161.763602 105.941478,162.97561 C105.941478,163.046904 105.941478,163.207317 105.959446,163.421201 L105.959446,163.866792 C105.959446,163.902439 105.941478,164.009381 105.941478,164.187617 C105.905544,164.365854 105.905544,164.472795 105.905544,164.508443 C105.905544,164.704503 105.977413,164.882739 106.139117,165.060976 C106.300821,165.239212 106.480493,165.32833 106.696099,165.32833 C106.785934,165.32833 106.929671,165.096623 107.12731,164.668856 C107.235113,164.401501 107.360883,164.134146 107.50462,163.848968 C108.079569,162.761726 109.211499,161.65666 110.918378,160.515947 L111.044148,163.670732 C111.080082,164.918386 111.403491,165.560038 111.996407,165.560038 C112.176078,165.560038 112.265914,165.453096 112.265914,165.239212 Z M121.321355,158.751407 C121.321355,158.430582 121.159651,158.252345 120.854209,158.252345 C120.710472,158.252345 120.584702,158.359287 120.458932,158.573171 C119.668378,159.909944 118.895791,161.032833 118.105236,161.959662 C117.027207,163.242964 116.12885,163.866792 115.428131,163.866792 C115.24846,163.866792 115.158624,163.742026 115.158624,163.492495 C115.158624,163.385553 115.194559,163.082552 115.284394,162.58349 C115.62577,160.658537 115.805441,159.5 115.805441,159.10788 C115.805441,158.466229 115.643737,158.145403 115.356263,158.145403 C115.212526,158.145403 115.086756,158.216698 114.978953,158.341463 C114.87115,158.484053 114.817248,158.608818 114.817248,158.751407 C114.817248,158.787054 114.817248,158.858349 114.835216,158.929644 L114.835216,159.125704 C114.835216,159.624765 114.709446,160.4803 114.475873,161.692308 C114.224333,162.833021 114.11653,163.581614 114.11653,163.920263 C114.11653,164.276735 114.2423,164.561914 114.49384,164.775797 C114.727413,164.989681 115.050821,165.096623 115.446099,165.096623 C116.344456,165.096623 117.781828,163.938086 119.758214,161.621013 C119.578542,162.530019 119.470739,163.492495 119.434805,164.508443 C119.344969,164.633208 119.309035,164.757974 119.309035,164.882739 C119.309035,165.025328 119.380903,165.13227 119.524641,165.239212 C119.650411,165.32833 119.794148,165.381801 119.937885,165.381801 C120.369097,165.381801 120.602669,165.13227 120.602669,164.668856 C120.602669,164.633208 120.566735,164.472795 120.530801,164.187617 C120.494867,163.938086 120.476899,163.75985 120.476899,163.652908 C120.476899,163.510319 120.494867,163.242964 120.548768,162.850844 C120.782341,161.06848 120.997947,159.89212 121.195585,159.339587 C121.267454,159.143527 121.321355,158.947467 121.321355,158.751407 Z M129.155031,165.239212 C129.083162,164.757974 129.047228,164.383677 129.011294,164.098499 C128.903491,162.993433 128.867556,162.173546 128.867556,161.621013 C128.867556,161.424953 128.867556,161.121951 128.903491,160.729831 C128.939425,160.355535 128.957392,160.106004 128.957392,159.981238 C128.957392,159.731707 128.885524,159.517824 128.741786,159.30394 C128.580082,159.10788 128.400411,159.000938 128.184805,159.000938 C127.825462,159.000938 127.106776,159.428705 126.046715,160.28424 C125.112423,161.050657 124.357803,161.781426 123.782854,162.476548 C123.99846,160.355535 124.447639,157.521576 125.166324,153.956848 C125.328029,153.08349 125.417864,152.620075 125.417864,152.566604 C125.417864,152.35272 125.345996,152.138837 125.202259,151.924953 C125.058522,151.728893 124.87885,151.621951 124.699179,151.621951 C124.573409,151.621951 124.483573,151.711069 124.429671,151.853659 C124.393737,151.942777 124.339836,152.174484 124.267967,152.566604 L123.926591,154.562852 C123.459446,157.14728 123.225873,158.501876 123.225873,158.608818 C122.956366,160.302064 122.830595,161.763602 122.830595,162.97561 C122.830595,163.046904 122.830595,163.207317 122.848563,163.421201 L122.848563,163.866792 C122.848563,163.902439 122.830595,164.009381 122.830595,164.187617 C122.794661,164.365854 122.794661,164.472795 122.794661,164.508443 C122.794661,164.704503 122.86653,164.882739 123.028234,165.060976 C123.189938,165.239212 123.36961,165.32833 123.585216,165.32833 C123.675051,165.32833 123.818789,165.096623 124.016427,164.668856 C124.12423,164.401501 124.25,164.134146 124.393737,163.848968 C124.968686,162.761726 126.100616,161.65666 127.807495,160.515947 L127.933265,163.670732 C127.969199,164.918386 128.292608,165.560038 128.885524,165.560038 C129.065195,165.560038 129.155031,165.453096 129.155031,165.239212 Z M137.797228,164.74015 C137.797228,165.203565 137.240246,165.453096 136.162218,165.453096 C134.76078,165.453096 133.75462,164.793621 133.143737,163.474672 C133,163.510319 132.820329,163.528143 132.640657,163.528143 C132.011807,163.528143 131.508727,163.421201 131.149384,163.189493 C130.700205,162.939962 130.4846,162.672608 130.4846,162.38743 C130.4846,161.99531 130.664271,161.79925 131.023614,161.79925 C131.077515,161.79925 131.257187,161.906191 131.562628,162.120075 C131.86807,162.316135 132.173511,162.405253 132.478953,162.405253 C132.586756,162.405253 132.712526,162.405253 132.820329,162.38743 C132.766427,162.102251 132.74846,161.834897 132.74846,161.567542 C132.74846,160.712008 132.964066,159.874296 133.395277,159.072233 C133.88039,158.163227 134.491273,157.699812 135.227926,157.699812 C135.677105,157.699812 136.126283,157.949343 136.593429,158.412758 C136.916838,158.769231 137.096509,159.179174 137.096509,159.642589 C137.096509,160.355535 136.791068,161.032833 136.198152,161.710131 C135.659138,162.333959 134.994353,162.815197 134.203799,163.153846 C134.563142,163.902439 135.120123,164.276735 135.910678,164.276735 C136.072382,164.276735 136.323922,164.258912 136.665298,164.187617 C136.988706,164.15197 137.186345,164.134146 137.276181,164.134146 C137.419918,164.134146 137.527721,164.205441 137.635524,164.330206 C137.743326,164.472795 137.797228,164.597561 137.797228,164.74015 Z M136.036448,159.731707 C136.036448,159.517824 135.928645,159.321764 135.748973,159.143527 C135.551335,158.983114 135.353696,158.893996 135.156057,158.893996 C134.796715,158.893996 134.491273,159.179174 134.239733,159.713884 C133.988193,160.248593 133.862423,160.818949 133.862423,161.389306 C133.862423,161.603189 133.88039,161.85272 133.916324,162.102251 C134.491273,161.85272 134.994353,161.514071 135.407598,161.06848 C135.820842,160.658537 136.036448,160.212946 136.036448,159.731707 Z M142.450719,152.317073 C142.450719,151.56848 142.145277,151.17636 141.552361,151.105066 C141.085216,151.265478 140.833676,151.532833 140.797741,151.924953 C140.797741,152.049719 140.815708,152.15666 140.815708,152.263602 C140.815708,152.88743 141.157084,153.261726 141.857803,153.386492 C142.25308,153.350844 142.450719,152.994371 142.450719,152.317073 Z M141.480493,159.036585 C141.480493,158.466229 141.139117,158.145403 140.474333,158.109756 C140.294661,158.216698 140.204825,158.359287 140.204825,158.5197 C140.204825,158.573171 140.222793,158.71576 140.258727,158.929644 C139.755647,161.389306 139.522074,162.833021 139.522074,163.296435 C139.522074,163.866792 139.61191,164.312383 139.791581,164.668856 C140.025154,165.114447 140.276694,165.346154 140.564168,165.346154 C140.779774,165.346154 140.905544,165.221388 140.905544,164.971857 C140.905544,164.686679 140.779774,164.401501 140.546201,164.15197 C140.546201,163.225141 140.74384,161.924015 141.157084,160.248593 C141.282854,159.785178 141.390657,159.393058 141.480493,159.036585 Z M160.076489,153.564728 C160.076489,153.422139 160.00462,153.297373 159.896817,153.154784 C159.771047,153.047842 159.645277,152.976548 159.50154,152.976548 C158.926591,152.976548 157.884497,153.493433 156.411191,154.509381 C155.225359,155.347092 154.273101,156.113508 153.536448,156.826454 L151.344456,158.893996 C151.775667,156.452158 152.368583,154.135084 153.159138,151.942777 C153.446612,151.122889 153.608316,150.623827 153.608316,150.463415 C153.608316,150.160413 153.428645,150 153.069302,150 C152.853696,150 152.691992,150.160413 152.566222,150.481238 C152.063142,151.675422 151.578029,153.190432 151.12885,155.008443 C150.697639,156.790807 150.37423,158.484053 150.176591,160.123827 C150.050821,161.157598 149.99692,162.227017 149.99692,163.296435 L149.99692,164.508443 C149.99692,164.54409 150.032854,164.757974 150.104723,165.114447 C150.176591,165.577861 150.37423,165.809568 150.697639,165.809568 C150.805441,165.809568 150.931211,165.756098 151.039014,165.649156 C151.12885,165.542214 151.182752,165.417448 151.182752,165.292683 C151.182752,165.274859 151.164784,165.007505 151.12885,164.508443 C151.092916,163.991557 151.074949,163.403377 151.074949,162.743902 C151.074949,162.084428 151.110883,161.26454 151.200719,160.266417 C151.560062,160.248593 151.937372,160.016886 152.368583,159.589118 C153.770021,161.496248 155.243326,163.011257 156.824435,164.134146 C157.093943,164.330206 157.399384,164.54409 157.722793,164.775797 C158.11807,165.043152 158.459446,165.203565 158.74692,165.257036 C158.854723,165.257036 158.962526,165.185741 159.070329,165.078799 C159.160164,164.954034 159.214066,164.829268 159.214066,164.686679 C159.214066,164.508443 158.926591,164.134146 158.351643,163.581614 C157.776694,163.011257 157.399384,162.726079 157.219713,162.726079 C157.129877,162.726079 157.040041,162.743902 156.932238,162.743902 C155.602669,161.906191 154.344969,160.587242 153.14117,158.769231 C155.045688,156.915572 156.698665,155.578799 158.100103,154.758912 C158.333676,154.865854 158.513347,154.919325 158.62115,154.919325 C158.657084,154.919325 158.800821,154.865854 159.034394,154.723265 C159.25,154.580675 159.483573,154.438086 159.735113,154.25985 C159.950719,154.117261 160.076489,153.885553 160.076489,153.564728 Z M166.778234,160.712008 C166.778234,160.783302 166.7423,160.890244 166.706366,161.032833 C166.436858,161.781426 166.311088,162.58349 166.311088,163.403377 C166.311088,163.706379 166.329055,164.009381 166.400924,164.294559 C166.508727,164.829268 166.580595,165.096623 166.580595,165.13227 C166.580595,165.470919 166.382957,165.649156 166.005647,165.649156 C165.646304,165.649156 165.448665,165.346154 165.394764,164.775797 C165.35883,164.472795 165.304928,163.991557 165.23306,163.332083 C164.244867,164.508443 163.292608,165.096623 162.376283,165.096623 C161.89117,165.096623 161.477926,164.882739 161.13655,164.419325 C160.795175,164.027205 160.63347,163.56379 160.63347,163.046904 C160.63347,162.227017 160.992813,161.371482 161.747433,160.444653 C161.89117,160.266417 162.160678,159.981238 162.537988,159.624765 C163.723819,158.555347 164.712012,158.020638 165.538501,158.020638 C165.718172,158.020638 165.915811,158.109756 166.11345,158.252345 C166.293121,158.412758 166.400924,158.590994 166.400924,158.787054 C166.400924,158.822702 166.382957,158.91182 166.347023,159.036585 C166.49076,159.393058 166.562628,159.803002 166.562628,160.248593 C166.706366,160.426829 166.778234,160.587242 166.778234,160.712008 Z M165.520534,160.212946 C165.520534,159.589118 165.35883,159.268293 165.071355,159.268293 C164.837782,159.268293 164.460472,159.464353 163.957392,159.838649 C163.490246,160.177298 163.112936,160.515947 162.825462,160.854597 C162.070842,161.692308 161.711499,162.405253 161.711499,162.993433 C161.711499,163.617261 161.945072,163.920263 162.448152,163.920263 C163.130903,163.920263 163.795688,163.510319 164.478439,162.654784 C165.161191,161.79925 165.520534,160.997186 165.520534,160.212946 Z M174.432238,159.393058 C174.432238,159.642589 174.288501,159.999062 174.036961,160.462477 C173.947125,160.605066 173.875257,161.228893 173.821355,162.298311 C173.73152,163.991557 173.372177,165.32833 172.725359,166.362101 C172.078542,167.395872 171.108316,168.162289 169.850616,168.696998 C169.347536,168.893058 168.862423,169 168.37731,169 C167.982033,169 167.784394,168.80394 167.784394,168.41182 C167.784394,168.233583 167.87423,168.055347 168.053901,167.894934 C168.233573,167.716698 168.413244,167.645403 168.592916,167.645403 C168.62885,167.645403 168.772587,167.681051 169.00616,167.752345 C171.305955,167.181989 172.527721,165.542214 172.707392,162.833021 C172.006674,163.528143 171.270021,163.866792 170.479466,163.866792 C169.922485,163.866792 169.491273,163.670732 169.167864,163.242964 C168.844456,162.850844 168.700719,162.333959 168.700719,161.692308 C168.700719,160.587242 169.060062,159.571295 169.814682,158.608818 C170.605236,157.575047 171.575462,157.040338 172.725359,157.040338 C173.713552,157.040338 174.2346,157.699812 174.270534,159.018762 C174.378337,159.10788 174.432238,159.232645 174.432238,159.393058 Z M173.174538,159.464353 C173.138604,159.10788 173.048768,158.822702 172.905031,158.608818 C172.743326,158.412758 172.563655,158.305816 172.348049,158.305816 C171.683265,158.305816 171.090349,158.680113 170.569302,159.393058 C170.030287,160.141651 169.778747,160.890244 169.778747,161.674484 C169.778747,161.99531 169.850616,162.262664 169.994353,162.476548 C170.13809,162.708255 170.353696,162.815197 170.605236,162.815197 C171.862936,162.815197 172.653491,161.85272 172.958932,159.927767 C172.976899,159.713884 173.048768,159.571295 173.174538,159.464353 Z M182.247947,160.712008 C182.247947,160.783302 182.212012,160.890244 182.176078,161.032833 C181.906571,161.781426 181.780801,162.58349 181.780801,163.403377 C181.780801,163.706379 181.798768,164.009381 181.870637,164.294559 C181.978439,164.829268 182.050308,165.096623 182.050308,165.13227 C182.050308,165.470919 181.852669,165.649156 181.475359,165.649156 C181.116016,165.649156 180.918378,165.346154 180.864476,164.775797 C180.828542,164.472795 180.774641,163.991557 180.702772,163.332083 C179.714579,164.508443 178.76232,165.096623 177.845996,165.096623 C177.360883,165.096623 176.947639,164.882739 176.606263,164.419325 C176.264887,164.027205 176.103183,163.56379 176.103183,163.046904 C176.103183,162.227017 176.462526,161.371482 177.217146,160.444653 C177.360883,160.266417 177.63039,159.981238 178.0077,159.624765 C179.193532,158.555347 180.181725,158.020638 181.008214,158.020638 C181.187885,158.020638 181.385524,158.109756 181.583162,158.252345 C181.762834,158.412758 181.870637,158.590994 181.870637,158.787054 C181.870637,158.822702 181.852669,158.91182 181.816735,159.036585 C181.960472,159.393058 182.032341,159.803002 182.032341,160.248593 C182.176078,160.426829 182.247947,160.587242 182.247947,160.712008 Z M180.990246,160.212946 C180.990246,159.589118 180.828542,159.268293 180.541068,159.268293 C180.307495,159.268293 179.930185,159.464353 179.427105,159.838649 C178.959959,160.177298 178.582649,160.515947 178.295175,160.854597 C177.540554,161.692308 177.181211,162.405253 177.181211,162.993433 C177.181211,163.617261 177.414784,163.920263 177.917864,163.920263 C178.600616,163.920263 179.2654,163.510319 179.948152,162.654784 C180.630903,161.79925 180.990246,160.997186 180.990246,160.212946 Z M195.38193,159.090056 C195.38193,158.787054 195.310062,158.430582 195.202259,158.020638 C195.094456,157.646341 194.896817,157.450281 194.645277,157.450281 C194.25,157.450281 194.070329,157.664165 194.070329,158.091932 C194.070329,158.163227 194.070329,158.287992 194.106263,158.448405 C194.142197,158.608818 194.160164,158.733583 194.160164,158.804878 C194.160164,159.69606 194.052361,160.551595 193.87269,161.389306 C193.639117,162.351782 193.315708,163.082552 192.920431,163.581614 C192.471253,164.134146 192.075975,164.401501 191.7346,164.401501 C191.033881,164.401501 190.476899,163.011257 190.045688,160.230769 C189.955852,159.749531 189.794148,159.5 189.560575,159.5 C189.273101,159.5 189.039528,159.856473 188.859856,160.533771 C188.608316,161.389306 188.195072,162.227017 187.602156,163.046904 C186.991273,163.866792 186.398357,164.401501 185.823409,164.686679 C185.284394,163.652908 185.014887,162.155722 185.014887,160.177298 C185.014887,159.945591 185.068789,159.624765 185.194559,159.214822 C185.302361,158.804878 185.37423,158.537523 185.37423,158.394934 C185.37423,157.664165 185.140657,157.289869 184.691478,157.289869 C184.404004,157.289869 184.206366,157.485929 184.134497,157.860225 C183.972793,158.608818 183.900924,159.410882 183.900924,160.230769 C183.900924,161.371482 184.134497,162.815197 184.601643,164.526266 C184.673511,164.847092 184.817248,165.13227 185.014887,165.417448 C185.230493,165.773921 185.446099,165.969981 185.661704,165.969981 C186.056982,165.969981 186.667864,165.52439 187.530287,164.633208 C188.374743,163.75985 188.967659,162.957786 189.291068,162.244841 C189.866016,164.472795 190.674538,165.577861 191.716632,165.577861 C192.650924,165.577861 193.459446,164.93621 194.12423,163.688555 C194.645277,162.726079 194.986653,161.65666 195.166324,160.462477 C195.310062,160.319887 195.38193,159.856473 195.38193,159.090056 Z M203,160.712008 C203,160.783302 202.964066,160.890244 202.928131,161.032833 C202.658624,161.781426 202.532854,162.58349 202.532854,163.403377 C202.532854,163.706379 202.550821,164.009381 202.62269,164.294559 C202.730493,164.829268 202.802361,165.096623 202.802361,165.13227 C202.802361,165.470919 202.604723,165.649156 202.227413,165.649156 C201.86807,165.649156 201.670431,165.346154 201.61653,164.775797 C201.580595,164.472795 201.526694,163.991557 201.454825,163.332083 C200.466632,164.508443 199.514374,165.096623 198.598049,165.096623 C198.112936,165.096623 197.699692,164.882739 197.358316,164.419325 C197.01694,164.027205 196.855236,163.56379 196.855236,163.046904 C196.855236,162.227017 197.214579,161.371482 197.969199,160.444653 C198.112936,160.266417 198.382444,159.981238 198.759754,159.624765 C199.945585,158.555347 200.933778,158.020638 201.760267,158.020638 C201.939938,158.020638 202.137577,158.109756 202.335216,158.252345 C202.514887,158.412758 202.62269,158.590994 202.62269,158.787054 C202.62269,158.822702 202.604723,158.91182 202.568789,159.036585 C202.712526,159.393058 202.784394,159.803002 202.784394,160.248593 C202.928131,160.426829 203,160.587242 203,160.712008 Z M201.7423,160.212946 C201.7423,159.589118 201.580595,159.268293 201.293121,159.268293 C201.059548,159.268293 200.682238,159.464353 200.179158,159.838649 C199.712012,160.177298 199.334702,160.515947 199.047228,160.854597 C198.292608,161.692308 197.933265,162.405253 197.933265,162.993433 C197.933265,163.617261 198.166838,163.920263 198.669918,163.920263 C199.352669,163.920263 200.017454,163.510319 200.700205,162.654784 C201.382957,161.79925 201.7423,160.997186 201.7423,160.212946 Z" id="Shuhei-Kagawa"></path>
            </g>
        </g>
    </g>
</svg>