<?xml version="1.0" encoding="UTF-8" standalone="no"?>
<svg width="85px" height="15px" viewBox="0 0 85 15" version="1.1" xmlns="http://www.w3.org/2000/svg" xmlns:xlink="http://www.w3.org/1999/xlink">
    <!-- Generator: Sketch 42 (36781) - http://www.bohemiancoding.com/sketch -->
    <title>Tõnis Anton</title>
    <desc>Created with Sketch.</desc>
    <defs></defs>
    <g id="Landing-Pages" stroke="none" stroke-width="1" fill="none" fill-rule="evenodd">
        <g id="webpage-with-testimonials" transform="translate(-309.000000, -1346.000000)" fill="#000000">
            <g id="Group-15" transform="translate(210.000000, 1225.000000)">
                <path d="M109.841469,121.752688 C109.769312,121.394265 109.643039,121.215054 109.462649,121.179211 C107.875212,121.501792 106.648557,121.770609 105.782683,121.985663 C102.98663,122.666667 100.876061,123.150538 99.4509762,123.473118 C99.1443124,123.544803 99,123.759857 99,124.11828 C99,124.476703 99.1623514,124.637993 99.5050934,124.637993 C100.118421,124.512545 100.677632,124.387097 101.146647,124.261649 C102.084677,124.046595 103.004669,123.831541 103.942699,123.598566 C103.726231,126.448029 103.636036,128.491039 103.636036,129.74552 C103.636036,131.949821 103.708192,133.81362 103.888582,135.336918 C103.92466,135.659498 104.12309,135.820789 104.50191,135.856631 C104.862691,135.749104 105.043081,135.408602 105.043081,134.835125 L105.043081,133.849462 C105.043081,133.562724 104.952886,133.329749 104.790535,133.150538 C104.736418,132.433692 104.718379,131.591398 104.718379,130.623656 C104.718379,128.473118 104.826613,126.035842 105.061121,123.329749 L107.388158,122.738351 C107.514431,122.845878 107.694822,122.917563 107.929329,122.935484 L109.44461,122.308244 C109.697156,122.218638 109.841469,122.039427 109.841469,121.752688 Z M115.866511,124.817204 C115.866511,124.530466 115.722199,124.369176 115.469652,124.369176 C115.343379,124.369176 115.199066,124.458781 115.036715,124.620072 C114.603778,125.014337 114.297114,125.21147 114.134762,125.21147 C113.972411,125.21147 113.737903,125.050179 113.431239,124.727599 C113.106537,124.405018 112.799873,124.243728 112.493209,124.243728 C111.952037,124.243728 111.266553,124.727599 110.472835,125.677419 C110.400679,125.767025 110.38264,125.856631 110.38264,125.964158 C110.38264,126.232975 110.526952,126.358423 110.833616,126.358423 C110.923812,126.358423 111.104202,126.215054 111.356749,125.910394 C111.789686,125.390681 112.150467,125.121864 112.439092,125.121864 C112.619482,125.121864 112.872029,125.318996 113.23281,125.695341 C113.503396,126.017921 113.773981,126.179211 114.044567,126.179211 C114.36927,126.179211 114.874363,125.892473 115.541808,125.318996 C115.758277,125.139785 115.866511,124.978495 115.866511,124.817204 Z M115.848472,130.910394 C115.848472,131.609319 115.758277,132.182796 115.577886,132.630824 C115.523769,132.774194 115.451613,132.989247 115.343379,133.275986 C115.162988,133.759857 114.838285,134.189964 114.333192,134.584229 C113.828098,134.978495 113.359083,135.193548 112.890068,135.193548 C112.132428,135.193548 111.5191,134.870968 111.050085,134.189964 C110.599109,133.598566 110.38264,132.899642 110.38264,132.09319 C110.38264,131.358423 110.563031,130.623656 110.923812,129.90681 C111.302632,129.136201 111.789686,128.598566 112.403014,128.275986 C112.727716,128.114695 112.962224,127.953405 113.106537,127.774194 C113.178693,127.756272 113.268888,127.738351 113.359083,127.738351 C113.395161,127.738351 113.539474,127.774194 113.755942,127.845878 C114.36927,128.078853 114.874363,128.473118 115.271222,129.046595 C115.650042,129.620072 115.848472,130.247312 115.848472,130.910394 Z M114.802207,131.179211 C114.802207,130.336918 114.54966,129.763441 114.080645,129.44086 C113.79202,129.44086 113.539474,129.369176 113.359083,129.261649 C112.727716,129.297491 112.240662,129.620072 111.879881,130.229391 C111.573217,130.767025 111.428905,131.394265 111.428905,132.09319 C111.428905,132.648746 111.555178,133.096774 111.825764,133.455197 C112.09635,133.849462 112.439092,134.028674 112.872029,134.028674 C113.341044,134.028674 113.773981,133.688172 114.206919,133.007168 C114.603778,132.379928 114.802207,131.770609 114.802207,131.179211 Z M124.074278,129.584229 C124.074278,129.405018 123.984083,129.225806 123.821732,129.046595 C123.65938,128.903226 123.47899,128.81362 123.262521,128.795699 C121.783319,129.673835 120.340195,131.035842 118.91511,132.88172 C118.91511,131.430108 119.041384,130.086022 119.330008,128.849462 C119.384126,128.598566 119.438243,128.401434 119.474321,128.222222 C119.474321,128.007168 119.402165,127.792115 119.257852,127.594982 C119.077462,127.415771 118.897071,127.308244 118.698642,127.308244 C118.554329,127.308244 118.482173,127.415771 118.446095,127.594982 C118.049236,129.44086 117.868846,130.910394 117.868846,132.003584 C117.868846,133.043011 117.97708,133.867384 118.193548,134.512545 C118.337861,134.942652 118.572368,135.157706 118.933149,135.157706 C119.005306,135.157706 119.095501,135.014337 119.221774,134.763441 C119.330008,134.530466 119.420204,134.297491 119.528438,134.046595 C120.177844,132.756272 121.368421,131.501792 123.082131,130.283154 L122.775467,133.311828 C122.703311,133.81362 122.667233,134.207885 122.649194,134.458781 C122.649194,134.655914 122.72135,134.835125 122.865662,135.014337 C123.009975,135.175627 123.190365,135.265233 123.388795,135.265233 C123.533107,135.265233 123.605263,135.157706 123.641341,134.978495 C123.749576,134.010753 123.821732,133.204301 123.893888,132.577061 C124.002122,131.394265 124.074278,130.390681 124.074278,129.584229 Z M129.251486,122.218638 C129.251486,121.46595 128.944822,121.071685 128.349533,121 C127.880518,121.16129 127.627971,121.430108 127.591893,121.824373 C127.591893,121.949821 127.609932,122.057348 127.609932,122.164875 C127.609932,122.792115 127.952674,123.168459 128.656197,123.293907 C129.053056,123.258065 129.251486,122.899642 129.251486,122.218638 Z M128.277377,128.97491 C128.277377,128.401434 127.934635,128.078853 127.26719,128.043011 C127.0868,128.150538 126.996604,128.293907 126.996604,128.455197 C126.996604,128.508961 127.014643,128.65233 127.050722,128.867384 C126.545628,131.340502 126.311121,132.792115 126.311121,133.258065 C126.311121,133.831541 126.401316,134.27957 126.581706,134.637993 C126.816214,135.086022 127.068761,135.318996 127.357385,135.318996 C127.573854,135.318996 127.700127,135.193548 127.700127,134.942652 C127.700127,134.655914 127.573854,134.369176 127.339346,134.11828 C127.339346,133.18638 127.537776,131.878136 127.952674,130.193548 C128.078947,129.727599 128.187182,129.333333 128.277377,128.97491 Z M135.511036,128.222222 C135.456919,128.060932 135.42084,127.935484 135.402801,127.845878 C135.312606,127.523297 135.186333,127.344086 135.023981,127.290323 C134.699278,127.200717 134.428693,127.146953 134.230263,127.146953 C133.72517,127.146953 133.400467,127.290323 133.292233,127.577061 C132.462436,127.88172 132.065577,128.419355 132.065577,129.207885 C132.065577,129.530466 132.119694,129.853047 132.245968,130.193548 C132.39028,130.551971 132.516553,130.892473 132.642827,131.215054 C133.165959,132.684588 133.436545,133.562724 133.436545,133.81362 C133.436545,134.387097 133.003608,134.655914 132.137733,134.655914 C131.975382,134.655914 131.740874,134.637993 131.434211,134.584229 C131.109508,134.548387 130.929117,134.530466 130.856961,134.530466 C130.550297,134.530466 130.405985,134.763441 130.405985,135.21147 C130.405985,135.605735 130.965195,135.820789 132.083616,135.820789 C132.7691,135.820789 133.328311,135.695341 133.761248,135.462366 C134.266341,135.157706 134.518888,134.727599 134.518888,134.136201 C134.518888,133.670251 134.320458,132.899642 133.941638,131.806452 C133.779287,131.376344 133.616935,130.946237 133.436545,130.516129 C133.220076,129.978495 133.129881,129.620072 133.129881,129.458781 C133.129881,128.939068 133.418506,128.670251 134.031834,128.670251 C134.140068,128.670251 134.302419,128.688172 134.518888,128.706093 C134.735357,128.741935 134.897708,128.741935 135.005942,128.741935 C135.312606,128.741935 135.474958,128.580645 135.511036,128.222222 Z M153.856749,135.53405 C153.856749,135.83871 153.64028,136 153.243421,136 C153.099109,136 152.918718,135.784946 152.738328,135.37276 C152.521859,134.960573 152.431664,134.673835 152.431664,134.494624 C152.431664,134.422939 152.449703,134.333333 152.50382,134.225806 C152.395586,133.795699 152.215195,133.168459 151.998727,132.326165 C151.042657,132.057348 149.924236,131.913978 148.625424,131.913978 C147.994058,131.913978 147.110144,131.985663 145.955645,132.09319 C145.739177,133.132616 145.648981,133.921147 145.648981,134.422939 C145.648981,134.620072 145.66702,134.835125 145.703098,135.0681 C145.594864,135.354839 145.414474,135.498208 145.179966,135.498208 C144.710951,135.498208 144.494482,135.157706 144.494482,134.512545 C144.53056,134.243728 144.584677,133.885305 144.656834,133.419355 C144.692912,133.168459 144.765068,132.756272 144.873302,132.200717 C144.440365,132.272401 143.917233,132.362007 143.321944,132.433692 C142.925085,132.433692 142.744694,132.272401 142.744694,131.913978 C142.744694,131.591398 142.961163,131.412186 143.412139,131.340502 C143.664686,131.304659 144.223896,131.232975 145.089771,131.143369 C145.594864,128.939068 146.514856,126.179211 147.867784,122.88172 C148.192487,122.039427 148.481112,121.609319 148.733659,121.609319 C149.058362,121.609319 149.383065,122.021505 149.725806,122.810036 C151.619907,127.326165 152.954796,131.322581 153.730475,134.835125 C153.802632,135.229391 153.856749,135.462366 153.856749,135.53405 Z M151.674024,131.16129 C151.349321,130.086022 151.024618,129.11828 150.735993,128.240143 C150.03247,126.197133 149.365025,124.548387 148.751698,123.293907 C147.687394,125.874552 146.839559,128.437276 146.190153,131.017921 C147.398769,130.910394 148.246604,130.856631 148.733659,130.856631 C149.635611,130.856631 150.60972,130.964158 151.674024,131.16129 Z M161.721774,129.584229 C161.721774,129.405018 161.631579,129.225806 161.469228,129.046595 C161.306876,128.903226 161.126486,128.81362 160.910017,128.795699 C159.430815,129.673835 157.987691,131.035842 156.562606,132.88172 C156.562606,131.430108 156.688879,130.086022 156.977504,128.849462 C157.031621,128.598566 157.085739,128.401434 157.121817,128.222222 C157.121817,128.007168 157.04966,127.792115 156.905348,127.594982 C156.724958,127.415771 156.544567,127.308244 156.346138,127.308244 C156.201825,127.308244 156.129669,127.415771 156.093591,127.594982 C155.696732,129.44086 155.516341,130.910394 155.516341,132.003584 C155.516341,133.043011 155.624576,133.867384 155.841044,134.512545 C155.985357,134.942652 156.219864,135.157706 156.580645,135.157706 C156.652801,135.157706 156.742997,135.014337 156.86927,134.763441 C156.977504,134.530466 157.067699,134.297491 157.175934,134.046595 C157.82534,132.756272 159.015917,131.501792 160.729626,130.283154 L160.422963,133.311828 C160.350806,133.81362 160.314728,134.207885 160.296689,134.458781 C160.296689,134.655914 160.368846,134.835125 160.513158,135.014337 C160.65747,135.175627 160.837861,135.265233 161.03629,135.265233 C161.180603,135.265233 161.252759,135.157706 161.288837,134.978495 C161.397071,134.010753 161.469228,133.204301 161.541384,132.577061 C161.649618,131.394265 161.721774,130.390681 161.721774,129.584229 Z M169.38837,128.562724 C169.38837,128.060932 168.937394,127.792115 168.035441,127.792115 C167.891129,127.792115 167.620543,127.792115 167.187606,127.774194 L166.448005,127.774194 C166.610357,127.003584 166.844864,126.071685 167.133489,124.960573 C167.277801,124.333333 167.404075,123.885305 167.512309,123.634409 C167.584465,123.473118 167.620543,123.34767 167.620543,123.258065 C167.620543,122.845878 167.422114,122.630824 167.025255,122.630824 C166.808786,122.630824 166.646435,122.792115 166.556239,123.096774 C165.97899,125.175627 165.564092,126.734767 165.329584,127.792115 C164.571944,127.792115 164.193124,127.989247 164.193124,128.365591 C164.193124,128.795699 164.481749,128.992832 165.058998,128.992832 L164.481749,131.896057 C164.247241,133.078853 164.139007,133.939068 164.139007,134.494624 C164.139007,135.354839 164.355475,135.802867 164.824491,135.802867 C164.950764,135.802867 165.077037,135.731183 165.22135,135.623656 C165.347623,135.516129 165.419779,135.390681 165.419779,135.247312 C165.419779,135.014337 165.329584,134.853047 165.167233,134.709677 C165.167233,133.867384 165.293506,132.899642 165.509975,131.806452 C165.509975,131.716846 165.726443,130.767025 166.141341,128.956989 C166.249576,128.956989 166.610357,128.97491 167.205645,128.97491 C167.782895,128.992832 168.143676,128.992832 168.324066,128.992832 C168.432301,129.136201 168.576613,129.207885 168.738964,129.243728 L168.991511,129.243728 C169.244058,128.992832 169.38837,128.777778 169.38837,128.562724 Z M175.774194,130.910394 C175.774194,131.609319 175.683998,132.182796 175.503608,132.630824 C175.449491,132.774194 175.377334,132.989247 175.2691,133.275986 C175.08871,133.759857 174.764007,134.189964 174.258913,134.584229 C173.75382,134.978495 173.284805,135.193548 172.815789,135.193548 C172.058149,135.193548 171.444822,134.870968 170.975806,134.189964 C170.52483,133.598566 170.308362,132.899642 170.308362,132.09319 C170.308362,131.358423 170.488752,130.623656 170.849533,129.90681 C171.228353,129.136201 171.715407,128.598566 172.328735,128.275986 C172.653438,128.114695 172.887946,127.953405 173.032258,127.774194 C173.104414,127.756272 173.19461,127.738351 173.284805,127.738351 C173.320883,127.738351 173.465195,127.774194 173.681664,127.845878 C174.294992,128.078853 174.800085,128.473118 175.196944,129.046595 C175.575764,129.620072 175.774194,130.247312 175.774194,130.910394 Z M174.727929,131.179211 C174.727929,130.336918 174.475382,129.763441 174.006367,129.44086 C173.717742,129.44086 173.465195,129.369176 173.284805,129.261649 C172.653438,129.297491 172.166384,129.620072 171.805603,130.229391 C171.498939,130.767025 171.354626,131.394265 171.354626,132.09319 C171.354626,132.648746 171.4809,133.096774 171.751486,133.455197 C172.022071,133.849462 172.364813,134.028674 172.79775,134.028674 C173.266766,134.028674 173.699703,133.688172 174.13264,133.007168 C174.529499,132.379928 174.727929,131.770609 174.727929,131.179211 Z M184,129.584229 C184,129.405018 183.909805,129.225806 183.747453,129.046595 C183.585102,128.903226 183.404711,128.81362 183.188243,128.795699 C181.709041,129.673835 180.265917,131.035842 178.840832,132.88172 C178.840832,131.430108 178.967105,130.086022 179.25573,128.849462 C179.309847,128.598566 179.363964,128.401434 179.400042,128.222222 C179.400042,128.007168 179.327886,127.792115 179.183574,127.594982 C179.003183,127.415771 178.822793,127.308244 178.624363,127.308244 C178.480051,127.308244 178.407895,127.415771 178.371817,127.594982 C177.974958,129.44086 177.794567,130.910394 177.794567,132.003584 C177.794567,133.043011 177.902801,133.867384 178.11927,134.512545 C178.263582,134.942652 178.49809,135.157706 178.858871,135.157706 C178.931027,135.157706 179.021222,135.014337 179.147496,134.763441 C179.25573,134.530466 179.345925,134.297491 179.45416,134.046595 C180.103565,132.756272 181.294143,131.501792 183.007852,130.283154 L182.701188,133.311828 C182.629032,133.81362 182.592954,134.207885 182.574915,134.458781 C182.574915,134.655914 182.647071,134.835125 182.791384,135.014337 C182.935696,135.175627 183.116087,135.265233 183.314516,135.265233 C183.458829,135.265233 183.530985,135.157706 183.567063,134.978495 C183.675297,134.010753 183.747453,133.204301 183.81961,132.577061 C183.927844,131.394265 184,130.390681 184,129.584229 Z" id="Tõnis-Anton"></path>
            </g>
        </g>
    </g>
</svg>