<?xml version="1.0" encoding="utf-8"?>
<!-- Generator: Adobe Illustrator 19.0.0, SVG Export Plug-In . SVG Version: 6.00 Build 0)  -->
<svg version="1.1" id="Livello_1" xmlns="http://www.w3.org/2000/svg" xmlns:xlink="http://www.w3.org/1999/xlink" x="0px" y="0px"
	 viewBox="-90 342.3 430.7 108.7" style="enable-background:new -90 342.3 430.7 108.7;" xml:space="preserve">
<style type="text/css">
	.st0{fill:#FFBE0F;}
	.st1{fill:#FFFFFF;}
	.st2{fill:#1F2228;}
</style>
<g>
	<g>
		<path class="st0" d="M-5,403.9c-0.5-6.8-2.1-13.4-4.5-19.5c-0.7-1.6-1.4-3.2-2.1-4.7c2.8-1.6,4.7-4.7,4.7-8.1
			c0-5.2-4.2-9.5-9.5-9.5H-25h-2.8H-63h-2.8h-8.5c-5.2,0-9.5,4.2-9.5,9.5c0,3.5,1.9,6.5,4.6,8.1c-0.8,1.5-1.5,3.1-2.1,4.7
			c-2.5,6.1-4.1,12.6-4.6,19.5c0,0.8-0.1,1.6-0.1,2.5c0,5.9,1,11.6,2.7,16.9c0.5,1.5,1.5,4.1,2.8,5.8c0.1,0.2,0.3,0.4,0.4,0.5
			c0,0,0,0,0.1,0.1c0.5,0.7,1.2,1.4,2,2.1s1.7,1.4,2.8,2c1,0.6,2.3,1,3.5,1.2c1.3,0.2,2.6,0,3.6-0.7s1.8-1.9,2.2-3.3
			c0.9-2.8,0.8-6,0.5-8.8c-0.3-2.9-0.8-5.6-1.3-7.8c-1.1-4.6-2.1-7.5-2.1-7.5s1.2,2.9,2.6,7.4c0.7,2.3,1.4,4.9,1.9,7.8
			c0.5,2.9,0.8,6.1,0.1,9.4c-0.4,1.6-1.2,3.3-2.6,4.5c-1.5,1.2-3.3,1.5-4.9,1.6c-1.7,0-3.3-0.4-4.6-0.9c-0.2-0.1-0.3-0.1-0.5-0.2
			c2.5,3.8,5.6,7.3,9,10.4c1.8,1,4.8,1.7,8.7-0.3c6.8-3.5,13.7-3.9,13.7-3.9s6.8,0.4,13.7,3.9c4.6,2.4,7.9,1,9.5-0.2
			c3.2-2.9,6-6.2,8.4-9.8c-0.2,0.1-0.3,0.1-0.4,0.2c-1.4,0.5-2.9,0.9-4.6,0.9c-1.6,0-3.5-0.4-4.9-1.6c-1.5-1.2-2.3-2.9-2.6-4.5
			c-0.7-3.3-0.4-6.5,0.1-9.4s1.2-5.6,1.9-7.8c1.4-4.5,2.6-7.4,2.6-7.4s-1,3-2.1,7.5c-0.5,2.3-1,5-1.3,7.8c-0.3,2.9-0.4,6,0.5,8.8
			c0.4,1.4,1.2,2.6,2.2,3.3c1,0.7,2.3,0.9,3.6,0.7c1.2-0.2,2.4-0.6,3.5-1.2s2-1.3,2.8-2c1.1-0.9,1.9-1.9,2.5-2.7
			c1-1.4,1.8-3.3,2.4-4.8c2-5.6,3-11.6,3-17.9C-5,405.6-5,404.7-5,403.9z"/>
		<circle class="st1" cx="-62.5" cy="378.4" r="8.6"/>
		<path class="st2" d="M-74.3,366.8c-2.6,0-4.7,2.1-4.7,4.7c0,1.7,0.9,3.2,2.2,4c1.6-2.7,3.5-5.3,5.5-7.7
			C-72.1,367.3-73.1,366.8-74.3,366.8z"/>
		<path class="st2" d="M-16.5,366.8c-1.1,0-2.2,0.4-3,1.1c2,2.4,3.8,5,5.5,7.7c1.3-0.8,2.3-2.3,2.3-4
			C-11.8,369-13.9,366.8-16.5,366.8z"/>
		<path class="st2" d="M-62.5,374.5c-0.3,0-0.5,0-0.8,0.1c0.2,0.3,0.2,0.6,0.2,1c0,1.2-0.9,2.1-2.1,2.1c-0.4,0-0.8-0.1-1.1-0.3
			c-0.1,0.3-0.1,0.6-0.1,1c0,2.1,1.7,3.8,3.8,3.8s3.8-1.7,3.8-3.8C-58.7,376.2-60.4,374.5-62.5,374.5z"/>
		<circle class="st1" cx="-28.3" cy="378.4" r="8.6"/>
		<path class="st2" d="M-28.3,374.5c-0.3,0-0.5,0-0.8,0.1c0.2,0.3,0.2,0.6,0.2,1c0,1.2-0.9,2.1-2.1,2.1c-0.4,0-0.8-0.1-1.1-0.3
			c-0.1,0.3-0.1,0.6-0.1,1c0,2.1,1.7,3.8,3.8,3.8s3.8-1.7,3.8-3.8C-24.4,376.2-26.2,374.5-28.3,374.5z"/>
		<circle class="st1" cx="-45.5" cy="395" r="11.7"/>
		<path class="st2" d="M-39.4,388.6c0-0.2,0-0.3-0.1-0.5c0-0.1,0-0.1,0-0.1l0,0c-0.1-0.1-0.1-0.3-0.2-0.4l0,0c0,0-0.7-1.4-5.7-1.4
			l0,0l0,0l0,0l0,0c-2.9,0-4.4,0.5-5.1,0.9c-0.4,0.2-0.8,0.5-0.9,0.9l0,0v0.1c0,0.1-0.1,0.3-0.1,0.4l0,0c0,0.7,0.2,2,1.9,3.4
			c1.5,1.2,2.7,1.7,3.4,1.8v12.9c0.3,0,0.5,0,0.8,0s0.5,0,0.8,0v-12.7c0.7-0.2,1.9-0.6,3.4-1.8C-39.7,390.7-39.4,389.4-39.4,388.6
			L-39.4,388.6z"/>
		<path class="st0" d="M-64.4,359.6h37.9c-4.5-3.1-9.9-5.2-15.6-5.7l2.3-6.3c0,0-1.5-1.2-5.6-1.2s-5.6,1.2-5.6,1.2l2.3,6.3
			C-54.6,354.4-59.9,356.5-64.4,359.6z"/>
		<path class="st1" d="M-79.5,425.2c0,0-0.6-0.8-1.3-2.2c-0.7-1.4-1.4-3.3-1.9-5.3s-0.7-4-0.7-5.6c0-1.5,0.1-2.6,0.1-2.6
			s0.1,0.2,0.2,0.7s0.2,1.1,0.4,1.9c0.3,1.5,0.7,3.4,1.2,5.4c0.4,2,0.9,3.9,1.3,5.3c0.2,0.7,0.4,1.3,0.5,1.8
			C-79.5,425-79.5,425.2-79.5,425.2z"/>
		<path class="st1" d="M-20.9,412.9c0,0,0,0.7-0.1,1.7s-0.3,2.3-0.6,3.6c-0.3,1.3-0.6,2.6-0.9,3.5c-0.1,0.5-0.3,0.9-0.4,1.2
			c-0.1,0.2-0.1,0.4-0.1,0.4s-0.1-0.7-0.1-1.7s0.1-2.4,0.4-3.7c0.3-1.3,0.7-2.6,1.1-3.5C-21.3,413.5-20.9,412.9-20.9,412.9z"/>
		<path class="st1" d="M-74.4,363.3c0,0-0.7,0.3-1.6,0.8c-0.5,0.3-1,0.6-1.5,1c-0.5,0.4-1,0.9-1.5,1.4s-0.9,1.1-1.3,1.6
			c-0.4,0.6-0.7,1.1-0.9,1.6c-0.3,0.5-0.5,0.9-0.6,1.2c-0.1,0.3-0.2,0.5-0.2,0.5s0-0.2,0-0.5c0-0.3,0-0.8,0.2-1.4
			c0.1-0.6,0.4-1.2,0.7-1.8c0.3-0.6,0.8-1.3,1.3-1.8c1.1-1.1,2.5-1.9,3.6-2.2C-75.2,363.2-74.4,363.3-74.4,363.3z"/>
	</g>
	<g>
		<path class="st1" d="M84.5,387.8c-5.4,0-10,1.7-13.7,5.2s-5.6,7.9-5.6,13.3s1.9,9.8,5.6,13.3c3.7,3.5,8.3,5.2,13.7,5.2
			c5.5,0,10.1-1.7,13.8-5.2s5.6-7.9,5.6-13.3s-1.9-9.8-5.6-13.3C94.5,389.5,89.9,387.8,84.5,387.8z M92,414.2
			c-2,2.1-4.5,3.1-7.5,3.1c-2.9,0-5.4-1-7.4-3.1c-2-2-3-4.7-3-7.9s1-5.8,3-7.9s4.5-3.1,7.4-3.1s5.4,1,7.4,3.1
			c2.1,2.1,3.1,4.7,3.1,7.9S94,412.1,92,414.2z"/>
		<path class="st1" d="M170.7,387.8c-5.3,0-9.6,1.7-12.9,5.2c-3.3,3.4-5,7.9-5,13.3c0,5.2,1.7,9.5,5.2,13.1s8.1,5.4,13.7,5.4
			c1.7,0,3.3-0.2,4.9-0.6s2.9-0.8,3.9-1.3s2-1,2.9-1.6s1.6-1,1.8-1.3c0.3-0.3,0.5-0.5,0.6-0.6l-3.7-6.1l-1.2,1c-0.8,0.6-2,1.3-3.7,2
			s-3.3,1-5,1c-2.8,0-5.1-0.8-7.1-2.5s-3.1-4-3.5-7H186l0.2-3.3c0-4.8-1.4-8.8-4.2-12C179.4,389.4,175.6,387.8,170.7,387.8z
			 M162.1,401.7c0.5-2.2,1.5-4,3-5.2c1.5-1.3,3.4-1.9,5.6-1.9c1.8,0,3.4,0.7,4.7,2c1.3,1.3,1.9,3,2,5.1
			C177.4,401.7,162.1,401.7,162.1,401.7z"/>
		<path class="st1" d="M252.4,387.8c-1.5,0-3,0.2-4.3,0.6c-1.4,0.4-2.4,0.9-3.2,1.3c-0.8,0.5-1.5,1.1-2.1,1.7s-1.1,1.1-1.2,1.3
			c-0.2,0.3-0.3,0.5-0.4,0.6h-0.1v-1.4c0-2.3-1.5-3.4-4.4-3.4h-2.2h-5.6h-8.2c-2.4,0-4,1.1-4.7,3.3l-0.2,0.6l-7,20.3l-8.3-20.9
			c-0.5-1.2-1-2.1-1.7-2.6s-1.7-0.8-2.9-0.8h-2.6H190h-1l1,2.2l2.9,6.5l11.8,26.5l-1.2,2.7c-1.2,3-3.2,4.5-5.8,4.5
			c-1.9,0-3.6-0.8-5.1-2.4l-3.4,6.2l1,0.9c0.6,0.6,1.7,1.2,3.2,1.8c1.5,0.6,3,0.9,4.7,0.9c2.8,0,5.3-0.8,7.5-2.3
			c2.3-1.5,4-3.8,5.2-6.9l12.7-31.7c0.3-0.8,1-1.2,2-1.2h3.3h1.1h1.7c1,0,1.5,0.5,1.5,1.5v40.1h8.7v-14.6c0-1.2,0-2.2-0.1-3h0.1
			l1,1.2c0.6,0.7,1.8,1.5,3.5,2.3c1.7,0.8,3.6,1.2,5.6,1.2c4.7,0,8.6-1.7,11.6-5.1s4.6-7.9,4.6-13.4s-1.4-9.9-4.3-13.4
			C261,389.5,257.2,387.8,252.4,387.8z M256.7,414.4c-1.7,2-3.8,2.9-6.4,2.9c-2.8,0-4.9-1.1-6.4-3.2c-1.5-2.1-2.3-4.7-2.3-7.6
			c0-3.7,0.9-6.5,2.6-8.3c1.7-1.9,3.8-2.8,6.3-2.8c2.6,0,4.7,1,6.4,3c1.6,2,2.4,4.7,2.4,8C259.3,409.8,258.4,412.4,256.7,414.4z"/>
		<path class="st1" d="M291.9,387.8c-5.4,0-10,1.7-13.7,5.2s-5.6,7.9-5.6,13.3s1.9,9.8,5.6,13.3s8.3,5.2,13.7,5.2
			c5.5,0,10.1-1.7,13.8-5.2c3.7-3.5,5.6-7.9,5.6-13.3s-1.9-9.8-5.6-13.3C301.9,389.5,297.3,387.8,291.9,387.8z M299.4,414.2
			c-2,2.1-4.5,3.1-7.5,3.1c-2.9,0-5.4-1-7.4-3.1c-2-2-3-4.7-3-7.9s1-5.8,3-7.9s4.5-3.1,7.4-3.1s5.4,1,7.4,3.1
			c2.1,2.1,3.1,4.7,3.1,7.9S301.4,412.1,299.4,414.2z"/>
		<path class="st1" d="M335.1,416.5c-1.8,0-3.4-0.5-4.8-1.4c-1.5-0.9-2.2-2.7-2.2-5.2v-14.3h8v-7h-8V379h-8.6v9.6h-4.8v7h4.6V411
			c0,2.3,0.4,4.2,1.1,5.9c0.7,1.7,1.6,3,2.6,3.9s2.3,1.6,3.7,2.2c1.4,0.6,2.7,0.9,3.8,1.1c1.1,0.2,2.3,0.2,3.5,0.2
			c1.1,0,2-0.1,2.7-0.2v-7.7L335.1,416.5z"/>
		<path class="st1" d="M49.3,379.5v16.1H27.6v-16.1c0-1.6-0.4-2.8-1.1-3.6c-0.7-0.8-1.9-1.1-3.6-1.1h-4.4v9.2v14v25.9h9.1v-20.6
			h21.7v20.6h9.1v-20.3V384v-9.2H54C50.9,374.8,49.3,376.3,49.3,379.5z"/>
		<path class="st1" d="M132.7,387.8c-3.2,0-5.8,0.7-7.9,2.2c-2.1,1.5-3.6,3.2-4.6,5.1h-0.1l0.1-1.5v-1c0-2.6-1.5-3.9-4.6-3.9h-3.8v9
			v13.2v13h8.7v-16.2c0-1.8,0.2-3.3,0.7-4.7c0.6-2.2,1.8-3.9,3.5-5.2s3.7-2,6-2c2.1,0,3.5,0.6,4.3,1.8c0.8,1.2,1.2,3,1.2,5.4v16.2
			c0,1.7,0.4,2.9,1.1,3.6c0.7,0.7,1.9,1.1,3.6,1.1h4.1V415v-5.6v-8.2C145.1,392.3,140.9,387.8,132.7,387.8z"/>
	</g>
</g>
</svg>
