<?xml version="1.0" encoding="UTF-8" standalone="no"?>
<svg width="1651px" height="452px" viewBox="0 0 1651 452" version="1.1" xmlns="http://www.w3.org/2000/svg" xmlns:xlink="http://www.w3.org/1999/xlink">
    <!-- Generator: Sketch 41.2 (35397) - http://www.bohemiancoding.com/sketch -->
    <title>Artboard 2</title>
    <desc>Created with Sketch.</desc>
    <defs>
        <polyline id="path-1" points="0 322.394118 261.236356 322.394118 261.236356 0.758252185 0 0.758252185"></polyline>
        <path d="M207.887648,80.9014085 C194.641515,80.9014085 192.004079,87.6790406 192.004079,87.6790408 C192.004079,87.679041 185.029476,80.9014085 177.084572,80.9014085 C162.319112,80.9014085 163.140438,87.6790406 163.140438,87.6790408 C163.140438,87.679041 157.777876,83.0346604 148.438364,83.0346603 C139.098851,83.0346602 136.077009,88.2724098 136.077009,87.6790408 C136.077009,87.0856718 131.807505,83.0346604 119.878163,83.0346604 C107.94882,83.0346603 107.948821,87.9680932 107.948821,87.6790408 C107.948821,87.3899884 103.529752,83.9280667 93.1155756,83.9280668 C82.7013987,83.9280669 80.5908312,90.0710847 80.5908312,89.3784756 C80.5908312,88.6858664 75.4025109,85.5892889 64.0139926,85.600961 C55.7636915,85.6094167 51.6199851,93.8848982 52.5030563,100.126572 C53.3861275,106.368245 57.5170752,109.553894 66.2485146,109.553894 C74.9799539,109.553893 80.5908312,105.709059 80.5908312,105.709059 C80.5908312,105.70906 85.7596852,109.576363 94.3090194,109.553893 C102.858354,109.531423 107.948821,104.176027 107.948821,104.067103 C107.948821,104.067103 111.092116,109.553888 122.754505,109.553894 C131.154391,109.553898 136.077009,104.067103 136.077009,104.067103 C136.077009,104.067103 141.041395,109.553894 150.12409,109.553894 C159.02698,109.553894 163.140438,104.067103 163.140438,104.067103 C163.140438,104.067103 166.866536,109.553894 176.018045,109.553894 C185.169555,109.553894 192.004079,105.709059 192.004079,105.709059 C192.004076,105.70906 198.677013,109.553893 206.747435,109.553893 C214.817858,109.553893 219.070078,103.877903 220.782627,100.126572 C222.495175,96.3752407 221.133781,80.9014084 207.887648,80.9014085 Z" id="path-3"></path>
        <filter x="-50%" y="-50%" width="200%" height="200%" filterUnits="objectBoundingBox" id="filter-4">
            <feOffset dx="0" dy="-0" in="SourceAlpha" result="shadowOffsetOuter1"></feOffset>
            <feGaussianBlur stdDeviation="4" in="shadowOffsetOuter1" result="shadowBlurOuter1"></feGaussianBlur>
            <feColorMatrix values="0 0 0 0 0   0 0 0 0 0   0 0 0 0 0  0 0 0 0.097486413 0" type="matrix" in="shadowBlurOuter1"></feColorMatrix>
        </filter>
        <path d="M65.7230769,295.83977 C65.7230769,295.83977 116.2886,302.612287 133.011773,302.612287 C151.215601,302.612287 202.646154,295.779874 202.646154,295.779874 L202.646154,295.779874 C203.077578,295.403499 203.427315,297.894006 203.427314,299.462361 C203.427314,299.462361 203.427314,300.286303 203.427314,299.462361 C203.427314,298.500913 203.427314,299.462361 203.427314,299.462361 C203.427315,301.439728 203.427316,305.850742 203.427316,305.858821 L203.427316,305.858821 C203.427316,305.858821 198.010842,303.571622 195.8,304.574084 C193.417138,305.654545 191.692308,310.020291 188.953846,310.020291 C186.215385,310.020291 183.026614,306.836463 180.313163,307.566638 C177.728173,308.262246 174.606457,311.87361 171.216448,312.335401 C168.618319,312.689322 164.509099,308.833377 161.715498,309.244247 C158.821847,309.669831 155.943304,313.132111 153.028541,313.389051 C149.550338,313.695659 145.867971,309.772704 142.667055,310.020291 C139.603401,310.257261 136.610649,313.389051 134.103619,313.389051 C131.205843,313.389051 127.633509,308.786445 124.125161,309.244247 C121.690056,309.562002 119.121639,312.760954 116.54533,312.335401 C113.649203,311.857022 110.893307,307.77842 107.837626,307.566639 C105.373179,307.395834 101.944009,310.356867 99.5857746,310.020291 C96.0615089,309.517294 92.8591536,306.179407 89.8386974,305.858821 C87.2189113,305.58076 84.2845829,307.847486 82.3455187,307.566638 C81.6462481,307.465358 78.3658404,304.597056 75.3076923,303.984498 C71.6554486,303.25294 67.2456263,306.631766 65.7230769,306.719373 C65.382927,306.738945 65.8151235,304.048807 65.7230769,303.984498 C64.1071136,302.855496 65.7230769,303.984498 65.7230769,303.984498 C64.3250387,303.497437 64.1127491,300.460004 65.2528777,297.188831 L65.7230769,295.83977 Z" id="path-5"></path>
        <filter x="-50%" y="-50%" width="200%" height="200%" filterUnits="objectBoundingBox" id="filter-6">
            <feOffset dx="0" dy="7" in="SourceAlpha" result="shadowOffsetOuter1"></feOffset>
            <feGaussianBlur stdDeviation="3.5" in="shadowOffsetOuter1" result="shadowBlurOuter1"></feGaussianBlur>
            <feColorMatrix values="0 0 0 0 0   0 0 0 0 0   0 0 0 0 0  0 0 0 0.187188632 0" type="matrix" in="shadowBlurOuter1"></feColorMatrix>
        </filter>
        <polygon id="path-7" points="198.220027 271.90214 257.882883 272.529901 256.630177 284.874527 199.136228 284.874527"></polygon>
        <filter x="-50%" y="-50%" width="200%" height="200%" filterUnits="objectBoundingBox" id="filter-8">
            <feOffset dx="0" dy="0" in="SourceAlpha" result="shadowOffsetOuter1"></feOffset>
            <feGaussianBlur stdDeviation="3.5" in="shadowOffsetOuter1" result="shadowBlurOuter1"></feGaussianBlur>
            <feColorMatrix values="0 0 0 0 0   0 0 0 0 0   0 0 0 0 0  0 0 0 0.35 0" type="matrix" in="shadowBlurOuter1"></feColorMatrix>
        </filter>
        <polygon id="path-9" points="1.05079637 5.20588723 60.7136518 5.83364822 59.4609463 18.1782737 1.96699757 18.1782737"></polygon>
        <filter x="-50%" y="-50%" width="200%" height="200%" filterUnits="objectBoundingBox" id="filter-10">
            <feOffset dx="0" dy="0" in="SourceAlpha" result="shadowOffsetOuter1"></feOffset>
            <feGaussianBlur stdDeviation="3.5" in="shadowOffsetOuter1" result="shadowBlurOuter1"></feGaussianBlur>
            <feColorMatrix values="0 0 0 0 0   0 0 0 0 0   0 0 0 0 0  0 0 0 0.35 0" type="matrix" in="shadowBlurOuter1"></feColorMatrix>
        </filter>
    </defs>
    <g id="Facebook" stroke="none" stroke-width="1" fill="none" fill-rule="evenodd">
        <g id="Artboard-2">
            <g id="Group-44" transform="translate(51.000000, 45.000000)">
                <g id="Group-3" transform="translate(3.968875, 34.260018)">
                    <mask id="mask-2" fill="white">
                        <use xlink:href="#path-1"></use>
                    </mask>
                    <g id="Clip-2"></g>
                    <path d="M246.30704,121.784378 C244.176442,116.680065 241.91288,111.643048 239.377818,106.759404 C248.362,101.529107 254.404269,91.9324042 254.404269,80.9256186 C254.404269,64.3371893 240.722579,50.889755 223.8434,50.889755 L37.4200265,50.889755 C20.5416431,50.889755 6.85915719,64.3371893 6.85915719,80.9256186 C6.85915719,91.9237966 12.8926677,101.514239 21.8657033,106.747666 C19.3306416,111.628963 17.0670799,116.664415 14.9372778,121.767163 C6.89100469,141.042731 1.7826643,161.797244 0.244429629,183.539284 C0.127390035,186.126262 0,188.710893 0,191.326041 C0,210.116454 3.10990922,228.181479 8.77080389,245.107953 C10.4587219,249.872657 13.7055754,258.078056 17.6833292,263.556409 C18.1172515,264.119034 18.5272882,264.667573 19.0225169,265.259151 C20.9620302,267.555817 23.1005904,269.786753 25.6738691,272.000474 C28.2710335,274.21576 31.2798269,276.430263 34.703434,278.281682 C38.088028,280.12371 42.0371191,281.611262 45.9328656,282.105026 C50.0101429,282.679388 54.3127413,281.991562 57.5970157,279.726195 C60.944985,277.51717 63.3391215,273.650005 64.7244881,269.278122 C67.4880557,260.420891 67.1815234,250.385201 66.3351759,241.308867 C65.4100057,232.157413 63.722884,223.653877 62.047705,216.428179 C58.6471873,201.96583 55.3111607,192.574927 55.3111607,192.574927 C55.3111607,192.574927 59.2960803,201.704471 63.7308458,215.988409 C65.9235468,223.133508 68.2277141,231.57053 69.8320323,240.851881 C71.3137377,250.114452 72.5088154,260.318382 70.0939781,270.748458 C68.8535176,275.872334 66.2682961,281.277913 61.5612343,284.929887 C56.8485992,288.644462 50.9568101,289.793186 45.6661427,289.919953 C40.0960134,289.957514 35.1508915,288.707845 30.6659661,287.029361 C30.1197813,286.821996 29.6540115,286.55516 29.1229543,286.334492 C37.3236878,298.48922 47.0897264,309.510091 58.0699512,319.241385 C63.9275042,322.406638 73.4722026,324.744778 86.1140711,318.292983 C108.157324,307.044402 130.200577,305.794733 130.200577,305.794733 C130.200577,305.794733 152.243831,307.044402 174.286288,318.292983 C189.098564,325.851247 199.658402,321.352597 205.009579,317.584811 C215.204763,308.285463 224.321908,297.867125 232.045725,286.437001 C231.551293,286.641236 231.118167,286.890857 230.609403,287.083354 C226.124477,288.761838 221.180152,290.011507 215.610022,289.973946 C210.318559,289.84718 204.427566,288.698455 199.714931,284.98388 C195.007869,281.331906 192.422648,275.926327 191.182187,270.802451 C188.76735,260.372376 189.961631,250.168445 191.444133,240.905875 C193.047655,231.625306 195.352618,223.187501 197.545319,216.042402 C201.979289,201.758464 205.965004,192.62892 205.965004,192.62892 C205.965004,192.62892 202.628182,202.019823 199.22846,216.482173 C197.553281,223.70787 195.865363,232.212188 194.940193,241.36286 C194.093846,250.439194 193.787313,260.474884 196.551677,269.332115 C197.937044,273.703998 200.330384,277.571163 203.678353,279.780189 C206.963424,282.046337 211.265226,282.733381 215.342503,282.159019 C219.239046,281.665255 223.188137,280.177704 226.571935,278.335675 C229.996338,276.484256 233.004335,274.269753 235.6015,272.054467 C239.098356,269.047281 241.744088,266.036183 243.776755,263.377214 C246.947175,258.945077 249.64227,252.821154 251.441654,248.133919 C257.768958,230.345902 261.236356,211.237791 261.236356,191.326041 C261.236356,188.711675 261.109762,186.127827 260.992722,183.541632 C259.454488,161.805069 254.349332,141.056034 246.30704,121.784378 Z" id="Fill-1" fill="#F6C823" mask="url(#mask-2)"></path>
                </g>
                <path d="M41.3889017,100.117624 C32.9214453,100.117624 26.0567148,106.863643 26.0567148,115.185636 C26.0567148,120.58339 28.9683733,125.28158 33.3075963,127.942897 C38.6133913,119.379108 44.5338431,111.226918 51.0466587,103.571623 C48.4033155,101.445543 45.0704737,100.117624 41.3889017,100.117624" id="Fill-4" fill="#25282C"></path>
                <path d="M227.812275,100.117624 C224.123537,100.117624 220.784326,101.451021 218.13939,103.584143 C224.650613,111.239439 230.568677,119.390845 235.872879,127.953852 C240.224045,125.294883 243.144462,120.591215 243.144462,115.185636 C243.144462,106.863643 236.279731,100.117624 227.812275,100.117624" id="Fill-5" fill="#25282C"></path>
                <path d="M172.087893,189.567907 C172.087893,210.149484 155.111578,226.834945 134.169453,226.834945 C113.227327,226.834945 96.2502163,210.149484 96.2502163,189.567907 C96.2502163,168.985546 113.227327,152.300085 134.169453,152.300085 C155.111578,152.300085 172.087893,168.985546 172.087893,189.567907" id="Fill-6" fill="#FFFFFF"></path>
                <path d="M131.708436,226.712873 C132.526121,226.764519 133.337436,226.834945 134.16786,226.834945 C134.99908,226.834945 135.811988,226.764519 136.629673,226.712873 L136.629673,178.274722 L131.708436,178.274722 L131.708436,226.712873" id="Fill-7" fill="#25282C"></path>
                <path d="M153.843251,169.218734 C153.843251,168.703843 153.743728,168.217121 153.602006,167.746833 C153.539904,167.515992 153.489744,167.380618 153.489744,167.380618 L153.485763,167.380618 C153.309009,166.921285 153.06856,166.498729 152.773175,166.112169 L152.775563,166.107474 C152.775563,166.107474 150.54783,161.593957 134.393977,161.550136 L134.393977,161.546224 C134.354168,161.546224 134.320728,161.548571 134.281715,161.548571 C134.241906,161.548571 134.208466,161.546224 134.169453,161.546224 L134.169453,161.550136 C124.770457,161.575959 120.097631,163.109679 117.826107,164.392995 C116.454276,164.933709 115.377034,166.019833 114.852346,167.380618 L114.844384,167.380618 C114.844384,167.380618 114.786263,167.54025 114.71779,167.807869 C114.588012,168.259377 114.495654,168.726535 114.495654,169.218734 C114.495654,169.263337 114.507597,169.30481 114.509189,169.348631 C114.412851,171.689118 115.193911,175.812946 120.596044,180.042412 C125.911394,184.204583 129.994244,185.56302 132.237901,186.012964 C132.409082,186.051307 132.583447,186.073999 132.757812,186.10217 C133.640784,186.243022 134.165472,186.242239 134.165472,186.242239 L134.169453,186.242239 C134.169453,186.242239 134.691752,186.242239 135.571539,186.102952 C135.750681,186.073999 135.929824,186.050524 136.104985,186.011399 C138.351827,185.559108 142.430696,184.198323 147.738084,180.042412 C153.11872,175.830161 153.914908,171.722766 153.826531,169.377584 C153.828123,169.32359 153.843251,169.27351 153.843251,169.218734" id="Fill-8" fill="#25282C"></path>
                <path d="M40.9008386,88.7970519 C40.9008386,88.7970519 38.6197608,89.6562479 35.6436111,91.4114178 C34.1451858,92.2612236 32.4755802,93.3316973 30.8051783,94.597016 C29.1228337,95.8443369 27.4691518,97.3264108 25.9484333,98.9242962 C24.3807396,100.489316 23.0654375,102.264831 21.8058686,103.942533 C20.6744858,105.70005 19.5749506,107.348016 18.7755781,108.872346 C17.875886,110.348942 17.2484901,111.665124 16.7867012,112.587703 C16.3121733,113.50637 15.9881249,114.030652 15.9881249,114.030652 C15.9881249,114.030652 15.992902,113.435944 16.0948141,112.398336 C16.255644,111.379508 16.2492745,109.831703 16.8034211,108.111746 C17.1903684,106.333883 18.0008875,104.362741 19.0184154,102.300044 C20.1211354,100.278039 21.5598466,98.2529027 23.2636883,96.438262 C26.727901,92.8426286 31.244674,90.3855472 34.8346844,89.4966158 C38.4270834,88.533346 40.9008386,88.7970519 40.9008386,88.7970519" id="Fill-12" fill="#FFFFFF"></path>
                <path d="M39.6628399,330.313172 C41.5939872,332.929798 47.3193354,339.002154 47.3193354,339.002154 C47.3193354,339.002154 50.2760854,342.005178 53.2870608,345.287692 C55.1291148,347.295867 57.3304045,349.492628 58.7637985,350.825426 C60.3023142,352.255968 62.5852835,354.214938 64.606023,355.689569 C66.712899,357.227058 71.7794293,357.144293 71.7794293,357.144293 C71.7794293,357.144293 76.5901822,357.038737 82.5884786,355.689569 C88.9048009,354.26887 105.326769,346.243161 105.326769,346.243161 C105.326769,346.243161 116.320414,342.980134 121.980427,341.934165 C125.484195,341.28667 129.838702,340.949777 134.137666,340.64625 C137.70919,340.394083 142.003861,341.088779 142.003861,341.088779 C142.003861,341.088779 156.374343,344.451286 163.509528,346.709813 C169.532725,348.616358 180.916824,354.247272 180.916824,354.247272 C180.916824,354.247272 188.468897,357.144293 194.423693,357.144293 C200.37849,357.144293 201.15297,357.144293 205.639968,354.875988 C210.126966,352.607683 212.81237,350.114109 216.335554,346.709813 C221.360082,341.854833 231.100391,329.469445 231.100391,329.469445 L238.132508,319.478911 C238.132508,319.478911 261.153028,283.533838 251.938462,279.370626 C233.696991,271.12899 175.114879,291.703634 163.509534,292.033417 C152.673144,292.341349 140.910588,292.572628 131.229851,292.496399 C128.644475,292.476041 125.674217,292.356048 123.443303,292.255705 C111.336902,291.711183 31.5411194,268.682657 13.6923077,279.370626 C9.05550233,282.147172 39.2556399,329.761432 39.6628399,330.313172 Z" id="Path-18" fill="#D81414"></path>
                <path d="M101.806014,140.29873 L101.809995,140.29873 L101.802829,140.286992 C101.787702,140.255692 101.762224,140.228304 101.747096,140.196221 C101.69614,140.11484 101.615725,139.988856 101.486743,139.803401 C101.252664,139.407451 100.982756,139.032629 100.638007,138.692237 C98.1164803,135.63497 91.2835973,129.262991 78.0780279,129.262991 C64.3246812,129.262991 57.4336765,136.706226 55.1533949,139.811226 C54.8341236,140.178223 54.551477,140.572608 54.3444682,141.006119 C54.2871427,141.102367 54.2552952,141.159491 54.2552952,141.159491 C54.0267893,141.769848 53.8556089,142.406029 53.8460547,143.07351 C53.8380928,143.65022 53.8890488,144.234755 54.0658025,144.81616 C54.4041823,145.933584 55.0578524,146.869466 55.8978304,147.572943 C56.2290445,147.864819 58.8421326,149.855524 65.570715,146.629236 L65.5444408,146.691054 C66.9966872,145.984447 68.5006858,145.349832 70.1081888,144.880326 C78.2197493,142.50619 86.5558347,143.739426 93.3600549,147.608938 C94.8003585,148.428226 96.4858879,148.727145 98.0806519,148.259986 C101.731969,147.191078 103.155552,143.270703 101.806014,140.29873" id="Fill-13" fill="#25282C"></path>
                <path d="M213.992048,140.29873 L213.996029,140.29873 L213.988864,140.286992 C213.974532,140.255692 213.948258,140.228304 213.93313,140.196221 C213.882174,140.11484 213.801759,139.988856 213.672777,139.803401 C213.438698,139.407451 213.16879,139.032629 212.824041,138.692237 C210.302514,135.63497 203.470428,129.262991 190.264062,129.262991 C176.510715,129.262991 169.619711,136.706226 167.339429,139.811226 C167.020158,140.178223 166.737511,140.572608 166.530502,141.006119 C166.473177,141.102367 166.441329,141.159491 166.441329,141.159491 C166.21362,141.769848 166.041643,142.406029 166.032089,143.07351 C166.024127,143.65022 166.075083,144.234755 166.251837,144.81616 C166.590216,145.933584 167.243887,146.869466 168.083865,147.572943 C168.415079,147.864819 171.028167,149.855524 177.757545,146.629236 L177.730475,146.691054 C179.182721,145.984447 180.68672,145.349832 182.294223,144.880326 C190.405783,142.50619 198.741869,143.739426 205.546089,147.608938 C206.986393,148.428226 208.671922,148.727145 210.266686,148.259986 C213.918799,147.191078 215.341587,143.270703 213.992048,140.29873" id="Fill-14" fill="#25282C"></path>
                <path d="M74.1599327,58.3838609 C71.4386631,69.2642523 68.3152318,90.4276184 68.3152318,90.4276184 L202.412632,90.4276154 C202.412632,90.4276154 192.055721,20.0990543 167.044653,5.80847872 C154.440338,-1.39324947 101.306927,-2.46070044 71.555401,5.80847864 C43.2382224,13.6789933 11.9066254,73.9811909 11.9066254,73.9811909 C11.9066254,73.9811909 31.6044352,48.5013443 47.3235342,42.8443153 C61.4679093,37.7540019 89.10113,30.9597177 89.10113,30.9597177 C89.10113,30.9597177 76.4190624,49.3512333 74.1599327,58.3838609 Z" id="Path-16" fill="#C50000"></path>
                <g id="Path-14-Copy" transform="translate(136.879747, 95.227700) scale(1, -1) translate(-136.879747, -95.227700) ">
                    <use fill="black" fill-opacity="1" filter="url(#filter-4)" xlink:href="#path-3"></use>
                    <use fill="#FFFFFF" fill-rule="evenodd" xlink:href="#path-3"></use>
                </g>
                <path d="M4.82181536,210.257107 C4.53427662,212.964444 4.39167154,216.000587 4.13705937,219.199468 C3.66270208,225.159169 3.68868553,231.713683 4.13705937,237.541533 C4.38381667,240.748822 5.00529196,243.730749 5.16246645,246.284707 C5.54982373,252.578948 7.35032172,262.455015 9.30110332,270.054187 C10.9299964,276.399458 12.7942189,281.128781 12.7942189,281.128781 C12.7942189,281.128781 75.5125897,293.910025 75.0318076,299.079521 C74.688314,302.772855 102.905599,304.577438 132.923899,305.476125 C162.942199,306.374811 240.984615,305.476125 240.984615,305.476125 C240.984615,305.476125 249.2,298.514749 256.046154,283.472938 C262.892308,268.431128 263.68381,257.235511 264.668554,249.106056 C265.49626,242.273018 266.01717,232.916429 265.897614,224.345226 C265.729598,212.299767 264.020147,201.851014 264.020147,201.851014 C264.020147,201.851014 193.770557,238.072218 136.762837,239.289859 C79.7551165,240.507499 6.31009042,199.263679 6.31009042,199.263679 C6.31009042,199.263679 5.50801271,203.796178 4.82181536,210.257107 Z" id="Path-17" fill="#D91414"></path>
                <path d="M128.793251,238.705068 C128.793251,238.705068 132.547676,238.705068 134.302968,238.705068 C136.28968,238.705068 140.019264,238.705068 140.019264,238.705068 L140.698849,299.582084 C140.735598,302.874137 138.104953,305.542873 134.817547,305.542873 L134.779321,305.542873 L134.741095,305.542873 C131.456192,305.542873 128.793251,302.881507 128.793251,299.582084 L128.793251,238.705068 Z" id="Rectangle-5" fill="#FFFFFF"></path>
                <g id="Rectangle-1">
                    <use fill="black" fill-opacity="1" filter="url(#filter-6)" xlink:href="#path-5"></use>
                    <use fill="#FFFFFF" fill-rule="evenodd" xlink:href="#path-5"></use>
                </g>
                <path d="M66.3501113,278.792861 C66.3501113,278.792861 115.045374,270.158153 135.503151,270.158153 C156.233314,270.158153 203.352996,280.031454 203.352996,280.031454 L202.646154,284.840376 C202.646154,284.840376 155.647012,285.884695 135.503154,285.884695 C115.029444,285.884695 67.0923077,284.840376 67.0923077,284.840376 L66.3501113,278.792861 Z" id="Rectangle-2" fill="#26292D"></path>
                <polyline id="Path-20" stroke="#F6C724" stroke-width="1.95680742" points="125.859468 268.956557 125.859468 285.182617 144.750081 285.182617 144.750081 277.413342 136.080165 277.413342 144.750081 277.413342 144.750081 269.947529 125.133428 269.947529"></polyline>
                <ellipse id="Oval-1" stroke-opacity="0.510048687" stroke="#979797" stroke-width="2" fill="#FFFFFF" cx="13.891063" cy="64.8719871" rx="13.891063" ry="13.7607245"></ellipse>
                <path d="M199.907692,269.798565 C199.907692,269.798565 193.03003,312.189122 210.861538,314.923997 C217.359443,315.920601 224.553846,317.658871 236.876923,309.454247 C249.2,301.249624 257.415385,280.738064 257.415385,280.738064 L199.907692,269.798565 Z" id="Path-25" fill="#F6C823"></path>
                <g id="Rectangle-3-Copy" transform="translate(228.051455, 278.388333) rotate(10.000000) translate(-228.051455, -278.388333) ">
                    <use fill="black" fill-opacity="1" filter="url(#filter-8)" xlink:href="#path-7"></use>
                    <use fill="#FFFFFF" fill-rule="evenodd" xlink:href="#path-7"></use>
                </g>
                <g id="Group-43" transform="translate(40.708531, 291.696253) scale(-1, 1) translate(-40.708531, -291.696253) translate(9.708531, 266.696253)">
                    <path d="M2.73846154,3.10231199 C2.73846154,3.10231199 -4.13920111,45.4928692 13.6923077,48.2277438 C20.1902125,49.2243479 27.3846154,50.9626185 39.7076923,42.7579945 C52.0307692,34.5533705 60.2461538,14.0418106 60.2461538,14.0418106 L2.73846154,3.10231199 Z" id="Path-25" fill="#F6C823"></path>
                    <g id="Rectangle-3-Copy" transform="translate(30.882224, 11.692080) rotate(10.000000) translate(-30.882224, -11.692080) ">
                        <use fill="black" fill-opacity="1" filter="url(#filter-10)" xlink:href="#path-9"></use>
                        <use fill="#FFFFFF" fill-rule="evenodd" xlink:href="#path-9"></use>
                    </g>
                </g>
            </g>
            <g id="Logo2_EPS" transform="translate(376.000000, 141.000000)" fill="#000000">
                <path d="M274.12608,147.76616 C266.561373,155.435008 257.275042,159.258242 246.278267,159.258242 C235.449182,159.258242 226.24856,155.435008 218.683852,147.76616 C211.119144,140.119693 207.340517,130.261344 207.340517,118.217225 C207.340517,106.337225 211.119144,96.542286 218.683852,88.7913786 C226.24856,81.0479312 235.449182,77.1724775 246.278267,77.1724775 C257.111077,77.1724775 266.345238,81.0479312 273.999381,88.7913786 C281.646071,96.542286 285.473142,106.337225 285.473142,118.217225 C285.473142,130.261344 281.690788,140.119693 274.12608,147.76616 L274.12608,147.76616 Z M246.278267,49.3020348 C225.987708,49.3020348 208.927987,55.7996675 195.091652,68.7837428 C181.247864,81.7790081 174.33156,98.2543488 174.33156,118.217225 C174.33156,138.180101 181.247864,154.651711 195.091652,167.646977 C208.927987,180.642242 225.987708,187.139875 246.278267,187.139875 C266.736516,187.139875 283.881945,180.642242 297.722007,167.646977 C311.558342,154.651711 318.478373,138.180101 318.478373,118.217225 C318.478373,98.2543488 311.517351,81.7790081 297.595307,68.7837428 C283.669537,55.7996675 266.561373,49.3020348 246.278267,49.3020348 L246.278267,49.3020348 Z" id="Fill-16"></path>
                <path d="M535.346996,101.178656 C537.23631,92.9279312 540.97022,86.4302986 546.559905,81.6969485 C552.142138,76.9635984 559.151604,74.5950584 567.577123,74.5950584 C574.452437,74.5950584 580.25453,77.0904179 584.987131,82.0848669 C589.708552,87.0755859 592.160561,93.4389391 592.331978,101.178656 L535.346996,101.178656 L535.346996,101.178656 Z M567.577123,49.3020348 C547.808268,49.3020348 531.736059,55.7176078 519.356769,68.5338339 C506.977478,81.3537899 500.787833,97.9186502 500.787833,118.217225 C500.787833,137.490054 507.279321,153.793815 520.262298,167.135969 C533.237821,180.463203 550.301268,187.139875 571.445186,187.139875 C577.634831,187.139875 583.697777,186.397608 589.62657,184.935454 C595.55909,183.48076 600.410937,181.884327 604.197017,180.161074 C607.975645,178.449011 611.627573,176.46093 615.156527,174.226669 C618.685482,171.992408 620.958621,170.403435 621.983397,169.452289 C623.026805,168.512333 623.798181,167.773796 624.297527,167.259058 L610.647514,144.539724 L605.993169,148.154079 C603.071627,150.567379 598.521623,153.021708 592.331978,155.517068 C586.146059,158.016157 579.956414,159.258242 573.766769,159.258242 C563.451935,159.258242 554.594147,156.154895 547.208309,149.959391 C539.815018,143.767617 535.514687,135.087944 534.314767,123.897991 L625.091262,123.897991 L625.862639,111.760622 C625.862639,93.700038 620.708948,78.7726408 610.375483,66.9784304 C600.071829,55.19541 585.799498,49.3020348 567.577123,49.3020348 L567.577123,49.3020348 Z" id="Fill-17"></path>
                <path d="M888.100877,148.541997 C881.736088,155.863956 873.82482,159.519341 864.381978,159.519341 C854.059691,159.519341 846.066441,155.517068 840.3985,147.516251 C834.723106,139.515435 831.883545,130.007705 831.883545,118.989332 C831.883545,105.233149 835.06594,94.8600631 841.423275,87.8924524 C847.788064,80.9248417 855.606171,77.4335764 864.892502,77.4335764 C874.693084,77.4335764 882.593173,81.2269705 888.615128,88.7913786 C894.637083,96.3632468 897.640607,106.337225 897.640607,118.739423 C897.640607,131.29455 894.458213,141.227498 888.100877,148.541997 L888.100877,148.541997 Z M872.114376,49.3020348 C866.438982,49.3020348 861.061704,50.0778716 855.989996,51.6220851 C850.918288,53.1700286 846.97197,54.8522515 844.136136,56.6575639 C841.296576,58.4666063 838.676877,60.5740474 836.265859,62.9761573 C833.854841,65.3894571 832.353079,67.07168 831.756846,68.0116361 C831.15316,68.9627821 830.683626,69.693859 830.337066,70.2048669 L829.815362,70.2048669 L829.815362,65.0462986 C829.815362,56.616534 824.318837,52.3941918 813.318336,52.3941918 L753.49752,52.3941918 C744.554023,52.3941918 738.710939,56.5344744 735.96454,64.7851997 L735.222975,66.9560505 L709.148955,142.846311 L678.200728,64.7851997 C676.479105,60.3129485 674.32894,57.1275419 671.750231,55.2364399 C669.175249,53.3453378 665.564312,52.3941918 660.91742,52.3941918 L635.633409,52.3941918 L693.930104,183.775429 L689.544064,193.846386 C684.900898,205.032609 677.679024,210.620126 667.878442,210.620126 C660.656568,210.620126 654.384941,207.613759 649.052381,201.586104 L636.427144,224.816446 L640.287754,228.169702 C642.698772,230.407693 646.652543,232.641953 652.152793,234.887404 C657.653044,237.121664 663.496129,238.24066 669.685774,238.24066 C680.00806,238.24066 689.36892,235.357382 697.801893,229.590826 C706.212506,223.82427 712.663004,215.267686 717.138479,203.913614 L764.330331,84.9233849 C765.53025,81.823768 768.02325,80.2758245 771.801878,80.2758245 L794.492275,80.2758245 C798.267176,80.2758245 800.167669,82.1669265 800.167669,85.9491306 L800.167669,235.659511 L832.654922,235.659511 L832.654922,181.19428 C832.654922,176.725759 832.487231,172.932365 832.144397,169.840208 L832.654922,169.840208 L836.265859,174.226669 C838.676877,176.983127 843.00702,179.825375 849.289826,182.742223 C855.561454,185.666531 862.574646,187.139875 870.310771,187.139875 C887.840025,187.139875 902.283773,180.806361 913.630834,168.157985 C924.97417,155.517068 930.649564,138.866418 930.649564,118.217225 C930.649564,97.743341 925.317004,81.1337209 914.663063,68.3995545 C903.997943,55.6653881 889.815047,49.3020348 872.114376,49.3020348 L872.114376,49.3020348 Z" id="Fill-18"></path>
                <path d="M1046.94856,147.76616 C1039.38386,155.435008 1030.10498,159.258242 1019.1082,159.258242 C1008.27539,159.258242 999.071043,155.435008 991.513788,147.76616 C983.94908,140.119693 980.159273,130.261344 980.159273,118.217225 C980.159273,106.337225 983.94908,96.542286 991.513788,88.7913786 C999.071043,81.0479312 1008.27539,77.1724775 1019.1082,77.1724775 C1029.92983,77.1724775 1039.17517,81.0479312 1046.82559,88.7913786 C1054.47601,96.542286 1058.29563,106.337225 1058.29563,118.217225 C1058.29563,130.261344 1054.517,140.119693 1046.94856,147.76616 L1046.94856,147.76616 Z M1019.1082,49.3020348 C998.817643,49.3020348 981.757923,55.7996675 967.917861,68.7837428 C954.0778,81.7790081 947.161495,98.2543488 947.161495,118.217225 C947.161495,138.180101 954.0778,154.651711 967.917861,167.646977 C981.757923,180.642242 998.817643,187.139875 1019.1082,187.139875 C1039.56273,187.139875 1056.70815,180.642242 1070.54822,167.646977 C1084.38455,154.651711 1091.30458,138.180101 1091.30458,118.217225 C1091.30458,98.2543488 1084.34356,81.7790081 1070.42152,68.7837428 C1056.48829,55.7996675 1039.38386,49.3020348 1019.1082,49.3020348 L1019.1082,49.3020348 Z" id="Fill-19"></path>
                <path d="M1180.26257,156.415994 C1173.72636,156.415994 1167.7603,154.651711 1162.34203,151.130606 C1156.92749,147.602041 1154.2109,141.104408 1154.2109,131.637708 L1154.2109,78.4705121 L1184.13435,78.4705121 L1184.13435,52.3941918 L1154.2109,52.3941918 L1154.2109,16.5229328 L1122.2379,16.5229328 L1122.2379,52.3941918 L1104.44407,52.3941918 L1104.44407,78.4705121 L1121.4628,78.4705121 L1121.4628,135.766801 C1121.4628,144.204025 1122.8006,151.559554 1125.46129,157.837118 C1128.12198,164.125872 1131.39753,168.941281 1135.26187,172.294537 C1139.13366,175.647793 1143.72465,178.352032 1149.05721,180.422173 C1154.38977,182.488584 1159.11865,183.827649 1163.24011,184.420716 C1167.37275,185.028704 1171.6619,185.330832 1176.13738,185.330832 C1180.0837,185.330832 1183.44496,185.069733 1186.18763,184.547536 L1186.18763,155.904986 L1180.26257,156.415994" id="Fill-20"></path>
                <path d="M115.181506,18.3319752 L115.181506,78.4705121 L34.4664457,78.4705121 L34.4664457,18.3319752 C34.4664457,12.3043205 33.0913831,7.87682918 30.3449842,5.03458114 C27.5911324,2.19233311 23.1231104,0.771209088 16.9334651,0.771209088 L0.686112231,0.771209088 L0.686112231,184.036528 L34.4664457,184.036528 L34.4664457,107.120521 L115.181506,107.120521 L115.181506,184.036528 L148.96184,184.036528 L148.96184,0.771209088 L132.718213,0.771209088 C121.024591,0.771209088 115.181506,6.63101443 115.181506,18.3319752" id="Fill-21"></path>
                <path d="M426.009019,49.3020348 C414.147706,49.3020348 404.347123,52.0510333 396.607272,57.5564901 C388.874874,63.0731369 383.203206,69.4327601 379.592269,76.6614697 L379.078018,76.6614697 L379.592269,70.9807036 L379.592269,67.1127099 C379.592269,57.3065811 373.831166,52.3941918 362.316414,52.3941918 L348.133518,52.3941918 L348.133518,184.036528 L380.624498,184.036528 L380.624498,123.636892 C380.624498,117.098229 381.481583,111.249614 383.203206,106.087316 C385.610497,98.0044399 389.944367,91.5068072 396.223447,86.5944179 C402.498801,81.6969485 409.929356,79.2426188 418.530019,79.2426188 C426.269871,79.2426188 431.639695,81.5290992 434.646946,86.08341 C437.654197,90.6377209 439.163412,97.3143928 439.163412,106.087316 L439.163412,166.486952 C439.163412,172.682456 440.534748,177.150977 443.284874,179.911165 C446.034999,182.656434 450.506747,184.036528 456.696393,184.036528 L471.911517,184.036528 L471.911517,99.3696141 C471.911517,65.9974446 456.606958,49.3020348 426.009019,49.3020348" id="Fill-22"></path>
            </g>
        </g>
    </g>
</svg>