<?xml version="1.0" encoding="UTF-8" standalone="no"?>
<svg width="118px" height="31px" viewBox="0 0 118 31" version="1.1" xmlns="http://www.w3.org/2000/svg" xmlns:xlink="http://www.w3.org/1999/xlink">
    <!-- Generator: Sketch 39.1 (31720) - http://www.bohemiancoding.com/sketch -->
    <title>path2995</title>
    <desc>Created with Sketch.</desc>
    <defs></defs>
    <g id="About-page" stroke="none" stroke-width="1" fill="none" fill-rule="evenodd">
        <g id="About-Honeypot-Copy" transform="translate(-154.000000, -4731.000000)">
            <g id="Group-13" transform="translate(151.000000, 4721.399995)">
                <g id="Forbes_logo" transform="translate(0.000000, 2.000000)">
                    <g id="svg2985">
                        <path d="M33.3509146,37.9198601 C31.2833684,37.626197 29.4750212,36.77261 28.094084,35.4384994 C26.9422072,34.3256834 26.1953747,33.1018658 25.6448447,31.4249859 C24.7853307,28.8069595 24.7850288,25.4409943 25.6440773,22.8763629 C26.4765982,20.3909279 28.3510839,18.2274699 30.6452416,17.1042149 C33.8223141,15.548671 38.2939335,15.6463844 41.2364211,17.3356524 C43.8845668,18.85594 45.4886904,21.557282 45.9349564,25.2479819 C46.071217,26.3748829 45.9828084,28.7550315 45.768194,29.7375531 C44.8898112,33.7588584 42.3315832,36.5679702 38.5835873,37.6267483 C38.1797111,37.7408395 37.5534176,37.8743225 37.1918237,37.9233755 C36.4266597,38.0271774 34.0914373,38.02504 33.3509138,37.9198576 L33.3509146,37.9198601 Z M37.2407751,36.8005506 C38.7083523,36.4655064 39.8782263,35.9540105 40.9240012,35.1901567 C43.4676078,33.3322607 44.8613971,30.4834895 44.9900964,26.8794491 C45.1169712,23.3264896 44.0213383,20.2977982 41.9027513,18.3450066 C40.1829943,16.7598345 38.0158288,16 35.2144306,16 C32.2448293,16 29.8532953,16.9004819 28.0133753,18.7114046 C26.0424964,20.6512225 25,23.3572683 25,26.5333314 C25,29.8281228 25.9418598,32.4878795 27.7684771,34.3513447 C28.7755703,35.3787554 29.7559175,35.9949051 31.1617415,36.4840185 C31.658784,36.6569499 32.0245094,36.7399783 33.3535019,36.9816024 C33.4672254,37.0022782 34.2302061,37.0061115 35.0490147,36.9901215 C36.157488,36.9684735 36.7173298,36.9200514 37.2407751,36.8005506 L37.2407751,36.8005506 Z M34.0803476,36.8229389 C32.7097522,36.2090518 31.7378525,34.3431671 31.2507583,31.3906 C30.9419772,29.5188957 30.912815,25.3566341 31.1941929,23.3171495 C31.5893307,20.4531094 32.4240222,18.7610436 33.7236688,18.1894606 C34.614506,17.7976717 35.8490747,18.0294563 36.6428907,18.7375317 C38.4058763,20.3100965 39.2957114,24.7817822 38.9117895,30.1394302 C38.6362933,33.984004 37.7912178,36.0691801 36.2149102,36.7938308 C35.6434726,37.0565294 34.6326475,37.0703127 34.0803476,36.8229389 L34.0803476,36.8229389 Z M35.9606268,36.8775264 C36.5847392,36.7005963 37.3544123,36.0115871 37.7648485,35.2623924 C38.6121475,33.7157634 38.990506,31.428715 38.9998641,27.797142 C39.0115922,23.2458453 38.2642139,20.3496869 36.6866608,18.8332726 C36.0241866,18.1964727 35.5544398,17.9987053 34.7074465,18.0000064 C32.8276552,18.0028911 31.6345713,19.8762345 31.1631885,23.5650855 C30.9465151,25.2606779 30.9453768,29.3002252 31.1611534,30.7827857 C31.8289075,35.3707822 33.5529332,37.5600824 35.960626,36.8775264 L35.9606268,36.8775264 Z M68.7495022,37.9180107 C67.9124739,37.8350928 65.3545937,37.4191567 64.4610924,37.2206733 L63.8429387,37.0833569 L63.8911423,33.857833 C64.0071983,26.0920595 64.0217958,21.8527346 63.946677,17.729966 C63.8730905,13.6912559 63.8516309,13.2642353 63.6922397,12.6668206 C63.4902761,11.9098447 63.1987743,11.3818173 62.8481755,11.1378806 C62.7119745,11.0431164 62.3419309,10.9088182 62.0258578,10.8394415 C60.9752586,10.60884 61.0323273,10.6458174 61.004279,10.1775035 C60.9881222,9.90773986 61.0180361,9.72952677 61.0886526,9.67484309 C61.1833224,9.6015347 69.8002355,7.99549877 70.0746921,8.00000948 C70.1535571,8.00130549 70.1647281,9.07788754 70.1243241,12.7833811 C70.095648,15.4133156 70.0919643,17.5650799 70.1161399,17.5650799 C70.1403129,17.5650799 70.4551778,17.4318609 70.815839,17.2690383 C71.9029821,16.7782406 72.9049989,16.5652802 74.3603538,16.5157162 C75.3293189,16.4827167 75.7781532,16.5033819 76.275288,16.603885 C79.5256036,17.2609811 81.9309134,19.860518 82.7714879,23.6246467 C82.9907667,24.6065851 83.0723459,27.0469458 82.9267557,28.2692989 C82.8026674,29.3111289 82.448643,30.7148618 82.0802354,31.6258159 C80.6900862,35.0632119 77.7074553,37.3057645 73.7507363,37.8885233 C72.8393208,38.0227596 69.977254,38.0396341 68.7495039,37.9180107 L68.7495022,37.9180107 Z M74.5382974,37.8704254 C77.1434959,37.4904384 79.0544062,36.6203877 80.6727209,35.0773809 C83.011966,32.8469909 84.1386797,29.6991604 83.9863854,25.8196154 C83.9079764,23.8222141 83.5725416,22.5174555 82.7213197,20.8988211 C81.5681181,18.7059592 79.5957672,17.1678006 77.3562958,16.7148515 C75.6764206,16.3750849 73.514998,16.6412081 71.8716421,17.3901438 C71.4620992,17.5767879 71.0700686,17.729496 71.0004637,17.729496 C70.8899768,17.729496 70.8780047,17.1118879 70.9061632,12.8647481 L70.9384169,8 L70.5943469,8.06707376 C70.4051079,8.10396471 68.4750353,8.45370307 66.3052965,8.84426985 C64.1355577,9.23483663 62.2756876,9.57369003 62.1722511,9.59727815 C62.015036,9.63312989 61.9874897,9.69140627 62.0043262,9.95253364 C62.0230897,10.2435436 62.0476755,10.2698682 62.3639128,10.3375408 C63.451084,10.5701901 63.6446573,10.6530938 64.0488848,11.0591861 C64.5440766,11.5566609 64.7677501,12.1919179 64.9145016,13.5176299 C65.0314411,14.574031 65.0573708,32.7745084 64.9457639,35.4609785 L64.8795869,37.0539247 L65.7639621,37.2378457 C69.112688,37.934269 72.4506794,38.1749192 74.5382974,37.8704254 L74.5382974,37.8704254 Z M70.6614156,36.9549003 C70.4852091,36.9371169 70.2966774,36.871449 70.2424561,36.8089716 C70.0929836,36.6367393 69.9310793,25.3165001 70.030723,22.0046888 L70.109758,19.377837 L70.8073843,19.1855056 C71.8366438,18.9017448 72.9447116,18.9458525 73.7302545,19.3018535 C75.3077925,20.0167791 76.3441442,21.782789 76.8823577,24.6732366 C77.0576729,25.6147587 77.0317666,28.8848948 76.8397737,30.0485326 C76.4388793,32.4782862 75.7094133,34.3535965 74.6939171,35.5650997 C74.2016292,36.1524079 73.3840845,36.7079095 72.744846,36.8894466 C72.3324207,37.0065709 71.4485395,37.0343388 70.6614156,36.9549003 L70.6614156,36.9549003 Z M72.9371228,35.9357001 C73.512494,35.8248467 73.9594819,35.5922214 74.4393901,35.1538775 C75.6421821,34.0552561 76.5464911,31.7871833 76.9021557,28.9770806 C77.0470167,27.8325308 77.0275065,25.2245171 76.8669362,24.2691948 C76.4326703,21.6855018 75.4994516,19.987393 74.1380512,19.303642 C73.5733141,19.0200073 73.4862273,19 72.8163886,19 C72.3373207,19 71.9251975,19.0521069 71.5747782,19.1569837 L71.0502558,19.3139667 L71.0115191,22.2547063 C70.9618978,26.0217342 71.0825346,35.4526058 71.1838038,35.7232019 C71.2484295,35.8958867 71.3195821,35.9324994 71.6402324,35.9580656 C72.3950069,36.0182459 72.5198523,36.0160928 72.9371228,35.9357001 L72.9371228,35.9357001 Z M93.4355454,37.8747732 C89.2216465,37.1303375 86.2080258,34.2035532 85.2233138,29.8991553 C85.0966606,29.3455272 85.0406515,28.7260668 85.0088926,27.5275506 C84.9586424,25.6314309 85.1161032,24.4545688 85.6156918,22.9922873 C86.5749644,20.1845217 88.2941838,18.1949141 90.7915066,17.0024418 C93.4274337,15.7437872 97.0312632,15.6613497 99.3640328,16.8063449 C101.990489,18.0954938 103.535963,20.6695396 103.928027,24.407849 C103.980808,24.9111608 104.011403,25.5101436 103.996021,25.7389217 L103.968042,26.1548819 L97.6825198,26.1761949 L91.3969977,26.197507 L91.4209592,26.9249233 C91.4764586,28.6098874 91.8463191,30.1002388 92.5305407,31.3959807 C92.8415381,31.9849321 93.0890433,32.3060243 93.6903639,32.9006452 C95.0487671,34.2439097 96.4001204,34.7640014 98.5319146,34.7640014 C100.077601,34.7640014 101.189153,34.461892 102.351626,33.7258404 C102.677225,33.5196747 103.007138,33.3509937 103.084765,33.3509937 C103.262212,33.3509937 103.670754,33.8661163 103.670754,34.0898522 C103.670754,34.4564487 102.452084,35.6386127 101.263433,36.4250637 C100.289916,37.0691731 98.7460131,37.6523884 97.4072479,37.8817505 C96.4696349,38.0423861 94.3633819,38.0386857 93.4355454,37.8747707 L93.4355454,37.8747732 Z M96.5985,36.8868652 C98.499461,36.5831933 100.371396,35.684447 101.716788,34.4294996 C102.453751,33.7420739 102.698161,33.4103426 102.595683,33.236577 C102.322197,32.7728464 102.334019,32.7733474 101.635722,33.1958927 C100.523919,33.8686498 99.9666189,34.0541351 98.6603527,34.1861772 C97.1345433,34.3404134 95.727128,34.0892141 94.426654,33.4305364 C93.5639457,32.9935836 92.5300822,31.9885667 92.0133597,31.0845932 C91.3082122,29.8509711 90.9255948,28.4099533 90.8114832,26.558113 C90.7635709,25.7805393 90.7739574,25.5868077 90.8666808,25.5289707 C90.9298774,25.4895504 93.6655132,25.457169 96.9904536,25.4564845 L103,25.4552481 L103,25.2213681 C103,24.6898506 102.82288,23.2611497 102.664122,22.5120976 C102.025773,19.5002197 100.340417,17.3525797 97.93723,16.4886464 C96.9807071,16.1447841 96.0758376,16 94.8832729,16 C92.0575883,16 89.749824,16.9129979 87.9646073,18.7371642 C86.5412661,20.1915656 85.696771,21.8253896 85.1813775,24.1218156 C85.02604,24.8139341 85,25.1736037 85,26.6270523 C85,28.0697446 85.0265651,28.4418239 85.177177,29.1091495 C86.1338558,33.3478483 88.9647434,36.1391902 93.031947,36.8542082 C94.0626765,37.035412 95.5815616,37.0493201 96.5985,36.886866 L96.5985,36.8868652 Z M91.0133497,24.965673 C90.9545879,24.867334 91.1003678,23.429492 91.2446091,22.6847427 C91.5922674,20.8896442 92.148919,19.5933581 92.9148919,18.7951281 C93.3269117,18.36576 93.5149119,18.2319106 93.8509335,18.1286998 C94.082185,18.0576674 94.3440905,17.9997528 94.4329439,18.0000008 C94.7913096,18.0010025 95.2141695,18.190134 95.5288934,18.4901883 C96.3736137,19.2955478 96.8569458,21.0249922 96.9527188,23.5849071 L97,24.8485779 L96.1877377,24.8953935 C94.5573558,24.9893631 91.0559216,25.0369202 91.0133497,24.965673 L91.0133497,24.965673 Z M95.5560852,24.8960555 L97,24.8441005 L96.9480229,23.7832956 C96.7647129,20.0425735 95.8796662,17.9983641 94.4441251,18.000001 C92.8839651,18.0017778 91.6372031,20.0763312 91.1188345,23.533152 C91.0551142,23.9580422 91.0023154,24.4619019 91.0014938,24.6528398 L91,25 L92.5560769,24.9740053 C93.4119191,24.9597084 94.7619216,24.9246313 95.5560769,24.8960555 L95.5560852,24.8960555 Z M110.210157,37.9795937 C108.712847,37.8205742 106.329933,37.3036609 105.536521,36.9657653 L105.148997,36.8007303 L105.096152,34.8984135 C105.06709,33.8521389 105.033566,32.4532181 105.021658,31.7897001 L105,30.5833042 L105.232257,30.4730095 C105.359992,30.4123471 105.617806,30.3556801 105.80516,30.3470816 L106.145814,30.3314493 L106.436044,31.0392188 C107.568327,33.8004788 108.896268,35.289304 110.630743,35.74212 C111.292402,35.9148583 112.532965,35.9163771 113.022793,35.7450511 C114.394889,35.2651331 115.147297,34.2357607 115.153844,32.8295596 C115.161575,31.1641841 114.237707,30.3640029 110.747393,29.0131266 C108.585003,28.176205 107.830688,27.7454289 106.932536,26.8345325 C105.963663,25.8519087 105.498635,24.7333905 105.411333,23.1756001 C105.305836,21.2931616 105.900472,19.7062408 107.218067,18.3539247 C108.544025,16.9930285 110.265389,16.2554482 112.610292,16.0434291 C114.675235,15.8567231 117.84488,16.2906599 119.505575,16.9874202 L119.808553,17.1145356 L119.862584,18.8100507 C119.892301,19.7425833 119.923035,20.9926668 119.930884,21.588014 L119.945154,22.6704621 L119.538276,22.8201461 C118.894971,23.0568093 118.852723,23.0271493 118.494866,22.0876995 C117.491788,19.45438 116.326358,18.2083708 114.510421,17.8277584 C113.403712,17.5957975 112.479254,17.8451711 111.807325,18.5569259 C111.283116,19.1122043 111.078592,19.6053131 111.029033,20.4333623 C110.975347,21.3305399 111.137169,21.8154808 111.690415,22.4152563 C112.372303,23.1545086 113.489468,23.7926384 115.71488,24.714056 C118.440617,25.8426308 119.741202,26.8007556 120.448236,28.2010761 C120.907422,29.1105061 121.037426,29.8368865 120.991237,31.2350379 C120.95657,32.284182 120.922684,32.4998419 120.681787,33.2042756 C119.896385,35.5009253 118.123343,37.0129204 115.384311,37.7217865 C114.456551,37.9618929 114.324118,37.9743168 112.47928,37.99433 C111.416154,38.0058629 110.395049,37.9992346 110.210157,37.979597 L110.210157,37.9795937 Z M114.218723,36.895029 C117.869485,36.3724006 120.226562,34.5271025 120.84486,31.7076047 C121.143414,30.3461347 121.004083,28.832188 120.487059,27.8197962 C119.763191,26.4023928 118.53921,25.5466732 115.507631,24.3385383 C113.256064,23.4412524 111.90638,22.6806269 111.353636,21.9975293 C110.896993,21.4332017 110.748545,20.9992939 110.754638,20.2466693 C110.763832,19.1114843 111.220346,18.2420456 112.091836,17.6999401 C112.821487,17.2460693 113.735812,17.135342 114.800381,17.3719298 C116.086874,17.65784 117.054303,18.4021237 117.927993,19.7781333 C118.206027,20.2160212 118.777675,21.4452677 119.056036,22.2038212 C119.099223,22.3215133 119.148949,22.3264638 119.449033,22.2429456 C119.637987,22.1903557 119.81913,22.122302 119.851584,22.0917163 C119.884031,22.0611298 119.8819,20.900806 119.846858,19.5132205 L119.783118,16.9903365 L119.47134,16.8658999 C118.945199,16.6559153 117.572031,16.3038022 116.667665,16.1469761 C115.987113,16.0289617 115.388407,15.9984051 113.789104,16.0000631 C111.880137,16.0020394 111.724257,16.0138081 110.935824,16.2154331 C108.645624,16.8011071 106.947643,18.0193722 106.060341,19.7135025 C105.588773,20.6138663 105.425821,21.3078766 105.431183,22.3930636 C105.438744,23.9338701 105.884242,25.0712477 106.869286,26.0649828 C107.716854,26.9200318 108.818758,27.5300694 110.695726,28.1833881 C112.172737,28.6974917 113.697446,29.4153083 114.275315,29.8686235 C114.61495,30.1350453 114.881797,30.4385714 115.080805,30.7848285 C115.363814,31.2772243 115.378422,31.3423564 115.378585,32.1125847 C115.378585,32.8546289 115.355883,32.9680532 115.10599,33.4652756 C114.453072,34.764399 113.146902,35.4094082 111.436057,35.2775435 C109.111323,35.0983633 107.474771,33.6492726 106.142299,30.5901554 C105.794732,29.7922208 105.77093,29.7756822 105.242547,29.9650444 L105,30.0519693 L105.060673,32.9046876 C105.114524,35.4365273 105.137561,35.7691212 105.265446,35.8615652 C105.647521,36.1377462 108.12072,36.6910672 109.836454,36.8842241 C111.168325,37.0341655 113.211622,37.0392035 114.21874,36.895029 L114.218723,36.895029 Z M4.11188412,37.9527452 C4.04189867,37.9250865 4.006665,37.7196233 4.006665,37.3391653 C4.006665,36.656072 3.96221161,36.6866567 5.31138205,36.4414899 C6.34616123,36.2534534 6.71637234,36.0611654 7.17332078,35.4743959 C8.05928957,34.3367203 8.250785,32.1461781 8.25276985,23.126415 C8.25463433,14.6557881 8.08802196,12.8738704 7.17172911,11.5646981 C6.76519754,10.9838579 6.08010139,10.6684638 4.93259323,10.53388 L4.04875265,10.4302197 L4.02437632,9.75441436 L4,9.07860906 L4.2769022,9.0302819 C4.42919838,9.00370233 9.78004217,8.99247114 16.1676667,9.00532316 L27.7815298,9.02869158 L27.8359836,9.35846289 C27.8659332,9.53983711 27.915089,11.4002362 27.9452187,13.492683 L28,17.2971307 L27.4011921,17.4752699 C26.4998212,17.7434185 26.5052749,17.7466849 26.0997924,16.6958746 C25.1038051,14.1147669 23.9617231,12.6274909 22.3989667,11.8764721 C21.3211399,11.3584979 20.8227868,11.2958694 17.7789308,11.2958694 L15.1299174,11.2958694 L15.0842532,11.7286942 C14.99862,12.5403471 14.8634067,17.7614982 14.8643436,20.2203053 L14.8652779,22.6729794 L15.6438994,22.6686099 C16.0721412,22.6662026 16.916581,22.6353401 17.5204327,22.6000183 C18.4281849,22.5469194 18.6979002,22.4997241 19.0776756,22.3275308 C20.0107815,21.9044515 20.6455928,20.9732935 21.0345045,19.4572037 L21.2352853,18.6745022 L21.9223451,18.6505575 L22.6094049,18.6266128 L22.6094049,23.5798505 L22.6094049,28.5330882 L21.9220817,28.5091435 L21.2347584,28.4851988 L21.0396636,27.7019919 C20.6730996,26.2304229 19.9676509,25.1769148 19.0959315,24.7992484 C18.6933522,24.624834 17.6972075,24.5257047 15.7701623,24.468294 L14.8652779,24.4413352 L14.8652779,26.3021803 C14.8652779,28.3299993 14.979098,31.0732704 15.1250058,32.5620882 C15.3284087,34.6375847 15.8699311,35.7844815 16.8424529,36.1994896 C17.0281579,36.278737 17.6157056,36.4074583 18.1481144,36.4855366 C18.6805231,36.5636157 19.1824183,36.6610244 19.263437,36.7020009 C19.4689047,36.8059201 19.4810301,37.8808452 19.2775961,37.9573035 C19.1183895,38.0171397 4.26352574,38.0126746 4.11188412,37.9527444 L4.11188412,37.9527452 Z M19.2945733,37.5390173 C19.2945733,37.2854769 19.2714968,37.0780347 19.2432929,37.0780347 C18.8363871,37.0780347 16.9402327,36.6767451 16.6354316,36.5261236 C15.5510247,35.9902514 15.0497291,34.7165119 14.8552158,32.0027815 C14.7169445,30.0737082 14.5793505,24.4063773 14.6686582,24.318726 C14.7496395,24.2392468 18.3602261,24.3804474 18.7821792,24.4795947 C19.9488979,24.753742 20.8481922,25.8801271 21.2984876,27.6313223 L21.4969591,28.4031791 L22.0183474,28.4281325 L22.5397357,28.4530851 L22.5397357,23.5878146 L22.5397357,18.7225432 L21.9846422,18.7225432 C21.4656903,18.7225432 21.4295486,18.7348389 21.4295486,18.9113935 C21.4295486,19.228967 21.1056199,20.2338908 20.7989759,20.8676187 C20.3187004,21.8601848 19.6422993,22.4592946 18.7821792,22.6539584 C18.5708166,22.7017941 17.5730974,22.7784137 16.5650253,22.8242244 C15.1432521,22.8888341 14.7166627,22.8846651 14.663039,22.8056359 C14.5639283,22.6595681 14.7898437,11.6243726 14.9024423,11.1116141 L14.944889,10.9183157 L18.08047,10.943984 L21.2160511,10.9696532 L21.9457147,11.2261205 C23.6358047,11.8201662 24.8519208,13.0332429 25.8679641,15.1385675 C26.0962331,15.61156 26.3888136,16.3002891 26.518141,16.669075 C26.6474684,17.0378611 26.761909,17.3513218 26.7724524,17.3656541 C26.7829966,17.3799865 27.0635076,17.3106614 27.3958114,17.2115996 L28,17.031487 L27.9575148,14.2939232 C27.934148,12.7882625 27.8928593,10.9811778 27.8657613,10.2781792 L27.816492,9 L15.9082462,9 L4,9 L4.02542482,9.52347347 L4.05084956,10.0469469 L4.81944067,10.1412958 C5.84474796,10.2671584 6.22068842,10.3767884 6.63355848,10.6703229 C7.25941343,11.1152801 7.64431173,11.768941 7.88668455,12.7984645 C8.26323527,14.3979394 8.39876008,18.0050547 8.33599352,24.7572253 C8.26967179,31.8917685 8.17798912,33.3756281 7.7145531,34.8150289 C7.33340023,35.998865 6.62399883,36.626425 5.45223899,36.8163474 C5.12974447,36.8686186 4.67289486,36.952007 4.43701766,37.0016557 L4.00815005,37.0919253 L4.00815005,37.5459623 L4.00815005,38 L11.6513617,38 L19.2945733,38 L19.2945733,37.5390173 L19.2945733,37.5390173 Z M45.09813,36.9494388 C45.0235834,36.9022769 44.9992252,36.7151164 45.0163993,36.3214503 L45.0408654,35.7606471 L45.3269231,35.7001633 C45.4842548,35.6668973 45.8221903,35.6008683 46.0778915,35.5534322 C46.8692464,35.406624 47.324034,34.9801097 47.5799363,34.1447683 C47.7884176,33.4642197 47.8803214,31.2870338 47.885119,26.9150185 C47.8909873,21.5678864 47.7788012,20.3051445 47.2342855,19.5893311 C46.9391712,19.2013772 46.7264358,19.0910495 46.0103541,18.9545833 C45.6569429,18.8872324 45.2850361,18.8150196 45.1838942,18.7941107 C45.0201082,18.7602514 45,18.7072669 45,18.3095617 C45,17.9228398 45.024632,17.8529715 45.1838942,17.7879439 C45.4285103,17.6880662 53.5251731,16.0811523 53.7838052,16.0811523 L53.9855772,16.0811523 L53.9460105,17.2781525 C53.9242481,17.9365026 53.8894569,18.8951172 53.8686965,19.4084071 L53.83095,20.3416615 L54.1242711,19.8164405 C55.0632636,18.1350829 56.1163074,17.0913677 57.5165818,16.4541806 C58.2852613,16.1043977 58.7981325,16 59.7478179,16 C60.8740867,16 62,16.3648884 62,16.7298923 C62,16.9753212 60.0156881,22.1813656 59.9062473,22.2230642 C59.8528591,22.2434067 59.465394,22.0962528 59.0452137,21.8960576 C58.168929,21.4785488 57.3468156,21.2743933 56.5487694,21.2761153 C55.5549682,21.2782578 54.4448306,21.6417279 54.0065199,22.1084695 C53.8190352,22.3081145 53.8181525,22.3201186 53.7715717,25.3017398 C53.7254421,28.2544699 53.8245463,31.8561761 53.9917814,33.3047614 C54.1342504,34.5388289 54.4644836,35.1463969 55.1465309,35.4292875 C55.3740694,35.523663 56.8136841,35.7195109 57.2834857,35.7200027 C57.3190909,35.72004 57.3374803,36.0030904 57.3243511,36.3490032 L57.3004808,36.9779355 L51.2524038,36.9972798 C47.9259615,37.0079189 45.1565381,36.9863908 45.09813,36.9494388 L45.09813,36.9494388 Z M58.2670428,36.5521284 L58.2670428,36.1042568 L57.6207705,36.0501244 C56.1301663,35.9252705 55.7217913,35.7768487 55.3303329,35.2176742 C54.7630651,34.4073658 54.6395787,32.9120985 54.6395787,26.8534777 L54.6395787,22.1247444 L54.8463025,21.906482 C55.1071422,21.6310839 55.9225277,21.2468063 56.4991102,21.1275414 C57.669888,20.8853696 59.1666314,21.0945781 60.3371974,21.6640141 C60.6731539,21.8274443 60.9621035,21.9471981 60.9793077,21.9301334 C61.0137861,21.8959343 62.9364155,16.8563863 62.9960793,16.643822 C63.023156,16.5473573 62.9123825,16.4633112 62.5889769,16.3349461 C61.8968151,16.0602137 61.296554,15.9660005 60.5222672,16.0105669 C58.4512187,16.1297732 56.6132236,17.4945297 55.2893359,19.8961468 C55.0695625,20.294829 54.8419345,20.6213702 54.7834948,20.6217937 C54.6985963,20.6223727 54.6887163,20.1643968 54.7343364,18.3430116 L54.7914327,16.0634603 L54.5904203,16.1104685 C54.4798644,16.1363233 52.8133382,16.4712121 50.8870297,16.8546658 C46.7556166,17.6770703 46.1813599,17.7969193 46.0828471,17.8573098 C46.0420752,17.8823044 46.0087159,18.0301232 46.0087159,18.1857965 C46.0087159,18.4981316 45.9719301,18.4800246 46.9107003,18.6297789 C48.2011168,18.83563 48.6569306,19.4597468 48.8493705,21.2842784 C49.1002835,23.6631879 49.0000187,32.9369028 48.7096973,34.203006 C48.5612615,34.8503391 48.1777084,35.4738124 47.791622,35.6953561 C47.6485398,35.7774591 47.1982339,35.9091792 46.7909423,35.9880672 L46.0504109,36.1314996 L46.0252055,36.5657498 L46,37 L52.1335214,37 L58.2670428,37 L58.2670428,36.5521284 L58.2670428,36.5521284 Z" id="path2995"></path>
                    </g>
                </g>
            </g>
        </g>
    </g>
</svg>