<?xml version="1.0" encoding="UTF-8" standalone="no"?>
<svg width="40px" height="40px" viewBox="0 0 40 40" version="1.1" xmlns="http://www.w3.org/2000/svg" xmlns:xlink="http://www.w3.org/1999/xlink">
    <!-- Generator: Sketch 41 (35326) - http://www.bohemiancoding.com/sketch -->
    <title>globe</title>
    <desc>Created with Sketch.</desc>
    <defs></defs>
    <g id="Landing-Pages" stroke="none" stroke-width="1" fill="none" fill-rule="evenodd">
        <g id="company-opt2-pricing" transform="translate(-219.000000, -1028.000000)" fill="#3685D6">
            <g id="globe" transform="translate(219.000000, 1028.000000)">
                <g id="Group">
                    <path d="M20,39.7959184 C9.06122449,39.7959184 0.204081633,30.9387755 0.204081633,20 C0.204081633,9.06122449 9.06122449,0.204081633 20,0.204081633 C30.9387755,0.204081633 39.7959184,9.10204082 39.7959184,20 C39.7959184,30.9387755 30.9387755,39.7959184 20,39.7959184 L20,39.7959184 Z M20,0.816326531 C9.42857143,0.816326531 0.816326531,9.42857143 0.816326531,20 C0.816326531,30.5714286 9.42857143,39.1836735 20,39.1836735 C30.5714286,39.1836735 39.1836735,30.5714286 39.1836735,20 C39.1836735,9.42857143 30.5714286,0.816326531 20,0.816326531 L20,0.816326531 Z" id="Shape"></path>
                    <rect id="Rectangle-path" x="0.489795918" y="19.6734694" width="39.1836735" height="0.612244898"></rect>
                </g>
                <path d="M19.7142857,11.6734694 C17.5102041,11.6734694 15.5102041,11.4285714 13.8367347,11.1428571 C8.44897959,10.122449 4.89795918,8.04081633 4.69387755,7.79591837 L4.73469388,7.3877551 L5.18367347,7.83673469 L4.97959184,7.63265306 L5.30612245,7.63265306 C5.30612245,7.51020408 5.2244898,7.42857143 5.2244898,7.42857143 C5.34693878,7.51020408 6.24489796,8.08163265 7.79591837,8.73469388 C9.18367347,9.30612245 11.4285714,10.122449 14.244898,10.6122449 C19.0612245,11.4693878 26.6122449,11.5918367 34.9795918,7.34693878 L35.2653061,7.91836735 C29.4693878,10.7755102 24.0816327,11.6734694 19.7142857,11.6734694 L19.7142857,11.6734694 Z" id="Shape"></path>
                <path d="M34.9795918,32.4489796 C26.6122449,28.2040816 19.1020408,28.3265306 14.244898,29.1836735 C11.4285714,29.6734694 9.18367347,30.4897959 7.79591837,31.0612245 C6.24489796,31.7142857 5.34693878,32.2857143 5.2244898,32.3673469 C5.2244898,32.3673469 5.30612245,32.2857143 5.30612245,32.1632653 L4.97959184,32.1632653 L4.7755102,32.3673469 L4.73469388,31.9591837 C4.93877551,31.7142857 8.48979592,29.5918367 13.877551,28.6122449 C18.8571429,27.6734694 26.6122449,27.5102041 35.2244898,31.877551 L34.9795918,32.4489796 L34.9795918,32.4489796 Z" id="Shape"></path>
                <path d="M20,39.7959184 C14.3265306,39.7959184 9.71428571,30.8979592 9.71428571,19.9183673 C9.71428571,14.6938776 10.7755102,9.75510204 12.6530612,6.04081633 C14.6122449,2.28571429 17.2244898,0.204081633 20,0.204081633 C22.7755102,0.204081633 25.3877551,2.28571429 27.3469388,6.08163265 C29.2653061,9.79591837 30.2857143,14.7346939 30.2857143,19.9591837 C30.2857143,30.8979592 25.6734694,39.7959184 20,39.7959184 L20,39.7959184 Z M20,0.816326531 C14.6530612,0.816326531 10.3265306,9.3877551 10.3265306,19.9183673 C10.3265306,25.0612245 11.3469388,29.9183673 13.2244898,33.5918367 C15.0612245,37.2244898 17.4693878,39.1836735 20,39.1836735 C22.5306122,39.1836735 24.9387755,37.1836735 26.7755102,33.5918367 C28.6530612,29.9183673 29.6734694,25.0612245 29.6734694,19.9183673 C29.6734694,9.3877551 25.3469388,0.816326531 20,0.816326531 L20,0.816326531 Z" id="Shape"></path>
                <rect id="Rectangle-path" x="19.6734694" y="0.489795918" width="0.612244898" height="39.0204082"></rect>
            </g>
        </g>
    </g>
</svg>