<?xml version="1.0" encoding="UTF-8" standalone="no"?>
<svg width="441px" height="486px" viewBox="0 0 441 486" version="1.1" xmlns="http://www.w3.org/2000/svg" xmlns:xlink="http://www.w3.org/1999/xlink" xmlns:sketch="http://www.bohemiancoding.com/sketch/ns">
    <!-- Generator: Sketch 3.5.2 (25235) - http://www.bohemiancoding.com/sketch -->
    <title>Group</title>
    <desc>Created with Sketch.</desc>
    <defs>
        <path id="path-1" d="M8.28721722,125.887462 C-0.0650887567,143.102841 0.546704311,183.167351 0.546704311,183.167351 L-1.81805732e-20,314.402295 C-1.81805732e-20,314.402295 0.251405942,345.140156 8.28721754,363.252772 C16.3230291,381.365387 41.9718494,394.16844 41.9718494,394.16844 L177.433029,473.051112 C177.433029,473.051112 201.253703,486.031758 220.470802,485.999942 C239.687902,485.968125 264.124712,472.884914 264.124712,472.884914 L404.555405,390.115548 C404.555405,390.115548 428.405015,377.434967 435.234502,358.578813 C442.063989,339.722659 439.431668,304.815313 439.431668,304.815313 L440.941614,166.258922 C440.941614,166.258922 442.370622,148.569075 431.089386,125.887462 C419.80815,103.205849 388.356758,82.6060849 388.356758,82.6060849 L272.467015,16.2990379 C272.467015,16.2990379 249.499652,0.00566313724 220.470802,1.47703417e-06 C191.441952,-0.00566018317 168.1998,16.2669647 168.1998,16.2669647 L46.5190409,88.4113411 C46.5190409,88.4113411 15.2590234,111.517504 8.28721722,125.887462 Z"></path>
    </defs>
    <g id="Page-1" stroke="none" stroke-width="1" fill="none" fill-rule="evenodd" sketch:type="MSPage">
        <g id="Hands" sketch:type="MSArtboardGroup" transform="translate(-70.000000, -67.000000)">
            <g id="Group" sketch:type="MSLayerGroup" transform="translate(290.500000, 310.000000) rotate(360.000000) translate(-290.500000, -310.000000) translate(70.000000, 67.000000)">
                <mask id="mask-2" sketch:name="Mask" fill="white">
                    <use xlink:href="#path-1"></use>
                </mask>
                <use id="Mask" fill="#206AB5" sketch:type="MSShapeGroup" xlink:href="#path-1"></use>
                <g mask="url(#mask-2)" sketch:type="MSShapeGroup">
                    <g transform="translate(-150.000000, 89.000000)">
                        <path d="M338,108.768101 C338,108.768101 355.915389,99.1710562 380.950663,98.3960642 C390.726251,98.0934511 401.997833,103.160933 412.609887,105.372162 C419.084265,106.721226 425.825033,105.895972 430.341622,105.372162 C436.160691,104.697298 448.093979,96 448.093979,96 L508,177.61162 C508,177.61162 498.435957,182.642844 488.922951,192.999998 C481.723406,200.838403 475.298796,213.489169 467.236543,223.195018 C458.584776,233.610561 448.30825,241.028765 441.128416,247.48531 C422.179871,264.524999 383.021407,290 383.021407,290 L338,108.768101 Z" id="Path-2" stroke="#F6CDA7" stroke-width="0.8" fill="#F6CDA7"></path>
                        <path d="M251.734251,186.687396 C253.846238,190.475303 253.68563,195.975518 255.741523,200.499998 C259.168584,208.042062 264.840151,214.589752 268.760406,218.564722 C278.162529,228.098073 288.388883,243.817959 301.764367,254.987949 C327.377901,276.378046 356.426081,291.983547 356.426081,291.983547 C356.426081,291.983547 373.775227,307.137703 386.161165,298.153506 C398.547103,289.169308 383.592705,273.849226 383.592705,273.849226 C383.592705,273.849226 408.117173,301.617278 423.810158,283.576037 C427.892213,278.883155 427.438315,271.259127 425.320542,269.088006 C412.937439,255.090058 396.579153,241.518253 396.579153,241.518253 C396.579153,241.518253 405.779151,248.536746 416.327897,256.306163 C423.24296,261.399282 430.26711,267.545086 437.30358,269.696665 C444.683582,271.953288 451.366451,269.73566 454.826842,264.030145 C457.912639,258.942263 459.562052,254.232632 456.812201,248.948831 C453.80597,243.172402 445.543029,238.661325 439.584134,233.867521 C430.163258,226.288625 422.188019,219.973579 422.188019,219.973579 C422.188019,219.973579 443.237193,238.656354 459.685975,243.763089 C467.615057,246.224774 474.48992,244.033844 477.394693,237.916884 C479.701938,233.058218 479.595101,227.127153 476.598609,221.936342 C467.996531,207.034995 443.239824,193.67335 443.239824,193.67335 C443.239824,193.67335 425.496637,181.467614 417.71304,173.938993 C406.51074,163.10366 386.282135,138.58149 386.282135,138.58149 C386.282135,138.58149 394.056966,106.309241 380.325608,101.108542 C375.742171,99.3725825 365.04995,99.6064781 353.022111,102.300579 C341.959293,104.778525 329.765604,109.631874 320.17754,110.451111 C302.387366,111.971165 295.224607,104.093799 295.224607,104.093799 L242,175.960392 C242,175.960392 247.726102,179.498671 251.734251,186.687396 Z" id="Path-5" stroke="#FFE3C1" stroke-width="0.8" fill="#FFE3C1"></path>
                        <path d="M252.744848,226.742031 C263.959408,236.369974 273.462601,226.742031 273.462601,226.742031 L310.538925,199.975531 C310.538925,199.975531 320.126345,188.785745 310.538923,178.514567 C300.951502,168.24339 289.532806,177.260027 289.532806,177.260027 C289.532806,177.260027 254.90507,202.310558 252.744848,204.308947 C250.584627,206.307335 241.530288,217.114088 252.744848,226.742031 Z" id="Path-114" stroke="none" fill="#F6CDA7" transform="translate(281.022459, 202.310559) rotate(-357.000000) translate(-281.022459, -202.310559) "></path>
                        <path d="M308.775572,198.576951 C314.250505,196.235272 313.076888,188.821802 310.041498,183.593927 C307.006108,178.366051 301.862399,177.2 297.283095,177.2 C292.703792,177.2 291.104869,185.421602 294.193982,190.855632 C297.283095,196.289661 303.300639,200.91863 308.775572,198.576951 Z" id="Oval-1" stroke="none" fill="#F7DECB"></path>
                        <path d="M236.748398,183 L304,93.0038713 L183.246624,1 L0,4.01473158 L236.748398,183 Z" id="Path-1" stroke="none" fill="#D8D8D8"></path>
                        <path d="M329.184249,296.542031 C340.398809,306.169974 349.902001,296.542031 349.902001,296.542031 L386.978325,269.775531 C386.978325,269.775531 396.565746,258.585745 386.978324,248.314567 C377.390903,238.04339 365.972207,247.060027 365.972207,247.060027 C365.972207,247.060027 331.833669,272.110558 329.184249,274.108946 C326.534829,276.107335 317.969689,286.914088 329.184249,296.542031 Z" id="Path-114" stroke="none" fill="#F6CDA7" transform="translate(357.398398, 272.110558) rotate(-6.000000) translate(-357.398398, -272.110558) "></path>
                        <path d="M290.010168,142.865513 C293.782134,139.161742 305.51488,131.966985 315.555566,124.851993 C325.125328,118.070706 345.072421,104.951253 352.125478,102.628192 C366.144529,98.0107442 387.214889,96.2142354 393.302705,100.206116 C398.722273,103.759815 428.165026,107.756902 426.03319,115.439063 C423.956676,122.921869 432.498981,139.571086 427.287371,142.865513 C425.451003,144.026341 387.520975,139.300608 387.520975,139.300608 C387.520975,139.300608 371.816387,137.160018 353.376559,142.865513 C345.687154,145.244703 337.514826,155.356747 329.871916,157.208039 C320.833464,159.397363 312.462793,159.182208 306.424113,159.907838 C297.28124,161.00648 290.010168,151.919946 290.010168,151.919946 C290.010168,151.919946 285.48729,147.306619 290.010168,142.865513 Z" id="Path-3" stroke="#F6CDA7" stroke-width="0.8" fill="#F6CDA7"></path>
                        <path d="M293,139.799834 C293,139.799834 304.377104,146.130963 312.554961,140.983157 C320.732817,135.83535 322,120 322,120 L293,139.799834 Z" id="Path-4" stroke="#F7DECB" stroke-width="0.8" fill="#F7DECB"></path>
                        <path d="M259.279163,230.82309 C259.092795,221.157922 266.757023,212.871013 276.412484,212.312906 L333.135983,209.034159 C342.784822,208.476435 350.403009,215.865345 350.152148,225.519691 L350.212995,223.178015 C349.961924,232.840447 341.93028,241.029905 332.284781,241.469182 L277.021931,243.985972 C267.371523,244.425473 259.397204,236.944722 259.210871,227.281424 L259.279163,230.82309 Z" id="Rectangle-1" stroke="none" fill="#F6CDA7" transform="translate(304.819100, 226.574902) rotate(-33.000000) translate(-304.819100, -226.574902) "></path>
                        <path d="M337.175572,218.376951 C342.650505,216.035272 341.476888,208.621802 338.441498,203.393927 C335.406108,198.166051 330.262399,197 325.683095,197 C321.103792,197 319.504869,205.221602 322.593982,210.655632 C325.683095,216.089661 331.700639,220.71863 337.175572,218.376951 Z" id="Oval-1" stroke="none" fill="#F7DECB"></path>
                        <path d="M286.279163,254.82309 C286.092795,245.157922 293.757023,236.871013 303.412484,236.312906 L360.135983,233.034159 C369.784822,232.476435 377.403009,239.865345 377.152148,249.519691 L377.212995,247.178015 C376.961924,256.840447 368.93028,265.029905 359.284781,265.469182 L304.021931,267.985972 C294.371523,268.425473 286.397204,260.944722 286.210871,251.281424 L286.279163,254.82309 Z" id="Rectangle-1" stroke="none" fill="#F6CDA7" transform="translate(331.819100, 250.574902) rotate(-33.000000) translate(-331.819100, -250.574902) "></path>
                        <path d="M364.175572,241.376951 C369.650505,239.035272 368.476888,231.621802 365.441498,226.393927 C362.406108,221.166051 357.262399,220 352.683095,220 C348.103792,220 346.504869,228.221602 349.593982,233.655632 C352.683095,239.089661 358.700639,243.71863 364.175572,241.376951 Z" id="Oval-1" stroke="none" fill="#F7DECB"></path>
                        <path d="M382.175572,268.176951 C387.650505,265.835272 386.476888,258.421802 383.441498,253.193927 C380.406108,247.966051 375.262399,246.8 370.683095,246.8 C366.103792,246.8 364.504869,255.021602 367.593982,260.455632 C370.683095,265.889661 376.700639,270.518631 382.175572,268.176951 Z" id="Oval-1" stroke="none" fill="#F7DECB"></path>
                        <path d="M678.748398,182 L746,92.0038713 L625.246624,0 L442,3.01473158 L678.748398,182 Z" id="Path-1" stroke="none" fill="#D8D8D8" transform="translate(594.000000, 91.000000) scale(-1, 1) translate(-594.000000, -91.000000) "></path>
                    </g>
                </g>
            </g>
        </g>
    </g>
</svg>