<?xml version="1.0" encoding="UTF-8" standalone="no"?>
<svg width="400px" height="135px" viewBox="0 0 400 135" version="1.1" xmlns="http://www.w3.org/2000/svg" xmlns:xlink="http://www.w3.org/1999/xlink">
    <!-- Generator: Sketch 3.8.3 (29802) - http://www.bohemiancoding.com/sketch -->
    <title>Helpling grey</title>
    <desc>Created with Sketch.</desc>
    <defs></defs>
    <g id="Logos" stroke="none" stroke-width="1" fill="none" fill-rule="evenodd">
        <g id="Helpling-grey" fill="#757575">
            <g id="Group-2" transform="translate(21.000000, 18.000000)">
                <path d="M67.3611611,55.5325543 C66.8399382,55.5325543 66.3324273,55.5882521 65.8407762,55.6976644 C65.6816834,58.5228831 65.2478542,64.7043506 64.3265039,69.0484508 C64.9970725,69.3431369 65.4707162,70.0478715 65.4707162,70.8778848 C65.4707162,70.8778848 63.9741209,79.9682003 63.4388556,87.6290484 C67.3155644,83.7986244 69.8309811,78.3835392 70.0695376,72.3194174 C73.1600341,71.1130718 75.3848546,67.9455676 75.3848546,64.1967896 C75.3848546,59.4087596 71.7909774,55.5325543 67.3611611,55.5325543" id="Fill-3"></path>
                <path d="M62.0798763,67.9090417 C62.9316751,65.9301987 63.4350558,58.3311636 63.6341283,54.841207 C62.6490088,53.8517028 61.5921901,53.1606861 60.4441781,52.3883539 C60.6729875,53.3360434 60.8082907,54.4349599 60.8082907,55.4603289 C60.8082907,61.9523489 55.9307679,67.2740534 49.9189451,67.2740534 C43.9031574,67.2740534 39.027617,62.0379616 39.027617,55.5439583 C39.027617,54.3830634 39.1888574,53.2843122 39.477306,52.2270451 C38.157976,53.0532571 36.9599068,53.6146978 35.8495616,54.7296461 C36.0385565,58.197621 36.5460674,65.9301987 37.405796,67.9090417 L62.0798763,67.9090417 Z" id="Fill-1"></path>
                <path d="M34.2511998,70.8778848 C34.2511998,70.1392688 34.6392672,69.5242788 35.1923747,69.1838114 C34.24327,64.8137629 33.8034933,58.4848698 33.6422529,55.6498998 C33.2602981,55.5801536 32.874048,55.5325543 32.4740858,55.5325543 C28.042287,55.5325543 24.4503922,59.4087596 24.4503922,64.1966244 C24.4503922,67.7622771 26.4483858,70.822187 29.2999954,72.148192 C29.4970854,78.2481786 31.9944947,83.7029299 35.8730208,87.5692187 C35.3795524,78.8891169 34.2511998,70.8778848 34.2511998,70.8778848" id="Fill-5"></path>
                <path d="M37.4024919,23.6537279 C35.9856908,25.2185559 34.8751804,27.0541052 34.0911158,29.02799 C35.058228,21.2248397 41.1994066,15.0213907 48.6579326,15.0213907 C55.6368676,15.0213907 61.4636604,20.269217 62.9820628,27.305985 C62.3033992,25.8087546 61.4040212,24.406227 60.3751223,23.2365726 C58.8208703,21.5274591 57.0318616,20.2394674 55.0219732,19.3454925 C53.0160498,18.4844073 50.8508685,18.1110501 48.7116244,18.1728631 C44.4331361,18.3192972 40.264179,20.4045776 37.4024919,23.6537279 M67.5651897,31.9923706 C67.5651897,20.7131469 59.0975893,11.5692821 48.6519852,11.5692821 C38.2045639,11.5692821 29.7369635,20.7131469 29.7369635,31.9923706 C29.7369635,38.1082237 31.0941255,37.2044975 31.2832856,46.6511469 C31.2832856,48.5483439 33.0622169,50.1528381 35.3268519,50.1528381 L41.5973862,50.1528381 C41.5973862,50.1528381 45.1137822,46.84799 41.5973862,44.3994341 C33.2792967,41.5345492 36.4809765,28.1450885 38.9208943,25.3509416 C41.360647,22.5597696 43.9953419,21.6309215 46.9545002,21.232773 C46.848934,21.2656628 46.7415505,21.2926027 46.638132,21.3274758 C46.5127411,22.2890484 46.4768916,23.279379 46.5545381,24.2897078 C47.1296179,31.5403422 53.0419871,36.9197279 59.7582455,36.300606 C60.3533152,36.2429249 61.2707005,36.1652454 62.0924319,36.0398013 C61.5094222,40.2782905 58.8031934,42.8903038 56.2697693,44.3994341 C53.5952598,45.9940117 56.2697693,50.1528381 56.2697693,50.1528381 L61.9731537,50.1528381 C64.2376234,50.1528381 66.3192109,49.1415175 66.2815441,46.7623773 C65.9770706,38.978399 67.5651897,38.3551452 67.5651897,31.9923706" id="Fill-7"></path>
                <path d="M49.4742123,6.14394992 C25.8311786,6.14394992 6.59615413,25.5909215 6.59615413,49.4940501 C6.59615413,73.3971786 25.8311786,92.8441503 49.4742123,92.8441503 C73.1164199,92.8441503 92.3499575,73.3971786 92.3499575,49.4940501 C92.3499575,25.5909215 73.1164199,6.14394992 49.4742123,6.14394992 M49.4742123,98.9882654 C22.1938523,98.9882654 0,76.7851603 0,49.4940501 C0,22.2031052 22.1938523,0 49.4742123,0 C76.7537462,0 98.9462769,22.2031052 98.9462769,49.4940501 C98.9462769,76.7851603 76.7537462,98.9882654 49.4742123,98.9882654" id="Fill-9"></path>
                <path d="M155.459559,24.4439098 L150.840913,46.2093656 C150.319194,46.1338347 149.723299,46.1338347 149.20158,46.1338347 C146.817997,46.1338347 144.283582,46.6557746 141.750323,47.1021836 L146.592822,24.4439098 C145.624884,24.3697012 144.656946,24.2954925 143.613509,24.2954925 C131.171563,24.2954925 117.461006,33.760818 117.461006,43.6737095 C117.461006,49.0416912 120.29213,50.9041803 125.433982,50.9041803 C125.358317,50.233823 124.391866,49.6376745 124.391866,45.8356778 C124.391866,37.935015 128.26494,32.2703639 134.82095,29.5124124 L124.018337,80.1967763 L134.746772,80.1967763 L140.708208,52.0964775 C141.899999,51.9480601 143.315644,51.7996427 144.731123,51.7996427 C146.296279,51.7996427 147.860113,51.9480601 149.499445,52.5442087 L143.613509,80.1967763 L154.341945,80.1967763 L166.187994,24.4439098 L155.459559,24.4439098 Z" id="Fill-11"></path>
                <path d="M233.51248,59.6269232 C231.054885,71.478 229.265876,74.6825259 225.540991,74.6825259 C224.3492,74.6825259 222.484692,74.6825259 220.69717,73.3419766 L226.06271,48.2964641 C227.476868,47.3281152 228.893834,46.7319666 230.307992,46.7319666 C232.692731,46.7319666 234.48174,47.6261068 234.48174,52.0984608 C234.48174,53.8869065 234.182553,56.3468664 233.51248,59.6269232 M182.768665,46.2855576 C185.003893,46.2855576 185.375935,48.8926127 185.375935,50.4584324 C185.301758,55.7507179 180.459259,61.6391519 173.604063,61.7133606 C175.169218,54.7081603 178.596073,46.2855576 182.768665,46.2855576 M232.097,43.0797095 C230.233814,43.0797095 228.446127,43.6016494 226.880972,44.4202588 L227.180324,43.0055008 L216.450401,43.0055008 L210.716619,70.0640684 C208.595383,71.865571 206.387413,73.4902287 204.527531,73.4902287 C201.622395,73.4902287 200.802646,72.3721402 200.802646,70.7321119 C200.802646,70.1359633 200.951,69.4657713 201.176175,68.3476828 L209.74356,28.096828 L198.715772,29.5886043 L190.959216,65.9437513 C188.137012,71.0344007 182.349043,74.9077963 178.895425,74.9077963 C175.988802,74.9077963 172.785635,73.41602 172.785635,68.4959349 C172.785635,67.6031169 172.859813,66.4851937 173.008167,65.291409 C180.087216,64.3972688 189.846392,59.1805142 189.846392,50.0862321 C189.846392,44.86799 186.419372,42.3351436 180.309583,42.3351436 C166.750023,42.3351436 162.727273,58.9552437 162.727273,68.4218915 C162.727273,74.8322654 166.601834,80.2729683 173.753739,80.2729683 C180.393177,80.2729683 185.8585,76.681202 190.003668,71.9293673 C190.002346,72.0029149 190.000033,72.0774541 190.000033,72.1496795 C190.000033,77.7401219 193.50123,80.2729683 199.237491,80.2729683 C202.416042,80.2729683 206.374527,77.3077613 209.869942,74.0599332 L204.604517,98.9079416 L215.854671,96.2253556 L219.729067,77.9625826 C221.964295,79.3801503 224.273701,80.1987596 226.732783,80.1987596 C234.332064,80.1987596 240.739884,74.7580568 243.049124,58.732783 C243.347155,56.7945977 243.496831,55.0790384 243.496831,53.5145409 C243.496831,45.8378264 239.844636,43.0797095 232.097,43.0797095" id="Fill-13"></path>
                <path d="M278.641296,39.1215275 C281.91864,39.1215275 284.601409,36.511828 284.601409,33.2317713 C284.601409,29.9530367 281.91864,27.2704508 278.641296,27.2704508 C275.36263,27.2704508 272.754038,29.9530367 272.754038,33.2317713 C272.754038,36.511828 275.36263,39.1215275 278.641296,39.1215275" id="Fill-15"></path>
                <path d="M340.987648,72.0754708 C339.570682,73.4902287 338.082347,74.5341085 336.665381,74.5341085 C333.386715,74.5341085 331.227151,73.41602 331.227151,69.8392938 C331.227151,63.4275977 334.059597,47.2539065 341.284192,47.2539065 C342.552804,47.2539065 344.414503,48.2222554 345.606294,50.4584324 L340.987648,72.0754708 Z M338.008335,86.459394 C337.03891,90.8575392 335.177211,92.2751068 333.61189,92.2751068 C331.972723,92.2751068 330.631255,90.8575392 330.631255,89.8136594 C330.631255,85.7890367 333.834422,84.8193656 338.530054,84.0007563 L338.008335,86.459394 Z M347.17145,43.0055008 L346.427365,46.582227 C345.309751,44.6455292 343.1487,43.0795442 340.46593,43.0795442 C326.011122,43.0795442 322.062549,60.9687947 322.062549,71.2540518 C322.062549,71.7396311 322.089643,72.2334741 322.144656,72.7276477 C321.394459,73.20298 320.576197,73.4902287 319.526647,73.4902287 C316.620024,73.4902287 315.801762,72.3721402 315.801762,70.7321119 C315.801762,69.9877112 315.949951,69.1676144 316.173804,68.3476828 L319.228617,54.1120117 C319.376971,53.5145409 319.376971,52.9183923 319.376971,52.3222437 C319.376971,47.3281152 314.832337,43.0055008 310.809587,43.0055008 C307.530921,43.0055008 304.103901,44.7937813 301.049089,47.0299583 L301.94285,43.0055008 L291.214414,43.0055008 L285.306341,70.8854875 C283.500976,72.3309866 281.6819,73.4902287 280.111128,73.4902287 C277.130493,73.4902287 276.386243,72.2979316 276.386243,70.6579032 C276.386243,69.9877112 276.534597,69.1676144 276.682786,68.3476828 L282.048491,43.0055008 L271.320055,43.0055008 L265.954351,68.3476828 C265.812605,69.0244858 265.705551,69.6664157 265.631209,70.2752905 C263.587288,71.9905192 261.479599,73.4902287 259.693729,73.4902287 C256.788427,73.4902287 255.967357,72.3721402 255.967357,70.7321119 C255.967357,70.1359633 256.117033,69.4657713 256.340886,68.3476828 L264.90827,28.096828 L253.881804,29.5884391 L245.61245,68.3476828 C245.313098,69.7637629 245.164744,71.031591 245.164744,72.1496795 C245.164744,77.7399566 248.665941,80.272803 254.403523,80.272803 C257.751575,80.272803 261.964641,76.9831603 265.590238,73.5386544 C266.148797,78.1602521 269.584078,80.272803 274.821087,80.272803 C277.69533,80.272803 281.207596,77.8470551 284.438517,74.9805175 L283.317103,80.272803 L294.045539,80.272803 L300.379016,50.1602755 C301.94285,49.1177179 303.284317,48.595778 305.073326,48.595778 C307.08338,48.595778 308.500181,50.310015 308.500181,52.9939232 C308.500181,53.5900718 308.426004,54.260429 308.276493,54.930621 L305.445369,68.3476828 C305.147338,69.7637629 304.997827,70.9573823 304.997827,72.1496795 C304.997827,77.7399566 308.426004,80.272803 314.236441,80.272803 C317.238718,80.272803 320.20085,78.1250484 322.835875,75.5758397 C323.967532,78.4207262 326.484931,80.7206995 331.30265,80.7206995 C334.72967,80.7206995 337.634806,79.379985 339.870034,77.5903823 L338.974786,81.6161619 C332.046735,82.9568765 326.532841,84.0749649 326.532841,90.8575392 C326.532841,95.7034157 330.780931,98.9079416 335.3254,98.9079416 C340.243398,98.9079416 346.649731,96.8957129 348.88496,86.2369332 L357.974063,43.0055008 L347.17145,43.0055008 Z" id="Fill-17"></path>
            </g>
        </g>
    </g>
</svg>