<?xml version="1.0" encoding="utf-8"?>
<!-- Generator: Adobe Illustrator 19.0.0, SVG Export Plug-In . SVG Version: 6.00 Build 0)  -->
<svg version="1.1" id="Ebene_1" xmlns="http://www.w3.org/2000/svg" xmlns:xlink="http://www.w3.org/1999/xlink" x="0px" y="0px"
	 viewBox="0 0 209.7 59.7" style="enable-background:new 0 0 209.7 59.7;" xml:space="preserve">
<style type="text/css">
	.st0{fill:#969696;}
	.st1{fill:#282D2D;}
</style>
<g>
	<g>
		<g>
			<path class="st0" d="M200.7,32.7c3.6-3.7,5.6-8.3,5.6-12.6c0-0.9-0.2-1.5-2.1-1.5h-4.7c-1.6,0-2.6,0.2-2.8,1.1
				c-0.6,2.3-2,5.3-2.7,6.2l-2.6-6.2c-0.3-0.7-0.8-1.1-1.8-1.1h-5.4c-2,0-2.5,0.5-2.5,1.5c-0.1,1.7-0.5,4.9-0.5,5.6
				c0,0.7,0,1.1,0.5,1.4l6.7,5.4c-2.6,2.4-6.6,4.2-8.4,5.3c-0.5,0.3-0.7,0.9-0.8,1.6c-0.2,1.7-0.1,3.9-0.1,4.3
				c0,0.7,0.3,1.3,1.4,1.3h4c1.8,0,2.8-0.3,4.3-1.3c1.7-1.1,3.1-2,4.6-3.8l0.9,4c0.1,0.7,0.7,1.1,1.7,1.1h6c1.5,0,2.7-0.5,2.9-1.6
				c0.2-1.6,0.5-4.6,0.5-5.1c0-0.7-0.6-1.5-1.2-2.1L200.7,32.7z M167.2,18.9c-7.3,0-14.1,5.1-14.1,14.7c0,8.1,4.9,11.7,11.1,11.7
				c7.4,0,14-5.1,14-14.6C178.2,22.5,173.4,18.9,167.2,18.9z M165,37.4c-1.5,0-1.9-1.5-1.9-3.9c0-3.3,0.7-6.8,3.2-6.8
				c1.6,0,2,1.1,2,3.6C168.2,34.2,167.2,37.4,165,37.4z M153.5,15.6h-18.7c-0.5,0-2,0-2.3,2.4c-1.2,9.4-3.3,24.8-3.3,25.4
				c0,1.5,3.4,1.6,5,1.6c1.8,0,5,0,5.2-1.6l1.2-8.6c0-0.1,0.1-0.2,0.2-0.2l8.2-1c0.9-0.1,1.6-2.3,1.6-3.9c0-1-0.1-2.5-0.8-2.6
				l-7.8-0.9c-0.1,0-0.2,0-0.2-0.2c0-0.2,0.3-1.9,0.3-2.2c0-0.1,0.2-0.2,0.3-0.2h10.2c0.9,0,1.7-3.8,1.7-5.1
				C154.4,17.2,154.1,15.6,153.5,15.6z"/>
		</g>
	</g>
	<g>
		<g>
			<path class="st1" d="M126.9,27.5l-4.1-0.9c-0.1,0-0.2-0.1-0.2-0.3c0-0.3,0.8-3.7,0.8-5.1c0-1.1,0.1-2.5-1-2.7
				c-0.4-0.1-6.9,0-6.9,0c-0.5,0-2-0.1-2.3,2.4c-0.2,1.8-0.5,3.3-0.8,5.3c0,0-0.1,0.1-0.2,0.1c-1,0.3-2.8,0.5-2.8,0.5
				c-0.7-0.1-1.3,1.3-1.7,2.3c-0.5,1.6-0.6,3.9,0.2,4.3l3.1,1.3c-0.8,4.8-1.4,8.8-1.4,9.5c0,1.6,3.5,1.7,5.1,1.7
				c1.8,0,5.1,0.1,5.4-1.6l1.2-8.8c0-0.2,0.1-0.3,0.2-0.3l4.5-1c0.9-0.1,1.6-2.3,1.6-4C127.7,29.1,127.5,27.6,126.9,27.5z
				 M104.1,24.2c-1.8-0.5-7-0.4-7-0.4c-0.5,0-1.9,0-2.3,2.4c-1.5,9.5-3,17.5-3,18.1c0,1.6,3.5,1.7,5.1,1.7c1.8,0,5.1,0.1,5.3-1.6
				c0,0,2.8-16.5,2.8-17.9C105,25.3,105.2,24.5,104.1,24.2z M101.2,21.7c1.9,0,3.4-1.4,3.4-3.2c0-1.8-1.5-3.2-3.3-3.3
				c-1.9,0-3.4,1.4-3.4,3.2C97.8,20.2,99.3,21.7,101.2,21.7z M91,15.5c-0.2-0.1-0.5-0.2-1-0.2c-1.5-0.1-5.2,0-5.9,0.1
				c-1.4,0.2-1.9,1.7-2.2,4c-0.4,2.6-0.9,4.3-1.5,7.3l-5.5-0.4c-0.1,0-0.2-0.1-0.2-0.2c0-0.2,1-5,1.1-6.3c0-0.8,0.4-2.3,0-3.1
				c-0.2-0.4-0.2-0.6-0.8-1c-0.3-0.1-0.3-0.1-0.7-0.2c-0.3-0.1-6-0.1-6-0.1c-0.1,0-0.3,0-0.3,0c-0.7,0.1-1.9,1.6-2.3,4.1
				c-1.6,9.3-4.3,24.7-4.3,25.2c-0.1,1.5,3.4,1.4,5,1.4c1.8,0,5,0.3,5.3-1.3l1.5-9.8c0-0.1,0.1-0.2,0.2-0.2l5.8-0.5
				c-0.9,5.4-1.7,10.1-1.7,10.4c-0.1,1.5,3.3,1.6,4.9,1.6c1.8,0,5,0.1,5.3-1.6c0,0,4.2-27.3,4.1-28.1C91.9,16,91.5,15.7,91,15.5z"/>
		</g>
	</g>
</g>
<g>
	<path class="st0" d="M56,3.3c0,0-3.6-0.4-13.7,5.5c0,0-7.2-0.7-12.4-0.7S17.6,8.8,17.6,8.8C7.6,3,4.5,3.3,4.5,3.3
		c-0.5,4.1,2,15.5,2,15.5c-6,19,6.9,25.9,8.5,25.4c1.6-0.5,1.6-1,2.3-1c3.8-0.1,4.7,10.3,7.3,12.7c2.4,2.4,5.3,2.2,5.5,2.2
		c0.2,0,3,0.2,5.5-2.2c2.5-2.4,3.4-12.8,7.3-12.7c0.7,0,0.7,0.5,2.3,1c1.6,0.5,14.4-6.4,8.5-25.4C53.5,18.8,56.5,7.5,56,3.3z
		 M23,28.1H21v2c0,1-0.7,1.7-1.7,1.7c-0.9,0-1.7-0.8-1.7-1.7v-2h-1.9c-1,0-1.7-0.7-1.7-1.7c0-0.9,0.8-1.7,1.7-1.7h1.9v-2
		c0-1,0.7-1.7,1.7-1.7c0.9,0,1.7,0.8,1.7,1.7v2H23c1,0,1.7,0.7,1.7,1.7C24.7,27.4,23.9,28.1,23,28.1z M37.4,27.9
		c-1,0-1.8-0.8-1.8-1.8c0-1,0.8-1.8,1.8-1.8c1,0,1.8,0.8,1.8,1.8C39.3,27.1,38.5,27.9,37.4,27.9z M41.2,31.9c-1,0-1.8-0.8-1.8-1.8
		c0-1,0.8-1.8,1.8-1.8c1,0,1.8,0.8,1.8,1.8C43.1,31.1,42.2,31.9,41.2,31.9z M41.2,24.3c-1,0-1.8-0.8-1.8-1.8c0-1,0.8-1.8,1.8-1.8
		c1,0,1.8,0.8,1.8,1.8C43.1,23.5,42.2,24.3,41.2,24.3z M45.2,27.9c-1,0-1.8-0.8-1.8-1.8c0-1,0.8-1.8,1.8-1.8c1,0,1.8,0.8,1.8,1.8
		C47,27.1,46.2,27.9,45.2,27.9z"/>
</g>
</svg>
