<?xml version="1.0" encoding="UTF-8" standalone="no"?>
<svg width="151px" height="36px" viewBox="0 0 151 36" version="1.1" xmlns="http://www.w3.org/2000/svg" xmlns:xlink="http://www.w3.org/1999/xlink">
    <!-- Generator: Sketch 41.2 (35397) - http://www.bohemiancoding.com/sketch -->
    <title>Logo2_EPS</title>
    <desc>Created with Sketch.</desc>
    <defs>
        <polygon id="path-1" points="0.0144787078 0.130952381 0.0144787078 29.5237781 28.1709804 29.5237781 28.1709804 0.130952381 0.0144787078 0.130952381"></polygon>
    </defs>
    <g id="Landing-Pages" stroke="none" stroke-width="1" fill="none" fill-rule="evenodd">
        <g id="Desktop-HD-talent" transform="translate(-199.000000, -20.000000)">
            <g id="Logo2_EPS" transform="translate(199.000000, 20.000000)">
                <g id="Group-11" transform="translate(0.000000, 0.600000)">
                    <g id="Group-3" transform="translate(0.000000, 5.476190)">
                        <mask id="mask-2" fill="white">
                            <use xlink:href="#path-1"></use>
                        </mask>
                        <g id="Clip-2"></g>
                        <path d="M28.1444361,14.4916667 C27.9786549,12.1385714 27.4282227,9.89238095 26.5609481,7.80595238 C26.3312193,7.25333333 26.0870117,6.70809524 25.8136055,6.17928571 C26.7824723,5.61309524 27.4340142,4.57428571 27.4340142,3.38261905 C27.4340142,1.58690476 25.9586339,0.130952381 24.138419,0.130952381 L4.03521586,0.130952381 C2.21524229,0.130952381 0.739620656,1.58690476 0.739620656,3.38261905 C0.739620656,4.57333333 1.39019726,5.61142857 2.35785756,6.17809524 C2.0844513,6.70666667 1.84048507,7.25166667 1.61075624,7.80404762 C0.742999021,9.89095238 0.192325502,12.1378571 0.0263029858,14.4914286 C0.0137547724,14.7714286 0,15.0514286 0,15.3345238 C0,17.3685714 0.335423397,19.3242857 0.945942242,21.1569048 C1.12789134,21.672619 1.47803475,22.5609524 1.90684581,23.1540476 C1.9536603,23.215 1.99782036,23.2742857 2.05139158,23.3383333 C2.05766569,23.3457143 2.06393979,23.3540476 2.0702139,23.3614286 C2.2603676,23.5869048 2.49106167,23.8285714 2.76857024,24.0680952 C3.04873324,24.3080952 3.37305629,24.5478571 3.74226334,24.7480952 C4.10736809,24.947619 4.53304209,25.1085714 4.95316593,25.1621429 C5.39307734,25.2242857 5.85687861,25.1497619 6.21112433,24.9045238 C6.57212677,24.6654762 6.8303304,24.2466667 6.9797024,23.7735714 C7.27772247,22.8145238 7.24466275,21.7280952 7.15344689,20.7454762 C7.05354381,19.7547619 6.87159471,18.8342857 6.69109349,18.0519048 C6.32429956,16.4864286 5.96450367,15.4697619 5.96450367,15.4697619 C5.96450367,15.4697619 6.39427998,16.4580952 6.87255996,18.0042857 C7.10904552,18.7778571 7.35759667,19.6914286 7.53037592,20.6959524 C7.69012433,21.6988095 7.81898483,22.8035714 7.5586094,23.932619 C7.42492266,24.487381 7.14620754,25.072619 6.63848752,25.4678571 C6.13028488,25.87 5.49491092,25.9945238 4.92444983,26.0080952 C4.32382477,26.0121429 3.7905257,25.8769048 3.30693686,25.6952381 C3.24805678,25.6728571 3.19786393,25.6438095 3.14043172,25.62 C4.02483945,26.9359524 5.07792413,28.1290476 6.26204112,29.182381 C6.8937954,29.525 7.92299021,29.7783333 9.28616055,29.0797619 C11.6633231,27.8619048 14.0404856,27.7266667 14.0404856,27.7266667 C14.0404856,27.7266667 16.4174068,27.8619048 18.7945693,29.0797619 C20.3915707,29.8980952 21.5305624,29.4109524 22.1075389,29.0030952 C23.2069555,27.9964286 24.1900597,26.8685714 25.023068,25.6309524 C24.9697381,25.6530952 24.9229236,25.6802381 24.8681459,25.7011905 C24.384557,25.8828571 23.851258,26.0180952 23.2506329,26.0140476 C22.6801718,26.0002381 22.0447978,25.8759524 21.5365952,25.4738095 C21.0288752,25.0783333 20.7501601,24.4933333 20.6164733,23.9385714 C20.3560979,22.8092857 20.4847171,21.7047619 20.6447068,20.7019048 C20.817486,19.6971429 21.0660372,18.7838095 21.3025228,18.0102381 C21.7808027,16.4638095 22.2105791,15.4754762 22.2105791,15.4754762 C22.2105791,15.4754762 21.8507832,16.4921429 21.4839892,18.0578571 C21.303488,18.84 21.1215389,19.7607143 21.0216358,20.7514286 C20.93042,21.7340476 20.8973603,22.8204762 21.1953803,23.7792857 C21.3447523,24.252619 21.6029559,24.6711905 21.9639584,24.9104762 C22.3182041,25.1557143 22.7822467,25.2302381 23.2219168,25.1678571 C23.6420406,25.1145238 24.0677146,24.9533333 24.4328194,24.7540476 C24.8020264,24.5535714 25.1263495,24.3138095 25.4065125,24.0740476 C25.7834415,23.7485714 26.0689134,23.422619 26.2880245,23.1347619 C26.6299633,22.6547619 26.9205027,21.9919048 27.1145174,21.4845238 C27.7969471,19.5588095 28.1709804,17.49 28.1709804,15.3345238 C28.1709804,15.0514286 28.1572256,14.7716667 28.1444361,14.4916667" id="Fill-1" fill="#F6C823" mask="url(#mask-2)"></path>
                    </g>
                    <path d="M11.1302653,11.1816667 C11.1302653,12.8204762 9.78398678,14.1490476 8.12303769,14.1490476 C6.4620886,14.1490476 5.11556877,12.8204762 5.11556877,11.1816667 C5.11556877,9.54285714 6.4620886,8.21428571 8.12303769,8.21428571 C9.78398678,8.21428571 11.1302653,9.54285714 11.1302653,11.1816667" id="Fill-4" fill="#FFFFFF"></path>
                    <path d="M4.03521586,7.22761905 C3.12209202,7.22761905 2.38198874,7.95785714 2.38198874,8.85880952 C2.38198874,9.44309524 2.69593539,9.95190476 3.16383896,10.24 C3.73598923,9.31285714 4.37450024,8.4302381 5.07671757,7.60142857 C4.79172834,7.37142857 4.43217376,7.22761905 4.03521586,7.22761905" id="Fill-5" fill="#25282C"></path>
                    <path d="M24.138419,7.22761905 C23.7407372,7.22761905 23.3807,7.37190476 23.0954694,7.60285714 C23.7974454,8.43166667 24.4357151,9.31404762 25.0078654,10.2411905 C25.4769755,9.95333333 25.7918874,9.44404762 25.7918874,8.85880952 C25.7918874,7.95785714 25.0515428,7.22761905 24.138419,7.22761905" id="Fill-6" fill="#25282C"></path>
                    <path d="M8.12303769,9.86119048 C8.03013265,9.86119048 7.93964072,9.87047619 7.85228585,9.88833333 C7.90585707,9.98904762 7.93674498,10.1035714 7.93674498,10.2252381 C7.93674498,10.6254762 7.607837,10.95 7.20195056,10.95 C7.06585071,10.95 6.93867939,10.9128571 6.82912384,10.8490476 C6.80113167,10.9554762 6.78472247,11.0664286 6.78472247,11.1816667 C6.78472247,11.9109524 7.38389966,12.5021429 8.12303769,12.5021429 C8.86217572,12.5021429 9.46135291,11.9109524 9.46135291,11.1816667 C9.46135291,10.452381 8.86217572,9.86119048 8.12303769,9.86119048" id="Fill-7" fill="#25282C"></path>
                    <path d="M23.0551703,11.1816667 C23.0551703,12.8204762 21.7088918,14.1490476 20.0479427,14.1490476 C18.3869936,14.1490476 17.0404738,12.8204762 17.0404738,11.1816667 C17.0404738,9.54285714 18.3869936,8.21428571 20.0479427,8.21428571 C21.7088918,8.21428571 23.0551703,9.54285714 23.0551703,11.1816667" id="Fill-8" fill="#FFFFFF"></path>
                    <path d="M20.0479427,9.86119048 C19.9550377,9.86119048 19.8645458,9.87047619 19.7771909,9.88833333 C19.8310034,9.98904762 19.86165,10.1035714 19.86165,10.2252381 C19.86165,10.6254762 19.532742,10.95 19.1268556,10.95 C18.9907558,10.95 18.8635844,10.9128571 18.7540289,10.8490476 C18.7260367,10.9554762 18.7096275,11.0664286 18.7096275,11.1816667 C18.7096275,11.9109524 19.3088047,12.5021429 20.0479427,12.5021429 C20.7870808,12.5021429 21.386258,11.9109524 21.386258,11.1816667 C21.386258,10.452381 20.7870808,9.86119048 20.0479427,9.86119048" id="Fill-9" fill="#25282C"></path>
                    <path d="M18.1292726,16.9114286 C18.1292726,19.1395238 16.2986814,20.9459524 14.0404856,20.9459524 C11.7820485,20.9459524 9.95145717,19.1395238 9.95145717,16.9114286 C9.95145717,14.6830952 11.7820485,12.8769048 14.0404856,12.8769048 C16.2986814,12.8769048 18.1292726,14.6830952 18.1292726,16.9114286" id="Fill-10" fill="#FFFFFF"></path>
                    <path d="M16.1618576,14.7083333 C16.1618576,14.652619 16.1512398,14.6 16.1357959,14.5490476 C16.1292805,14.5240476 16.1239716,14.5092857 16.1239716,14.5092857 L16.123489,14.5092857 C16.104184,14.4597619 16.0783637,14.4138095 16.0465105,14.3721429 L16.0467518,14.3716667 C16.0467518,14.3716667 15.8066466,13.8828571 14.0646167,13.8783333 L14.0646167,13.8778571 C14.0602731,13.8778571 14.0566535,13.8780952 14.0525512,13.8780952 C14.0482075,13.8780952 14.0445879,13.8778571 14.0404856,13.8778571 L14.0404856,13.8783333 C13.026976,13.8809524 12.5228757,14.0469048 12.2779442,14.1859524 C12.1300201,14.2445238 12.0139491,14.3621429 11.9572408,14.5092857 L11.9565169,14.5092857 C11.9565169,14.5092857 11.9502428,14.5266667 11.9427621,14.5557143 C11.928766,14.6045238 11.9188722,14.655 11.9188722,14.7083333 C11.9188722,14.7130952 11.9200788,14.717619 11.9203201,14.722381 C11.9099437,14.9759524 11.9941615,15.422381 12.5766882,15.8802381 C13.109022,16.2985714 13.5243196,16.4540476 13.7750426,16.5130952 L13.7750426,20.932619 C13.8631214,20.9380952 13.9507176,20.9459524 14.0402442,20.9459524 C14.1297709,20.9459524 14.2176084,20.9380952 14.3056872,20.932619 L14.3056872,16.5130952 C14.5564102,16.4538095 14.9717078,16.2983333 15.503559,15.8802381 C16.0836725,15.4242857 16.1695795,14.9795238 16.1601684,14.7254762 C16.1604097,14.7197619 16.1618576,14.7142857 16.1618576,14.7083333" id="Fill-11" fill="#25282C"></path>
                    <path d="M7.46111943,4.74166667 L20.6488091,4.74166667 C19.0696647,3.6702381 17.2149422,2.96642857 15.2055389,2.77166667 L16.0129682,0.602619048 C16.0129682,0.602619048 15.4989741,0.18 14.0549643,0.18 C12.6109545,0.18 12.0969604,0.602619048 12.0969604,0.602619048 L12.9043896,2.77166667 C10.8949863,2.96619048 9.04026383,3.6702381 7.46111943,4.74166667" id="Fill-12" fill="#F6C823"></path>
                    <path d="M2.2195859,27.2859524 C2.2195859,27.2859524 2.00095742,27.0057143 1.76036955,26.5316667 C1.51833382,26.0597619 1.27267841,25.3928571 1.11582575,24.7069048 C0.956559961,24.0211905 0.880546745,23.3214286 0.86510279,22.7959524 C0.851348018,22.2697619 0.884649046,21.9185714 0.884649046,21.9185714 C0.884649046,21.9185714 0.910952031,22.0035714 0.946907489,22.152381 C0.981897699,22.3009524 1.03209055,22.5130952 1.09193588,22.7678571 C1.20728292,23.2761905 1.34579589,23.9511905 1.5036138,24.6195238 C1.65395105,25.2895238 1.82841948,25.952619 1.97248262,26.4504762 C2.0456001,26.7004762 2.10665198,26.9085714 2.14936417,27.0542857 C2.19714391,27.2004762 2.2195859,27.2859524 2.2195859,27.2859524" id="Fill-13" fill="#FFFFFF"></path>
                    <path d="M22.6123632,23.0492857 C22.6123632,23.0492857 22.6063304,23.2852381 22.5691684,23.627619 C22.5298346,23.9697619 22.4530974,24.4169048 22.3611576,24.8597619 C22.2655981,25.3019048 22.1565252,25.7409524 22.05807,26.0704762 C22.0124621,26.2357143 21.9576843,26.3719048 21.9299334,26.4690476 C21.8975977,26.5654762 21.8737078,26.6204762 21.8737078,26.6204762 C21.8737078,26.6204762 21.8348566,26.387381 21.8319608,26.0388095 C21.830513,25.6909524 21.8768448,25.2302381 21.9719217,24.7795238 C22.0682051,24.3290476 22.2117856,23.89 22.349092,23.5704762 C22.4885702,23.2511905 22.6123632,23.0492857 22.6123632,23.0492857" id="Fill-14" fill="#FFFFFF"></path>
                    <path d="M3.98260989,6.00214286 C3.98260989,6.00214286 3.73647186,6.095 3.41576848,6.285 C3.25408957,6.37714286 3.07407097,6.49309524 2.89405237,6.63 C2.7125859,6.765 2.53425649,6.92547619 2.37016446,7.09833333 C2.20100489,7.26785714 2.05935487,7.46 1.92349633,7.64166667 C1.80139256,7.83190476 1.68290847,8.01047619 1.59676016,8.17547619 C1.49975281,8.3352381 1.4319442,8.47761905 1.38223397,8.57761905 C1.33107587,8.67690476 1.29608566,8.73380952 1.29608566,8.73380952 C1.29608566,8.73380952 1.29656828,8.66952381 1.30766862,8.55714286 C1.32504307,8.44690476 1.32431914,8.27928571 1.38392315,8.09309524 C1.42567009,7.90047619 1.51302496,7.68714286 1.62282183,7.46380952 C1.74178855,7.245 1.89695203,7.02571429 2.08059031,6.82928571 C2.45438228,6.44 2.94134949,6.17404762 3.32841361,6.07785714 C3.71596035,5.97357143 3.98260989,6.00214286 3.98260989,6.00214286" id="Fill-15" fill="#FFFFFF"></path>
                </g>
                <g id="Group" transform="translate(35.600000, 9.800000)" fill="#FFFFFF">
                    <path d="M27.0928221,14.6019265 C26.3643622,15.3404082 25.4701147,15.7085714 24.4111564,15.7085714 C23.3683462,15.7085714 22.4823522,15.3404082 21.7538923,14.6019265 C21.0254323,13.8656 20.6615611,12.9162776 20.6615611,11.7564735 C20.6615611,10.6124735 21.0254323,9.66925714 21.7538923,8.92287347 C22.4823522,8.17720816 23.3683462,7.80401633 24.4111564,7.80401633 C25.4543254,7.80401633 26.343549,8.17720816 27.0806213,8.92287347 C27.816976,9.66925714 28.1855121,10.6124735 28.1855121,11.7564735 C28.1855121,12.9162776 27.8212821,13.8656 27.0928221,14.6019265 L27.0928221,14.6019265 Z M24.4111564,5.12019592 C22.4572329,5.12019592 20.8144301,5.74589388 19.4820301,6.99621224 C18.1489124,8.24760816 17.4828919,9.83412245 17.4828919,11.7564735 C17.4828919,13.6788245 18.1489124,15.2649796 19.4820301,16.5163755 C20.8144301,17.7677714 22.4572329,18.3934694 24.4111564,18.3934694 C26.381228,18.3934694 28.0322843,17.7677714 29.3650431,16.5163755 C30.6974431,15.2649796 31.3638225,13.6788245 31.3638225,11.7564735 C31.3638225,9.83412245 30.6934958,8.24760816 29.3528423,6.99621224 C28.01183,5.74589388 26.3643622,5.12019592 24.4111564,5.12019592 L24.4111564,5.12019592 Z" id="Fill-16"></path>
                    <path d="M52.2476579,10.1157224 C52.4295934,9.32120816 52.7891584,8.6955102 53.3274293,8.23970612 C53.8649826,7.78390204 54.5399743,7.55582041 55.351328,7.55582041 C56.0134012,7.55582041 56.5721265,7.79611429 57.0278625,8.27706122 C57.482522,8.75764898 57.7186435,9.37041633 57.7351505,10.1157224 L52.2476579,10.1157224 L52.2476579,10.1157224 Z M55.351328,5.12019592 C53.4476432,5.12019592 51.8999348,5.73799184 50.7078442,6.97214694 C49.5157535,8.20666122 48.9197081,9.80179592 48.9197081,11.7564735 C48.9197081,13.6123755 49.5448201,15.1823673 50.7950441,16.4671673 C52.0445503,17.7505306 53.687712,18.3934694 55.7238115,18.3934694 C56.3198568,18.3934694 56.9037014,18.3219918 57.4746274,18.1811918 C58.0459123,18.0411102 58.5131314,17.8873796 58.8777203,17.7214367 C59.2415914,17.5565714 59.5932617,17.3651265 59.9330901,17.1499755 C60.2729185,16.9348245 60.4918153,16.7818122 60.5904983,16.6902204 C60.6909756,16.5997061 60.765257,16.5285878 60.8133425,16.4790204 L59.4988849,14.2912327 L59.0506847,14.6392816 C58.7693484,14.8716735 58.3311959,15.1080163 57.7351505,15.3483102 C57.139464,15.5889633 56.5434187,15.7085714 55.9473733,15.7085714 C54.9540841,15.7085714 54.1011041,15.4097306 53.3898688,14.8131265 C52.6779157,14.2168816 52.263806,13.3810612 52.1482572,12.3035102 L60.889777,12.3035102 L60.9640584,11.1347265 C60.9640584,9.39555918 60.4677726,7.95810612 59.4726891,6.82236735 C58.4804763,5.68770612 57.1060912,5.12019592 55.351328,5.12019592 L55.351328,5.12019592 Z" id="Fill-17"></path>
                    <path d="M86.2168594,14.6766367 C85.6039482,15.3817143 84.8421155,15.7337143 83.9327964,15.7337143 C82.9387895,15.7337143 82.169062,15.3483102 81.6232553,14.5778612 C81.0767309,13.8074122 80.8032893,12.8918531 80.8032893,11.8308245 C80.8032893,10.5061551 81.1097449,9.50726531 81.7219383,8.8363102 C82.3348495,8.1653551 83.0877111,7.82915918 83.9819585,7.82915918 C84.9257269,7.82915918 85.6864831,8.19444898 86.2663803,8.92287347 C86.8462775,9.65201633 87.1355084,10.6124735 87.1355084,11.8067592 C87.1355084,13.0157714 86.8290529,13.9722776 86.2168594,14.6766367 L86.2168594,14.6766367 Z M84.6774046,5.12019592 C84.1308801,5.12019592 83.6130635,5.19490612 83.1246724,5.34360816 C82.6362812,5.49266939 82.2562619,5.65466122 81.9831791,5.82850612 C81.7097375,6.0027102 81.4574679,6.20564898 81.2252937,6.43696327 C80.9931195,6.6693551 80.848504,6.83134694 80.7910885,6.92186122 C80.7329552,7.01345306 80.6877405,7.08385306 80.6543677,7.13306122 L80.604129,7.13306122 L80.604129,6.6363102 C80.604129,5.8245551 80.0748293,5.41795918 79.0155121,5.41795918 L73.2549367,5.41795918 C72.3937032,5.41795918 71.8310307,5.81665306 71.5665602,6.61116735 L71.4951496,6.82021224 L68.9842952,14.1281633 L66.0040685,6.61116735 C65.838281,6.18050612 65.6312261,5.87376327 65.3829038,5.69165714 C65.1349403,5.50955102 64.7872173,5.41795918 64.3397348,5.41795918 L61.9049559,5.41795918 L67.5187628,18.0694857 L67.0963996,19.0392816 C66.6492759,20.1164735 65.9538298,20.6545306 65.0100615,20.6545306 C64.3146155,20.6545306 63.7106755,20.3650286 63.197165,19.7845878 L61.9813904,22.0215837 L62.3531562,22.3444898 C62.5853304,22.56 62.9660674,22.775151 63.495726,22.9913796 C64.0253845,23.2065306 64.5880571,23.3142857 65.1841024,23.3142857 C66.1781094,23.3142857 67.0795338,23.0366367 67.8916052,22.4813388 C68.7015235,21.9260408 69.3226881,21.1020735 69.7536637,20.0087184 L74.2981057,8.5504 C74.4136546,8.25191837 74.6537234,8.10285714 75.0175945,8.10285714 L77.2026156,8.10285714 C77.5661279,8.10285714 77.7491401,8.28496327 77.7491401,8.64917551 L77.7491401,23.0657306 L80.8775707,23.0657306 L80.8775707,17.8209306 C80.8775707,17.3906286 80.8614225,17.0253388 80.8284086,16.7275755 L80.8775707,16.7275755 L81.2252937,17.1499755 C81.4574679,17.4154122 81.8744484,17.6891102 82.4794649,17.9699918 C83.0834049,18.2515918 83.7587555,18.3934694 84.5037225,18.3934694 C86.1917401,18.3934694 87.5826322,17.7835755 88.6753221,16.5655837 C89.7676533,15.3483102 90.3141777,13.7449143 90.3141777,11.7564735 C90.3141777,9.78491429 89.8006672,8.18546939 88.7747228,6.95921633 C87.7477019,5.73296327 86.3819291,5.12019592 84.6774046,5.12019592 L84.6774046,5.12019592 Z" id="Fill-18"></path>
                    <path d="M101.513443,14.6019265 C100.784983,15.3404082 99.8914528,15.7085714 98.8324945,15.7085714 C97.7893254,15.7085714 96.9029727,15.3404082 96.1752304,14.6019265 C95.4467704,13.8656 95.0818227,12.9162776 95.0818227,11.7564735 C95.0818227,10.6124735 95.4467704,9.66925714 96.1752304,8.92287347 C96.9029727,8.17720816 97.7893254,7.80401633 98.8324945,7.80401633 C99.874587,7.80401633 100.764887,8.17720816 101.501601,8.92287347 C102.238314,9.66925714 102.606133,10.6124735 102.606133,11.7564735 C102.606133,12.9162776 102.242261,13.8656 101.513443,14.6019265 L101.513443,14.6019265 Z M98.8324945,5.12019592 C96.878571,5.12019592 95.2357682,5.74589388 93.9030094,6.99621224 C92.5702506,8.24760816 91.90423,9.83412245 91.90423,11.7564735 C91.90423,13.6788245 92.5702506,15.2649796 93.9030094,16.5163755 C95.2357682,17.7677714 96.878571,18.3934694 98.8324945,18.3934694 C100.802207,18.3934694 102.453264,17.7677714 103.786022,16.5163755 C105.118422,15.2649796 105.784802,13.6788245 105.784802,11.7564735 C105.784802,9.83412245 105.114475,8.24760816 103.773822,6.99621224 C102.432092,5.74589388 100.784983,5.12019592 98.8324945,5.12019592 L98.8324945,5.12019592 Z" id="Fill-19"></path>
                    <path d="M114.351204,15.4348735 C113.721786,15.4348735 113.147271,15.2649796 112.625508,14.9259102 C112.104102,14.5861224 111.842503,13.9604245 111.842503,13.0488163 L111.842503,7.92901224 L114.724046,7.92901224 L114.724046,5.41795918 L111.842503,5.41795918 L111.842503,1.9636898 L108.763593,1.9636898 L108.763593,5.41795918 L107.050097,5.41795918 L107.050097,7.92901224 L108.688953,7.92901224 L108.688953,13.4464327 C108.688953,14.2589061 108.817779,14.9672163 109.073996,15.5717224 C109.330213,16.1773061 109.64564,16.6410122 110.017764,16.9639184 C110.390607,17.2868245 110.832706,17.5472327 111.346217,17.7465796 C111.859727,17.9455673 112.315105,18.0745143 112.71199,18.1316245 C113.109951,18.1901714 113.522985,18.2192653 113.95396,18.2192653 C114.333979,18.2192653 114.65766,18.1941224 114.921771,18.1438367 L114.921771,15.3856653 L114.351204,15.4348735" id="Fill-20"></path>
                    <path d="M11.786909,2.13789388 L11.786909,7.92901224 L4.0142768,7.92901224 L4.0142768,2.13789388 C4.0142768,1.55745306 3.88186215,1.13110204 3.6173917,0.857404082 C3.35220356,0.583706122 2.92194567,0.446857143 2.32590033,0.446857143 L0.761326175,0.446857143 L0.761326175,18.0946286 L4.0142768,18.0946286 L4.0142768,10.687902 L11.786909,10.687902 L11.786909,18.0946286 L15.0398596,18.0946286 L15.0398596,0.446857143 L13.4756443,0.446857143 C12.3495815,0.446857143 11.786909,1.01113469 11.786909,2.13789388" id="Fill-21"></path>
                    <path d="M41.7187197,5.12019592 C40.5765088,5.12019592 39.6327405,5.38491429 38.8874146,5.91506939 C38.1428065,6.44630204 37.596641,7.0587102 37.248918,7.75480816 L37.199397,7.75480816 L37.248918,7.20777143 L37.248918,6.83529796 C37.248918,5.89100408 36.6941401,5.41795918 35.5853019,5.41795918 L34.2195292,5.41795918 L34.2195292,18.0946286 L37.3483186,18.0946286 L37.3483186,12.2783673 C37.3483186,11.6487184 37.4308535,11.0855184 37.596641,10.5884082 C37.8284563,9.81005714 38.2457957,9.18435918 38.8504534,8.71131429 C39.4547522,8.23970612 40.1702937,8.00336327 40.9985132,8.00336327 C41.743839,8.00336327 42.260938,8.22354286 42.5505277,8.66210612 C42.8401175,9.10066939 42.9854506,9.74360816 42.9854506,10.5884082 L42.9854506,16.4046694 C42.9854506,17.0012735 43.1175064,17.4315755 43.3823357,17.6973714 C43.647165,17.9617306 44.0777818,18.0946286 44.6738271,18.0946286 L46.1390006,18.0946286 L46.1390006,9.94151837 C46.1390006,6.72790204 44.6652148,5.12019592 41.7187197,5.12019592" id="Fill-22"></path>
                </g>
            </g>
        </g>
    </g>
</svg>