<?xml version="1.0" encoding="UTF-8" standalone="no"?>
<svg width="344px" height="139px" viewBox="0 0 344 139" version="1.1" xmlns="http://www.w3.org/2000/svg" xmlns:xlink="http://www.w3.org/1999/xlink">
    <!-- Generator: Sketch 3.7.2 (28276) - http://www.bohemiancoding.com/sketch -->
    <title>Artboard 1</title>
    <desc>Created with Sketch.</desc>
    <defs></defs>
    <g id="Page-1" stroke="none" stroke-width="1" fill="none" fill-rule="evenodd">
        <g id="Artboard-1">
            <path d="M156,57.146 C156,64.906 159.339,71.808 165.029,76.226 L165.029,76.226 L179.285,88.688 L179.285,82.357 C179.285,82.357 179.61,81.807 179.806,81.59 L179.806,81.59 C180.064,81.303 180.456,81.288 180.689,81.282 L180.689,81.282 C193.698,80.907 204.21,70.244 204.21,57.146 L204.21,57.146 C204.21,43.81 193.481,33 180.146,33 L180.146,33 C166.811,33 156,43.81 156,57.146" id="Fill-1" fill="#000000"></path>
            <polygon id="Fill-3" fill="#FFFFFF" points="193 54 184 54 184 44 175 44 175 54 166 54 166 62 175 62 175 72 184 72 184 62 193 62"></polygon>
            <path d="M315.189,98.009 C312.708,101.162 309.114,103.206 303.637,103.206 C295.079,103.206 289.431,96.647 289.431,88.127 C289.431,79.524 295.079,72.964 303.637,72.964 C308.772,72.964 312.024,74.752 314.504,77.82 L316.901,75.86 C313.906,72.197 309.541,69.982 303.637,69.982 C293.624,69.982 285.922,78.16 285.922,88.127 C285.922,98.094 293.624,106.187 303.637,106.187 C309.97,106.187 314.334,103.972 317.585,99.969 L315.189,98.009 Z M262.22,103.206 C253.493,103.206 247.417,96.647 247.417,88.043 C247.417,79.439 253.493,72.964 262.22,72.964 C270.951,72.964 276.855,79.439 276.855,88.043 C276.855,96.647 270.951,103.206 262.22,103.206 L262.22,103.206 Z M262.22,69.982 C252.037,69.982 243.993,78.075 243.993,88.043 C243.993,98.009 252.037,106.187 262.22,106.187 C272.405,106.187 280.278,98.009 280.278,88.043 C280.278,78.075 272.405,69.982 262.22,69.982 L262.22,69.982 Z M218.136,103.206 C209.492,103.206 203.93,96.647 203.93,88.043 C203.93,79.439 209.492,72.964 218.136,72.964 C226.95,72.964 232.769,79.439 232.769,88.043 C232.769,96.647 226.95,103.206 218.136,103.206 L218.136,103.206 Z M232.513,79.013 C229.945,73.816 224.811,69.982 217.707,69.982 C207.695,69.982 200.422,77.82 200.422,88.043 C200.422,98.264 207.695,106.187 217.707,106.187 C224.468,106.187 230.203,102.183 232.684,96.817 L232.513,105.506 L235.85,105.506 L235.85,44 L232.513,44 L232.513,79.013 Z M140.057,72.879 C148.786,72.879 153.236,78.928 153.749,86.083 L126.023,86.083 C126.878,78.501 132.099,72.879 140.057,72.879 L140.057,72.879 Z M140.057,69.982 C130.131,69.982 122.514,78.16 122.514,88.127 C122.514,98.094 129.703,106.187 140.742,106.187 C147.246,106.187 152.124,103.548 155.205,99.713 L152.979,97.754 C150.412,100.906 146.561,103.206 140.742,103.206 C131.757,103.206 126.194,97.243 125.937,88.809 L157.173,88.809 C157.344,78.245 150.669,69.982 140.057,69.982 L140.057,69.982 Z M101.03,72.879 C109.759,72.879 114.209,78.928 114.723,86.083 L86.996,86.083 C87.851,78.501 93.072,72.879 101.03,72.879 L101.03,72.879 Z M101.03,69.982 C91.103,69.982 83.487,78.16 83.487,88.127 C83.487,98.094 90.675,106.187 101.715,106.187 C108.219,106.187 113.097,103.548 116.177,99.713 L113.952,97.754 C111.385,100.906 107.534,103.206 101.715,103.206 C92.729,103.206 87.167,97.243 86.91,88.809 L118.146,88.809 C118.317,78.245 111.642,69.982 101.03,69.982 L101.03,69.982 Z M64.825,69.982 C59.776,69.982 55.155,72.708 52.587,77.905 C51.389,73.389 47.71,69.982 41.719,69.982 C36.499,69.982 32.391,72.964 30.252,77.82 L30.337,70.748 L27,70.748 L27,105.506 L30.337,105.506 L30.337,85.571 C30.337,77.648 35.13,73.048 41.377,73.048 C47.453,73.048 50.106,76.542 50.106,82.846 L50.106,105.506 L53.443,105.506 L53.443,85.571 C53.443,77.648 58.235,73.048 64.483,73.048 C70.559,73.048 73.126,76.542 73.126,82.846 L73.126,105.506 L76.464,105.506 L76.464,82.25 C76.464,74.667 71.928,69.982 64.825,69.982 L64.825,69.982 Z" id="Fill-5" fill="#000000"></path>
        </g>
    </g>
</svg>