<?xml version="1.0" encoding="UTF-8" standalone="no"?>
<svg width="166px" height="263px" viewBox="0 0 166 263" version="1.1" xmlns="http://www.w3.org/2000/svg" xmlns:xlink="http://www.w3.org/1999/xlink" xmlns:sketch="http://www.bohemiancoding.com/sketch/ns">
    <!-- Generator: Sketch 3.5.1 (25234) - http://www.bohemiancoding.com/sketch -->
    <title>Group 2</title>
    <desc>Created with Sketch.</desc>
    <defs></defs>
    <g id="Page-1" stroke="none" stroke-width="1" fill="none" fill-rule="evenodd" sketch:type="MSPage">
        <g id="Talent-landing-page" sketch:type="MSArtboardGroup" transform="translate(-142.000000, -2049.000000)">
            <g id="Group-2" sketch:type="MSLayerGroup" transform="translate(142.000000, 2049.000000)">
                <path d="M69.8416038,28.1749914 C67.9855358,32.0006311 68.1214898,40.9038555 68.1214898,40.9038555 L68,70.0671766 C68,70.0671766 68.055868,76.8978123 69.8416039,80.9228379 C71.6273398,84.9478636 77.3270777,87.7929864 77.3270777,87.7929864 L107.429562,105.322469 C107.429562,105.322469 112.723045,108.207057 116.993512,108.199987 C121.263978,108.192917 126.69438,105.285536 126.69438,105.285536 L157.901201,86.8923439 C157.901201,86.8923439 163.201114,84.0744369 164.718778,79.8841805 C166.236442,75.6939241 165.651482,67.936736 165.651482,67.936736 L165.987025,37.146427 C165.987025,37.146427 166.304583,33.2153498 163.797641,28.1749914 C161.2907,23.134633 154.301502,18.5569076 154.301502,18.5569076 L128.548226,3.82200824 C128.548226,3.82200824 123.444367,0.201258284 116.993512,0.200000137 C110.542656,0.198741991 105.377733,3.81488085 105.377733,3.81488085 L78.3375646,19.8469645 C78.3375646,19.8469645 71.3908941,24.9816674 69.8416038,28.1749914 Z" id="Path-1" fill="#206AB5" sketch:type="MSShapeGroup"></path>
                <path d="M0.939593789,139.446523 C-0.00737967763,141.394766 0.0619846157,145.928815 0.0619846157,145.928815 L-2.06128948e-21,160.780506 C-2.06128948e-21,160.780506 0.0285040751,164.259071 0.939593825,166.308853 C1.85068358,168.358634 4.75871309,169.807539 4.75871309,169.807539 L20.1171234,178.734591 C20.1171234,178.734591 22.8178801,180.203594 24.9966896,180.199993 C27.1754991,180.196393 29.9461125,178.715782 29.9461125,178.715782 L45.8679597,169.348879 C45.8679597,169.348879 48.5719972,167.913834 49.3463154,165.779907 C50.1206336,163.64598 49.8221846,159.69556 49.8221846,159.69556 L49.9933802,144.01531 C49.9933802,144.01531 50.1553993,142.013372 48.8763476,139.446523 C47.5972959,136.879674 44.0313785,134.548425 44.0313785,134.548425 L30.8919518,127.044541 C30.8919518,127.044541 28.2879424,125.200641 24.9966896,125.2 C21.7054368,125.199359 19.0702721,127.040911 19.0702721,127.040911 L5.27426767,135.205398 C5.27426767,135.205398 1.73004801,137.820293 0.939593789,139.446523 Z" id="Path-1" fill="#65A6E8" sketch:type="MSShapeGroup"></path>
                <path d="M100.939594,166.446523 C99.9926203,168.394766 100.061985,172.928815 100.061985,172.928815 L100,187.780506 C100,187.780506 100.028504,191.259071 100.939594,193.308853 C101.850684,195.358634 104.758713,196.807539 104.758713,196.807539 L120.117123,205.734591 C120.117123,205.734591 122.81788,207.203594 124.99669,207.199993 C127.175499,207.196393 129.946112,205.715782 129.946112,205.715782 L145.86796,196.348879 C145.86796,196.348879 148.571997,194.913834 149.346315,192.779907 C150.120634,190.64598 149.822185,186.69556 149.822185,186.69556 L149.99338,171.01531 C149.99338,171.01531 150.155399,169.013372 148.876348,166.446523 C147.597296,163.879674 144.031378,161.548425 144.031378,161.548425 L130.891952,154.044541 C130.891952,154.044541 128.287942,152.200641 124.99669,152.2 C121.705437,152.199359 119.070272,154.040911 119.070272,154.040911 L105.274268,162.205398 C105.274268,162.205398 101.730048,164.820293 100.939594,166.446523 Z" id="Path-1" fill="#084788" sketch:type="MSShapeGroup"></path>
                <path d="M38.4697969,241.452775 C37.9963102,242.444608 38.0309923,244.752851 38.0309923,244.752851 L38,252.313712 C38,252.313712 38.014252,254.084618 38.4697969,255.128143 C38.9253418,256.171668 40.3793565,256.909293 40.3793565,256.909293 L48.0585617,261.453973 C48.0585617,261.453973 49.4089401,262.201829 50.4983448,262.199996 C51.5877495,262.198163 52.9730562,261.444398 52.9730562,261.444398 L60.9339799,256.675793 C60.9339799,256.675793 62.2859986,255.945224 62.6731577,254.858861 C63.0603168,253.772499 62.9110923,251.761376 62.9110923,251.761376 L62.9966901,243.778703 C62.9966901,243.778703 63.0776996,242.759535 62.4381738,241.452775 C61.798648,240.146016 60.0156892,238.959198 60.0156892,238.959198 L53.4459759,235.139039 C53.4459759,235.139039 52.1439712,234.200326 50.4983448,234.2 C48.8527184,234.199674 47.5351361,235.137191 47.5351361,235.137191 L40.6371338,239.293657 C40.6371338,239.293657 38.865024,240.624877 38.4697969,241.452775 Z" id="Path-1" fill="#063A6F" sketch:type="MSShapeGroup"></path>
            </g>
        </g>
    </g>
</svg>