<?xml version="1.0" encoding="UTF-8" standalone="no"?>
<svg width="181px" height="212px" viewBox="0 0 181 212" version="1.1" xmlns="http://www.w3.org/2000/svg" xmlns:xlink="http://www.w3.org/1999/xlink" xmlns:sketch="http://www.bohemiancoding.com/sketch/ns">
    <!-- Generator: Sketch 3.5.1 (25234) - http://www.bohemiancoding.com/sketch -->
    <title>Group 4</title>
    <desc>Created with Sketch.</desc>
    <defs></defs>
    <g id="Page-1" stroke="none" stroke-width="1" fill="none" fill-rule="evenodd" sketch:type="MSPage">
        <g id="Talent-landing-page" sketch:type="MSArtboardGroup" transform="translate(-1141.000000, -1959.000000)">
            <g id="Group-4" sketch:type="MSLayerGroup" transform="translate(1141.000000, 1959.000000)">
                <path d="M1.84160383,131.174991 C-0.0144641681,135.000631 0.121489847,143.903856 0.121489847,143.903856 L-4.04012738e-21,173.067177 C-4.04012738e-21,173.067177 0.0558679872,179.897812 1.8416039,183.922838 C3.62733981,187.947864 9.32707766,190.792986 9.32707766,190.792986 L39.4295619,208.322469 C39.4295619,208.322469 44.7230451,211.207057 48.9935116,211.199987 C53.2639782,211.192917 58.6943805,208.285536 58.6943805,208.285536 L89.901201,189.892344 C89.901201,189.892344 95.2011144,187.074437 96.7187782,182.88418 C98.2364419,178.693924 97.6514819,170.936736 97.6514819,170.936736 L97.9870253,140.146427 C97.9870253,140.146427 98.3045826,136.21535 95.7976413,131.174991 C93.2907,126.134633 86.3015018,121.556908 86.3015018,121.556908 L60.5482255,106.822008 C60.5482255,106.822008 55.4443672,103.201258 48.9935116,103.2 C42.5426561,103.198742 37.3777334,106.814881 37.3777334,106.814881 L10.3375646,122.846964 C10.3375646,122.846964 3.39089409,127.981667 1.84160383,131.174991 Z" id="Path-1" fill="#206AB5" sketch:type="MSShapeGroup"></path>
                <path d="M131.939594,99.4465233 C130.99262,101.394766 131.061985,105.928815 131.061985,105.928815 L131,120.780506 C131,120.780506 131.028504,124.259071 131.939594,126.308853 C132.850684,128.358634 135.758713,129.807539 135.758713,129.807539 L151.117123,138.734591 C151.117123,138.734591 153.81788,140.203594 155.99669,140.199993 C158.175499,140.196393 160.946112,138.715782 160.946112,138.715782 L176.86796,129.348879 C176.86796,129.348879 179.571997,127.913834 180.346315,125.779907 C181.120634,123.64598 180.822185,119.69556 180.822185,119.69556 L180.99338,104.01531 C180.99338,104.01531 181.155399,102.013372 179.876348,99.4465233 C178.597296,96.8796741 175.031378,94.5484251 175.031378,94.5484251 L161.891952,87.0445411 C161.891952,87.0445411 159.287942,85.2006407 155.99669,85.2 C152.705437,85.1993593 150.070272,87.0409115 150.070272,87.0409115 L136.274268,95.2053985 C136.274268,95.2053985 132.730048,97.8202935 131.939594,99.4465233 Z" id="Path-1" fill="#65A6E8" sketch:type="MSShapeGroup"></path>
                <path d="M14.9395938,28.4465233 C13.9926203,30.3947657 14.0619846,34.9288152 14.0619846,34.9288152 L14,49.7805065 C14,49.7805065 14.0285041,53.259071 14.9395938,55.3088526 C15.8506836,57.3586341 18.7587131,58.8075393 18.7587131,58.8075393 L34.1171234,67.7345906 C34.1171234,67.7345906 36.8178801,69.2035938 38.9966896,69.1999932 C41.1754991,69.1963926 43.9461125,67.7157823 43.9461125,67.7157823 L59.8679597,58.3488788 C59.8679597,58.3488788 62.5719972,56.9138335 63.3463154,54.7799066 C64.1206336,52.6459798 63.8221846,48.6955599 63.8221846,48.6955599 L63.9933802,33.01531 C63.9933802,33.01531 64.1553993,31.0133725 62.8763476,28.4465233 C61.5972959,25.8796741 58.0313785,23.5484251 58.0313785,23.5484251 L44.8919518,16.0445411 C44.8919518,16.0445411 42.2879424,14.2006407 38.9966896,14.2 C35.7054368,14.1993593 33.0702721,16.0409115 33.0702721,16.0409115 L19.2742677,24.2053985 C19.2742677,24.2053985 15.730048,26.8202935 14.9395938,28.4465233 Z" id="Path-1" fill="#084788" sketch:type="MSShapeGroup"></path>
                <path d="M131.469797,7.4527754 C130.99631,8.44460792 131.030992,10.7528513 131.030992,10.7528513 L131,18.3137123 C131,18.3137123 131.014252,20.0846179 131.469797,21.128143 C131.925342,22.1716682 133.379357,22.9092926 133.379357,22.9092926 L141.058562,27.4539733 C141.058562,27.4539733 142.40894,28.2018295 143.498345,28.1999964 C144.58775,28.1981634 145.973056,27.4443981 145.973056,27.4443981 L153.93398,22.6757927 C153.93398,22.6757927 155.285999,21.9452242 155.673158,20.8588615 C156.060317,19.7724987 155.911092,17.7613759 155.911092,17.7613759 L155.99669,9.77870316 C155.99669,9.77870316 156.0777,8.75953498 155.438174,7.4527754 C154.798648,6.14601582 153.015689,4.95919812 153.015689,4.95919812 L146.445976,1.13903903 C146.445976,1.13903903 145.143971,0.200326081 143.498345,0.199999894 C141.852718,0.199673708 140.535136,1.13719119 140.535136,1.13719119 L133.637134,5.29365732 C133.637134,5.29365732 131.865024,6.6248766 131.469797,7.4527754 Z" id="Path-1" fill="#063A6F" sketch:type="MSShapeGroup"></path>
            </g>
        </g>
    </g>
</svg>