<?xml version="1.0" encoding="UTF-8" standalone="no"?>
<svg width="102px" height="18px" viewBox="0 0 102 18" version="1.1" xmlns="http://www.w3.org/2000/svg" xmlns:xlink="http://www.w3.org/1999/xlink">
    <!-- Generator: Sketch 41.2 (35397) - http://www.bohemiancoding.com/sketch -->
    <title>Nico Ulbrecht</title>
    <desc>Created with Sketch.</desc>
    <defs></defs>
    <g id="Landing-Pages" stroke="none" stroke-width="1" fill="none" fill-rule="evenodd">
        <g id="Desktop-HD-talent" transform="translate(-272.000000, -451.000000)" fill="#FFFFFF">
            <path d="M282.6095,452.757 C282.6095,452.605 282.5525,452.472 282.4575,452.339 C282.3435,452.225 282.2295,452.149 282.0965,452.149 C281.8305,452.149 281.6405,452.301 281.5265,452.605 C281.1845,453.479 280.8995,454.809 280.6525,456.557 C280.4245,458.191 280.3105,459.559 280.3105,460.661 C280.3105,461.896 280.3675,462.903 280.5005,463.682 C278.0115,460.718 276.3585,458.419 275.5225,456.785 C275.0475,455.892 274.8005,455.322 274.7815,455.094 C274.8195,454.942 274.8575,454.828 274.8575,454.714 C274.8575,454.315 274.6485,454.106 274.2495,454.106 C274.0975,454.106 273.9455,454.201 273.8125,454.391 C273.6225,454.543 273.5275,454.695 273.5275,454.847 C273.5275,454.904 273.5465,454.98 273.6035,455.094 C272.7675,459.046 272.3685,462.599 272.3685,465.753 L272.3685,467.425 C272.3685,467.577 272.4065,467.729 272.5205,467.881 C272.6345,467.995 272.7675,468.052 272.9195,468.052 C273.1665,468.052 273.3375,467.881 273.4325,467.558 C273.6605,466.513 273.7935,465.734 273.7935,465.183 C273.7935,465.126 273.7555,465.031 273.7175,464.917 L273.5465,464.917 C273.6035,462.561 273.8695,459.92 274.3635,456.975 C275.9215,459.654 277.9165,462.39 280.3865,465.202 C280.5385,465.392 280.6905,465.468 280.8045,465.468 C280.9755,465.62 281.1085,465.677 281.2225,465.677 C281.5835,465.677 281.7735,465.487 281.7735,465.107 C281.7355,464.917 281.7165,464.746 281.7165,464.632 C281.5265,463.15 281.4315,461.991 281.4315,461.117 C281.4315,458.191 281.7735,455.588 282.4575,453.346 C282.5525,453.042 282.6095,452.852 282.6095,452.757 Z M287.6065,452.586 C287.6065,451.788 287.2835,451.37 286.6565,451.294 C286.1625,451.465 285.8965,451.75 285.8585,452.168 C285.8585,452.301 285.8775,452.415 285.8775,452.529 C285.8775,453.194 286.2385,453.593 286.9795,453.726 C287.3975,453.688 287.6065,453.308 287.6065,452.586 Z M286.5805,459.749 C286.5805,459.141 286.2195,458.799 285.5165,458.761 C285.3265,458.875 285.2315,459.027 285.2315,459.198 C285.2315,459.255 285.2505,459.407 285.2885,459.635 C284.7565,462.257 284.5095,463.796 284.5095,464.29 C284.5095,464.898 284.6045,465.373 284.7945,465.753 C285.0415,466.228 285.3075,466.475 285.6115,466.475 C285.8395,466.475 285.9725,466.342 285.9725,466.076 C285.9725,465.772 285.8395,465.468 285.5925,465.202 C285.5925,464.214 285.8015,462.827 286.2385,461.041 C286.3715,460.547 286.4855,460.129 286.5805,459.749 Z M294.6175,464.366 C294.6175,464.214 294.5605,464.081 294.4465,463.929 C294.3325,463.777 294.1995,463.701 294.0665,463.701 C293.9145,463.701 293.7245,463.834 293.4965,464.081 C293.1925,464.366 292.9835,464.575 292.8695,464.708 C292.5275,464.974 292.0905,465.107 291.5585,465.107 C291.1405,465.107 290.8365,464.955 290.6085,464.632 C290.3805,464.309 290.2855,463.891 290.2855,463.397 C290.2855,461.972 290.9315,460.775 292.2615,459.825 C292.4895,459.996 292.8315,460.072 293.2875,460.072 C293.7055,460.072 294.0095,459.825 294.1805,459.293 C294.1615,458.723 293.8385,458.419 293.2115,458.419 C292.6415,458.419 292.1665,458.552 291.7485,458.799 C290.9885,459.293 290.3615,459.958 289.8865,460.813 C289.3925,461.687 289.1645,462.618 289.1645,463.587 C289.1645,464.385 289.3925,465.031 289.8865,465.563 C290.3615,466.076 290.9885,466.342 291.7485,466.342 C292.4325,466.342 293.1165,466.057 293.8005,465.487 C294.3325,465.05 294.6175,464.67 294.6175,464.366 Z M302.1415,461.801 C302.1415,461.098 301.9325,460.433 301.5335,459.825 C301.1155,459.217 300.5835,458.799 299.9375,458.552 C299.7095,458.476 299.5575,458.438 299.5195,458.438 C299.4245,458.438 299.3295,458.457 299.2535,458.476 C299.1015,458.666 298.8545,458.837 298.5125,459.008 C297.8665,459.35 297.3535,459.92 296.9545,460.737 C296.5745,461.497 296.3845,462.276 296.3845,463.055 C296.3845,463.91 296.6125,464.651 297.0875,465.278 C297.5815,466 298.2275,466.342 299.0255,466.342 C299.5195,466.342 300.0135,466.114 300.5455,465.696 C301.0775,465.278 301.4195,464.822 301.6095,464.309 C301.7235,464.005 301.7995,463.777 301.8565,463.625 C302.0465,463.15 302.1415,462.542 302.1415,461.801 Z M301.0395,462.086 C301.0395,462.713 300.8305,463.359 300.4125,464.024 C299.9565,464.746 299.5005,465.107 299.0065,465.107 C298.5505,465.107 298.1895,464.917 297.9045,464.499 C297.6195,464.119 297.4865,463.644 297.4865,463.055 C297.4865,462.314 297.6385,461.649 297.9615,461.079 C298.3415,460.433 298.8545,460.091 299.5195,460.053 C299.7095,460.167 299.9755,460.243 300.2795,460.243 C300.7735,460.585 301.0395,461.193 301.0395,462.086 Z M319.6595,456.177 C319.6595,455.512 319.4505,454.372 319.0325,452.738 C318.9755,452.548 318.9375,452.415 318.8995,452.32 C318.8805,451.997 318.6905,451.826 318.3295,451.826 C318.1775,451.826 318.0445,451.902 317.9305,452.016 C317.7975,452.13 317.7215,452.263 317.7215,452.415 L317.8925,453.289 C318.2535,455.075 318.4435,456.956 318.4435,458.894 C318.4435,460.528 318.0635,461.991 317.3415,463.283 C316.5815,464.651 315.6695,465.335 314.6435,465.335 C313.7695,465.335 313.0665,464.879 312.4965,463.967 C311.9645,463.169 311.7175,462.048 311.7175,460.604 C311.7175,459.958 311.7555,458.97 311.8505,457.659 C311.9265,456.329 311.9835,455.531 311.9835,455.246 C311.9835,454.22 311.7365,453.707 311.2615,453.707 C310.9005,453.707 310.7295,453.878 310.7295,454.182 C310.7295,454.277 310.7295,454.486 310.7675,454.79 C310.7675,455.094 310.7865,455.303 310.7865,455.417 C310.7865,455.949 310.7485,456.747 310.6915,457.811 C310.6155,458.875 310.5775,459.673 310.5775,460.205 C310.5775,462.466 311.0335,464.119 311.9835,465.145 C312.7625,466.019 313.6365,466.456 314.6055,466.456 C316.0495,466.456 317.2655,465.639 318.2535,463.986 C319.0895,462.561 319.5265,461.003 319.5265,459.293 C319.5265,459.141 319.5265,458.723 319.5455,458.001 C319.5455,457.298 319.5645,456.899 319.5645,456.785 C319.5645,456.747 319.5835,456.671 319.6215,456.538 C319.6405,456.424 319.6595,456.31 319.6595,456.177 Z M324.9795,453.004 C324.9795,452.776 324.8275,452.51 324.5425,452.244 C324.2385,451.978 324.0105,451.845 323.8205,451.845 C323.6685,451.845 323.5735,451.978 323.4975,452.225 C322.6615,455.018 322.2625,457.621 322.2625,460.034 C322.2625,461.269 322.2815,462.276 322.3575,463.036 C322.2435,463.226 322.1865,463.454 322.1865,463.739 C322.1865,463.815 322.1865,464.024 322.2055,464.385 C322.2055,464.765 322.2245,464.974 322.2245,465.05 C322.2245,465.335 322.3385,465.677 322.6045,466.076 C322.8705,466.494 323.1365,466.722 323.4025,466.722 C323.5925,466.722 323.6875,466.627 323.6875,466.437 C323.4975,464.917 323.4215,462.979 323.4215,460.642 C323.4215,459.673 323.4975,458.476 323.6875,457.07 C323.8395,455.759 324.0295,454.695 324.2385,453.878 L324.3715,453.764 C324.7705,453.574 324.9795,453.308 324.9795,453.004 Z M333.7765,461.592 C333.7765,460.946 333.6055,460.414 333.2635,459.996 C332.9215,459.578 332.4275,459.369 331.8195,459.369 C330.7555,459.369 329.5015,460.3 328.0195,462.143 C328.1335,459.217 328.3045,456.975 328.5705,455.398 C328.7225,455.322 328.8555,455.17 328.9505,454.942 C329.0265,454.752 329.1215,454.353 329.2165,453.783 C329.3115,453.289 329.3685,452.909 329.3685,452.681 C329.3685,452.13 329.1595,451.845 328.7415,451.845 C328.3805,451.845 328.0955,452.339 327.9055,453.308 C327.2595,456.481 326.9555,459.692 326.9555,462.941 C326.9555,463.853 326.9935,464.727 327.0695,465.563 C326.7465,465.753 326.5755,465.962 326.5375,466.19 C326.6515,466.608 326.9365,466.817 327.4115,466.817 C327.7155,466.817 328.1715,466.703 328.8175,466.513 C329.4255,466.323 329.9955,466.076 330.5085,465.791 C331.4585,465.259 332.2185,464.632 332.8265,463.891 C333.4535,463.093 333.7765,462.333 333.7765,461.592 Z M332.6935,461.611 C332.6935,462.428 332.1425,463.245 331.0785,464.062 C330.1285,464.784 329.1785,465.278 328.1905,465.506 C328.1525,465.126 328.1525,464.803 328.1525,464.537 C328.1525,464.29 328.2285,464.005 328.3805,463.701 C328.8745,462.751 329.5395,461.953 330.3945,461.269 C330.9265,460.832 331.3825,460.604 331.7245,460.604 C332.3705,460.604 332.6935,460.946 332.6935,461.611 Z M342.2125,459.293 C342.1935,459.084 342.1175,458.875 341.9655,458.685 C341.7755,458.495 341.5855,458.4 341.3955,458.4 C340.6355,458.4 339.8945,458.685 339.1725,459.255 C338.4125,459.844 337.8235,460.566 337.3675,461.421 C337.2915,461.041 337.1775,460.509 337.0255,459.787 C336.8735,459.103 336.5885,458.742 336.1705,458.742 C336.0755,458.742 335.9995,458.818 335.9235,458.97 C335.8285,459.122 335.7905,459.255 335.7905,459.369 C335.7905,459.673 335.8285,460.091 335.9235,460.604 C335.9615,460.87 336.0755,461.136 336.3035,461.364 C336.4175,461.915 336.4935,462.466 336.4935,463.017 C336.4935,463.511 336.4365,464.043 336.3415,464.613 C336.2465,465.088 336.1705,465.411 336.1325,465.601 C336.1325,465.867 336.2085,466.076 336.3605,466.304 C336.5125,466.532 336.6835,466.665 336.8925,466.665 C337.1395,466.665 337.3485,466.019 337.5195,464.746 C337.8235,462.314 338.8115,460.737 340.4455,459.977 C340.6735,460.053 340.7875,460.091 340.8255,460.091 C341.0155,460.091 341.2625,460.015 341.6045,459.863 C342.0035,459.692 342.2125,459.502 342.2125,459.293 Z M350.1545,465.829 C350.1545,465.677 350.0975,465.544 349.9835,465.392 C349.8695,465.259 349.7555,465.183 349.6035,465.183 C349.5085,465.183 349.2995,465.202 348.9575,465.24 C348.5965,465.316 348.3305,465.335 348.1595,465.335 C347.3235,465.335 346.7345,464.936 346.3545,464.138 C347.1905,463.777 347.8935,463.264 348.4635,462.599 C349.0905,461.877 349.4135,461.155 349.4135,460.395 C349.4135,459.901 349.2235,459.464 348.8815,459.084 C348.3875,458.59 347.9125,458.324 347.4375,458.324 C346.6585,458.324 346.0125,458.818 345.4995,459.787 C345.0435,460.642 344.8155,461.535 344.8155,462.447 C344.8155,462.732 344.8345,463.017 344.8915,463.321 C344.7775,463.34 344.6445,463.34 344.5305,463.34 C344.2075,463.34 343.8845,463.245 343.5615,463.036 C343.2385,462.808 343.0485,462.694 342.9915,462.694 C342.6115,462.694 342.4215,462.903 342.4215,463.321 C342.4215,463.625 342.6495,463.91 343.1245,464.176 C343.5045,464.423 344.0365,464.537 344.7015,464.537 C344.8915,464.537 345.0815,464.518 345.2335,464.48 C345.8795,465.886 346.9435,466.589 348.4255,466.589 C349.5655,466.589 350.1545,466.323 350.1545,465.829 Z M348.2925,460.49 C348.2925,461.003 348.0645,461.478 347.6275,461.915 C347.1905,462.39 346.6585,462.751 346.0505,463.017 C346.0125,462.751 345.9935,462.485 345.9935,462.257 C345.9935,461.649 346.1265,461.041 346.3925,460.471 C346.6585,459.901 346.9815,459.597 347.3615,459.597 C347.5705,459.597 347.7795,459.692 347.9885,459.863 C348.1785,460.053 348.2925,460.262 348.2925,460.49 Z M357.0325,464.366 C357.0325,464.214 356.9755,464.081 356.8615,463.929 C356.7475,463.777 356.6145,463.701 356.4815,463.701 C356.3295,463.701 356.1395,463.834 355.9115,464.081 C355.6075,464.366 355.3985,464.575 355.2845,464.708 C354.9425,464.974 354.5055,465.107 353.9735,465.107 C353.5555,465.107 353.2515,464.955 353.0235,464.632 C352.7955,464.309 352.7005,463.891 352.7005,463.397 C352.7005,461.972 353.3465,460.775 354.6765,459.825 C354.9045,459.996 355.2465,460.072 355.7025,460.072 C356.1205,460.072 356.4245,459.825 356.5955,459.293 C356.5765,458.723 356.2535,458.419 355.6265,458.419 C355.0565,458.419 354.5815,458.552 354.1635,458.799 C353.4035,459.293 352.7765,459.958 352.3015,460.813 C351.8075,461.687 351.5795,462.618 351.5795,463.587 C351.5795,464.385 351.8075,465.031 352.3015,465.563 C352.7765,466.076 353.4035,466.342 354.1635,466.342 C354.8475,466.342 355.5315,466.057 356.2155,465.487 C356.7475,465.05 357.0325,464.67 357.0325,464.366 Z M365.5255,466.361 C365.4495,465.848 365.4115,465.449 365.3735,465.145 C365.2595,463.967 365.2215,463.093 365.2215,462.504 C365.2215,462.295 365.2215,461.972 365.2595,461.554 C365.2975,461.155 365.3165,460.889 365.3165,460.756 C365.3165,460.49 365.2405,460.262 365.0885,460.034 C364.9175,459.825 364.7275,459.711 364.4995,459.711 C364.1195,459.711 363.3595,460.167 362.2385,461.079 C361.2505,461.896 360.4525,462.675 359.8445,463.416 C360.0725,461.155 360.5475,458.134 361.3075,454.334 C361.4785,453.403 361.5735,452.909 361.5735,452.852 C361.5735,452.624 361.4975,452.396 361.3455,452.168 C361.1935,451.959 361.0035,451.845 360.8135,451.845 C360.6805,451.845 360.5855,451.94 360.5285,452.092 C360.4905,452.187 360.4335,452.434 360.3575,452.852 L359.9965,454.98 C359.5025,457.735 359.2555,459.179 359.2555,459.293 C358.9705,461.098 358.8375,462.656 358.8375,463.948 C358.8375,464.024 358.8375,464.195 358.8565,464.423 L358.8565,464.898 C358.8565,464.936 358.8375,465.05 358.8375,465.24 C358.7995,465.43 358.7995,465.544 358.7995,465.582 C358.7995,465.791 358.8755,465.981 359.0465,466.171 C359.2175,466.361 359.4075,466.456 359.6355,466.456 C359.7305,466.456 359.8825,466.209 360.0915,465.753 C360.2055,465.468 360.3385,465.183 360.4905,464.879 C361.0985,463.72 362.2955,462.542 364.1005,461.326 L364.2335,464.689 C364.2715,466.019 364.6135,466.703 365.2405,466.703 C365.4305,466.703 365.5255,466.589 365.5255,466.361 Z M373.6005,459.312 C373.6005,458.78 373.1255,458.495 372.1755,458.495 C372.0235,458.495 371.7385,458.495 371.2825,458.476 L370.5035,458.476 C370.6745,457.659 370.9215,456.671 371.2255,455.493 C371.3775,454.828 371.5105,454.353 371.6245,454.087 C371.7005,453.916 371.7385,453.783 371.7385,453.688 C371.7385,453.251 371.5295,453.023 371.1115,453.023 C370.8835,453.023 370.7125,453.194 370.6175,453.517 C370.0095,455.721 369.5725,457.374 369.3255,458.495 C368.5275,458.495 368.1285,458.704 368.1285,459.103 C368.1285,459.559 368.4325,459.768 369.0405,459.768 L368.4325,462.846 C368.1855,464.1 368.0715,465.012 368.0715,465.601 C368.0715,466.513 368.2995,466.988 368.7935,466.988 C368.9265,466.988 369.0595,466.912 369.2115,466.798 C369.3445,466.684 369.4205,466.551 369.4205,466.399 C369.4205,466.152 369.3255,465.981 369.1545,465.829 C369.1545,464.936 369.2875,463.91 369.5155,462.751 C369.5155,462.656 369.7435,461.649 370.1805,459.73 C370.2945,459.73 370.6745,459.749 371.3015,459.749 C371.9095,459.768 372.2895,459.768 372.4795,459.768 C372.5935,459.92 372.7455,459.996 372.9165,460.034 L373.1825,460.034 C373.4485,459.768 373.6005,459.54 373.6005,459.312 Z" id="Nico-Ulbrecht"></path>
        </g>
    </g>
</svg>