<?xml version="1.0" encoding="UTF-8" standalone="no"?>
<svg width="228px" height="87px" viewBox="0 0 228 87" version="1.1" xmlns="http://www.w3.org/2000/svg" xmlns:xlink="http://www.w3.org/1999/xlink">
    <!-- Generator: Sketch 3.8.3 (29802) - http://www.bohemiancoding.com/sketch -->
    <title>logo-optivo</title>
    <desc>Created with Sketch.</desc>
    <defs></defs>
    <g id="Logos" stroke="none" stroke-width="1" fill="none" fill-rule="evenodd">
        <g id="Optivo-grey" transform="translate(-86.000000, -24.000000)" fill="#757575">
            <g id="logo-optivo" transform="translate(86.000000, 24.000000)">
                <g id="Group">
                    <path d="M130.820034,58.7233436 L130.820034,72.1601596 L117.930997,72.1610214 C109.795533,72.1610214 103.200638,65.5984998 103.200638,57.503186 L103.200422,8.64150823 L117.930781,8.64150823 L117.930781,24.5214404 L132.348695,24.5214404 L124.198291,38.5686584 L117.930781,38.5686584 L117.930997,55.6159601 C117.930997,57.3323252 119.32996,58.7244209 121.055225,58.7244209 L130.820034,58.7233436 L130.820034,58.7233436 L130.820034,58.7233436 Z" id="Shape"></path>
                    <polygon id="Shape" points="134.502678 24.5214404 149.232821 24.5214404 149.232821 60.5866534 169.045869 24.5214404 185.793584 24.5214404 158.256034 72.1601596 134.502678 72.1601596"></polygon>
                    <path d="M16.6037265,40.0083711 C15.2381083,42.1507032 14.5196809,44.8687481 14.5196809,48.2236968 C14.5196809,51.9098095 15.3781994,54.8013007 16.9947692,56.9813387 C18.7416866,59.3828708 21.1492194,60.5866534 24.3431681,60.5866534 C27.5020399,60.5866534 29.8526268,59.4494484 31.5315556,57.2228708 C33.1366496,55.1626294 33.9945185,52.3926584 33.9945185,48.8265576 C33.9945185,43.7968279 32.7858803,40.3845666 30.6095954,38.3191541 C28.8451396,36.6631182 26.564057,35.9038324 23.6427123,36.1152 C20.3528433,36.3810793 18.0654815,37.70078 16.6037265,40.0083711 L16.6037265,40.0083711 L16.6037265,40.0083711 Z M44.1973561,33.832818 C47.0788604,38.0209556 48.5090028,42.8602175 48.5090028,48.3105277 C48.5090028,54.7064978 46.7092536,60.1081137 43.0593048,64.4332848 C38.6346325,69.5877666 32.3398405,72.1146973 24.3390541,72.1146973 C17.5313162,72.1146973 11.8765698,70.2470783 7.46597151,66.4357825 C2.50994872,62.1418534 0.0872592593,56.0466673 0.0872592593,48.3105277 C0.0872592593,41.1828509 2.253151,35.3686264 6.66699715,30.9766623 C11.3887407,26.2197067 17.9041709,24.1396429 26.049812,24.5890953 C34.123567,25.0424259 40.234963,28.0929277 44.1973561,33.832818 L44.1973561,33.832818 L44.1973561,33.832818 Z" id="Shape"></path>
                    <path d="M68.2261311,40.0081556 C66.8605128,42.1507032 66.1420855,44.8685327 66.1420855,48.2236968 C66.1420855,51.909594 67.0003875,54.8013007 68.6169573,56.9811232 C70.3638746,59.3826554 72.7714074,60.5866534 75.9653561,60.5866534 C79.1242279,60.5866534 81.4748148,59.4494484 83.1537436,57.2226554 C84.7588376,55.1626294 85.61649,52.3924429 85.61649,48.8263421 C85.61649,43.7968279 84.4078519,40.3843511 82.231567,38.3189387 C80.4671111,36.6631182 78.1860285,35.903617 75.2646838,36.1152 C71.9752479,36.3810793 69.6881026,37.70078 68.2261311,40.0081556 L68.2261311,40.0081556 L68.2261311,40.0081556 Z M95.8195442,33.8326025 C98.701265,38.0207401 100.131191,42.8602175 100.131191,48.3105277 C100.131191,54.7062823 98.3316581,60.1083292 94.6814929,64.4330693 C90.257037,69.5877666 83.962245,72.1146973 75.9612422,72.1146973 C72.4671909,72.1146973 69.2002735,71.3909626 66.3575271,70.0219212 L66.3575271,86.2345257 L51.6434074,86.2345257 L51.6434074,48.3105277 C51.6434074,41.1826354 53.8751225,35.368411 58.2889687,30.9764469 C63.0107123,26.2194913 69.5261425,24.1394274 77.6717835,24.5888798 C85.7459715,25.0422105 91.857151,28.0927122 95.8195442,33.8326025 L95.8195442,33.8326025 L95.8195442,33.8326025 Z" id="Shape"></path>
                    <polygon id="Shape" points="146.5791 0.0387830424 159.265254 7.32719401 151.4169 20.8534264 134.502678 20.8534264"></polygon>
                    <path d="M196.007464,40.0083711 C194.641846,42.1507032 193.923419,44.8687481 193.923419,48.2236968 C193.923419,51.9098095 194.781937,54.8013007 196.398507,56.9813387 C198.145208,59.3828708 200.552957,60.5866534 203.746689,60.5866534 C206.905778,60.5866534 209.256148,59.4494484 210.935293,57.2228708 C212.540171,55.1626294 213.39804,52.3926584 213.39804,48.8265576 C213.39804,43.7968279 212.189402,40.3845666 210.013117,38.3191541 C208.248661,36.6631182 205.967362,35.9038324 203.046234,36.1152 C199.756581,36.3810793 197.469219,37.70078 196.007464,40.0083711 L196.007464,40.0083711 L196.007464,40.0083711 Z M223.601094,33.832818 C226.482815,38.0209556 227.912741,42.8602175 227.912741,48.3105277 C227.912741,54.7064978 226.113208,60.1081137 222.462826,64.4332848 C218.03837,69.5877666 211.743578,72.1146973 203.742792,72.1146973 C196.935054,72.1146973 191.280091,70.2470783 186.869493,66.4357825 C181.913687,62.1418534 179.490781,56.0466673 179.490781,48.3105277 C179.490781,41.1828509 181.656672,35.3688419 186.070519,30.9766623 C190.792262,26.2197067 197.307476,24.1396429 205.453333,24.5890953 C213.527088,25.0424259 219.638701,28.0929277 223.601094,33.832818 L223.601094,33.832818 L223.601094,33.832818 Z" id="Shape"></path>
                    <path d="M223.802462,25.1495102 C222.594256,25.1495102 221.661903,26.0828888 221.661903,27.2793456 C221.661903,28.476018 222.594256,29.4093965 223.802462,29.4093965 C225.010883,29.4093965 225.94302,28.476018 225.94302,27.2793456 C225.94302,26.0828888 225.010883,25.1495102 223.802462,25.1495102 L223.802462,25.1495102 L223.802462,25.1495102 Z M223.802462,25.4528798 C224.838097,25.4528798 225.609356,26.2602135 225.609356,27.2793456 C225.609356,28.2986933 224.838097,29.1060269 223.802462,29.1060269 C222.766826,29.1060269 221.995783,28.2986933 221.995783,27.2793456 C221.996,26.2602135 222.766826,25.4528798 223.802462,25.4528798 L223.802462,25.4528798 L223.802462,25.4528798 Z M223.330872,27.41681 L223.842952,27.41681 L224.539293,28.5107072 L224.895692,28.5107072 L224.15951,27.41681 C224.493174,27.3597127 224.780718,27.1651511 224.780718,26.7299192 C224.780718,26.2890853 224.533231,26.048415 223.975031,26.048415 L223.025573,26.048415 L223.025573,28.5104918 L223.330655,28.5104918 L223.330655,27.41681 L223.330872,27.41681 L223.330872,27.41681 Z M223.330872,27.1591182 L223.330872,26.3061067 L223.888855,26.3061067 C224.188308,26.3061067 224.475852,26.3864738 224.475852,26.7299192 C224.475852,27.1479142 224.107544,27.1591182 223.733607,27.1591182 L223.330872,27.1591182 L223.330872,27.1591182 L223.330872,27.1591182 Z" id="Shape"></path>
                </g>
            </g>
        </g>
    </g>
</svg>