<?xml version="1.0" encoding="UTF-8" standalone="no"?>
<svg width="47px" height="45px" viewBox="0 0 47 45" version="1.1" xmlns="http://www.w3.org/2000/svg" xmlns:xlink="http://www.w3.org/1999/xlink">
    <!-- Generator: Sketch 41 (35326) - http://www.bohemiancoding.com/sketch -->
    <title>search</title>
    <desc>Created with Sketch.</desc>
    <defs></defs>
    <g id="Landing-Pages" stroke="none" stroke-width="1" fill="none" fill-rule="evenodd">
        <g id="company-opt2-pricing" transform="translate(-608.000000, -1285.000000)">
            <g id="search" transform="translate(609.000000, 1286.000000)">
                <path d="M38.8384615,27.9023684 C37.6367308,25.9177368 35.5355769,24.7326316 33.2192308,24.7326316 C32.0203846,24.7326316 30.8423077,25.0643684 29.8130769,25.6919474 C28.3136538,26.6055263 27.2590385,28.0511579 26.8436538,29.7625263 C26.4276923,31.4733158 26.7011538,33.2443158 27.6126923,34.7478421 C28.8132692,36.7336316 30.9138462,37.9187368 33.2307692,37.9187368 C34.2363462,37.9187368 35.2223077,37.6721053 36.1234615,37.2263158 L37.41,39.3562632 C37.5184615,39.5363158 37.7094231,39.6347368 37.9038462,39.6347368 C38.0059615,39.6347368 38.1086538,39.6075263 38.2026923,39.5507895 C38.475,39.3846316 38.5621154,39.0291579 38.3971154,38.7553158 L37.1146154,36.6328947 C39.8261538,34.6349474 40.6182692,30.8422632 38.8384615,27.9023684 L38.8384615,27.9023684 Z M36.0386538,35.9694211 L36.0386538,35.9694211 C36.0375,35.9694211 36.0375,35.97 36.0375,35.97 C35.1882692,36.4881579 34.2178846,36.7614211 33.2301923,36.7614211 C31.3194231,36.7614211 29.5880769,35.7841579 28.5980769,34.1474737 C27.8463462,32.9073684 27.6213462,31.4478421 27.9640385,30.0369474 C28.3067308,28.6260526 29.1761538,27.4345789 30.4119231,26.6813684 C31.2605769,26.1637895 32.2309615,25.8905263 33.2186538,25.8905263 C35.1294231,25.8905263 36.8613462,26.8677895 37.8519231,28.5038947 C39.4026923,31.064 38.5886538,34.4126316 36.0386538,35.9694211 L36.0386538,35.9694211 Z M37.5871154,20.9833684 C36.3790385,20.4953158 35.1069231,20.2307368 33.8019231,20.1670526 L33.8019231,14.4922105 C33.8019231,13.4257895 32.9376923,12.5585263 31.875,12.5585263 L1.92634615,12.5585263 C0.864230769,12.5585263 0,13.4257895 0,14.4922105 L0,21.0661579 C0,22.132 0.864230769,22.9992632 1.92634615,22.9992632 L25.5865385,22.9992632 C25.0367308,23.4757368 24.5284615,24.0002632 24.0744231,24.5716842 L1.92634615,24.5716842 C0.864230769,24.5716842 1.02482125e-15,25.4389474 1.02482125e-15,26.5053684 L1.02482125e-15,33.0793158 C1.02482125e-15,34.1451579 0.864230769,35.0124211 1.92634615,35.0124211 L21.9721154,35.0124211 C23.3451923,39.9595263 27.8636538,43.604 33.225,43.604 C39.6721154,43.604 44.9169231,38.3413684 44.9169231,31.8722105 C44.9169231,27.0542105 42.0392308,22.7798421 37.5871154,20.9833684 L37.5871154,20.9833684 Z M1.92634615,21.8413684 C1.50057692,21.8413684 1.15384615,21.4934211 1.15384615,21.0661579 L1.15384615,14.4922105 C1.15384615,14.0643684 1.50057692,13.7164211 1.92634615,13.7164211 L31.875,13.7164211 C32.3013462,13.7164211 32.6480769,14.0643684 32.6480769,14.4922105 L32.6480769,20.1664737 C30.6582692,20.2648947 28.7844231,20.8542632 27.1644231,21.8413684 L1.92634615,21.8413684 L1.92634615,21.8413684 Z M21.7136538,33.8545263 L1.92634615,33.8545263 C1.50057692,33.8545263 1.15384615,33.5065789 1.15384615,33.0793158 L1.15384615,26.5053684 C1.15384615,26.0775263 1.50057692,25.7295789 1.92634615,25.7295789 L23.2736538,25.7295789 C22.4186538,27.1207895 21.8348077,28.7036316 21.6236538,30.415 C21.5642308,30.8937895 21.5342308,31.3847368 21.5342308,31.8727895 C21.5336538,32.549 21.6040385,33.209 21.7136538,33.8545263 L21.7136538,33.8545263 Z M33.225,42.4461053 C27.4148077,42.4461053 22.6875,37.7027895 22.6875,31.8722105 C22.6875,31.4316316 22.7146154,30.9893158 22.7682692,30.5574211 C23.4201923,25.2785789 27.9155769,21.2977368 33.225,21.2977368 C34.5848077,21.2977368 35.9071154,21.5530526 37.1561538,22.0578947 C41.1692308,23.6777895 43.7625,27.5301053 43.7625,31.8727895 C43.7630769,37.7027895 39.0351923,42.4461053 33.225,42.4461053 L33.225,42.4461053 Z M1.92634615,10.4407368 L31.875,10.4407368 C32.9376923,10.4407368 33.8019231,9.57347368 33.8019231,8.50705263 L33.8019231,1.93310526 C33.8019231,0.867263158 32.9376923,-6.75015599e-14 31.875,-6.75015599e-14 L1.92634615,-6.75015599e-14 C0.864230769,-6.75015599e-14 0,0.867263158 0,1.93310526 L0,8.50705263 C0,9.57347368 0.864230769,10.4407368 1.92634615,10.4407368 L1.92634615,10.4407368 Z M1.92634615,1.15789474 L31.875,1.15789474 C32.3013462,1.15789474 32.6480769,1.50584211 32.6480769,1.93310526 L32.6480769,8.50705263 C32.6480769,8.93489474 32.3013462,9.28284211 31.875,9.28284211 L1.92634615,9.28284211 C1.50057692,9.28284211 1.15384615,8.93489474 1.15384615,8.50705263 L1.15384615,1.93310526 C1.15384615,1.50584211 1.50057692,1.15789474 1.92634615,1.15789474 Z" id="Shape" stroke="#FFFFFF" stroke-width="0.576" fill="#3685D6"></path>
                <ellipse id="Oval" stroke="#3685D6" stroke-width="0.576" cx="5.65384616" cy="5.21052632" rx="2.88461538" ry="2.89473684"></ellipse>
                <rect id="Rectangle" fill="#3685D6" x="10.3846154" y="3.47368421" width="20.1923077" height="0.578947368"></rect>
                <rect id="Rectangle" fill="#3685D6" x="10.3846154" y="6.25263162" width="20.1923077" height="0.578947368"></rect>
                <ellipse id="Oval" stroke="#3685D6" stroke-width="0.576" cx="5.76923077" cy="17.3684211" rx="2.88461538" ry="2.89473684"></ellipse>
                <rect id="Rectangle" fill="#3685D6" x="10.3846154" y="15.8631579" width="20.1923077" height="0.578947368"></rect>
                <rect id="Rectangle" fill="#3685D6" x="10.3846154" y="18.6421053" width="20.1923077" height="0.578947368"></rect>
                <ellipse id="Oval" stroke="#3685D6" stroke-width="0.576" cx="5.65384616" cy="29.5263158" rx="2.88461538" ry="2.89473684"></ellipse>
                <polygon id="Rectangle" fill="#3685D6" points="10.3846154 27.5578948 23.1923077 27.5578948 22.6975228 28.1368421 10.3846154 28.1368421"></polygon>
                <rect id="Rectangle" fill="#3685D6" x="10.3846154" y="30.3368421" width="11.6123077" height="0.578947368"></rect>
            </g>
        </g>
    </g>
</svg>