<?xml version="1.0" encoding="UTF-8" standalone="no"?>
<svg width="47px" height="37px" viewBox="0 0 47 37" version="1.1" xmlns="http://www.w3.org/2000/svg" xmlns:xlink="http://www.w3.org/1999/xlink">
    <!-- Generator: Sketch 41 (35326) - http://www.bohemiancoding.com/sketch -->
    <title>Group</title>
    <desc>Created with Sketch.</desc>
    <defs></defs>
    <g id="Landing-Pages" stroke="none" stroke-width="1" fill="none" fill-rule="evenodd">
        <g id="company-opt2-pricing" transform="translate(-999.000000, -1030.000000)" fill="#3685D6">
            <g id="Group" transform="translate(999.000000, 1030.000000)">
                <path d="M14.0049556,31.6843333 C14.7841111,30.9520417 15.5246222,30.2526389 16.3617444,30.0059722 C16.3972556,30.36775 16.3617444,30.8297361 16.3304111,31.2804167 C16.2526,32.3251528 16.1742667,33.4048333 16.7925778,34.0456528 C17.8819333,35.17775 18.8266333,34.3123611 19.3890667,33.7959028 C19.7567111,33.4577639 20.1034667,33.1401806 20.4564889,33.1401806 C20.7139444,33.1509722 20.7196889,33.1622778 20.8069,33.3863333 C20.8982889,33.6180972 21.0523444,34.0019722 21.5625556,34.1515139 C22.0043556,34.2774167 22.4383222,34.2136944 22.8226778,34.1592222 C23.1454111,34.1114306 23.4477778,34.0713472 23.7172444,34.1335278 C24.1700111,34.2465833 24.4614111,34.4367222 24.8290556,34.6777361 C25.0661444,34.8349861 25.3173333,34.997375 25.6285778,35.1530833 C25.6975111,35.1875139 25.7711444,35.2039583 25.8437333,35.2039583 C26.0165889,35.2039583 26.1831778,35.1109444 26.2672556,34.9485556 C26.3863222,34.7183333 26.2933667,34.4372361 26.0599333,34.3200694 C25.7852444,34.1828611 25.5659111,34.0369167 25.3538889,33.9002222 C24.9643111,33.6448194 24.5616778,33.3811944 23.9506778,33.2280556 C23.4979111,33.1180833 23.0676,33.1802639 22.6832444,33.23525 C22.3547667,33.2809861 22.0706778,33.323125 21.8294111,33.25375 C21.7771889,33.2393611 21.7683111,33.23525 21.6936333,33.0492222 C21.5824,32.768125 21.3745556,32.2419028 20.5243778,32.2054167 C19.7285111,32.1509444 19.1958444,32.6946389 18.7389,33.1129444 C18.0187556,33.7799722 17.8725333,33.8123472 17.4829556,33.4032917 C17.1523889,33.0600139 17.2192333,32.1504306 17.2766778,31.3487639 C17.3341222,30.5799861 17.3879111,29.8528333 17.1706667,29.2942361 C17.0944222,29.0948472 16.8683,28.9766528 16.6792556,28.9946389 C15.3423667,29.1297917 14.3276889,30.0866528 13.3474778,31.0111389 C12.2581222,32.0353194 11.2246444,33.017875 9.87678889,32.7753194 C8.07094444,32.4685278 7.50694444,29.3214722 7.57378889,26.7211944 C7.65316667,23.6111389 7.8819,20.1120694 9.61515556,17.9640139 C10.6658667,16.663875 11.7792444,16.0919167 12.8242111,16.3020972 C14.1809444,16.576 14.7433778,15.7368194 13.0158667,15.3858333 C12.0173778,15.1869583 10.4956222,15.3699028 8.86994444,17.3843472 C6.95652222,19.7564583 6.70742222,23.4364167 6.62438889,26.6985833 C6.5847,28.2094167 6.69436667,33.1838611 9.71542222,33.6972361 C11.5358889,33.9988889 12.8482333,32.7712083 14.0049556,31.6843333 Z" id="Shape"></path>
                <path d="M44.6557444,35.5580278 L0.475222222,35.5580278 C0.213588889,35.5580278 0,35.7666667 0,36.0256667 C0,36.2846667 0.213588889,36.4933056 0.475222222,36.4933056 L44.6557444,36.4933056 C44.9179,36.4933056 45.1309667,36.2851806 45.1309667,36.0256667 C45.1309667,35.7661528 44.9179,35.5580278 44.6557444,35.5580278 L44.6557444,35.5580278 Z" id="Shape"></path>
                <path d="M45.4839889,0.301138889 C44.8024889,-0.0642361111 44.0212444,-0.0734861111 43.2880444,0.145944444 C42.3752,0.415736111 41.5547889,1.040625 41.1333556,1.80734722 L40.4482,3.04941667 L39.5703444,2.58897222 L39.8319778,2.12133333 C39.9562667,1.89676389 39.8711444,1.61001389 39.6351,1.48976389 C39.5202111,1.42398611 39.3865222,1.41679167 39.2716333,1.45327778 C39.1567444,1.48616667 39.0543889,1.56325 38.9896333,1.6835 L33.8212,11.0635139 C33.7021333,11.2937361 33.7877778,11.5748333 34.0175556,11.7027917 C34.2478556,11.8302361 34.5392556,11.742875 34.6651111,11.5090556 L38.1431111,5.18616667 L39.01,5.64969444 L34.9768778,12.9679861 L28.2067889,25.3784028 C28.1624,25.4518889 28.1216667,25.5500417 28.0642222,25.6672083 L27.6835222,26.764875 C27.0673,28.7464306 26.3884111,32.0414861 27.0803556,33.1920833 L26.6161,34.0466806 C26.4860667,34.2727917 26.5753667,34.5600556 26.8129778,34.67825 C27.0469333,34.8026111 27.3305,34.7183333 27.4584444,34.488625 L27.9415,33.600625 C28.0469889,33.5862361 28.1456889,33.5826389 28.2569222,33.5492361 C30.0977556,33.0050278 33.1344778,29.4879722 33.7731556,28.318875 L35.9597,24.3115694 L36.6015111,23.1373333 L40.5458556,15.9105139 L46.6992,4.749875 C47.3154222,3.62548611 47.0203667,1.10845833 45.4839889,0.301138889 L45.4839889,0.301138889 Z M38.5979667,4.36291667 L39.1175778,3.41838889 L39.9902111,3.87883333 L39.4700778,4.82336111 L38.5979667,4.36291667 L38.5979667,4.36291667 Z M32.9302889,27.8769306 C32.3255556,28.9781944 29.4465444,32.2126111 27.9785778,32.6468472 C27.9284444,32.66175 27.8898,32.6725417 27.8652556,32.6745972 C27.3179667,31.7305833 28.4073222,26.9858472 29.0480889,25.8182917 L33.9904,16.7615139 L37.8762556,18.8160417 L32.9302889,27.8769306 L32.9302889,27.8769306 Z M38.2433778,18.1351389 L34.357,16.0862639 L34.7471,15.3776111 L38.6277333,17.4341944 L38.2433778,18.1351389 L38.2433778,18.1351389 Z M45.8641667,4.30279167 L39.7061222,15.4634306 L39.0006,16.7584306 L35.1126556,14.7018472 L35.8176556,13.4160972 L40.0847333,5.67795833 L41.9798778,2.25340278 C42.2691889,1.71844444 42.8890667,1.24155556 43.5606444,1.04113889 C44.1027111,0.880291667 44.6223222,0.909583333 45.0322667,1.13261111 C45.4704111,1.35872222 45.8098556,1.89573611 45.9639111,2.60438889 C46.1294556,3.34593056 46.0255333,4.00679167 45.8641667,4.30279167 L45.8641667,4.30279167 Z" id="Shape"></path>
            </g>
        </g>
    </g>
</svg>