<?xml version="1.0" encoding="UTF-8" standalone="no"?>
<svg width="264px" height="243px" viewBox="0 0 264 243" version="1.1" xmlns="http://www.w3.org/2000/svg" xmlns:xlink="http://www.w3.org/1999/xlink" xmlns:sketch="http://www.bohemiancoding.com/sketch/ns">
    <!-- Generator: Sketch 3.5.1 (25234) - http://www.bohemiancoding.com/sketch -->
    <title>Group 2</title>
    <desc>Created with Sketch.</desc>
    <defs></defs>
    <g id="Page-1" stroke="none" stroke-width="1" fill="none" fill-rule="evenodd" sketch:type="MSPage">
        <g id="How-does-it-work?" sketch:type="MSArtboardGroup" transform="translate(-389.000000, -2131.000000)">
            <g id="Group" sketch:type="MSLayerGroup" transform="translate(166.000000, 2131.600000)">
                <g id="Honeycomb-pattern" sketch:type="MSShapeGroup">
                    <g id="Group">
                        <g id="Group-2" transform="translate(223.000000, 0.000000)">
                            <path d="M76.8416038,107.974992 C74.9855358,111.800631 75.1214898,120.703856 75.1214898,120.703856 L75,149.867177 C75,149.867177 75.055868,156.697812 76.8416039,160.722838 C78.6273398,164.747864 84.3270777,167.592987 84.3270777,167.592987 L114.429562,185.122469 C114.429562,185.122469 119.723045,188.007057 123.993512,187.999987 C128.263978,187.992917 133.69438,185.085536 133.69438,185.085536 L164.901201,166.692344 C164.901201,166.692344 170.201114,163.874437 171.718778,159.684181 C173.236442,155.493924 172.651482,147.736736 172.651482,147.736736 L172.987025,116.946427 C172.987025,116.946427 173.304583,113.01535 170.797641,107.974992 C168.2907,102.934633 161.301502,98.3569078 161.301502,98.3569078 L135.548226,83.6220084 C135.548226,83.6220084 130.444367,80.0012585 123.993512,80.0000003 C117.542656,79.9987422 112.377733,83.614881 112.377733,83.614881 L85.3375646,99.6469647 C85.3375646,99.6469647 78.3908941,104.781668 76.8416038,107.974992 Z" id="Path-1" fill="#206AB5"></path>
                            <path d="M214.939594,201.246523 C213.99262,203.194766 214.061985,207.728815 214.061985,207.728815 L214,222.580507 C214,222.580507 214.028504,226.059071 214.939594,228.108853 C215.850684,230.158634 218.758713,231.607539 218.758713,231.607539 L234.117123,240.534591 C234.117123,240.534591 236.81788,242.003594 238.99669,241.999993 C241.175499,241.996393 243.946112,240.515782 243.946112,240.515782 L259.86796,231.148879 C259.86796,231.148879 262.571997,229.713834 263.346315,227.579907 C264.120634,225.44598 263.822185,221.49556 263.822185,221.49556 L263.99338,205.81531 C263.99338,205.81531 264.155399,203.813373 262.876348,201.246523 C261.597296,198.679674 258.031378,196.348425 258.031378,196.348425 L244.891952,188.844541 C244.891952,188.844541 242.287942,187.000641 238.99669,187 C235.705437,186.999359 233.070272,188.840912 233.070272,188.840912 L219.274268,197.005399 C219.274268,197.005399 215.730048,199.620294 214.939594,201.246523 Z" id="Path-1" fill="#65A6E8"></path>
                            <path d="M0.939593789,27.2465235 C-0.00737967763,29.1947659 0.0619846157,33.7288154 0.0619846157,33.7288154 L-2.06128948e-21,48.5805067 C-2.06128948e-21,48.5805067 0.0285040751,52.0590712 0.939593825,54.1088527 C1.85068358,56.1586343 4.75871309,57.6075395 4.75871309,57.6075395 L20.1171234,66.5345908 C20.1171234,66.5345908 22.8178801,68.003594 24.9966896,67.9999934 C27.1754991,67.9963928 29.9461125,66.5157825 29.9461125,66.5157825 L45.8679597,57.1488789 C45.8679597,57.1488789 48.5719972,55.7138337 49.3463154,53.5799068 C50.1206336,51.44598 49.8221846,47.4955601 49.8221846,47.4955601 L49.9933802,31.8153102 C49.9933802,31.8153102 50.1553993,29.8133727 48.8763476,27.2465235 C47.5972959,24.6796743 44.0313785,22.3484252 44.0313785,22.3484252 L30.8919518,14.8445413 C30.8919518,14.8445413 28.2879424,13.0006409 24.9966896,13.0000002 C21.7054368,12.9993594 19.0702721,14.8409116 19.0702721,14.8409116 L5.27426767,23.0053987 C5.27426767,23.0053987 1.73004801,25.6202937 0.939593789,27.2465235 Z" id="Path-1" fill="#084788"></path>
                            <path d="M137.469797,7.25277559 C136.99631,8.24460811 137.030992,10.5528515 137.030992,10.5528515 L137,18.1137125 C137,18.1137125 137.014252,19.884618 137.469797,20.9281432 C137.925342,21.9716684 139.379357,22.7092928 139.379357,22.7092928 L147.058562,27.2539735 C147.058562,27.2539735 148.40894,28.0018297 149.498345,27.9999966 C150.58775,27.9981636 151.973056,27.2443983 151.973056,27.2443983 L159.93398,22.4757929 C159.93398,22.4757929 161.285999,21.7452244 161.673158,20.6588617 C162.060317,19.5724989 161.911092,17.561376 161.911092,17.561376 L161.99669,9.57870335 C161.99669,9.57870335 162.0777,8.55953517 161.438174,7.25277559 C160.798648,5.94601601 159.015689,4.75919831 159.015689,4.75919831 L152.445976,0.939039223 C152.445976,0.939039223 151.143971,0.000326271281 149.498345,8.50966189e-08 C147.852718,-0.000326101088 146.535136,0.937191382 146.535136,0.937191382 L139.637134,5.09365751 C139.637134,5.09365751 137.865024,6.42487679 137.469797,7.25277559 Z" id="Path-1" fill="#063A6F"></path>
                        </g>
                    </g>
                </g>
            </g>
        </g>
    </g>
</svg>