<?xml version="1.0" encoding="UTF-8" standalone="no"?>
<svg width="212px" height="194px" viewBox="0 0 212 194" version="1.1" xmlns="http://www.w3.org/2000/svg" xmlns:xlink="http://www.w3.org/1999/xlink">
    <!-- Generator: Sketch 3.8.3 (29802) - http://www.bohemiancoding.com/sketch -->
    <title>Group 15</title>
    <desc>Created with Sketch.</desc>
    <defs></defs>
    <g id="How-Does-it-work?" stroke="none" stroke-width="1" fill="none" fill-rule="evenodd">
        <g id="How-does-it-work?" transform="translate(-462.000000, -1622.000000)">
            <g id="Group-4" transform="translate(-1.400000, 1590.200000)">
                <g id="Group" transform="translate(285.400000, 31.000000)">
                    <g id="Honeycomb-pattern">
                        <g id="Group">
                            <g id="Group-15" transform="translate(178.000000, 0.000000)">
                                <path d="M62.1195595,87.2561995 C60.6331806,90.3193866 60.7420555,97.4481921 60.7420555,97.4481921 L60.6447639,120.799243 C60.6447639,120.799243 60.6895041,126.268528 62.1195596,129.491363 C63.549615,132.714199 68.1140868,134.992286 68.1140868,134.992286 L92.2207991,149.028131 C92.2207991,149.028131 96.4599334,151.337819 99.8798142,151.332157 C103.299695,151.326496 107.648477,148.998559 107.648477,148.998559 L132.639565,134.271143 C132.639565,134.271143 136.883849,132.014846 138.099227,128.659711 C139.314604,125.304576 138.846156,119.093401 138.846156,119.093401 L139.114866,94.4396218 C139.114866,94.4396218 139.369173,91.292011 137.361561,87.2561995 C135.353949,83.2203881 129.75685,79.5550066 129.75685,79.5550066 L109.133076,67.756783 C109.133076,67.756783 105.045797,64.857651 99.8798142,64.8566436 C94.7138314,64.8556362 90.577651,67.7510761 90.577651,67.7510761 L68.9233064,80.5879542 C68.9233064,80.5879542 63.3602643,84.6993073 62.1195595,87.2561995 Z" id="Path-1" fill="#206AB5"></path>
                                <path d="M172.711379,161.93865 C171.953022,163.498606 172.008571,167.129017 172.008571,167.129017 L171.958932,179.020755 C171.958932,179.020755 171.981759,181.806039 172.711379,183.447298 C173.440999,185.088557 175.769811,186.248694 175.769811,186.248694 L188.069154,193.396578 C188.069154,193.396578 190.231978,194.572808 191.976815,194.569925 C193.721652,194.567042 195.940419,193.381518 195.940419,193.381518 L208.690974,185.881445 C208.690974,185.881445 210.856425,184.732405 211.476515,183.023772 C212.096606,181.315138 211.857602,178.152039 211.857602,178.152039 L211.994699,165.596874 C211.994699,165.596874 212.124447,163.993924 211.100155,161.93865 C210.075863,159.883376 207.2202,158.016746 207.2202,158.016746 L196.697867,152.008391 C196.697867,152.008391 194.612521,150.531982 191.976815,150.531469 C189.34111,150.530956 187.230813,152.005485 187.230813,152.005485 L176.182678,158.542784 C176.182678,158.542784 173.344392,160.636529 172.711379,161.93865 Z" id="Path-1" fill="#65A6E8"></path>
                                <path d="M1.33560899,22.6169716 C0.577252414,24.176928 0.632800822,27.8073382 0.632800822,27.8073382 L0.583162218,39.699077 C0.583162218,39.699077 0.60598889,42.4843612 1.33560902,44.1256199 C2.06522915,45.7668785 4.39404128,46.9270159 4.39404128,46.9270159 L16.6933843,54.0748997 C16.6933843,54.0748997 18.8562079,55.2511295 20.6010451,55.2482465 C22.3458822,55.2453634 24.5646486,54.0598398 24.5646486,54.0598398 L37.3152039,46.5597667 C37.3152039,46.5597667 39.4806548,45.410727 40.1007454,43.7020932 C40.720836,41.9934595 40.4818316,38.8303611 40.4818316,38.8303611 L40.6189287,26.2751959 C40.6189287,26.2751959 40.748677,24.6722459 39.7243851,22.6169716 C38.7000932,20.5616973 35.8444304,18.6950678 35.8444304,18.6950678 L25.3220969,12.6867132 C25.3220969,12.6867132 23.2367506,11.2103034 20.6010451,11.2097903 C17.9653395,11.2092773 15.8550434,12.6838069 15.8550434,12.6838069 L4.8069084,19.2211059 C4.8069084,19.2211059 1.96862161,21.3148505 1.33560899,22.6169716 Z" id="Path-1" fill="#084788"></path>
                                <path d="M110.671911,6.60799164 C110.292733,7.40215125 110.320507,9.2503601 110.320507,9.2503601 L110.295688,15.3043362 C110.295688,15.3043362 110.307101,16.7222991 110.671911,17.5578489 C111.036721,18.3933988 112.201127,18.9840142 112.201127,18.9840142 L118.350799,22.6229368 C118.350799,22.6229368 119.432211,23.2217447 120.304629,23.220277 C121.177048,23.2188093 122.286431,22.61527 122.286431,22.61527 L128.661709,18.797051 C128.661709,18.797051 129.744434,18.2120853 130.054479,17.3422354 C130.364525,16.4723855 130.245023,14.8620808 130.245023,14.8620808 L130.313571,8.47036038 C130.313571,8.47036038 130.378445,7.65431313 129.866299,6.60799164 C129.354153,5.56167016 127.926322,4.61138606 127.926322,4.61138606 L122.665155,1.55258735 C122.665155,1.55258735 121.622482,0.800960546 120.304629,0.800699369 C118.986777,0.800438192 117.931628,1.55110778 117.931628,1.55110778 L112.407561,4.87918731 C112.407561,4.87918731 110.988418,5.94509365 110.671911,6.60799164 Z" id="Path-1" fill="#063A6F"></path>
                            </g>
                        </g>
                    </g>
                </g>
            </g>
        </g>
    </g>
</svg>