<?xml version="1.0" encoding="UTF-8" standalone="no"?>
<svg width="250px" height="212px" viewBox="0 0 250 212" version="1.1" xmlns="http://www.w3.org/2000/svg" xmlns:xlink="http://www.w3.org/1999/xlink" xmlns:sketch="http://www.bohemiancoding.com/sketch/ns">
    <!-- Generator: Sketch 3.5.1 (25234) - http://www.bohemiancoding.com/sketch -->
    <title>Group 4</title>
    <desc>Created with Sketch.</desc>
    <defs></defs>
    <g id="Page-1" stroke="none" stroke-width="1" fill="none" fill-rule="evenodd" sketch:type="MSPage">
        <g id="How-does-it-work?" sketch:type="MSArtboardGroup" transform="translate(-166.000000, -2491.000000)">
            <g id="Group" sketch:type="MSLayerGroup" transform="translate(166.000000, 2131.600000)">
                <g id="Honeycomb-pattern" sketch:type="MSShapeGroup">
                    <g id="Group">
                        <g id="Group-4" transform="translate(0.000000, 360.000000)">
                            <path d="M83.8416038,34.9749916 C81.9855358,38.8006313 82.1214898,47.7038557 82.1214898,47.7038557 L82,76.8671767 C82,76.8671767 82.055868,83.6978125 83.8416039,87.7228381 C85.6273398,91.7478638 91.3270777,94.5929866 91.3270777,94.5929866 L121.429562,112.122469 C121.429562,112.122469 126.723045,115.007057 130.993512,114.999987 C135.263978,114.992917 140.69438,112.085536 140.69438,112.085536 L171.901201,93.6923441 C171.901201,93.6923441 177.201114,90.8744371 178.718778,86.6841807 C180.236442,82.4939243 179.651482,74.7367362 179.651482,74.7367362 L179.987025,43.9464272 C179.987025,43.9464272 180.304583,40.0153499 177.797641,34.9749916 C175.2907,29.9346332 168.301502,25.3569078 168.301502,25.3569078 L142.548226,10.6220084 C142.548226,10.6220084 137.444367,7.00125847 130.993512,7.00000033 C124.542656,6.99874218 119.377733,10.614881 119.377733,10.614881 L92.3375646,26.6469647 C92.3375646,26.6469647 85.3908941,31.7816676 83.8416038,34.9749916 Z" id="Path-1" fill="#206AB5"></path>
                            <path d="M56.9395938,170.246523 C55.9926203,172.194766 56.0619846,176.728815 56.0619846,176.728815 L56,191.580507 C56,191.580507 56.0285041,195.059071 56.9395938,197.108853 C57.8506836,199.158634 60.7587131,200.607539 60.7587131,200.607539 L76.1171234,209.534591 C76.1171234,209.534591 78.8178801,211.003594 80.9966896,210.999993 C83.1754991,210.996393 85.9461125,209.515782 85.9461125,209.515782 L101.86796,200.148879 C101.86796,200.148879 104.571997,198.713834 105.346315,196.579907 C106.120634,194.44598 105.822185,190.49556 105.822185,190.49556 L105.99338,174.81531 C105.99338,174.81531 106.155399,172.813373 104.876348,170.246523 C103.597296,167.679674 100.031378,165.348425 100.031378,165.348425 L86.8919518,157.844541 C86.8919518,157.844541 84.2879424,156.000641 80.9966896,156 C77.7054368,155.999359 75.0702721,157.840912 75.0702721,157.840912 L61.2742677,166.005399 C61.2742677,166.005399 57.730048,168.620294 56.9395938,170.246523 Z" id="Path-1" fill="#65A6E8"></path>
                            <path d="M200.939594,170.246523 C199.99262,172.194766 200.061985,176.728815 200.061985,176.728815 L200,191.580507 C200,191.580507 200.028504,195.059071 200.939594,197.108853 C201.850684,199.158634 204.758713,200.607539 204.758713,200.607539 L220.117123,209.534591 C220.117123,209.534591 222.81788,211.003594 224.99669,210.999993 C227.175499,210.996393 229.946112,209.515782 229.946112,209.515782 L245.86796,200.148879 C245.86796,200.148879 248.571997,198.713834 249.346315,196.579907 C250.120634,194.44598 249.822185,190.49556 249.822185,190.49556 L249.99338,174.81531 C249.99338,174.81531 250.155399,172.813373 248.876348,170.246523 C247.597296,167.679674 244.031378,165.348425 244.031378,165.348425 L230.891952,157.844541 C230.891952,157.844541 228.287942,156.000641 224.99669,156 C221.705437,155.999359 219.070272,157.840912 219.070272,157.840912 L205.274268,166.005399 C205.274268,166.005399 201.730048,168.620294 200.939594,170.246523 Z" id="Path-1" fill="#084788"></path>
                            <path d="M0.469796894,7.25277559 C-0.00368983881,8.24460811 0.0309923079,10.5528515 0.0309923079,10.5528515 L-1.03064474e-21,18.1137125 C-1.03064474e-21,18.1137125 0.0142520375,19.884618 0.469796913,20.9281432 C0.925341788,21.9716684 2.37935654,22.7092928 2.37935654,22.7092928 L10.0585617,27.2539735 C10.0585617,27.2539735 11.4089401,28.0018297 12.4983448,27.9999966 C13.5877495,27.9981636 14.9730562,27.2443983 14.9730562,27.2443983 L22.9339799,22.4757929 C22.9339799,22.4757929 24.2859986,21.7452244 24.6731577,20.6588617 C25.0603168,19.5724989 24.9110923,17.561376 24.9110923,17.561376 L24.9966901,9.57870335 C24.9966901,9.57870335 25.0776996,8.55953517 24.4381738,7.25277559 C23.798648,5.94601601 22.0156892,4.75919831 22.0156892,4.75919831 L15.4459759,0.939039223 C15.4459759,0.939039223 14.1439712,0.000326271281 12.4983448,8.50966189e-08 C10.8527184,-0.000326101088 9.53513607,0.937191382 9.53513607,0.937191382 L2.63713384,5.09365751 C2.63713384,5.09365751 0.865024004,6.42487679 0.469796894,7.25277559 Z" id="Path-1" fill="#063A6F"></path>
                        </g>
                    </g>
                </g>
            </g>
        </g>
    </g>
</svg>