<?xml version="1.0" encoding="UTF-8" standalone="no"?>
<svg width="201px" height="170px" viewBox="0 0 201 170" version="1.1" xmlns="http://www.w3.org/2000/svg" xmlns:xlink="http://www.w3.org/1999/xlink">
    <!-- Generator: Sketch 3.8.3 (29802) - http://www.bohemiancoding.com/sketch -->
    <title>Group 16</title>
    <desc>Created with Sketch.</desc>
    <defs></defs>
    <g id="How-Does-it-work?" stroke="none" stroke-width="1" fill="none" fill-rule="evenodd">
        <g id="How-does-it-work?" transform="translate(-284.000000, -1910.000000)">
            <g id="Group-4" transform="translate(-1.400000, 1590.200000)">
                <g id="Group" transform="translate(285.400000, 31.000000)">
                    <g id="Honeycomb-pattern">
                        <g id="Group">
                            <g id="Group-16" transform="translate(0.000000, 289.000000)">
                                <path d="M67.1421468,28.0568988 C65.6557679,31.1200859 65.7646428,38.2488914 65.7646428,38.2488914 L65.6673511,61.5999422 C65.6673511,61.5999422 65.7120914,67.0692275 67.1421469,70.2920627 C68.5722023,73.5148979 73.1366741,75.7929857 73.1366741,75.7929857 L97.2433863,89.8288303 C97.2433863,89.8288303 101.482521,92.1385179 104.902402,92.1328567 C108.322282,92.1271955 112.671064,89.7992582 112.671064,89.7992582 L137.662153,75.071842 C137.662153,75.071842 141.906437,72.8155458 143.121814,69.4604104 C144.337192,66.105275 143.868743,59.8940999 143.868743,59.8940999 L144.137453,35.2403211 C144.137453,35.2403211 144.39176,32.0927103 142.384148,28.0568988 C140.376536,24.0210874 134.779437,20.3557059 134.779437,20.3557059 L114.155663,8.55748227 C114.155663,8.55748227 110.068384,5.65835032 104.902402,5.65734292 C99.7364186,5.65633552 95.6002382,8.55177538 95.6002382,8.55177538 L73.9458937,21.3886535 C73.9458937,21.3886535 68.3828515,25.5000066 67.1421468,28.0568988 Z" id="Path-1" fill="#206AB5"></path>
                                <path d="M45.5984427,136.36872 C44.8400861,137.928676 44.8956345,141.559086 44.8956345,141.559086 L44.8459959,153.450825 C44.8459959,153.450825 44.8688226,156.236109 45.5984427,157.877368 C46.3280628,159.518627 48.656875,160.678764 48.656875,160.678764 L60.9562179,167.826648 C60.9562179,167.826648 63.1190416,169.002878 64.8638787,168.999995 C66.6087159,168.997112 68.8274823,167.811588 68.8274823,167.811588 L81.5780375,160.311515 C81.5780375,160.311515 83.7434885,159.162475 84.3635791,157.453841 C84.9836696,155.745208 84.7446653,152.582109 84.7446653,152.582109 L84.8817624,140.026944 C84.8817624,140.026944 85.0115107,138.423994 83.9872188,136.36872 C82.9629269,134.313446 80.1072641,132.446816 80.1072641,132.446816 L69.5849306,126.438461 C69.5849306,126.438461 67.4995843,124.962052 64.8638787,124.961539 C62.2281732,124.961026 60.1178771,126.435555 60.1178771,126.435555 L49.0697421,132.972854 C49.0697421,132.972854 46.2314553,135.066599 45.5984427,136.36872 Z" id="Path-1" fill="#65A6E8"></path>
                                <path d="M160.916718,136.36872 C160.158361,137.928676 160.21391,141.559086 160.21391,141.559086 L160.164271,153.450825 C160.164271,153.450825 160.187098,156.236109 160.916718,157.877368 C161.646338,159.518627 163.97515,160.678764 163.97515,160.678764 L176.274493,167.826648 C176.274493,167.826648 178.437317,169.002878 180.182154,168.999995 C181.926991,168.997112 184.145757,167.811588 184.145757,167.811588 L196.896313,160.311515 C196.896313,160.311515 199.061764,159.162475 199.681854,157.453841 C200.301945,155.745208 200.06294,152.582109 200.06294,152.582109 L200.200038,140.026944 C200.200038,140.026944 200.329786,138.423994 199.305494,136.36872 C198.281202,134.313446 195.425539,132.446816 195.425539,132.446816 L184.903206,126.438461 C184.903206,126.438461 182.817859,124.962052 180.182154,124.961539 C177.546448,124.961026 175.436152,126.435555 175.436152,126.435555 L164.388017,132.972854 C164.388017,132.972854 161.54973,135.066599 160.916718,136.36872 Z" id="Path-1" fill="#084788"></path>
                                <path d="M0.376223386,5.8597399 C-0.00295490172,6.6538995 0.024819302,8.50210835 0.024819302,8.50210835 L-8.25362316e-22,14.5560845 C-8.25362316e-22,14.5560845 0.011413336,15.9740473 0.3762234,16.8095972 C0.741033464,17.6451471 1.90543953,18.2357624 1.90543953,18.2357624 L8.05511102,21.8746851 C8.05511102,21.8746851 9.13652285,22.473493 10.0089414,22.4720253 C10.88136,22.4705576 11.9907432,21.8670183 11.9907432,21.8670183 L18.3660208,18.0487992 C18.3660208,18.0487992 19.4487463,17.4638335 19.7587916,16.5939836 C20.0688369,15.7241337 19.9493347,14.1138291 19.9493347,14.1138291 L20.0178833,7.72210863 C20.0178833,7.72210863 20.0827574,6.90606138 19.5706115,5.8597399 C19.0584655,4.81341841 17.6306341,3.86313431 17.6306341,3.86313431 L12.3694674,0.804335601 C12.3694674,0.804335601 11.3267942,0.0527087976 10.0089414,0.0524476206 C8.69108865,0.0521864435 7.63594059,0.802856036 7.63594059,0.802856036 L2.11187309,4.13093556 C2.11187309,4.13093556 0.692729695,5.1968419 0.376223386,5.8597399 Z" id="Path-1" fill="#063A6F"></path>
                            </g>
                        </g>
                    </g>
                </g>
            </g>
        </g>
    </g>
</svg>