<?xml version="1.0" encoding="UTF-8" standalone="no"?>
<svg width="150px" height="39px" viewBox="0 0 150 39" version="1.1" xmlns="http://www.w3.org/2000/svg" xmlns:xlink="http://www.w3.org/1999/xlink">
    <!-- Generator: Sketch 41.2 (35397) - http://www.bohemiancoding.com/sketch -->
    <title>Group</title>
    <desc>Created with Sketch.</desc>
    <defs>
        <polygon id="path-1" points="38.9999144 38.9882412 0.0117 38.9882412 0.0117 0.122879397 19.5058072 0.122879397 38.9999144 0.122879397 38.9999144 38.9882412"></polygon>
    </defs>
    <g id="Landing-Pages" stroke="none" stroke-width="1" fill="none" fill-rule="evenodd">
        <g id="Desktop-HD-talent" transform="translate(-374.000000, -595.000000)">
            <g id="Group-4" transform="translate(156.000000, 586.000000)">
                <g id="Group" transform="translate(218.000000, 9.000000)">
                    <g id="TravisCI-Mascot-grey" opacity="0.8">
                        <g>
                            <path d="M38.18724,13.8581307 C38.17671,13.7266281 38.16228,13.5951256 38.14629,13.464407 C38.13498,13.3717085 38.120355,13.2748945 38.104365,13.1853317 C37.75473,12.889598 37.35732,12.626593 36.943725,12.3874975 C36.49542,12.1242965 36.026445,11.8885327 35.54772,11.6696231 C35.07231,11.4442462 34.58403,11.2402312 34.092825,11.0411156 C33.84771,10.9411658 33.60045,10.8441558 33.352215,10.7516533 C33.10476,10.6546432 32.854965,10.5642965 32.60439,10.4725779 C33.130305,10.5601809 33.65076,10.6801206 34.167315,10.8137789 C34.5033,10.9011859 34.83753,10.9989799 35.169615,11.1032412 C32.807775,4.89949749 27.160965,0.859371859 20.99565,0.859371859 C14.82936,0.859371859 9.183135,4.89949749 6.82188,11.1032412 C7.153965,10.9989799 7.488195,10.9011859 7.823595,10.8137789 C8.34093,10.6801206 8.86158,10.5601809 9.387105,10.4725779 C9.13575,10.5642965 8.88654,10.6546432 8.638305,10.7516533 C8.39124,10.8441558 8.143785,10.9411658 7.897695,11.0411156 C7.40649,11.2402312 6.919575,11.4442462 6.442995,11.6696231 C5.965245,11.8885327 5.49588,12.1242965 5.047575,12.3874975 C4.63398,12.626397 4.23696,12.889598 3.88596,13.1853317 C3.871335,13.2748945 3.856515,13.3717085 3.84501,13.464407 C3.829215,13.5951256 3.814785,13.7266281 3.80406,13.8581307 C3.78105,14.1225075 3.77169,14.3878643 3.769545,14.654005 C3.76428,15.1856985 3.799965,15.717392 3.867045,16.243402 C3.939195,16.7709799 4.035525,17.2950302 4.17807,17.8016382 C4.24827,18.0554322 4.32783,18.3056985 4.41987,18.5479296 C4.466085,18.6688492 4.516395,18.788005 4.56885,18.9038291 C4.59498,18.9614472 4.62228,19.0184774 4.649385,19.0731558 L4.682925,19.1374372 C4.72173,19.1572312 4.762485,19.1774171 4.80129,19.1962312 L5.03607,19.3089196 C5.166915,19.3686935 5.34807,19.4551206 5.49783,19.5225377 C5.506215,19.5152864 5.5146,19.5078392 5.521815,19.500196 L5.08599,17.8318191 C5.17842,17.8063417 6.006,17.5917437 7.43223,17.3189397 C7.31718,17.2969899 7.20096,17.2717085 7.08669,17.2442714 C6.762015,17.1631357 6.441435,17.0641658 6.131385,16.9377588 C5.977335,16.8724975 5.825625,16.8011608 5.68113,16.7192412 C5.53644,16.6357538 5.39409,16.5412915 5.283915,16.4158643 C6.850935,16.9297236 10.088715,16.6968995 12.96672,16.3980302 C15.599025,16.1254221 18.237375,15.9486482 20.88957,15.9433568 C23.54196,15.9486482 26.181285,16.1254221 28.81242,16.3980302 C31.69179,16.6968995 34.92957,16.9297236 36.496395,16.4158643 C36.386415,16.5412915 36.24426,16.6359497 36.09957,16.7192412 C35.955075,16.8011608 35.803365,16.8724975 35.64951,16.9377588 C35.33907,17.0641658 35.01888,17.1631357 34.694205,17.2442714 C34.64604,17.2558342 34.59768,17.2664171 34.54932,17.276804 C36.11322,17.5684221 37.023675,17.8053618 37.12098,17.8316231 L36.70407,19.4210201 C36.78792,19.383 36.87255,19.3463518 36.95562,19.3085276 L37.19001,19.1958392 C37.22901,19.1768291 37.268595,19.1568392 37.308375,19.1370452 L37.340745,19.0727638 C37.369215,19.0180854 37.396515,18.9610553 37.42245,18.9034372 C37.4751,18.7876131 37.52541,18.6684573 37.57143,18.5475377 C37.663665,18.3053065 37.74342,18.0550402 37.813425,17.8012462 C37.95597,17.2946382 38.0523,16.7705879 38.12445,16.2430101 C38.191725,15.716804 38.22702,15.1851106 38.222145,14.6536131 C38.22,14.3878643 38.210445,14.1225075 38.18724,13.8581307" id="Fill-1" fill="#EAEAE6"></path>
                            <path d="M22.773465,35.9207638 C22.565985,35.9521206 22.358505,35.9785779 22.152195,35.9942563 C22.019205,36.0007236 21.878415,36.0142462 21.75069,36.0142462 L21.7035,36.0152261 C21.86379,35.6552111 21.98547,35.3763317 22.077705,35.1648693 C22.26549,35.3765276 22.504365,35.6385528 22.773465,35.9207638" id="Fill-2" fill="#F7F6F4"></path>
                            <path d="M23.224695,36.3826884 C23.868975,37.0239347 24.667305,37.391201 25.545975,37.4564623 C24.07002,38.0589045 22.679085,38.2913367 21.60756,38.3638492 C20.53935,38.4357739 19.45632,38.3091709 18.39513,38.0167688 C18.48405,38.0006985 18.54918,37.9893317 18.627765,37.9797286 C18.71493,37.9691457 20.617935,37.7196633 21.47574,36.4377588 L21.556275,36.4395226 L21.766875,36.4377588 C21.90942,36.4377588 22.0389,36.426 22.175205,36.4207085 C22.498905,36.3924874 22.81539,36.3460402 23.126415,36.2829347 C23.15898,36.3164472 23.19135,36.3491759 23.224695,36.3826884" id="Fill-3" fill="#F7F6F4"></path>
                            <path d="M25.05048,17.1870452 C24.988665,17.2679849 24.919635,17.3573518 24.84612,17.4502462 C24.469185,17.9292211 23.94639,18.5418543 23.32629,19.1409648 C22.60557,19.1186231 21.86496,19.1062764 21.10251,19.1062764 C19.84281,19.1062764 18.634785,19.1397889 17.487795,19.1958392 C19.10844,18.5199045 21.055515,17.8596482 23.16405,17.4629849 C23.77986,17.3457889 24.410295,17.2521106 25.05048,17.1870452" id="Fill-4" fill="#8B8C88"></path>
                            <path d="M15.565095,17.9162864 C14.986725,18.3247085 14.33328,18.8460151 13.699725,19.4784422 C12.07713,19.6416935 10.662015,19.8394372 9.49416,20.0291457 C11.28933,19.1997588 13.338195,18.4364171 15.565095,17.9162864" id="Fill-5" fill="#8B8C88"></path>
                            <path d="M35.3886,21.2826332 L34.72872,25.9232412 L31.56738,28.148593 L23.322195,27.2065176 L22.08102,23.0985829 C22.051575,22.9986332 21.967725,22.9251407 21.86496,22.9082864 C21.559395,22.8587035 21.289125,22.8334221 21.0639,22.8334221 C20.8377,22.8334221 20.568405,22.8587035 20.261475,22.9082864 C20.159685,22.9251407 20.076225,22.9986332 20.045805,23.0985829 L18.83505,27.1063719 L10.635885,28.9401558 L7.386795,26.6526784 L6.74661,21.4451005 C6.886035,21.3659246 7.027605,21.2871407 7.17093,21.2081608 C7.371975,21.1646533 7.598175,21.118598 7.848555,21.070191 L8.451885,25.983995 C8.461245,26.0608191 8.503365,26.1292161 8.566155,26.1735075 L10.801245,27.7476181 C10.847265,27.7789749 10.901865,27.7958291 10.95627,27.7958291 C10.975965,27.7958291 10.995075,27.7938693 11.01594,27.7893618 L17.75709,26.2818844 C17.780295,26.276593 17.803305,26.2683618 17.82417,26.2575829 C17.88696,26.2240704 17.936295,26.1662563 17.95716,26.0955075 L19.171035,22.0783116 C19.496685,21.9940402 20.3307,21.7982563 21.063705,21.7982563 C21.79476,21.7982563 22.629555,21.9940402 22.9554,22.0783116 L24.169275,26.0955075 C24.20067,26.1997688 24.290955,26.2742412 24.398595,26.2869799 L31.139745,27.056593 C31.20507,27.0638442 31.27176,27.046794 31.325385,27.0091658 L33.56184,25.4364271 C33.62229,25.3933116 33.66324,25.3255025 33.673575,25.2510302 L34.270665,21.0529447 C34.71936,21.1399598 35.094345,21.2187437 35.3886,21.2826332" id="Fill-6" fill="#8B8C88"></path>
                            <path d="M36.221445,18.3723317 L35.641125,20.5849447 C34.454355,20.3219397 31.847205,19.8059246 28.298595,19.4586482 C29.458065,18.9618392 30.638595,18.3386231 31.71714,17.559603 C33.828795,17.8594523 35.37924,18.1806633 36.221445,18.3723317" id="Fill-7" fill="#8B8C88"></path>
                            <path d="M22.52211,19.8564874 C22.197435,20.1208643 21.855015,20.367995 21.498555,20.5839648 L20.30964,21.3051709 C19.56396,21.3964975 18.916755,21.5818945 18.880095,21.5926734 C18.858255,21.5987487 18.83739,21.6081558 18.81828,21.6201106 C18.76056,21.6536231 18.716685,21.7092814 18.695625,21.7757186 L17.48487,25.7854673 L11.013795,27.231799 L8.975655,25.7970302 L8.38266,20.9692613 C9.54018,20.7556432 11.08809,20.5083166 12.94761,20.2990101 C12.74832,20.5390854 12.55488,20.7905276 12.371385,21.0545126 L11.26437,22.6515528 L12.87624,21.5715075 C12.900225,21.5546533 13.926705,20.8759749 15.60585,20.0505075 C17.27934,19.9242965 19.126185,19.8429648 21.10251,19.8429648 C21.584355,19.8427688 22.057035,19.8482563 22.52211,19.8564874 L22.52211,19.8564874 Z M12.448995,25.2947337 C12.90861,25.0450553 13.42809,25.0820955 14.241045,25.0832714 C14.32821,25.0854271 14.418105,25.0842513 14.512095,25.0822915 C14.592045,25.0813116 14.672385,25.0801357 14.757405,25.0779799 C15.595125,25.0697487 16.29186,25.1497085 16.279575,23.8274322 C16.2669,22.5053518 15.682485,21.4368693 14.845545,21.4452965 C14.00763,21.4525477 13.197015,22.5357286 13.24713,23.8570251 C13.26078,24.2011658 13.31109,24.4494724 13.39182,24.628598 C12.661545,24.8124271 12.460305,25.2663166 12.448995,25.2947337 L12.448995,25.2947337 Z" id="Fill-8" fill="#E0C69C"></path>
                            <path d="M33.737925,20.9535829 L33.154485,25.0581859 L31.09938,26.5043216 L24.636885,25.7662613 L23.4312,21.7755226 C23.4039,21.6871357 23.33487,21.6189347 23.246925,21.5924774 C23.20695,21.5807186 22.406865,21.3514221 21.55842,21.2775377 L21.713445,21.2671508 C21.84741,21.2575477 24.076455,20.9827839 26.73801,20.0605025 C29.685435,20.2880352 32.09232,20.6523618 33.737925,20.9535829 L33.737925,20.9535829 Z M29.607825,24.7526533 C29.599635,24.7212965 29.42355,24.189603 28.644135,24.2828894 C28.73403,24.0863216 28.774005,23.8211608 28.74573,23.4578141 C28.64277,22.1386734 27.879345,21.0903769 27.042405,21.1195779 C26.205465,21.1493668 25.669215,22.2427387 25.71543,23.5650151 C25.76145,24.8861156 26.46423,24.8769045 27.30117,24.8473116 C28.42632,24.8263417 29.044275,24.4788693 29.607825,24.7526533 L29.607825,24.7526533 Z" id="Fill-9" fill="#E0C69C"></path>
                            <path d="M22.52211,19.8564874 C22.197435,20.1208643 21.855015,20.367995 21.498555,20.5839648 L20.30964,21.3051709 C19.56396,21.3964975 18.916755,21.5818945 18.880095,21.5926734 C18.858255,21.5987487 18.83739,21.6081558 18.81828,21.6201106 C18.76056,21.6536231 18.716685,21.7092814 18.695625,21.7757186 L17.48487,25.7854673 L11.013795,27.231799 L8.975655,25.7970302 L8.38266,20.9692613 C9.54018,20.7556432 11.08809,20.5083166 12.94761,20.2990101 C12.74832,20.5390854 12.55488,20.7905276 12.371385,21.0545126 L11.26437,22.6515528 L12.87624,21.5715075 C12.900225,21.5546533 13.926705,20.8759749 15.60585,20.0505075 C17.27934,19.9242965 19.126185,19.8429648 21.10251,19.8429648 C21.584355,19.8427688 22.057035,19.8482563 22.52211,19.8564874 L22.52211,19.8564874 Z M12.448995,25.2947337 C12.90861,25.0450553 13.42809,25.0820955 14.241045,25.0832714 C14.32821,25.0854271 14.418105,25.0842513 14.512095,25.0822915 C14.592045,25.0813116 14.672385,25.0801357 14.757405,25.0779799 C15.595125,25.0697487 16.29186,25.1497085 16.279575,23.8274322 C16.2669,22.5053518 15.682485,21.4368693 14.845545,21.4452965 C14.00763,21.4525477 13.197015,22.5357286 13.24713,23.8570251 C13.26078,24.2011658 13.31109,24.4494724 13.39182,24.628598 C12.661545,24.8124271 12.460305,25.2663166 12.448995,25.2947337 L12.448995,25.2947337 Z" id="Fill-10" fill="#F7F6F4"></path>
                            <path d="M33.737925,20.9535829 L33.154485,25.0581859 L31.09938,26.5043216 L24.636885,25.7662613 L23.4312,21.7755226 C23.4039,21.6871357 23.33487,21.6189347 23.246925,21.5924774 C23.20695,21.5807186 22.406865,21.3514221 21.55842,21.2775377 L21.713445,21.2671508 C21.84741,21.2575477 24.076455,20.9827839 26.73801,20.0605025 C29.685435,20.2880352 32.09232,20.6523618 33.737925,20.9535829 L33.737925,20.9535829 Z M29.607825,24.7526533 C29.599635,24.7212965 29.42355,24.189603 28.644135,24.2828894 C28.73403,24.0863216 28.774005,23.8211608 28.74573,23.4578141 C28.64277,22.1386734 27.879345,21.0903769 27.042405,21.1195779 C26.205465,21.1493668 25.669215,22.2427387 25.71543,23.5650151 C25.76145,24.8861156 26.46423,24.8769045 27.30117,24.8473116 C28.42632,24.8263417 29.044275,24.4788693 29.607825,24.7526533 L29.607825,24.7526533 Z" id="Fill-11" fill="#F7F6F4"></path>
                            <path d="M7.98252,27.7380151 C8.021325,27.8759849 8.06208,28.0137588 8.1042,28.1495729 C7.687095,28.2726482 6.837675,28.3906281 6.453525,28.3232111 C6.13509,28.0008241 5.54112,25.7821357 5.41125,24.6039045 C5.305365,23.6492864 5.37966,23.4429196 5.476185,23.3625678 C5.58831,23.2679095 6.008145,23.0278342 6.37182,22.8320503 L6.863025,26.8396432 C6.872385,26.9166633 6.91314,26.9848643 6.977295,27.0291558 L7.98252,27.7380151" id="Fill-12" fill="#F7F6F4"></path>
                            <path d="M23.662665,27.7940653 L23.63322,28.0498191 C23.63322,28.0498191 22.739925,28.8823417 21.3018,29.0687186 C19.863675,29.2548995 18.733455,28.3667186 18.733455,28.3667186 C18.780645,28.5211508 18.847725,28.869799 19.173375,29.1674925 C18.7902,29.1214372 18.37641,29.0904724 17.94234,29.0904724 C17.78556,29.0904724 17.62722,29.0949799 17.474145,29.1024271 C16.58904,29.1488744 15.343965,30.4938844 14.468415,31.8488894 C14.03883,31.9854874 12.69606,32.4138995 11.141715,32.8752362 C9.690915,30.8548794 8.977605,28.7906231 8.90526,28.577005 L8.906235,28.5758291 C8.876985,28.4937136 8.84754,28.411402 8.82024,28.3273266 L9.193275,28.5895477 L9.193275,28.5905276 L10.114845,29.2390251 L10.422945,29.454799 C10.468965,29.4875276 10.52337,29.5043819 10.577775,29.5043819 C10.597665,29.5043819 10.617555,29.5022261 10.63725,29.4983065 L19.107075,27.6031809 C19.20204,27.5822111 19.27887,27.5104824 19.30695,27.417 L20.51478,23.4209698 C20.723235,23.3925528 20.90634,23.3778543 21.06351,23.3778543 C21.219705,23.3778543 21.40398,23.3925528 21.612435,23.4209698 L22.855365,27.5359598 C22.886955,27.6402211 22.977045,27.7160653 23.08371,27.7274322 L23.662665,27.7940653" id="Fill-13" fill="#F7F6F4"></path>
                            <path d="M33.33057,27.573 L33.60396,27.3801558 C33.55872,27.5708442 33.50958,27.7603568 33.458295,27.9477136 C33.07824,29.172196 32.629545,30.2551809 32.13132,31.2119548 C32.021145,31.219598 31.904925,31.2239095 31.78032,31.2239095 C31.39578,31.2239095 31.00305,31.1911809 30.568395,31.151201 C29.814135,31.0816281 28.61703,30.9438543 28.238925,30.8997588 C27.913275,30.6387136 26.79885,29.7487688 25.871625,29.0154121 C25.83516,28.9858191 25.803765,28.9583819 25.77315,28.9331005 C25.609935,28.7943467 25.424295,28.6365829 25.048335,28.6365829 C24.70689,28.6365829 24.208275,28.7616181 23.00298,29.1281005 C23.62932,28.6575528 23.633415,28.0502111 23.633415,28.0502111 L23.66286,27.7944573 L31.60872,28.7016482 C31.67346,28.7090955 31.74054,28.6922412 31.794945,28.6544171 L32.593275,28.0923467 L33.33057,27.573" id="Fill-14" fill="#F7F6F4"></path>
                            <path d="M27.482715,10.7718392 C27.506895,11.4822663 27.48915,12.7696583 27.15999,13.9751307 C27.14673,14.0215779 27.14868,14.069005 27.15999,14.1131005 C26.74113,14.068809 26.322075,14.0309849 25.90302,13.9972764 C26.37336,13.006794 26.47593,11.9520302 26.49816,11.5804523 C26.8593,11.3223467 27.21888,11.0128945 27.482715,10.7718392" id="Fill-15" fill="#B6B6B2"></path>
                            <path d="M15.49392,11.5802563 C15.51576,11.9518342 15.61833,13.0044422 16.08789,13.9941407 C15.668835,14.0276533 15.249975,14.0666533 14.831895,14.1109447 C14.843205,14.0676332 14.84457,14.0213819 14.831895,13.9749347 C14.503125,12.7718141 14.486355,11.4832462 14.509365,10.7716432 C14.7732,11.0128945 15.131415,11.3223467 15.49392,11.5802563" id="Fill-16" fill="#B6B6B2"></path>
                            <path d="M26.977665,22.8167638 C27.21342,22.8114724 27.40179,22.6156884 27.397695,22.3787487 C27.3936,22.1408291 27.198795,21.9513166 26.96187,21.956804 C26.725335,21.9607236 26.537745,22.1567035 26.54223,22.3946231 C26.546325,22.6313668 26.74113,22.8210754 26.977665,22.8167638 L26.977665,22.8167638 Z M29.607825,24.7526533 C29.044275,24.4790653 28.42632,24.8265377 27.301365,24.8475075 C26.464425,24.8771005 25.761645,24.8863116 25.715625,23.5652111 C25.66941,22.2429347 26.20566,21.1495628 27.0426,21.1197739 C27.87954,21.0903769 28.642965,22.1388693 28.745925,23.4580101 C28.7742,23.8213568 28.734225,24.0865176 28.64433,24.2830854 C29.42355,24.189603 29.599635,24.7211005 29.607825,24.7526533 L29.607825,24.7526533 Z" id="Fill-17" fill="#3E3F3C"></path>
                            <path d="M26.960895,21.9544523 C27.197235,21.9501407 27.392235,22.1390653 27.396525,22.376397 C27.400815,22.6139246 27.212835,22.8099045 26.97669,22.8142161 C26.74035,22.8185276 26.54535,22.629603 26.54106,22.3922714 C26.53677,22.1547437 26.72475,21.9587638 26.960895,21.9544523" id="Fill-18" fill="#F0F8F9"></path>
                            <path d="M14.98575,23.1356231 C15.221505,23.1295477 15.407925,22.9312161 15.401685,22.6944724 C15.39525,22.4565528 15.19869,22.269196 14.962935,22.2756633 C14.72601,22.2817387 14.539395,22.4796784 14.54583,22.7166181 C14.55207,22.9547337 14.74902,23.1420905 14.98575,23.1356231 L14.98575,23.1356231 Z M16.27938,23.8272362 C16.291665,25.1495126 15.595125,25.0695528 14.75721,25.0777839 C14.672385,25.0799397 14.59185,25.0809196 14.5119,25.0820955 C14.41791,25.0842513 14.32782,25.0852312 14.24085,25.0830754 C13.42809,25.0820955 12.908415,25.0450553 12.4488,25.2945377 C12.46011,25.2661206 12.66135,24.8122312 13.391625,24.628206 C13.310895,24.4490804 13.26039,24.2007739 13.246935,23.8566332 C13.19682,22.5355327 14.007435,21.4521558 14.84535,21.4449045 C15.68229,21.4366734 16.266705,22.5053518 16.27938,23.8272362 L16.27938,23.8272362 Z" id="Fill-19" fill="#3E3F3C"></path>
                            <path d="M14.964105,22.2768392 C15.200445,22.2707638 15.397005,22.4583166 15.40305,22.6958442 C15.409095,22.9333719 15.22248,23.1309196 14.98614,23.136995 C14.7498,23.1430704 14.55324,22.9555176 14.547195,22.7179899 C14.54115,22.4804623 14.727765,22.2829146 14.964105,22.2768392" id="Fill-20" fill="#F0F8F9"></path>
                            <path d="M9.884745,14.8517487 C9.884745,14.8517487 10.01481,13.1482915 10.280595,12.4954824 C10.417485,12.1589849 11.254815,11.9447789 11.894415,11.7917186 C12.533625,11.6388543 13.553475,11.3327337 13.751595,12.2354171 C13.94952,13.1381005 14.26893,13.796005 14.482065,14.0866432 L14.208285,10.3689045 L9.808695,11.4397387 L9.519315,14.7294573 L9.6564,14.9895226 L9.884745,14.8517487" id="Fill-21" fill="#B6B6B2"></path>
                            <path d="M32.146725,14.8517487 C32.146725,14.8517487 32.016855,13.1482915 31.75107,12.4954824 C31.613985,12.1589849 30.776655,11.9447789 30.137445,11.7917186 C29.497845,11.6388543 28.477995,11.3327337 28.279875,12.2354171 C28.08234,13.1381005 27.762345,13.796005 27.549015,14.0866432 L27.82338,10.3689045 L32.22297,11.4397387 L32.512155,14.7294573 L32.37507,14.9895226 L32.146725,14.8517487" id="Fill-22" fill="#B6B6B2"></path>
                            <path d="M25.928175,3.72459799 C25.928175,3.72459799 25.811565,12.6397236 23.739495,12.6397236 L21.253245,12.6397236 L20.83887,12.6397236 L18.35223,12.6397236 C16.28016,12.6397236 16.11285,3.72851759 16.11285,3.72851759 L15.09495,6.75405528 L15.111525,10.9054975 L15.83439,11.4830503 L16.162965,13.2656834 L16.62258,14.3057487 L25.49157,14.3222111 L25.902045,13.5792513 L26.247,12.3249799 L26.29653,11.5326332 L27.276015,8.72208543 L25.928175,3.72459799" id="Fill-23" fill="#B6B6B2"></path>
                            <path d="M32.453655,12.0372814 C32.453655,12.0372814 32.88012,15.112598 34.008585,15.6672211 C35.137245,16.2216482 34.008585,15.6672211 34.008585,15.6672211 L32.4285,15.1882462 L32.453655,12.0372814" id="Fill-24" fill="#B6B6B2"></path>
                            <path d="M9.53706,12.0372814 C9.53706,12.0372814 9.110595,15.112598 7.981935,15.6672211 C6.853275,16.2216482 7.981935,15.6672211 7.981935,15.6672211 L9.562215,15.1882462 L9.53706,12.0372814" id="Fill-25" fill="#B6B6B2"></path>
                            <path d="M14.34576,14.1634673 C14.338155,14.1487688 14.33211,14.1319146 14.32665,14.1150603 C13.941525,12.7065528 13.958295,11.2296482 13.99281,10.5484221 L9.99258,11.6915729 C9.72348,13.4518643 9.84906,14.7455276 9.876165,14.9834472 C10.20825,14.8929045 10.54131,14.8096131 10.87671,14.731809 C11.42973,14.6087337 11.986845,14.5056482 12.54513,14.410794 C13.104585,14.3171156 13.665795,14.2455829 14.2272,14.1771859 C14.267175,14.1718945 14.30598,14.1689548 14.34576,14.1634673 L14.34576,14.1634673 Z M16.087695,13.9941407 C15.618135,13.0044422 15.515565,11.9516382 15.493725,11.5802563 C15.131415,11.3223467 14.773005,11.0128945 14.50917,10.7718392 C14.485965,11.4834422 14.50293,12.7720101 14.8317,13.9751307 C14.844375,14.0215779 14.84301,14.0678291 14.8317,14.1111407 C15.249975,14.0666533 15.66864,14.0278492 16.087695,13.9941407 L16.087695,13.9941407 Z M27.159795,13.9749347 C27.488955,12.7696583 27.5067,11.4820704 27.48252,10.7716432 C27.218685,11.0126985 26.859105,11.3221508 26.497965,11.5800603 C26.475735,11.9516382 26.373165,13.006402 25.902825,13.9968844 C26.32188,14.0307889 26.740935,14.0686131 27.159795,14.1127085 C27.148485,14.068809 27.146535,14.0215779 27.159795,13.9749347 L27.159795,13.9749347 Z M32.11455,14.9844271 C32.14185,14.7478794 32.268405,13.4540201 31.999305,11.6917688 L27.997905,10.5486181 C28.033785,11.2296482 28.04958,12.7067487 27.66504,14.1152563 C27.65997,14.1321106 27.65373,14.1489648 27.645345,14.1658191 C27.68493,14.1699347 27.724905,14.1730704 27.763515,14.1783618 C28.88847,14.3079045 30.00816,14.488794 31.11537,14.7329849 C31.44921,14.8109849 31.78344,14.8942764 32.11455,14.9844271 L32.11455,14.9844271 Z M32.757465,15.1741357 C33.29469,15.3509095 33.835035,15.5382663 34.324485,15.8257688 C34.0626,15.7215075 33.79233,15.6468392 33.519915,15.5794221 C33.24867,15.5098492 32.97528,15.4510553 32.70072,15.3983367 C32.15082,15.2942714 31.59897,15.2058844 31.04361,15.1382714 C30.489615,15.0657588 29.934645,15.0046131 29.37714,14.9571859 C28.81983,14.9099548 28.263885,14.8625276 27.705405,14.829799 C25.473435,14.6918291 23.235225,14.6573367 20.995455,14.6549849 C18.75627,14.6561608 16.517865,14.6982965 14.2857,14.8307789 C13.72761,14.8633116 13.171275,14.9109347 12.61416,14.9583618 C12.057045,15.005593 11.50071,15.0657588 10.94769,15.1392513 C10.392525,15.2068643 9.84048,15.2952513 9.29058,15.3993166 C9.016215,15.4510553 8.74263,15.5110251 8.47041,15.5794221 C8.199165,15.6468392 7.927725,15.7215075 7.66584,15.8257688 C8.155095,15.5384623 8.69544,15.3501256 9.233835,15.1729598 C9.279075,15.1582613 9.3249,15.1457186 9.37092,15.1310201 C9.367995,15.1194573 9.36468,15.1088744 9.362535,15.0963317 C9.353175,15.034206 9.15408,13.5561256 9.50079,11.4422864 C9.51756,11.3411608 9.58971,11.2590452 9.68838,11.231608 L10.257195,11.0687487 C10.380825,6.63470352 12.197835,4.54928141 12.25458,4.485 C10.63101,7.11054271 10.64583,10.2244673 10.67391,10.949593 L14.20887,9.93990452 C14.21199,9.93892462 14.21394,9.93892462 14.21706,9.93794472 C14.23188,9.93480905 14.246505,9.93265327 14.26113,9.93167337 C14.265225,9.93167337 14.270685,9.93049749 14.275755,9.93049749 C14.293695,9.92951759 14.31378,9.93167337 14.33367,9.93578894 C14.336595,9.93578894 14.339715,9.93794472 14.344005,9.93892462 C14.35863,9.9420603 14.37228,9.94715578 14.387685,9.95362312 C14.39412,9.95675879 14.398215,9.96009045 14.404455,9.96322613 C14.415765,9.96969347 14.42766,9.97694472 14.43897,9.98517588 C14.44209,9.98733166 14.4456,9.98831156 14.448525,9.99164322 C14.45067,9.99379899 14.45262,9.99595477 14.454765,9.99791457 C14.457885,10.0010503 14.46198,10.003206 14.465295,10.0065377 C14.467635,10.0096734 14.561625,10.1031558 14.711385,10.2434774 C14.675895,9.07288945 14.731275,5.71477387 16.322475,2.93146734 C16.288935,3.02906533 15.026505,6.73896482 15.46155,10.8970704 C15.60273,11.0107387 15.75132,11.1222513 15.896205,11.2202412 C15.96621,11.2686482 16.009305,11.348608 16.01028,11.4338593 C16.01145,11.4475779 16.041675,12.7729899 16.62414,13.9004623 C16.63233,13.9173166 16.63857,13.9351508 16.64403,13.9529849 C18.092685,13.8540151 19.54524,13.8140352 20.99487,13.8130553 C22.44489,13.8140352 23.89647,13.8561709 25.344735,13.9563166 C25.35,13.9373065 25.356435,13.9184925 25.36599,13.9004623 C25.94826,12.7729899 25.97868,11.4475779 25.97868,11.4338593 C25.98063,11.3484121 26.023725,11.2686482 26.093925,11.2202412 C26.23842,11.1222513 26.38506,11.0107387 26.527605,10.8970704 C26.963235,6.73896482 25.700805,3.02906533 25.66746,2.93146734 C27.257295,5.71457789 27.31404,9.07269347 27.27855,10.2434774 C27.42714,10.1033518 27.52152,10.0098693 27.524445,10.0065377 C27.527565,10.003402 27.53205,10.0012462 27.53478,9.99791457 C27.53712,9.99595477 27.53829,9.99379899 27.541215,9.99164322 C27.544335,9.98850754 27.54765,9.98733166 27.55077,9.98517588 C27.56247,9.97694472 27.573975,9.96969347 27.585285,9.96205025 C27.590745,9.96009045 27.595815,9.95675879 27.60108,9.95362312 C27.616875,9.94715578 27.631305,9.9420603 27.6471,9.93794472 C27.65022,9.93794472 27.653535,9.93578894 27.656655,9.93578894 C27.675375,9.93167337 27.695655,9.92951759 27.714375,9.93049749 C27.71964,9.93049749 27.72393,9.93167337 27.728025,9.93167337 C27.74265,9.93265327 27.758445,9.93480905 27.77307,9.93794472 C27.77541,9.9391206 27.77853,9.9391206 27.78126,9.93990452 L31.316415,10.949593 C31.344885,10.2244673 31.35951,7.11034673 29.736135,4.485 C29.79249,4.54928141 31.60989,6.63470352 31.73235,11.0687487 L32.30214,11.231608 C32.399445,11.2590452 32.472765,11.3411608 32.48973,11.4422864 C32.836245,13.5561256 32.63637,15.034206 32.62779,15.0963317 C32.62584,15.1090704 32.62272,15.1206332 32.6196,15.132 C32.666205,15.1457186 32.71125,15.1592412 32.757465,15.1741357 L32.757465,15.1741357 Z" id="Fill-26" fill="#3E3F3C"></path>
                            <polyline id="Fill-27" fill="#3E3F3C" points="25.212525 3.84061809 25.212525 7.17717588 22.85907 7.17717588 22.85907 6.20256784 22.328865 6.20256784 22.328865 10.7061859 23.129925 10.7061859 23.129925 13.2247236 19.01367 13.2247236 19.01367 10.7061859 19.81161 10.7061859 19.81161 6.20256784 19.282965 6.20256784 19.282965 7.17717588 16.931265 7.17717588 16.931265 3.84061809 25.212525 3.84061809"></polyline>
                            <path d="M9.21921,17.0892513 C9.21921,17.0892513 3.1512,21.381799 2.913885,23.0170553 L3.36921,22.9229849 C3.36921,22.9229849 10.63569,18.0824774 16.395795,17.4921859 L16.52625,16.7574573 L9.21921,17.0892513" id="Fill-28" fill="#61625F"></path>
                            <path d="M18.74457,16.4758342 L13.964925,19.8829447 L14.2233,20.0912714 C14.418105,19.9333116 22.713405,17.3871407 22.713405,17.3871407 L24.46236,16.2851457 C23.28885,16.4319347 18.74457,16.4758342 18.74457,16.4758342" id="Fill-29" fill="#61625F"></path>
                            <path d="M22.898655,20.5967035 C26.29263,20.5967035 31.38018,17.2560302 31.38018,17.2560302 L29.73555,16.9414824 C29.654235,17.023206 27.08355,16.8509397 27.08355,16.8509397 L25.86324,16.5103266 L22.947795,19.8490402 L22.71048,20.4283568 C22.920105,20.3427136 22.898655,20.5967035 22.898655,20.5967035" id="Fill-30" fill="#61625F"></path>
                            <path d="M21.72729,33.7067789 L21.69648,33.6783618 C21.733335,33.637598 21.77097,33.5952663 21.80958,33.5543065 C21.80958,33.5552864 21.80958,33.5552864 21.810555,33.5552864 L21.814065,33.5584221 C21.87354,33.6015377 21.933405,33.646809 21.993075,33.6920804 L21.96168,33.735196 L21.980985,33.7583216 C21.86496,33.6701307 21.795345,33.6172161 21.795345,33.6172161 C21.795345,33.6172161 21.770775,33.6499447 21.72729,33.7067789 L21.72729,33.7067789 Z M8.570835,33.2509296 C8.547435,33.2401508 8.52384,33.2291759 8.50044,33.218397 C8.33352,33.0735678 8.19702,32.955196 8.107905,32.8781759 L8.570835,33.2509296 L8.570835,33.2509296 Z M33.973875,31.2507588 L32.92536,31.5474724 L28.080975,31.4422312 L25.05048,29.0738141 L21.3876,29.9949196 L17.15103,29.6264774 L14.77866,32.2318342 L10.3272,33.5682211 L8.10459,32.8756281 C8.033805,32.8142864 7.99266,32.7788141 7.99266,32.7788141 L8.99028,35.2338543 C8.99028,35.2338543 11.24994,37.6687085 12.512175,37.9550352 C13.774215,38.2413618 16.05435,37.9344573 17.7645,37.6683166 C19.474455,37.4023719 20.83848,36.7885628 21.388185,35.7863216 C21.937695,34.7834925 22.019205,34.4971658 22.019205,34.4971658 C22.019205,34.4971658 23.64804,36.8091407 25.052625,37.0752814 C26.45721,37.3412261 30.6306,35.908809 30.6306,35.908809 C30.6306,35.908809 33.175545,35.2132764 33.62307,34.3335226 C34.070985,33.4537688 35.251905,30.5689447 35.251905,30.5689447 L33.973875,31.2507588 L33.973875,31.2507588 Z" id="Fill-31" fill="#61625F"></path>
                            <path d="M5.98533,18.3723317 C6.328335,18.2941357 6.79185,18.1945779 7.360275,18.0842412 C7.01103,18.3235327 6.59802,18.6239698 6.146985,18.9851608 L5.98533,18.3723317" id="Fill-32" fill="#8B8C88"></path>
                            <path d="M18.54645,27.5169497 C18.54645,27.5169497 18.64239,28.1372261 17.77854,28.4025829 C16.91508,28.6681357 11.44455,30.3067236 10.82055,30.2179447 C10.196745,30.1295578 8.613345,29.0667588 8.613345,29.0667588 L8.22939,27.6941156 L10.57251,29.162397 L18.54645,27.5169497" id="Fill-33" fill="#BDBDB8"></path>
                            <path d="M23.44719,27.3968141 C23.44719,27.3968141 23.37816,28.0204221 24.252735,28.2483467 C25.127115,28.4758794 30.66336,29.874 31.282485,29.7581759 C31.901805,29.6423518 33.43782,28.5115477 33.43782,28.5115477 L33.762105,27.1232261 L31.60833,28.4143417 L23.44719,27.3968141" id="Fill-34" fill="#BDBDB8"></path>
                            <path d="M5.54034,26.3755628 C5.54034,26.3755628 6.298305,27.8993065 7.52271,27.3717286 L8.397285,27.6941156 L8.309925,28.3388894 L6.47322,28.5730854 L5.977725,28.2802915 L5.54034,26.3755628" id="Fill-35" fill="#BDBDB8"></path>
                            <path d="M34.03452,27.1128392 C33.9924,27.2621759 33.948525,27.7560452 33.902895,27.9030302 C34.35432,28.0362965 35.459385,28.0061156 35.87532,27.9330151 C36.22008,27.5841709 36.8628,25.1828291 37.003395,23.9077839 C37.11786,22.8745779 36.851685,22.464392 36.74736,22.3775729 C36.62607,22.2752714 36.17172,22.015402 35.778015,21.8035477 L35.14446,26.0382814 C35.13432,26.1215729 35.09025,26.1954573 35.02083,26.2432764 L34.03452,27.1128392" id="Fill-36" fill="#F7F6F4"></path>
                            <g id="Group-41">
                                <mask id="mask-2" fill="white">
                                    <use xlink:href="#path-1"></use>
                                </mask>
                                <g id="Clip-38"></g>
                                <path d="M36.677745,25.6382864 C36.677745,25.6382864 35.85738,27.2872613 34.532355,26.7163719 L33.585825,27.0652161 L33.6804,27.7631005 L35.66823,28.0165025 L36.204675,27.699603 L36.677745,25.6382864" id="Fill-37" fill="#BDBDB8" mask="url(#mask-2)"></path>
                                <path d="M17.409405,37.9281859 C17.409405,37.9281859 21.900255,40.2037085 26.985075,37.1074221 L25.352145,36.9955176 C25.352145,36.9955176 21.789105,38.4128442 18.968235,37.6295126 L17.409405,37.9281859" id="Fill-39" fill="#BDBDB8" mask="url(#mask-2)"></path>
                                <path d="M7.360275,18.0842412 C6.79185,18.1947739 6.328335,18.2941357 5.98533,18.3723317 L6.146985,18.9851608 C6.59802,18.6237739 7.01103,18.3235327 7.360275,18.0842412 L7.360275,18.0842412 Z M8.1042,28.1497688 C8.06169,28.0139548 8.02152,27.8757889 7.983105,27.7378191 L6.976515,27.0299397 C6.91275,26.9852563 6.872385,26.9172513 6.862245,26.8400352 L6.371625,22.8324422 C6.008145,23.0282261 5.58831,23.2684975 5.476185,23.3629598 C5.37927,23.4431156 5.30556,23.6490905 5.410665,24.6039045 C5.540925,25.7817437 6.134505,28.0008241 6.453525,28.323407 C6.837285,28.3914121 7.68729,28.2728442 8.1042,28.1497688 L8.1042,28.1497688 Z M14.11995,17.5282462 C14.865825,17.3181558 15.635295,17.1345226 16.423485,16.9802864 C15.292875,17.0218342 14.161485,17.0745528 13.03185,17.1386382 C12.37548,17.1750905 11.722425,17.2197739 11.069175,17.2693568 C10.741965,17.2946382 10.4169,17.3208995 10.09281,17.3565678 C9.99999,17.3655829 9.90912,17.3757739 9.8163,17.3879246 C8.964345,17.9002161 5.696535,19.9619246 3.453255,22.6576281 C5.63316,21.1350603 9.430785,18.847191 14.11995,17.5282462 L14.11995,17.5282462 Z M13.698945,19.4780503 C14.33289,18.8460151 14.98692,18.3245126 15.56451,17.9166784 C13.338585,18.4362211 11.289525,19.1989749 9.49455,20.0289497 C10.662405,19.8392412 12.07674,19.6414975 13.698945,19.4780503 L13.698945,19.4780503 Z M22.242675,16.9020905 C21.792225,16.8950352 21.34119,16.8909196 20.89074,16.8899397 L20.889765,16.8899397 C20.228715,16.8909196 19.5663,16.8979749 18.90291,16.9113015 L17.680455,17.4935578 C17.67948,17.4945377 17.67246,17.4976734 17.663295,17.5029648 C17.479605,17.5931156 15.874365,18.4070201 14.36409,19.8588392 C15.717975,19.1435126 17.70756,18.2090804 20.048925,17.4845427 C20.75034,17.2685729 21.485295,17.0694573 22.242675,16.9020905 L22.242675,16.9020905 Z M21.498555,20.5841608 C21.85482,20.367995 22.197045,20.1204724 22.52211,19.8566834 C22.056645,19.8486482 21.584355,19.8425729 21.1029,19.8425729 C19.126185,19.8425729 17.27973,19.9239045 15.606045,20.0505075 C13.927095,20.8753869 12.90042,21.5540653 12.876435,21.5713116 L11.264175,22.6519447 L12.37158,21.0549045 C12.554295,20.7897437 12.748125,20.5383015 12.948,20.2990101 C11.08848,20.5079246 9.539985,20.7554472 8.38305,20.9696533 L8.97546,25.7970302 L11.013795,27.231799 L17.484675,25.7858593 L18.696015,21.7753266 C18.716295,21.7092814 18.76056,21.6536231 18.81828,21.6199146 C18.83739,21.6075678 18.857475,21.5985528 18.879705,21.5924774 C18.917145,21.5822864 19.564155,21.3966935 20.310225,21.3053668 L21.498555,20.5841608 L21.498555,20.5841608 Z M22.152585,35.9944523 C22.358505,35.9781859 22.5654,35.9517286 22.773465,35.9203719 C22.50378,35.6385528 22.265685,35.3765276 22.077705,35.1644774 C21.98586,35.3765276 21.863985,35.655407 21.703305,36.0148342 L21.75069,36.0148342 C21.879,36.0150302 22.0194,36.0009196 22.152585,35.9944523 L22.152585,35.9944523 Z M25.545585,37.4566583 C24.6675,37.391593 23.868975,37.0245226 23.2245,36.3832764 C23.191155,36.3489799 23.15898,36.3160553 23.12661,36.2829347 C22.815,36.3458442 22.49871,36.3924874 22.174815,36.4209045 C22.038705,36.426 21.90942,36.4379548 21.76707,36.4379548 L21.555885,36.4401106 L21.47535,36.4379548 C20.61813,37.7194673 18.714345,37.9691457 18.627375,37.9803166 C18.54879,37.9893317 18.484245,38.0005025 18.39513,38.0167688 C19.45632,38.3089749 20.53935,38.4357739 21.60756,38.3636533 C22.6785,38.2917286 24.069825,38.0583166 25.545585,37.4566583 L25.545585,37.4566583 Z M24.84612,17.4500503 C24.919635,17.3577437 24.988275,17.2685729 25.0497,17.1874372 C24.409905,17.2523065 23.77986,17.3457889 23.16405,17.4633769 C21.05532,17.8600402 19.107855,18.5195126 17.4876,19.1952513 C18.635565,19.139397 19.84281,19.1060804 21.1029,19.1060804 C21.86496,19.1060804 22.60596,19.1192111 23.32668,19.1405729 C23.946585,18.5416583 24.469575,17.9290251 24.84612,17.4500503 L24.84612,17.4500503 Z M30.67194,17.2685729 C30.66999,17.267397 30.66804,17.2662211 30.665895,17.2662211 C30.027855,17.218598 29.39001,17.1748945 28.749825,17.1386382 C27.8616,17.0876834 26.972985,17.0451558 26.08476,17.0077236 C26.033085,17.0849397 25.92837,17.2370201 25.77783,17.4437789 C25.294425,18.1012915 24.33522,19.3075477 23.10555,20.3303668 C24.84612,20.016799 27.865305,19.2407186 30.477135,17.4092864 C30.542655,17.3626432 30.607395,17.3140402 30.67194,17.2685729 L30.67194,17.2685729 Z M33.60357,27.3797638 L33.32979,27.5724121 L32.592885,28.0919548 L31.79436,28.6540251 C31.739955,28.6916533 31.673265,28.7088995 31.60833,28.7016482 L23.66286,27.7936734 L23.08449,27.7276281 C22.977435,27.7152814 22.88754,27.6402211 22.856145,27.5361558 L21.61263,23.4209698 C21.40476,23.3925528 21.2199,23.3780503 21.06468,23.3780503 C20.906925,23.3780503 20.723235,23.3923568 20.515365,23.4209698 L19.307925,27.417392 C19.27965,27.5106784 19.203015,27.5818191 19.10805,27.6027889 L10.638225,29.4983065 C10.61814,29.5022261 10.598055,29.5041859 10.57875,29.5041859 C10.524345,29.5041859 10.469745,29.4879196 10.42314,29.454603 L10.11543,29.2394171 L9.19386,28.5913116 L9.19386,28.5891558 L8.82141,28.3275226 C8.847735,28.411794 8.877765,28.4941055 8.907405,28.5760251 L8.906235,28.577201 C8.977995,28.7912111 9.691695,30.8548794 11.1423,32.8748442 C12.695865,32.4142915 14.03961,31.9860754 14.468415,31.8490854 C15.343575,30.4934925 16.58943,29.1490704 17.474925,29.1026231 C17.62722,29.0953719 17.78595,29.0906683 17.943315,29.0906683 C18.37641,29.0906683 18.790395,29.1220251 19.173765,29.1676884 C18.84792,28.8703869 18.78123,28.5213467 18.733845,28.3671106 C18.733845,28.3671106 19.86348,29.2548995 21.301995,29.0695025 C22.740705,28.8827337 23.634,28.0496231 23.634,28.0496231 C23.634,28.0496231 23.629905,28.6575528 23.00298,29.1281005 C24.20847,28.7618141 24.707085,28.635995 25.048335,28.635995 C25.42488,28.635995 25.61052,28.7943467 25.77315,28.9336884 C25.804545,28.9589698 25.835745,28.9862111 25.872015,29.015804 C26.79885,29.7491608 27.913275,30.6391055 28.23951,30.8999548 C28.61703,30.9444422 29.814135,31.0814322 30.568395,31.151397 C31.00344,31.1907889 31.39617,31.2243015 31.78071,31.2243015 C31.904925,31.2243015 32.021145,31.219206 32.131125,31.2119548 C32.629935,30.2555729 33.07824,29.171608 33.458685,27.9483015 C33.50958,27.7601608 33.559305,27.5704523 33.60357,27.3797638 L33.60357,27.3797638 Z M33.154485,25.0583819 L33.737925,20.952995 C32.09232,20.6519698 29.685825,20.2878392 26.73801,20.0605025 C24.076845,20.9829799 21.847995,21.2575477 21.71364,21.2667588 L21.558225,21.2779296 C22.40706,21.3512261 23.206755,21.5805226 23.246925,21.5924774 C23.335065,21.6189347 23.403705,21.6867437 23.431005,21.7753266 L24.637275,25.7666533 L31.099185,26.5043216 L33.154485,25.0583819 L33.154485,25.0583819 Z M34.728135,25.9228492 L35.38821,21.2828291 C35.09454,21.2189397 34.719165,21.1399598 34.270665,21.0537286 L33.67416,25.2520101 C33.663045,25.3260905 33.622485,25.3940955 33.562035,25.4368191 L31.324995,27.0091658 C31.272345,27.046794 31.204875,27.0640402 31.14033,27.0567889 L24.39879,26.2867839 C24.29076,26.2744372 24.200865,26.1993769 24.16947,26.0960955 L22.955205,22.0785075 C22.629945,21.9940402 21.79515,21.7982563 21.064485,21.7982563 C20.330505,21.7982563 19.49649,21.9940402 19.171425,22.0785075 L17.956965,26.0960955 C17.93571,26.1658643 17.887155,26.2240704 17.823975,26.257191 C17.803695,26.2683618 17.78049,26.276397 17.75709,26.2816884 L11.01555,27.7891658 C10.994295,27.7934774 10.97616,27.7956332 10.95588,27.7956332 C10.901475,27.7956332 10.846875,27.7793668 10.80144,27.7466382 L8.565375,26.1731156 C8.50278,26.1294121 8.461245,26.0604271 8.4513,25.983407 L7.848555,21.069799 C7.598175,21.118598 7.37217,21.1652412 7.17015,21.2075729 C7.02702,21.2869447 6.88545,21.3661206 6.74622,21.4452965 L7.386015,26.6520905 L10.635885,28.9401558 L18.83505,27.1069598 L20.045415,23.0993668 C20.075835,22.9986332 20.15949,22.9245528 20.261475,22.9082864 C20.568405,22.8587035 20.836725,22.8334221 21.064095,22.8334221 C21.28893,22.8334221 21.558615,22.8587035 21.86457,22.9082864 C21.96753,22.9245528 22.051185,22.9986332 22.08063,23.0993668 L23.322,27.2063216 L31.56699,28.148593 L34.728135,25.9228492 L34.728135,25.9228492 Z M35.640735,20.5849447 L36.22125,18.3723317 C35.37924,18.1806633 33.8286,17.8598442 31.71675,17.559407 C30.6384,18.3386231 29.45826,18.9616432 28.2984,19.4586482 C31.847205,19.8057286 34.45455,20.3221357 35.640735,20.5849447 L35.640735,20.5849447 Z M36.64713,24.043598 C36.73605,23.0535075 36.65844,22.8404774 36.558405,22.7591457 C36.45837,22.6748744 36.12024,22.4824221 35.79108,22.3027085 L35.249175,26.1172613 C35.239035,26.1913417 35.1975,26.2585628 35.136075,26.3018744 L34.36056,26.8468945 C34.299135,27.1590905 34.276905,27.3064673 34.201245,27.611804 C34.64448,27.7152814 35.37105,27.7956332 35.71737,27.7284121 C36.03171,27.3858392 36.5391,25.2571055 36.64713,24.043598 L36.64713,24.043598 Z M38.986155,14.6304874 C39.014625,15.2015729 38.999415,15.7736382 38.935845,16.3419799 C38.87637,16.9091457 38.769315,17.4712161 38.62014,18.0283869 C38.54214,18.3055025 38.45244,18.5792864 38.34636,18.8511106 C38.292735,18.9869246 38.235405,19.1221508 38.17281,19.2569849 C38.141415,19.3238141 38.108265,19.3898593 38.070825,19.4578643 L38.015445,19.558206 C37.995165,19.5946583 37.97898,19.6220955 37.947585,19.6706985 L37.890255,19.7602613 L37.80036,19.8067085 C37.70442,19.8564874 37.625835,19.8939196 37.53867,19.9346834 L37.28556,20.0493317 C37.115715,20.1222362 36.945285,20.1912211 36.77466,20.2580503 C36.655515,20.3048894 36.55041,20.3476131 36.45057,20.3901407 L36.16899,21.4654824 C36.16197,21.4637186 36.077145,21.4419648 35.918805,21.4037487 L35.903595,21.5162412 C36.214425,21.6794925 36.825165,22.0105025 37.03323,22.1831608 C37.45209,22.5310251 37.481535,23.0821206 37.388715,24.111799 C37.341135,24.6403568 37.16661,25.6690553 36.92442,26.6138744 C36.50634,28.2401156 36.284235,28.431196 35.997585,28.5048844 C35.852115,28.5425126 35.628255,28.5799447 35.411025,28.5799447 C34.969155,28.5799447 34.36719,28.5922915 33.96237,28.4939095 C33.858435,28.8639196 33.561645,29.8289246 32.97411,31.034201 C33.003555,31.0198945 33.03261,31.0077437 33.058935,30.9936332 C33.78375,30.6110804 35.17683,30.001191 35.235525,29.9747337 L36.33591,29.494191 L35.77236,30.5593417 C35.759295,30.5824673 34.55088,32.8666131 33.810855,34.3580201 C33.0759,35.8353166 31.69803,36.1569196 30.87318,36.3474121 C30.748965,36.377005 30.631185,36.4044422 30.535245,36.4307035 C29.94342,36.5980704 28.745145,36.8851809 27.68844,37.1407387 C27.67596,37.1438744 27.66309,37.147206 27.650025,37.1489698 C26.9997,37.5528844 26.290095,37.9130955 25.5138,38.2094171 C22.67304,39.2908342 19.678815,39.2300804 16.96422,38.2274472 C16.523325,38.2844774 15.94359,38.3542462 15.171585,38.4424372 C14.836185,38.4800653 14.510145,38.4994673 14.19951,38.4994673 C11.61303,38.4994673 10.24218,37.1793467 9.241635,35.8868593 C8.1705,34.5028492 6.860295,32.448196 6.80472,32.3621608 L6.045,31.171191 L7.329075,31.7514874 C7.943715,32.0295829 9.771255,32.8797437 10.29405,33.1233467 C10.336365,33.111392 10.3779,33.0990452 10.41924,33.0868945 C9.550125,31.8410503 8.8374,30.4205879 8.333715,28.8470653 C7.90569,28.976804 7.246395,29.0773417 6.733545,29.0773417 C6.54615,29.0773417 6.378255,29.0632312 6.249165,29.0326583 C5.96232,28.966809 5.635305,28.6889095 5.19012,27.1130352 C4.931745,26.198201 4.73889,25.1994874 4.682535,24.6854322 C4.571385,23.6818191 4.591665,23.1442462 5.006625,22.7969698 C5.25681,22.5870754 6.10077,22.1416131 6.27549,22.0504824 L6.23805,21.7408342 C3.5568,23.3243518 1.949805,24.7236482 1.917435,24.7522613 L0,26.4433719 L1.365975,24.2783819 C2.447055,22.5625779 3.695835,21.1756281 4.844775,20.1071457 C4.797195,20.0879397 4.75293,20.0687337 4.706325,20.0495276 L4.45302,19.9348794 C4.366245,19.8941156 4.287465,19.8566834 4.19172,19.8069045 L4.101825,19.7604573 L4.0443,19.6708945 C4.01193,19.6220955 3.99789,19.5948543 3.976635,19.558402 L3.920085,19.4580603 C3.88479,19.3900553 3.850275,19.3240101 3.819075,19.2571809 C3.75531,19.1221508 3.69798,18.9871206 3.645525,18.8513065 C3.539445,18.5794824 3.44955,18.3056985 3.371745,18.0285829 C3.2214,17.4714121 3.11532,16.9095377 3.055845,16.3421759 C2.99325,15.7738342 2.977065,15.2017688 3.00534,14.6306834 C3.02055,14.3455327 3.04785,14.0605779 3.087045,13.7773869 C3.107325,13.6353015 3.12858,13.4932161 3.156855,13.3521106 C3.186105,13.2082613 3.214575,13.0742111 3.257865,12.9168392 L3.28809,12.8063065 L3.36687,12.7441809 C3.8142,12.3910251 4.29663,12.1242965 4.78725,11.8879447 C5.191095,11.6972563 5.602935,11.5287136 6.017895,11.3752613 C7.17678,8.14296482 9.169485,5.27675879 11.78814,3.27913568 C14.495715,1.21448744 17.67948,0.122879397 20.995845,0.122879397 C24.31221,0.122879397 27.495975,1.21448744 30.203355,3.27933166 C32.822205,5.27695477 34.81491,8.14335678 35.973015,11.3746734 C36.38895,11.5289095 36.799815,11.6962764 37.204635,11.8881407 C37.69506,12.1244925 38.177685,12.3912211 38.62482,12.7443769 L38.7036,12.8065025 L38.73402,12.9170352 C38.778285,13.074407 38.80656,13.2084573 38.834835,13.3523065 C38.863305,13.4934121 38.885535,13.6354975 38.90445,13.7775829 C38.944035,14.0603819 38.97231,14.3453367 38.986155,14.6304874 L38.986155,14.6304874 Z M7.897305,11.0409196 C7.406685,11.2396432 6.919185,11.4446382 6.442605,11.6698191 C5.96505,11.8891206 5.495685,12.1244925 5.04738,12.3871055 C4.633785,12.626593 4.236765,12.889402 3.88635,13.1859196 C3.871335,13.2750905 3.857295,13.3724925 3.845205,13.464799 C3.829995,13.5955176 3.814785,13.7266281 3.804645,13.8585226 C3.78144,14.1223116 3.772275,14.3882563 3.769545,14.654005 C3.764475,15.1856985 3.800745,15.717392 3.867435,16.243794 C3.939975,16.7713719 4.035915,17.2960101 4.178265,17.8022261 C4.24905,18.0560201 4.32783,18.3064824 4.42065,18.5477337 C4.466085,18.6698291 4.51659,18.788397 4.56924,18.9040251 C4.59537,18.9616432 4.62267,19.0186734 4.649775,19.0733518 L4.683315,19.1372412 C4.72251,19.1576231 4.76307,19.177809 4.80129,19.1960352 L5.03646,19.3085276 C5.167695,19.3694774 5.34846,19.4557085 5.49783,19.5227337 C5.5068,19.5154824 5.51499,19.5074472 5.52201,19.500392 L5.086965,17.832407 C5.17881,17.8071256 6.00678,17.5919397 7.433205,17.3191357 C7.318155,17.2977739 7.20096,17.2724925 7.08708,17.2448593 C6.76299,17.1639196 6.441825,17.0643618 6.13197,16.9385427 C5.978505,16.8726935 5.826015,16.8015528 5.681715,16.7192412 C5.53722,16.6359497 5.39487,16.5418794 5.28489,16.4160603 C6.851715,16.9303116 10.089105,16.6968995 12.9675,16.3988141 C15.600195,16.1258141 18.23796,15.9494322 20.88996,15.9431608 C23.54196,15.9492362 26.18187,16.1256181 28.81281,16.3988141 C31.69296,16.6970955 34.93074,16.9305075 36.49698,16.4160603 C36.387,16.5418794 36.244845,16.6359497 36.10035,16.7192412 C35.956245,16.8015528 35.80356,16.8724975 35.650095,16.9385427 C35.33907,17.0643618 35.019075,17.1637236 34.69401,17.2448593 C34.64643,17.2558342 34.59807,17.267201 34.549515,17.277392 C36.113415,17.5686181 37.02387,17.8059497 37.120785,17.832407 L36.703875,19.4212161 C36.787725,19.3835879 36.872355,19.3473317 36.955035,19.3087236 L37.1904,19.1962312 C37.22862,19.177809 37.26918,19.1578191 37.30857,19.1374372 L37.34094,19.0735477 C37.36902,19.0188693 37.39632,18.9618392 37.422645,18.9042211 C37.475295,18.788397 37.525605,18.6698291 37.57221,18.5479296 C37.664055,18.3066784 37.743615,18.0560201 37.81323,17.8024221 C37.955775,17.296206 38.05269,16.7715678 38.124255,16.2439899 C38.191725,15.7175879 38.227215,15.1856985 38.222145,14.654201 C38.220195,14.3884523 38.210055,14.1225075 38.187825,13.8587186 C38.17671,13.7268241 38.162475,13.5959095 38.14629,13.464995 C38.135175,13.3726884 38.119965,13.2752864 38.104755,13.1861156 C37.75434,12.889598 37.35771,12.6269849 36.943725,12.3873015 C36.49542,12.1246884 36.026445,11.8893166 35.54772,11.6700151 C35.07231,11.4448342 34.583835,11.2398392 34.09302,11.0411156 C33.847515,10.9415578 33.600255,10.8441558 33.351825,10.7518492 C33.10476,10.6556231 32.854185,10.5644925 32.604,10.4729698 C33.12972,10.5601809 33.650955,10.6807085 34.166535,10.8137789 C34.502715,10.9011859 34.838115,10.9995678 35.16903,11.1040251 C32.80758,4.89969347 27.16038,0.859763819 20.995455,0.859763819 C14.829165,0.859763819 9.183135,4.89969347 6.822075,11.1040251 C7.153965,10.9995678 7.488195,10.9011859 7.8234,10.8137789 C8.340345,10.6809045 8.86119,10.5601809 9.3873,10.4729698 C9.13575,10.5642965 8.88654,10.6554271 8.63811,10.7518492 C8.39085,10.8439598 8.143785,10.9413618 7.897305,11.0409196 L7.897305,11.0409196 Z M21.96207,33.735196 L22.2729,34.1073618 C22.27992,34.1163769 22.970415,34.9422362 23.81457,35.7833819 C24.375975,36.3425126 25.054185,36.6255075 25.831455,36.6255075 C26.09685,36.6255075 26.3757,36.5912111 26.65728,36.5230101 C26.91858,36.4591206 27.2025,36.3911156 27.493245,36.3211508 C28.543125,36.0689246 29.732235,35.782402 30.308655,35.6201307 C30.42273,35.587598 30.550065,35.558397 30.68403,35.5276281 C31.451355,35.3494824 32.503185,35.1037236 33.060495,33.9815427 C33.47955,33.1394171 34.04466,32.0464372 34.46391,31.2454673 C34.100625,31.4138141 33.71979,31.5962714 33.449325,31.7393367 C33.032415,31.9594221 32.486415,32.0660352 31.780515,32.0660352 C31.360875,32.0660352 30.948645,32.0305628 30.49254,31.989799 C29.580915,31.9055276 28.03827,31.7230704 28.022475,31.7209146 L27.904305,31.7077839 L27.811095,31.6327236 C27.79725,31.6225327 26.44551,30.5401357 25.352925,29.6766482 C25.30866,29.640196 25.268295,29.6064874 25.23183,29.5761106 C25.11678,29.4775327 25.11678,29.4775327 25.04814,29.4775327 C24.697725,29.4775327 23.67924,29.7950201 21.44805,30.4901608 L21.310965,30.5338643 L21.17661,30.4829095 C21.1614,30.4778141 19.697535,29.932206 17.943315,29.932206 C17.799795,29.932206 17.656665,29.9359296 17.51724,29.9431809 C17.341545,29.952196 16.35543,30.4229397 15.094365,32.428206 L15.01266,32.5569648 L14.868165,32.603608 C14.8473,32.6108593 12.676755,33.3150151 10.374975,33.9764472 L10.225605,34.0191709 L10.08423,33.9531256 C10.069215,33.9470503 9.16851,33.5270653 8.311485,33.1311859 C8.7789,33.8251508 9.376575,34.690794 9.90249,35.3696683 C10.821135,36.5586784 11.979045,37.6575377 14.19912,37.6575377 C14.47758,37.6575377 14.773395,37.6402915 15.077205,37.605603 C17.3355,37.3490653 17.91699,37.2455879 18.229965,37.1907136 C18.33585,37.1726834 18.4197,37.157201 18.526755,37.1440704 C18.543915,37.1419146 20.3931,36.9016432 20.911995,35.7318392 C21.447075,34.5296985 21.555105,34.2433719 21.5592,34.232397 L21.74796,33.7261809 L21.696675,33.6781658 C21.734115,33.637598 21.77136,33.5950704 21.809775,33.5543065 C21.809775,33.5552864 21.809775,33.5552864 21.81075,33.5552864 L21.814455,33.5584221 C21.874125,33.6011457 21.9336,33.6466131 21.993075,33.6924724 L21.96207,33.735196 L21.96207,33.735196 Z" id="Fill-40" fill="#3E3F3C" mask="url(#mask-2)"></path>
                            </g>
                            <polyline id="Fill-42" fill="#61625F" points="24.504675 6.46831658 24.504675 4.54967337 17.635995 4.54967337 17.635995 6.46831658 18.575115 6.46831658 18.575115 5.49351256 20.518095 5.49351256 20.518095 11.417005 19.718595 11.417005 19.718595 12.5156683 22.42227 12.5156683 22.42227 11.417005 21.622575 11.417005 21.622575 5.49351256 23.565555 5.49351256 23.565555 6.46831658 24.504675 6.46831658"></polyline>
                        </g>
                    </g>
                    <g id="TravisCI-Full-Color" transform="translate(47.745530, 8.859841)" fill="#A7A7AA">
                        <polyline id="Fill-45" points="6.2478412 4.99492874 0.403537186 4.99492874 0.403537186 1.94573105 15.6479014 1.94573105 15.6479014 4.99492874 9.8347358 4.99492874 9.8347358 22.2959421 6.2478412 22.2959421 6.2478412 4.99492874"></polyline>
                        <path d="M15.3268022,7.01761668 L18.2645234,7.01761668 L18.5116378,9.72464446 L18.6354441,9.72464446 C19.7178149,7.73329075 21.3255527,6.6443632 22.9337888,6.6443632 C23.7067685,6.6443632 24.2012462,6.7376139 24.6653329,6.95544955 L24.0467998,10.0668144 C23.5209345,9.91139653 23.1191246,9.81814583 22.4697021,9.81814583 C21.2637741,9.81814583 19.8104827,10.6584048 18.8828075,12.9608449 L18.8828075,22.2959421 L15.3268022,22.2959421 L15.3268022,7.01761668" id="Fill-46"></path>
                        <path d="M31.0658934,19.8686664 C32.3027106,19.8686664 33.2615242,19.2464937 34.3745352,18.1886497 L34.3745352,14.7656972 C30.2620244,15.2948699 28.9014009,16.3837974 28.9014009,17.9083963 C28.9014009,19.2775773 29.7979377,19.8686664 31.0658934,19.8686664 L31.0658934,19.8686664 L31.0658934,19.8686664 Z M34.3745352,12.5251736 C34.3436459,10.9073241 33.6633342,9.53814305 31.6226479,9.53814305 C30.1073288,9.53814305 28.6849267,10.2224829 27.3551925,11.0316583 L26.0565967,8.6357169 C27.7263623,7.57762224 29.8599654,6.6443632 32.2718213,6.6443632 C36.0754392,6.6443632 37.9307896,8.97788682 37.9307896,13.2408477 L37.9307896,22.2959421 L35.0239576,22.2959421 L34.7457049,20.615424 L34.6530371,20.615424 C33.2924135,21.7670201 31.7462051,22.6691955 29.9528824,22.6691955 C27.2934139,22.6691955 25.4380635,20.8645939 25.4380635,18.1886497 C25.4380635,14.9213657 28.1593106,13.2097641 34.3745352,12.5251736 L34.3745352,12.5251736 L34.3745352,12.5251736 Z" id="Fill-47"></path>
                        <path d="M38.9481434,7.01761668 L42.5661764,7.01761668 L44.9780323,14.9524493 C45.3798422,16.4459646 45.8439289,18.001647 46.2459879,19.5578307 L46.3695451,19.5578307 C46.8022443,18.001647 47.2354418,16.4459646 47.66839,14.9524493 L50.0799969,7.01761668 L53.512445,7.01761668 L48.3487018,22.2959421 L44.2359419,22.2959421 L38.9481434,7.01761668" id="Fill-48"></path>
                        <path d="M55.2474766,22.2959421 L58.8034819,22.2959421 L58.8034819,7.01761668 L55.2474766,7.01761668 L55.2474766,22.2959421 L55.2474766,22.2959421 Z M54.8454176,2.31898453 C54.8454176,1.10547203 55.7728437,0.265213018 57.0407994,0.265213018 C58.308755,0.265213018 59.2361811,1.10547203 59.2361811,2.31898453 C59.2361811,3.50141346 58.308755,4.34167247 57.0407994,4.34167247 C55.7728437,4.34167247 54.8454176,3.50141346 54.8454176,2.31898453 L54.8454176,2.31898453 L54.8454176,2.31898453 Z" id="Fill-49"></path>
                        <path d="M62.5109444,18.2508169 C63.8715682,19.3086608 65.1704129,19.9621678 66.716372,19.9621678 C68.3554975,19.9621678 69.1284773,19.1843266 69.1284773,18.1264826 C69.1284773,16.8505523 67.4893519,16.2905467 65.8816137,15.6681233 C63.8715682,14.9213657 61.6144075,13.7700203 61.6144075,11.2186611 C61.6144075,8.54221553 63.7480107,6.6443632 67.1493207,6.6443632 C69.2520342,6.6443632 70.9526892,7.51545511 72.1895066,8.48004839 L70.5508789,10.6584048 C69.499398,9.88031297 68.4172759,9.3511403 67.211348,9.3511403 C65.6960289,9.3511403 64.9845786,10.0668144 64.9845786,11.0316583 C64.9845786,12.2140873 66.5001472,12.7121764 68.1387742,13.3030148 C70.2105988,14.0811067 72.4988978,15.0767835 72.4988978,17.9394798 C72.4988978,20.5532569 70.4268236,22.6691955 66.5928152,22.6691955 C64.5209905,22.6691955 62.3256085,21.7670201 60.8414279,20.5532569 L62.5109444,18.2508169" id="Fill-50"></path>
                        <path d="M89.9391418,1.57222689 C92.412776,1.57222689 94.4225733,2.78573939 95.6905285,4.1549204 L93.7113719,6.39519331 C92.6598903,5.36843289 91.5159904,4.71492596 89.9700313,4.71492596 C86.6613893,4.71492596 84.2801735,7.51545511 84.2801735,12.089753 C84.2801735,16.726218 86.475555,19.5264965 89.8459754,19.5264965 C91.6395472,19.5264965 92.9692815,18.7794882 94.113431,17.5040592 L96.0925877,19.7132486 C94.4534622,21.6113516 92.3507487,22.6691955 89.784197,22.6691955 C84.6513431,22.6691955 80.6006108,18.9354074 80.6006108,12.1830037 C80.6006108,5.5241014 84.7440111,1.57222689 89.9391418,1.57222689" id="Fill-51"></path>
                        <polygon id="Fill-52" points="98.2852292 22.2959421 101.872124 22.2959421 101.872124 1.94573105 98.2852292 1.94573105"></polygon>
                    </g>
                </g>
            </g>
        </g>
    </g>
</svg>