<?xml version="1.0" encoding="UTF-8" standalone="no"?>
<svg width="257px" height="80px" viewBox="0 0 257 80" version="1.1" xmlns="http://www.w3.org/2000/svg" xmlns:xlink="http://www.w3.org/1999/xlink">
    <!-- Generator: Sketch 3.6.1 (26313) - http://www.bohemiancoding.com/sketch -->
    <title>travis_logo</title>
    <desc>Created with Sketch.</desc>
    <defs>
        <path id="path-1" d="M79.9998244,79.9758794 L0.024,79.9758794 L0.024,0.252060302 L40.0119122,0.252060302 L79.9998244,0.252060302 L79.9998244,79.9758794 L79.9998244,79.9758794 L79.9998244,79.9758794 Z"></path>
        <path id="path-3" d="M79.9998244,79.9758794 L0.024,79.9758794 L0.024,0.252060302 L40.0119122,0.252060302 L79.9998244,0.252060302 L79.9998244,79.9758794 L79.9998244,79.9758794 L79.9998244,79.9758794 Z"></path>
        <path id="path-5" d="M79.9998244,79.9758794 L0.024,79.9758794 L0.024,0.252060302 L40.0119122,0.252060302 L79.9998244,0.252060302 L79.9998244,79.9758794 L79.9998244,79.9758794 L79.9998244,79.9758794 Z"></path>
    </defs>
    <g id="Page-1" stroke="none" stroke-width="1" fill="none" fill-rule="evenodd">
        <g id="travis_logo">
            <g id="Page-1">
                <g id="Travis-grey">
                    <g id="Group">
                        <g id="TravisCI-Full-Color" transform="translate(93.200000, 22.000000)" fill="#525252">
                            <path d="M10.0401869,7.9704 L0.648478193,7.9704 L0.648478193,3.1048 L25.1459424,3.1048 L25.1459424,7.9704 L15.8042726,7.9704 L15.8042726,35.5776 L10.0401869,35.5776 L10.0401869,7.9704" id="Fill-45"></path>
                            <path d="M24.6299408,11.198 L29.3508146,11.198 L29.7479237,15.5176 L29.9468785,15.5176 C31.6862321,12.34 34.2698427,10.6024 36.8542539,10.6024 C38.0964206,10.6024 38.8910389,10.7512 39.6368193,11.0988 L38.6428458,16.0636 C37.7977882,15.8156 37.1520857,15.6668 36.1084735,15.6668 C34.1705654,15.6668 31.835148,17.0076 30.3443879,20.6816 L30.3443879,35.5776 L24.6299408,35.5776 L24.6299408,11.198" id="Fill-46"></path>
                            <path d="M49.9224237,31.7044 C51.9099704,31.7044 53.4507695,30.7116 55.2393614,29.0236 L55.2393614,23.5616 C48.6306184,24.406 46.4441168,26.1436 46.4441168,28.5764 C46.4441168,30.7612 47.884838,31.7044 49.9224237,31.7044 L49.9224237,31.7044 L49.9224237,31.7044 Z M55.2393614,19.9864 C55.1897227,17.4048 54.096472,15.22 50.8171199,15.22 C48.3820249,15.22 46.0962461,16.312 43.9593832,17.6032 L41.8725592,13.78 C44.5558474,12.0916 47.9845156,10.6024 51.8603318,10.6024 C57.9726885,10.6024 60.9542087,14.326 60.9542087,21.1284 L60.9542087,35.5776 L56.2829735,35.5776 L55.8358255,32.896 L55.6869097,32.896 C53.5004081,34.7336 51.0156745,36.1732 48.1338318,36.1732 C43.8601059,36.1732 40.8785857,33.2936 40.8785857,29.0236 C40.8785857,23.81 45.2515888,21.0788 55.2393614,19.9864 L55.2393614,19.9864 L55.2393614,19.9864 Z" id="Fill-47"></path>
                            <path d="M62.589081,11.198 L68.4032056,11.198 L72.2790218,23.8596 C72.9247243,26.2428 73.6705047,28.7252 74.3166075,31.2084 L74.515162,31.2084 C75.2105031,28.7252 75.9066449,26.2428 76.6023863,23.8596 L80.4778022,11.198 L85.9936947,11.198 L77.6956371,35.5776 L71.0864938,35.5776 L62.589081,11.198" id="Fill-48"></path>
                            <path d="M88.7818645,35.5776 L94.4963115,35.5776 L94.4963115,11.198 L88.7818645,11.198 L88.7818645,35.5776 L88.7818645,35.5776 Z M88.1357617,3.7004 C88.1357617,1.764 89.6261215,0.4232 91.6637072,0.4232 C93.7012928,0.4232 95.1916526,1.764 95.1916526,3.7004 C95.1916526,5.5872 93.7012928,6.928 91.6637072,6.928 C89.6261215,6.928 88.1357617,5.5872 88.1357617,3.7004 L88.1357617,3.7004 L88.1357617,3.7004 Z" id="Fill-49"></path>
                            <path d="M100.454148,29.1228 C102.64065,30.8108 104.727874,31.8536 107.212207,31.8536 C109.846257,31.8536 111.088424,30.6124 111.088424,28.9244 C111.088424,26.8884 108.454374,25.9948 105.870763,25.0016 C102.64065,23.81 99.0134268,21.9728 99.0134268,17.9016 C99.0134268,13.6308 102.442095,10.6024 107.907949,10.6024 C111.286978,10.6024 114.019905,11.9924 116.007452,13.5316 L113.374202,17.0076 C111.684488,15.766 109.945534,14.9216 108.007626,14.9216 C105.572531,14.9216 104.429241,16.0636 104.429241,17.6032 C104.429241,19.49 106.864737,20.2848 109.497986,21.2276 C112.827377,22.4692 116.504639,24.058 116.504639,28.626 C116.504639,32.7968 113.174847,36.1732 107.013653,36.1732 C103.684262,36.1732 100.156316,34.7336 97.7712601,32.7968 L100.454148,29.1228" id="Fill-50"></path>
                            <path d="M144.530849,2.5088 C148.505942,2.5088 151.735656,4.4452 153.773241,6.63 L150.592766,10.2048 C148.903051,8.5664 147.064821,7.5236 144.580488,7.5236 C139.26355,7.5236 135.436972,11.9924 135.436972,19.2916 C135.436972,26.69 138.964917,31.1584 144.381132,31.1584 C147.263375,31.1584 149.400238,29.9664 151.238869,27.9312 L154.419344,31.4564 C151.785294,34.4852 148.406265,36.1732 144.281855,36.1732 C136.033436,36.1732 129.52397,30.2152 129.52397,19.4404 C129.52397,8.8148 136.182352,2.5088 144.530849,2.5088" id="Fill-51"></path>
                            <path d="M157.942886,35.5776 L163.706972,35.5776 L163.706972,3.1048 L157.942886,3.1048 L157.942886,35.5776 L157.942886,35.5776 Z" id="Fill-52"></path>
                        </g>
                        <g id="TravisCI-Mascot-grey">
                            <g id="Group-41">
                                <g id="mask-2" fill="#FFFFFF">
                                    <path d="M79.9998244,79.9758794 L0.024,79.9758794 L0.024,0.252060302 L40.0119122,0.252060302 L79.9998244,0.252060302 L79.9998244,79.9758794 L79.9998244,79.9758794 L79.9998244,79.9758794 Z" id="path-1"></path>
                                </g>
                                <g id="Fill-37-Clipped">
                                    <mask id="mask-2" fill="white">
                                        <use xlink:href="#path-1"></use>
                                    </mask>
                                    <g id="path-1"></g>
                                    <path d="M75.2364,52.5913568 C75.2364,52.5913568 73.5536,55.9738693 70.8356,54.8028141 L68.894,55.518392 L69.088,56.9499497 L73.1656,57.4697487 L74.266,56.8196985 L75.2364,52.5913568" id="Fill-37" fill="#BDBDB9" mask="url(#mask-2)"></path>
                                </g>
                                <g id="Fill-39-Clipped">
                                    <mask id="mask-4" fill="white">
                                        <use xlink:href="#path-3"></use>
                                    </mask>
                                    <g id="path-1"></g>
                                    <path d="M35.7116,77.801407 C35.7116,77.801407 44.9236,82.4691457 55.354,76.1177889 L52.0044,75.8882412 C52.0044,75.8882412 44.6956,78.7955779 38.9092,77.1887437 L35.7116,77.801407" id="Fill-39" fill="#BDBDB9" mask="url(#mask-4)"></path>
                                </g>
                                <g id="Fill-40-Clipped">
                                    <mask id="mask-6" fill="white">
                                        <use xlink:href="#path-5"></use>
                                    </mask>
                                    <g id="path-1"></g>
                                    <path d="M15.098,37.0958794 C13.932,37.3226131 12.9812,37.5264322 12.2776,37.6868342 L12.6092,38.9439196 C13.5344,38.2026131 14.3816,37.5867337 15.098,37.0958794 L15.098,37.0958794 L15.098,37.0958794 Z M16.624,57.7431156 C16.5368,57.4645226 16.4544,57.1811055 16.3756,56.8980905 L14.3108,55.4460302 C14.18,55.3543719 14.0972,55.2148744 14.0764,55.0564824 L13.07,46.8357789 C12.3244,47.2373869 11.4632,47.7302513 11.2332,47.9240201 C11.0344,48.0884422 10.8832,48.5109548 11.0988,50.4695477 C11.366,52.8856281 12.5836,57.4375879 13.238,58.0992965 C14.0252,58.238794 15.7688,57.9955779 16.624,57.7431156 L16.624,57.7431156 L16.624,57.7431156 Z M28.964,35.9553769 C30.494,35.5244221 32.0724,35.1477387 33.6892,34.8313568 C31.37,34.9165829 29.0492,35.0247236 26.732,35.1561809 C25.3856,35.2309548 24.046,35.3226131 22.706,35.4243216 C22.0348,35.4761809 21.368,35.5300503 20.7032,35.6032161 C20.5128,35.6217085 20.3264,35.6426131 20.136,35.6675377 C18.3884,36.718392 11.6852,40.9475377 7.0836,46.4771859 C11.5552,43.3539698 19.3452,38.6609045 28.964,35.9553769 L28.964,35.9553769 L28.964,35.9553769 Z M28.1004,39.9549749 C29.4008,38.6584925 30.7424,37.5887437 31.9272,36.7521608 C27.3612,37.8178894 23.158,39.3825126 19.476,41.0850251 C21.8716,40.6958794 24.7728,40.2902513 28.1004,39.9549749 L28.1004,39.9549749 L28.1004,39.9549749 Z M45.626,34.6709548 C44.702,34.6564824 43.7768,34.6480402 42.8528,34.6460302 L42.8508,34.6460302 C41.4948,34.6480402 40.136,34.6625126 38.7752,34.6898492 L36.2676,35.8842211 C36.2656,35.8862312 36.2512,35.8926633 36.2324,35.9035176 C35.8556,36.0884422 32.5628,37.7579899 29.4648,40.7360804 C32.242,39.2687437 36.3232,37.3519598 41.126,35.8657286 C42.5648,35.4227136 44.0724,35.0142714 45.626,34.6709548 L45.626,34.6709548 L45.626,34.6709548 Z M44.0996,42.2239196 C44.8304,41.7805025 45.5324,41.2727638 46.1992,40.7316583 C45.2444,40.7151759 44.2756,40.7027136 43.288,40.7027136 C39.2332,40.7027136 35.4456,40.8695477 32.0124,41.1292462 C28.5684,42.8213065 26.4624,44.2134673 26.4132,44.2488442 L23.106,46.4655276 L25.3776,43.1895477 C25.7524,42.6456281 26.15,42.1298492 26.56,41.638995 C22.7456,42.0675377 19.5692,42.5752764 17.196,43.0146734 L18.4112,52.9169849 L22.5924,55.8601005 L35.866,52.8940704 L38.3508,44.6673367 C38.3924,44.5318593 38.4832,44.4176884 38.6016,44.3485427 C38.6408,44.3232161 38.682,44.3047236 38.7276,44.2922613 C38.8044,44.2713568 40.1316,43.8906533 41.662,43.7033166 L44.0996,42.2239196 L44.0996,42.2239196 L44.0996,42.2239196 Z M45.4412,73.8347739 C45.8636,73.801407 46.288,73.7471357 46.7148,73.6828141 C46.1616,73.1047236 45.6732,72.5672362 45.2876,72.1322613 C45.0992,72.5672362 44.8492,73.1392965 44.5196,73.8765829 L44.6168,73.8765829 C44.88,73.8769849 45.168,73.8480402 45.4412,73.8347739 L45.4412,73.8347739 L45.4412,73.8347739 Z M52.4012,76.8341709 C50.6,76.7007035 48.962,75.9477387 47.64,74.6323618 C47.5716,74.5620101 47.5056,74.4944724 47.4392,74.4265327 C46.8,74.5555779 46.1512,74.6512563 45.4868,74.7095477 C45.2076,74.72 44.9424,74.7445226 44.6504,74.7445226 L44.2172,74.7489447 L44.052,74.7445226 C42.2936,77.3732663 38.3884,77.8854271 38.21,77.9083417 C38.0488,77.9268342 37.9164,77.9497487 37.7336,77.9831156 C39.9104,78.5825126 42.132,78.8426131 44.3232,78.6946734 C46.52,78.5471357 49.374,78.0683417 52.4012,76.8341709 L52.4012,76.8341709 L52.4012,76.8341709 Z M50.9664,35.7949749 C51.1172,35.6056281 51.258,35.4227136 51.384,35.2562814 C50.0716,35.3893467 48.7792,35.5811055 47.516,35.8223116 C43.1904,36.6359799 39.1956,37.9887437 35.872,39.3748744 C38.2268,39.2603015 40.7032,39.1919598 43.288,39.1919598 C44.8512,39.1919598 46.3712,39.2188945 47.8496,39.2627136 C49.1212,38.0341709 50.194,36.7774874 50.9664,35.7949749 L50.9664,35.7949749 L50.9664,35.7949749 Z M62.9168,35.4227136 C62.9128,35.4203015 62.9088,35.4178894 62.9044,35.4178894 C61.5956,35.320201 60.2872,35.2305528 58.974,35.1561809 C57.152,35.0516583 55.3292,34.9644221 53.5072,34.8876382 C53.4012,35.0460302 53.1864,35.3579899 52.8776,35.7821106 C51.886,37.1308543 49.9184,39.6052261 47.396,41.7033166 C50.9664,41.0601005 57.1596,39.4681407 62.5172,35.7113568 C62.6516,35.6156784 62.7844,35.5159799 62.9168,35.4227136 L62.9168,35.4227136 L62.9168,35.4227136 Z M68.9304,56.1636181 L68.3688,56.558794 L66.8572,57.6245226 L65.2192,58.7774874 C65.1076,58.8546734 64.9708,58.8900503 64.8376,58.8751759 L48.5392,57.0126633 L47.3528,56.8771859 C47.1332,56.8518593 46.9488,56.6978894 46.8844,56.4844221 L44.3336,48.0430151 C43.9072,47.9847236 43.528,47.9549749 43.2096,47.9549749 C42.886,47.9549749 42.5092,47.9843216 42.0828,48.0430151 L39.606,56.240804 C39.548,56.4321608 39.3908,56.5780905 39.196,56.6211055 L21.822,60.5093467 C21.7808,60.5173869 21.7396,60.521407 21.7,60.521407 C21.5884,60.521407 21.4764,60.4880402 21.3808,60.4196985 L20.7496,59.9782915 L18.8592,58.6488442 L18.8592,58.6444221 L18.0952,58.1077387 C18.1492,58.280603 18.2108,58.4494472 18.2716,58.6174874 L18.2692,58.6198995 C18.4164,59.0588945 19.8804,63.2920603 22.856,67.4355779 C26.0428,66.4908543 28.7992,65.6124623 29.6788,65.3314573 C31.474,62.5507538 34.0296,59.7929648 35.846,59.6976884 C36.1584,59.6828141 36.484,59.6731658 36.8068,59.6731658 C37.6952,59.6731658 38.5444,59.7374874 39.3308,59.8311558 C38.6624,59.2213065 38.5256,58.5053266 38.4284,58.1889447 C38.4284,58.1889447 40.7456,60.0100503 43.6964,59.6297487 C46.6476,59.2466332 48.48,57.5376884 48.48,57.5376884 C48.48,57.5376884 48.4716,58.7847236 47.1856,59.7499497 C49.6584,58.998593 50.6812,58.7405025 51.3812,58.7405025 C52.1536,58.7405025 52.5344,59.0653266 52.868,59.3511558 C52.9324,59.4030151 52.9964,59.4588945 53.0708,59.519598 C54.972,61.0239196 57.258,62.8494472 57.9272,63.3845226 C58.7016,63.4757789 61.1572,63.7567839 62.7044,63.9003015 C63.5968,63.9811055 64.4024,64.0498492 65.1912,64.0498492 C65.446,64.0498492 65.6844,64.039397 65.91,64.0245226 C66.9332,62.0627136 67.8528,59.839196 68.6332,57.3298492 C68.7376,56.9439196 68.8396,56.5547739 68.9304,56.1636181 L68.9304,56.1636181 L68.9304,56.1636181 Z M68.0092,51.401809 L69.206,42.9805025 C65.8304,42.3630151 60.894,41.6160804 54.8472,41.1497487 C49.3884,43.0420101 44.8164,43.6052261 44.5408,43.6241206 L44.222,43.6470352 C45.9632,43.7973869 47.6036,44.2677387 47.686,44.2922613 C47.8668,44.3465327 48.0076,44.4856281 48.0636,44.6673367 L50.538,52.8546734 L63.7932,54.3678392 L68.0092,51.401809 L68.0092,51.401809 L68.0092,51.401809 Z M71.2372,53.1750754 L72.5912,43.6570854 C71.9888,43.5260302 71.2188,43.3640201 70.2988,43.1871357 L69.0752,51.798995 C69.0524,51.9509548 68.9692,52.0904523 68.8452,52.1780905 L64.2564,55.4034171 C64.1484,55.480603 64.01,55.5159799 63.8776,55.5011055 L50.0488,53.921608 C49.8272,53.8962814 49.6428,53.7423116 49.5784,53.5304523 L47.0876,45.2892462 C46.4204,45.1159799 44.708,44.7143719 43.2092,44.7143719 C41.7036,44.7143719 39.9928,45.1159799 39.326,45.2892462 L36.8348,53.5304523 C36.7912,53.6735678 36.6916,53.7929648 36.562,53.8609045 C36.5204,53.8838191 36.4728,53.9003015 36.4248,53.9111558 L22.596,57.0034171 C22.5524,57.0122613 22.5152,57.0166834 22.4736,57.0166834 C22.362,57.0166834 22.25,56.9833166 22.1568,56.9161809 L17.57,53.6884422 C17.4416,53.598794 17.3564,53.4572864 17.336,53.2992965 L16.0996,43.2201005 C15.586,43.320201 15.1224,43.4158794 14.708,43.5027136 C14.4144,43.6655276 14.124,43.8279397 13.8384,43.9903518 L15.1508,54.6709548 L21.8172,59.3644221 L38.636,55.6040201 L41.1188,47.3833166 C41.1812,47.1766834 41.3528,47.0247236 41.562,46.9913568 C42.1916,46.8896482 42.742,46.8377889 43.2084,46.8377889 C43.6696,46.8377889 44.2228,46.8896482 44.8504,46.9913568 C45.0616,47.0247236 45.2332,47.1766834 45.2936,47.3833166 L47.84,55.8078392 L64.7528,57.7407035 L71.2372,53.1750754 L71.2372,53.1750754 L71.2372,53.1750754 Z M73.1092,42.2255276 L74.3,37.6868342 C72.5728,37.2936683 69.392,36.6355779 65.06,36.0192965 C62.848,37.6176884 60.4272,38.8956784 58.048,39.9151759 C65.3276,40.6271357 70.676,41.6864322 73.1092,42.2255276 L73.1092,42.2255276 L73.1092,42.2255276 Z M75.1736,49.320201 C75.356,47.2892462 75.1968,46.8522613 74.9916,46.6854271 C74.7864,46.5125628 74.0928,46.1177889 73.4176,45.7491457 L72.306,53.5738693 C72.2852,53.7258291 72.2,53.8637186 72.074,53.9525628 L70.4832,55.0705528 C70.3572,55.7109548 70.3116,56.0132663 70.1564,56.639598 C71.0656,56.8518593 72.556,57.0166834 73.2664,56.878794 C73.9112,56.1760804 74.952,51.8094472 75.1736,49.320201 L75.1736,49.320201 L75.1736,49.320201 Z M79.9716,30.0112563 C80.03,31.1827136 79.9988,32.3561809 79.8684,33.5220101 C79.7464,34.6854271 79.5268,35.838392 79.2208,36.9813065 C79.0608,37.5497487 78.8768,38.1113568 78.6592,38.6689447 C78.5492,38.9475377 78.4316,39.2249246 78.3032,39.5015075 C78.2388,39.638593 78.1708,39.7740704 78.094,39.9135678 L77.9804,40.119397 C77.9388,40.1941709 77.9056,40.2504523 77.8412,40.3501508 L77.7236,40.5338693 L77.5392,40.6291457 C77.3424,40.7312563 77.1812,40.8080402 77.0024,40.8916583 L76.4832,41.1268342 C76.1348,41.2763819 75.7852,41.4178894 75.4352,41.5549749 C75.1908,41.6510553 74.9752,41.7386935 74.7704,41.8259296 L74.1928,44.0317588 C74.1784,44.0281407 74.0044,43.9835176 73.6796,43.9051256 L73.6484,44.1358794 C74.286,44.4707538 75.5388,45.1497487 75.9656,45.5039196 C76.8248,46.2174874 76.8852,47.3479397 76.6948,49.4601005 C76.5972,50.5443216 76.2392,52.6544724 75.7424,54.5925628 C74.8848,57.9284422 74.4292,58.320402 73.8412,58.4715578 C73.5428,58.5487437 73.0836,58.6255276 72.638,58.6255276 C71.7316,58.6255276 70.4968,58.6508543 69.6664,58.4490452 C69.4532,59.2080402 68.8444,61.1875377 67.6392,63.6598995 C67.6996,63.6305528 67.7592,63.6056281 67.8132,63.5766834 C69.3,62.7919598 72.1576,61.5409045 72.278,61.4866332 L74.5352,60.5009045 L73.3792,62.6858291 C73.3524,62.7332663 70.8736,67.4186935 69.3556,70.4779899 C67.848,73.5083417 65.0216,74.1680402 63.3296,74.558794 C63.0748,74.6194975 62.8332,74.6757789 62.6364,74.7296482 C61.4224,75.0729648 58.9644,75.6619095 56.7968,76.1861307 C56.7712,76.1925628 56.7448,76.199397 56.718,76.2030151 C55.384,77.0315578 53.9284,77.7704523 52.336,78.3782915 C46.5088,80.5965829 40.3668,80.4719598 34.7984,78.4152764 C33.894,78.5322613 32.7048,78.6753769 31.1212,78.8562814 C30.4332,78.9334673 29.7644,78.9732663 29.1272,78.9732663 C23.8216,78.9732663 21.0096,76.2653266 18.9572,73.6140704 C16.76,70.7750754 14.0724,66.560402 13.9584,66.3839196 L12.4,63.9409045 L15.034,65.1312563 C16.2948,65.7017085 20.0436,67.4456281 21.116,67.9453266 C21.2028,67.920804 21.288,67.8954774 21.3728,67.8705528 C19.59,65.3149749 18.128,62.401206 17.0948,59.1734673 C16.2168,59.439598 14.8644,59.6458291 13.8124,59.6458291 C13.428,59.6458291 13.0836,59.6168844 12.8188,59.5541709 C12.2304,59.4190955 11.5596,58.8490452 10.6464,55.6164824 C10.1164,53.7398995 9.7208,51.6912563 9.6052,50.6367839 C9.3772,48.5780905 9.4188,47.4753769 10.27,46.7630151 C10.7832,46.3324623 12.5144,45.4186935 12.8728,45.2317588 L12.796,44.5965829 C7.296,47.8448241 3.9996,50.7151759 3.9332,50.7738693 L0,54.2428141 L2.802,49.801809 C5.0196,46.2822111 7.5812,43.4371859 9.938,41.2454271 C9.8404,41.2060302 9.7496,41.1666332 9.654,41.1272362 L9.1344,40.8920603 C8.9564,40.8084422 8.7948,40.7316583 8.5984,40.6295477 L8.414,40.5342714 L8.296,40.3505528 C8.2296,40.2504523 8.2008,40.1945729 8.1572,40.119799 L8.0412,39.9139698 C7.9688,39.7744724 7.898,39.638995 7.834,39.5019095 C7.7032,39.2249246 7.5856,38.9479397 7.478,38.6693467 C7.2604,38.1117588 7.076,37.5501508 6.9164,36.9817085 C6.608,35.838794 6.3904,34.6862312 6.2684,33.5224121 C6.14,32.3565829 6.1068,31.1831156 6.1648,30.0116583 C6.196,29.4267337 6.252,28.8422111 6.3324,28.2613065 C6.374,27.9698492 6.4176,27.678392 6.4756,27.3889447 C6.5356,27.0938693 6.594,26.8188945 6.6828,26.4960804 L6.7448,26.2693467 L6.9064,26.1419095 C7.824,25.4174874 8.8136,24.8703518 9.82,24.3855276 C10.6484,23.9943719 11.4932,23.6486432 12.3444,23.3338693 C14.7216,16.7035176 18.8092,10.8241206 24.1808,6.72643216 C29.7348,2.49125628 36.2656,0.252060302 43.0684,0.252060302 C49.8712,0.252060302 56.402,2.49125628 61.9556,6.72683417 C67.3276,10.8245226 71.4152,16.7043216 73.7908,23.3326633 C74.644,23.6490452 75.4868,23.9923618 76.3172,24.3859296 C77.3232,24.8707538 78.3132,25.4178894 79.2304,26.1423116 L79.392,26.2697487 L79.4544,26.4964824 C79.5452,26.8192965 79.6032,27.0942714 79.6612,27.3893467 C79.7196,27.678794 79.7652,27.9702513 79.804,28.2617085 C79.8852,28.841809 79.9432,29.4263317 79.9716,30.0112563 L79.9716,30.0112563 L79.9716,30.0112563 Z M16.1996,22.6480402 C15.1932,23.0556784 14.1932,23.4761809 13.2156,23.9380905 C12.236,24.3879397 11.2732,24.8707538 10.3536,25.4094472 C9.5052,25.9007035 8.6908,26.439799 7.972,27.0480402 C7.9412,27.2309548 7.9124,27.4307538 7.8876,27.6201005 C7.8564,27.8882412 7.8252,28.1571859 7.8044,28.4277387 C7.7568,28.9688442 7.738,29.5143719 7.7324,30.0594975 C7.722,31.1501508 7.7964,32.240804 7.9332,33.320603 C8.082,34.4028141 8.2788,35.478995 8.5708,36.5173869 C8.716,37.0379899 8.8776,37.5517588 9.068,38.0466332 C9.1612,38.2970854 9.2648,38.5403015 9.3728,38.7774874 C9.4264,38.8956784 9.4824,39.0126633 9.538,39.1248241 L9.6068,39.2558794 C9.6872,39.2976884 9.7704,39.3390955 9.8488,39.3764824 L10.3312,39.6072362 C10.6004,39.7322613 10.9712,39.9091457 11.2776,40.0466332 C11.296,40.0317588 11.3128,40.0152764 11.3272,40.000804 L10.4348,36.5792965 C10.6232,36.5274372 12.3216,36.0860302 15.2476,35.5264322 C15.0116,35.4826131 14.7712,35.4307538 14.5376,35.3740704 C13.8728,35.2080402 13.214,35.0038191 12.5784,34.7457286 C12.2636,34.6106533 11.9508,34.4647236 11.6548,34.2958794 C11.3584,34.1250251 11.0664,33.9320603 10.8408,33.6739698 C14.0548,34.7288442 20.6956,34.2500503 26.6,33.638593 C32.0004,33.078593 37.4112,32.7167839 42.8512,32.7039196 C48.2912,32.7163819 53.7064,33.078191 59.1032,33.638593 C65.0112,34.2504523 71.6528,34.7292462 74.8656,33.6739698 C74.64,33.9320603 74.3484,34.1250251 74.052,34.2958794 C73.7564,34.4647236 73.4432,34.6102513 73.1284,34.7457286 C72.4904,35.0038191 71.834,35.2076382 71.1672,35.3740704 C71.0696,35.3965829 70.9704,35.4198995 70.8708,35.440804 C74.0788,36.038191 75.9464,36.5250251 76.1452,36.5792965 L75.29,39.838392 C75.462,39.761206 75.6356,39.6868342 75.8052,39.6076382 L76.288,39.3768844 C76.3664,39.3390955 76.4496,39.2980905 76.5304,39.2562814 L76.5968,39.1252261 C76.6544,39.0130653 76.7104,38.8960804 76.7644,38.7778894 C76.8724,38.5403015 76.9756,38.2970854 77.0712,38.0470352 C77.2596,37.5521608 77.4228,37.0379899 77.5656,36.5177889 C77.858,35.479397 78.0568,34.4032161 78.2036,33.321005 C78.342,32.241206 78.4148,31.1501508 78.4044,30.0598995 C78.4004,29.5147739 78.3796,28.9692462 78.334,28.4281407 C78.3112,28.1575879 78.282,27.8890452 78.2488,27.6205025 C78.226,27.4311558 78.1948,27.2313568 78.1636,27.0484422 C77.4448,26.440201 76.6312,25.9015075 75.782,25.4098492 C74.8624,24.8711558 73.9004,24.3883417 72.9184,23.9384925 C71.9432,23.4765829 70.9412,23.0560804 69.9344,22.6484422 C69.4308,22.4442211 68.9236,22.2444221 68.414,22.0550754 C67.9072,21.8576884 67.3932,21.6707538 66.88,21.4830151 C67.9584,21.6619095 69.0276,21.9091457 70.0852,22.1821106 C70.7748,22.361407 71.4628,22.5632161 72.1416,22.7774874 C67.2976,10.0506533 55.7136,1.76361809 43.0676,1.76361809 C30.4188,1.76361809 18.8372,10.0506533 13.994,22.7774874 C14.6748,22.5632161 15.3604,22.361407 16.048,22.1821106 C17.1084,21.9095477 18.1768,21.6619095 19.256,21.4830151 C18.74,21.6703518 18.2288,21.8572864 17.7192,22.0550754 C17.212,22.2440201 16.7052,22.4438191 16.1996,22.6480402 L16.1996,22.6480402 L16.1996,22.6480402 Z M45.0504,69.200402 L45.688,69.9638191 C45.7024,69.9823116 47.1188,71.6763819 48.8504,73.401809 C50.002,74.5487437 51.3932,75.1292462 52.9876,75.1292462 C53.532,75.1292462 54.104,75.0588945 54.6816,74.918995 C55.2176,74.7879397 55.8,74.6484422 56.3964,74.5049246 C58.55,73.9875377 60.9892,73.399799 62.1716,73.0669347 C62.4056,73.000201 62.6668,72.9403015 62.9416,72.8771859 C64.5156,72.5117588 66.6732,72.0076382 67.8164,69.7057286 C68.676,67.9782915 69.8352,65.7362814 70.6952,64.0932663 C69.95,64.438593 69.1688,64.8128643 68.614,65.1063317 C67.7588,65.5577889 66.6388,65.7764824 65.1908,65.7764824 C64.33,65.7764824 63.4844,65.7037186 62.5488,65.6201005 C60.6788,65.4472362 57.5144,65.0729648 57.482,65.0685427 L57.2396,65.041608 L57.0484,64.8876382 C57.02,64.8667337 54.2472,62.6464322 52.006,60.8751759 C51.9152,60.800402 51.8324,60.7312563 51.7576,60.6689447 C51.5216,60.4667337 51.5216,60.4667337 51.3808,60.4667337 C50.662,60.4667337 48.5728,61.1179899 43.996,62.5439196 L43.7148,62.6335678 L43.4392,62.5290452 C43.408,62.518593 40.4052,61.399397 36.8068,61.399397 C36.5124,61.399397 36.2188,61.4070352 35.9328,61.4219095 C35.5724,61.440402 33.5496,62.4060302 30.9628,66.519397 L30.7952,66.7835176 L30.4988,66.879196 C30.456,66.8940704 26.0036,68.3384925 21.282,69.6952764 L20.9756,69.7829146 L20.6856,69.6474372 C20.6548,69.6349749 18.8072,68.7734673 17.0492,67.961407 C18.008,69.3849246 19.234,71.160603 20.3128,72.5531658 C22.1972,74.9921608 24.5724,77.2462312 29.1264,77.2462312 C29.6976,77.2462312 30.3044,77.2108543 30.9276,77.1396985 C35.56,76.6134673 36.7528,76.401206 37.3948,76.2886432 C37.612,76.2516583 37.784,76.2198995 38.0036,76.1929648 C38.0388,76.1885427 41.832,75.6956784 42.8964,73.2960804 C43.994,70.8301508 44.2156,70.2428141 44.224,70.2203015 L44.6112,69.1819095 L44.506,69.0834171 C44.5828,69.000201 44.6592,68.9129648 44.738,68.8293467 C44.738,68.8313568 44.738,68.8313568 44.74,68.8313568 L44.7476,68.8377889 C44.87,68.9254271 44.992,69.0186935 45.114,69.1127638 L45.0504,69.200402 L45.0504,69.200402 L45.0504,69.200402 Z" id="Fill-40" fill="#3F3F3D" mask="url(#mask-6)"></path>
                                </g>
                            </g>
                            <g id="Group-2" transform="translate(5.000000, 1.000000)">
                                <path d="M73.3328,27.4269347 C73.3112,27.1571859 73.2816,26.8874372 73.2488,26.6192965 C73.2256,26.4291457 73.1956,26.2305528 73.1628,26.0468342 C72.4456,25.440201 71.6304,24.9007035 70.782,24.4102513 C69.8624,23.8703518 68.9004,23.3867337 67.9184,22.9376884 C66.9432,22.4753769 65.9416,22.0568844 64.934,21.6484422 C64.4312,21.4434171 63.924,21.2444221 63.4148,21.0546734 C62.9072,20.8556784 62.3948,20.6703518 61.8808,20.4822111 C62.9596,20.6619095 64.0272,20.9079397 65.0868,21.1821106 C65.776,21.361407 66.4616,21.5620101 67.1428,21.7758794 C62.298,9.0502513 50.7148,0.76281407 38.068,0.76281407 C25.4192,0.76281407 13.8372,9.0502513 8.9936,21.7758794 C9.6748,21.5620101 10.3604,21.361407 11.0484,21.1821106 C12.1096,20.9079397 13.1776,20.6619095 14.2556,20.4822111 C13.74,20.6703518 13.2288,20.8556784 12.7196,21.0546734 C12.2128,21.2444221 11.7052,21.4434171 11.2004,21.6484422 C10.1928,22.0568844 9.194,22.4753769 8.2164,22.9376884 C7.2364,23.3867337 6.2736,23.8703518 5.354,24.4102513 C4.5056,24.9003015 3.6912,25.440201 2.9712,26.0468342 C2.9412,26.2305528 2.9108,26.4291457 2.8872,26.6192965 C2.8548,26.8874372 2.8252,27.1571859 2.8032,27.4269347 C2.756,27.9692462 2.7368,28.5135678 2.7324,29.0594975 C2.7216,30.1501508 2.7948,31.240804 2.9324,32.319799 C3.0804,33.4020101 3.278,34.4769849 3.5704,35.5161809 C3.7144,36.0367839 3.8776,36.5501508 4.0664,37.0470352 C4.1612,37.2950754 4.2644,37.5394975 4.372,37.7770854 C4.4256,37.8952764 4.4816,38.0122613 4.5372,38.1244221 L4.606,38.2562814 C4.6856,38.2968844 4.7692,38.3382915 4.8488,38.3768844 L5.3304,38.6080402 C5.5988,38.7306533 5.9704,38.9079397 6.2776,39.0462312 C6.2948,39.0313568 6.312,39.0160804 6.3268,39.000402 L5.4328,35.5780905 C5.6224,35.5258291 7.32,35.0856281 10.2456,34.5260302 C10.0096,34.481005 9.7712,34.4291457 9.5368,34.3728643 C8.8708,34.2064322 8.2132,34.0034171 7.5772,33.7441206 C7.2612,33.6102513 6.95,33.4639196 6.6536,33.2958794 C6.3568,33.1246231 6.0648,32.9308543 5.8388,32.6735678 C9.0532,33.7276382 15.6948,33.2500503 21.5984,32.6369849 C26.998,32.0777889 32.41,31.7151759 37.8504,31.7043216 C43.2912,31.7151759 48.7052,32.0777889 54.1024,32.6369849 C60.0088,33.2500503 66.6504,33.7276382 69.8644,32.6735678 C69.6388,32.9308543 69.3472,33.1250251 69.0504,33.2958794 C68.754,33.4639196 68.4428,33.6102513 68.1272,33.7441206 C67.4904,34.0034171 66.8336,34.2064322 66.1676,34.3728643 C66.0688,34.3965829 65.9696,34.4182915 65.8704,34.439598 C69.0784,35.0377889 70.946,35.5238191 71.1456,35.5776884 L70.2904,38.8379899 C70.4624,38.76 70.636,38.6848241 70.8064,38.6072362 L71.2872,38.3760804 C71.3672,38.3370854 71.4484,38.2960804 71.53,38.2554774 L71.5964,38.1236181 C71.6548,38.0114573 71.7108,37.8944724 71.764,37.7762814 C71.872,37.5386935 71.9752,37.2942714 72.0696,37.0462312 C72.2588,36.5493467 72.4224,36.0359799 72.566,35.5153769 C72.8584,34.4761809 73.056,33.401206 73.204,32.318995 C73.342,31.239598 73.4144,30.1489447 73.4044,29.0586935 C73.4,28.5135678 73.3804,27.9692462 73.3328,27.4269347" id="Fill-1" fill="#EBEAE8"></path>
                                <path d="M41.7148,72.6836181 C41.2892,72.7479397 40.8636,72.8022111 40.4404,72.8343719 C40.1676,72.8476382 39.8788,72.8753769 39.6168,72.8753769 L39.52,72.8773869 C39.8488,72.1388945 40.0984,71.5668342 40.2876,71.1330653 C40.6728,71.5672362 41.1628,72.1047236 41.7148,72.6836181" id="Fill-2" fill="#F7F6F5"></path>
                                <path d="M42.6404,73.6311558 C43.962,74.9465327 45.5996,75.6998995 47.402,75.8337688 C44.3744,77.0695477 41.5212,77.5463317 39.3232,77.6950754 C37.132,77.8426131 34.9104,77.5829146 32.7336,76.9831156 C32.916,76.9501508 33.0496,76.9268342 33.2108,76.9071357 C33.3896,76.8854271 37.2932,76.3736683 39.0528,73.7441206 L39.218,73.7477387 L39.65,73.7441206 C39.9424,73.7441206 40.208,73.72 40.4876,73.7091457 C41.1516,73.6512563 41.8008,73.5559799 42.4388,73.4265327 C42.5056,73.4952764 42.572,73.5624121 42.6404,73.6311558" id="Fill-3" fill="#F7F6F5"></path>
                                <path d="M46.3856,34.2554774 C46.2588,34.4215075 46.1172,34.6048241 45.9664,34.7953769 C45.1932,35.7778894 44.1208,37.0345729 42.8488,38.2635176 C41.3704,38.2176884 39.8512,38.1923618 38.2872,38.1923618 C35.7032,38.1923618 33.2252,38.2611055 30.8724,38.3760804 C34.1968,36.9895477 38.1908,35.6351759 42.516,34.8215075 C43.7792,34.5811055 45.0724,34.3889447 46.3856,34.2554774" id="Fill-4" fill="#8B8C88"></path>
                                <path d="M26.9284,35.7513568 C25.742,36.5891457 24.4016,37.6584925 23.102,38.9557789 C19.7736,39.2906533 16.8708,39.6962814 14.4752,40.0854271 C18.1576,38.3841206 22.3604,36.8182915 26.9284,35.7513568" id="Fill-5" fill="#8B8C88"></path>
                                <path d="M67.592,42.6566834 L66.2384,52.1758794 L59.7536,56.7407035 L42.8404,54.8082412 L40.2944,46.3817085 C40.234,46.1766834 40.062,46.0259296 39.8512,45.9913568 C39.2244,45.8896482 38.67,45.8377889 38.208,45.8377889 C37.744,45.8377889 37.1916,45.8896482 36.562,45.9913568 C36.3532,46.0259296 36.182,46.1766834 36.1196,46.3817085 L33.636,54.6028141 L16.8172,58.3644221 L10.1524,53.6721608 L8.8392,42.9899497 C9.1252,42.8275377 9.4156,42.6659296 9.7096,42.5039196 C10.122,42.4146734 10.586,42.320201 11.0996,42.2209045 L12.3372,52.3005025 C12.3564,52.4580905 12.4428,52.598392 12.5716,52.6892462 L17.1564,55.918191 C17.2508,55.9825126 17.3628,56.0170854 17.4744,56.0170854 C17.5148,56.0170854 17.554,56.0130653 17.5968,56.0038191 L31.4248,52.9115578 C31.4724,52.9007035 31.5196,52.8838191 31.5624,52.8617085 C31.6912,52.7929648 31.7924,52.6743719 31.8352,52.5292462 L34.3252,44.2888442 C34.9932,44.1159799 36.704,43.7143719 38.2076,43.7143719 C39.7072,43.7143719 41.4196,44.1159799 42.088,44.2888442 L44.578,52.5292462 C44.6424,52.7431156 44.8276,52.8958794 45.0484,52.9220101 L58.8764,54.5007035 C59.0104,54.5155779 59.1472,54.480603 59.2572,54.4034171 L63.8448,51.1772864 C63.9688,51.0888442 64.0528,50.9497487 64.074,50.7969849 L65.2988,42.1855276 C66.2192,42.3640201 66.9884,42.5256281 67.592,42.6566834" id="Fill-6" fill="#8B8C88"></path>
                                <path d="M69.3004,36.6868342 L68.11,41.2255276 C65.6756,40.6860302 60.3276,39.6275377 53.0484,38.9151759 C55.4268,37.8960804 57.8484,36.6176884 60.0608,35.0196985 C64.3924,35.6347739 67.5728,36.2936683 69.3004,36.6868342" id="Fill-7" fill="#8B8C88"></path>
                                <path d="M41.1992,39.7312563 C40.5332,40.2735678 39.8308,40.7805025 39.0996,41.2235176 L36.6608,42.7029146 C35.1312,42.8902513 33.8036,43.2705528 33.7284,43.2926633 C33.6836,43.3051256 33.6408,43.3244221 33.6016,43.3489447 C33.4832,43.4176884 33.3932,43.5318593 33.35,43.6681407 L30.8664,51.8932663 L17.5924,54.8601005 L13.4116,51.9169849 L12.1952,42.0138693 C14.5696,41.5756784 17.7448,41.0683417 21.5592,40.638995 C21.1504,41.1314573 20.7536,41.6472362 20.3772,42.1887437 L18.1064,45.4647236 L21.4128,43.2492462 C21.462,43.2146734 23.5676,41.8225126 27.012,40.1292462 C30.4448,39.8703518 34.2332,39.7035176 38.2872,39.7035176 C39.2756,39.7031156 40.2452,39.7143719 41.1992,39.7312563 L41.1992,39.7312563 L41.1992,39.7312563 Z M20.5364,50.8866332 C21.4792,50.3744724 22.5448,50.4504523 24.2124,50.4528643 C24.3912,50.4572864 24.5756,50.4548744 24.7684,50.4508543 C24.9324,50.4488442 25.0972,50.4464322 25.2716,50.4420101 C26.99,50.4251256 28.4192,50.5891457 28.394,47.8767839 C28.368,45.1648241 27.1692,42.9730653 25.4524,42.9903518 C23.7336,43.0052261 22.0708,45.2271357 22.1736,47.9374874 C22.2016,48.6434171 22.3048,49.1527638 22.4704,49.520201 C20.9724,49.8972864 20.5596,50.8283417 20.5364,50.8866332 L20.5364,50.8866332 L20.5364,50.8866332 Z" id="Fill-8" fill="#E0C69C"></path>
                                <path d="M64.206,41.9817085 L63.0092,50.401407 L58.7936,53.3678392 L45.5372,51.8538693 L43.064,43.6677387 C43.008,43.4864322 42.8664,43.3465327 42.686,43.2922613 C42.604,43.2681407 40.9628,42.7977889 39.2224,42.6462312 L39.5404,42.6249246 C39.8152,42.6052261 44.3876,42.041608 49.8472,40.1497487 C55.8932,40.6164824 60.8304,41.3638191 64.206,41.9817085 L64.206,41.9817085 L64.206,41.9817085 Z M55.734,49.7746734 C55.7172,49.7103518 55.356,48.6196985 53.7572,48.8110553 C53.9416,48.4078392 54.0236,47.8639196 53.9656,47.118593 C53.7544,44.4126633 52.1884,42.2623116 50.4716,42.3222111 C48.7548,42.3833166 47.6548,44.6261307 47.7496,47.3384925 C47.844,50.0484422 49.2856,50.0295477 51.0024,49.9688442 C53.3104,49.9258291 54.578,49.2130653 55.734,49.7746734 L55.734,49.7746734 L55.734,49.7746734 Z" id="Fill-9" fill="#E0C69C"></path>
                                <path d="M41.1992,39.7312563 C40.5332,40.2735678 39.8308,40.7805025 39.0996,41.2235176 L36.6608,42.7029146 C35.1312,42.8902513 33.8036,43.2705528 33.7284,43.2926633 C33.6836,43.3051256 33.6408,43.3244221 33.6016,43.3489447 C33.4832,43.4176884 33.3932,43.5318593 33.35,43.6681407 L30.8664,51.8932663 L17.5924,54.8601005 L13.4116,51.9169849 L12.1952,42.0138693 C14.5696,41.5756784 17.7448,41.0683417 21.5592,40.638995 C21.1504,41.1314573 20.7536,41.6472362 20.3772,42.1887437 L18.1064,45.4647236 L21.4128,43.2492462 C21.462,43.2146734 23.5676,41.8225126 27.012,40.1292462 C30.4448,39.8703518 34.2332,39.7035176 38.2872,39.7035176 C39.2756,39.7031156 40.2452,39.7143719 41.1992,39.7312563 L41.1992,39.7312563 L41.1992,39.7312563 Z M20.5364,50.8866332 C21.4792,50.3744724 22.5448,50.4504523 24.2124,50.4528643 C24.3912,50.4572864 24.5756,50.4548744 24.7684,50.4508543 C24.9324,50.4488442 25.0972,50.4464322 25.2716,50.4420101 C26.99,50.4251256 28.4192,50.5891457 28.394,47.8767839 C28.368,45.1648241 27.1692,42.9730653 25.4524,42.9903518 C23.7336,43.0052261 22.0708,45.2271357 22.1736,47.9374874 C22.2016,48.6434171 22.3048,49.1527638 22.4704,49.520201 C20.9724,49.8972864 20.5596,50.8283417 20.5364,50.8866332 L20.5364,50.8866332 L20.5364,50.8866332 Z" id="Fill-10" fill="#F7F6F5"></path>
                                <path d="M64.206,41.9817085 L63.0092,50.401407 L58.7936,53.3678392 L45.5372,51.8538693 L43.064,43.6677387 C43.008,43.4864322 42.8664,43.3465327 42.686,43.2922613 C42.604,43.2681407 40.9628,42.7977889 39.2224,42.6462312 L39.5404,42.6249246 C39.8152,42.6052261 44.3876,42.041608 49.8472,40.1497487 C55.8932,40.6164824 60.8304,41.3638191 64.206,41.9817085 L64.206,41.9817085 L64.206,41.9817085 Z M55.734,49.7746734 C55.7172,49.7103518 55.356,48.6196985 53.7572,48.8110553 C53.9416,48.4078392 54.0236,47.8639196 53.9656,47.118593 C53.7544,44.4126633 52.1884,42.2623116 50.4716,42.3222111 C48.7548,42.3833166 47.6548,44.6261307 47.7496,47.3384925 C47.844,50.0484422 49.2856,50.0295477 51.0024,49.9688442 C53.3104,49.9258291 54.578,49.2130653 55.734,49.7746734 L55.734,49.7746734 L55.734,49.7746734 Z" id="Fill-11" fill="#F7F6F5"></path>
                                <path d="M11.3744,55.8984925 C11.454,56.1815075 11.5376,56.4641206 11.624,56.7427136 C10.7684,56.9951759 9.026,57.2371859 8.238,57.0988945 C7.5848,56.4375879 6.3664,51.8864322 6.1,49.4695477 C5.8828,47.5113568 6.0352,47.0880402 6.2332,46.9232161 C6.4632,46.7290452 7.3244,46.2365829 8.0704,45.8349749 L9.078,54.0556784 C9.0972,54.2136683 9.1808,54.3535678 9.3124,54.4444221 L11.3744,55.8984925" id="Fill-12" fill="#F7F6F5"></path>
                                <path d="M43.5388,56.0134673 L43.4784,56.5380905 C43.4784,56.5380905 41.646,58.2458291 38.696,58.6281407 C35.746,59.0100503 33.4276,57.1881407 33.4276,57.1881407 C33.5244,57.5049246 33.662,58.2201005 34.33,58.8307538 C33.544,58.7362814 32.6952,58.6727638 31.8048,58.6727638 C31.4832,58.6727638 31.1584,58.6820101 30.8444,58.6972864 C29.0288,58.7925628 26.4748,61.5515578 24.6788,64.3310553 C23.7976,64.6112563 21.0432,65.4900503 17.8548,66.4363819 C14.8788,62.2920603 13.4156,58.0576884 13.2672,57.6194975 L13.2692,57.6170854 C13.2092,57.4486432 13.1488,57.279799 13.0928,57.1073367 L13.858,57.6452261 L13.858,57.6472362 L15.7484,58.9774874 L16.3804,59.4201005 C16.4748,59.4872362 16.5864,59.521809 16.698,59.521809 C16.7388,59.521809 16.7796,59.5173869 16.82,59.5093467 L34.194,55.6219095 C34.3888,55.5788945 34.5464,55.4317588 34.604,55.24 L37.0816,47.0430151 C37.5092,46.9847236 37.8848,46.9545729 38.2072,46.9545729 C38.5276,46.9545729 38.9056,46.9847236 39.3332,47.0430151 L41.8828,55.4840201 C41.9476,55.6978894 42.1324,55.8534673 42.3512,55.8767839 L43.5388,56.0134673" id="Fill-13" fill="#F7F6F5"></path>
                                <path d="M63.3704,55.56 L63.9312,55.1644221 C63.8384,55.5555779 63.7376,55.9443216 63.6324,56.3286432 C62.8528,58.840402 61.9324,61.0619095 60.9104,63.0245226 C60.6844,63.040201 60.446,63.0490452 60.1904,63.0490452 C59.4016,63.0490452 58.596,62.9819095 57.7044,62.8998995 C56.1572,62.7571859 53.7016,62.4745729 52.926,62.3841206 C52.258,61.8486432 49.972,60.0231156 48.07,58.518794 C47.9952,58.4580905 47.9308,58.401809 47.868,58.3499497 C47.5332,58.0653266 47.1524,57.7417085 46.3812,57.7417085 C45.6808,57.7417085 44.658,57.998191 42.1856,58.7499497 C43.4704,57.7847236 43.4788,56.5388945 43.4788,56.5388945 L43.5392,56.0142714 L59.8384,57.8751759 C59.9712,57.8904523 60.1088,57.8558794 60.2204,57.7782915 L61.858,56.6253266 L63.3704,55.56" id="Fill-14" fill="#F7F6F5"></path>
                                <path d="M51.3748,21.0960804 C51.4244,22.5533668 51.388,25.1941709 50.7128,27.6669347 C50.6856,27.7622111 50.6896,27.8594975 50.7128,27.9499497 C49.8536,27.8590955 48.994,27.7815075 48.1344,27.7123618 C49.0992,25.680603 49.3096,23.5169849 49.3552,22.7547739 C50.096,22.2253266 50.8336,21.5905528 51.3748,21.0960804" id="Fill-15" fill="#B6B6B2"></path>
                                <path d="M26.7824,22.7543719 C26.8272,23.5165829 27.0376,25.6757789 28.0008,27.7059296 C27.1412,27.7746734 26.282,27.8546734 25.4244,27.9455276 C25.4476,27.8566834 25.4504,27.761809 25.4244,27.6665327 C24.75,25.198593 24.7156,22.5553769 24.7628,21.0956784 C25.304,21.5905528 26.0388,22.2253266 26.7824,22.7543719" id="Fill-16" fill="#B6B6B2"></path>
                                <path d="M50.3388,45.8036181 C50.8224,45.7927638 51.2088,45.3911558 51.2004,44.9051256 C51.192,44.4170854 50.7924,44.0283417 50.3064,44.039598 C49.8212,44.0476382 49.4364,44.4496482 49.4456,44.9376884 C49.454,45.4233166 49.8536,45.8124623 50.3388,45.8036181 L50.3388,45.8036181 L50.3388,45.8036181 Z M55.734,49.7746734 C54.578,49.2134673 53.3104,49.9262312 51.0028,49.9692462 C49.286,50.0299497 47.8444,50.0488442 47.75,47.3388945 C47.6552,44.6265327 48.7552,42.3837186 50.472,42.3226131 C52.1888,42.2623116 53.7548,44.4130653 53.966,47.118995 C54.024,47.8643216 53.942,48.4082412 53.7576,48.8114573 C55.356,48.6196985 55.7172,49.7099497 55.734,49.7746734 L55.734,49.7746734 L55.734,49.7746734 Z" id="Fill-17" fill="#3F3F3D"></path>
                                <path d="M50.3044,44.0347739 C50.7892,44.0259296 51.1892,44.4134673 51.198,44.9003015 C51.2068,45.3875377 50.8212,45.7895477 50.3368,45.798392 C49.852,45.8072362 49.452,45.4196985 49.4432,44.9328643 C49.4344,44.4456281 49.82,44.0436181 50.3044,44.0347739" id="Fill-18" fill="#F0F8F9"></path>
                                <path d="M25.74,46.4576884 C26.2236,46.4452261 26.606,46.038392 26.5932,45.5527638 C26.58,45.0647236 26.1768,44.680402 25.6932,44.6936683 C25.2072,44.7061307 24.8244,45.1121608 24.8376,45.598191 C24.8504,46.0866332 25.2544,46.4709548 25.74,46.4576884 L25.74,46.4576884 L25.74,46.4576884 Z M28.3936,47.8763819 C28.4188,50.5887437 26.99,50.4247236 25.2712,50.441608 C25.0972,50.4460302 24.932,50.4480402 24.768,50.4504523 C24.5752,50.4548744 24.3904,50.4568844 24.212,50.4524623 C22.5448,50.4504523 21.4788,50.3744724 20.536,50.8862312 C20.5592,50.8279397 20.972,49.8968844 22.47,49.519397 C22.3044,49.1519598 22.2008,48.6426131 22.1732,47.9366834 C22.0704,45.2267337 23.7332,43.0044221 25.452,42.9895477 C27.1688,42.9726633 28.3676,45.1648241 28.3936,47.8763819 L28.3936,47.8763819 L28.3936,47.8763819 Z" id="Fill-19" fill="#3F3F3D"></path>
                                <path d="M25.6956,44.6960804 C26.1804,44.6836181 26.5836,45.0683417 26.596,45.5555779 C26.6084,46.0428141 26.2256,46.4480402 25.7408,46.4605025 C25.256,46.4729648 24.8528,46.0882412 24.8404,45.601005 C24.828,45.1137688 25.2108,44.7085427 25.6956,44.6960804" id="Fill-20" fill="#F0F8F9"></path>
                                <path d="M15.2764,29.4651256 C15.2764,29.4651256 15.5432,25.9708543 16.0884,24.6317588 C16.3692,23.9415075 18.0868,23.5021106 19.3988,23.1881407 C20.71,22.8745729 22.802,22.2466332 23.2084,24.0982915 C23.6144,25.9499497 24.2696,27.2994975 24.7068,27.8956784 L24.1452,20.2695477 L15.1204,22.4661307 L14.5268,29.2142714 L14.808,29.7477387 L15.2764,29.4651256" id="Fill-21" fill="#B6B6B2"></path>
                                <path d="M60.942,29.4651256 C60.942,29.4651256 60.6756,25.9708543 60.1304,24.6317588 C59.8492,23.9415075 58.1316,23.5021106 56.8204,23.1881407 C55.5084,22.8745729 53.4164,22.2466332 53.01,24.0982915 C52.6048,25.9499497 51.9484,27.2994975 51.5108,27.8956784 L52.0736,20.2695477 L61.0984,22.4661307 L61.6916,29.2142714 L61.4104,29.7477387 L60.942,29.4651256" id="Fill-22" fill="#B6B6B2"></path>
                                <path d="M48.186,6.64020101 C48.186,6.64020101 47.9468,24.9276382 43.6964,24.9276382 L38.5964,24.9276382 L37.7464,24.9276382 L32.6456,24.9276382 C28.3952,24.9276382 28.052,6.64824121 28.052,6.64824121 L25.964,12.8544724 L25.998,21.3702513 L27.4808,22.5549749 L28.1548,26.2116583 L29.0976,28.3451256 L47.2904,28.3788945 L48.1324,26.8548744 L48.84,24.2820101 L48.9416,22.6566834 L50.9508,16.8914573 L48.186,6.64020101" id="Fill-23" fill="#B6B6B2"></path>
                                <path d="M61.5716,23.6918593 C61.5716,23.6918593 62.4464,30.000201 64.7612,31.1378894 C67.0764,32.2751759 64.7612,31.1378894 64.7612,31.1378894 L61.52,30.1553769 L61.5716,23.6918593" id="Fill-24" fill="#B6B6B2"></path>
                                <path d="M14.5632,23.6918593 C14.5632,23.6918593 13.6884,30.000201 11.3732,31.1378894 C9.058,32.2751759 11.3732,31.1378894 11.3732,31.1378894 L14.6148,30.1553769 L14.5632,23.6918593" id="Fill-25" fill="#B6B6B2"></path>
                                <path d="M24.4272,28.0532663 C24.4116,28.0231156 24.3992,27.9885427 24.388,27.9539698 C23.598,25.0647236 23.6324,22.0351759 23.7032,20.6377889 L15.4976,22.9827136 C14.9456,26.5935678 15.2032,29.2472362 15.2588,29.7352764 C15.94,29.5495477 16.6232,29.3786935 17.3112,29.2190955 C18.4456,28.9666332 19.5884,28.7551759 20.7336,28.560603 C21.8812,28.3684422 23.0324,28.2217085 24.184,28.081407 C24.266,28.0705528 24.3456,28.0645226 24.4272,28.0532663 L24.4272,28.0532663 L24.4272,28.0532663 Z M28.0004,27.7059296 C27.0372,25.6757789 26.8268,23.5161809 26.782,22.7543719 C26.0388,22.2253266 25.3036,21.5905528 24.7624,21.0960804 C24.7148,22.5557789 24.7496,25.198995 25.424,27.6669347 C25.45,27.7622111 25.4472,27.8570854 25.424,27.9459296 C26.282,27.8546734 27.1408,27.7750754 28.0004,27.7059296 L28.0004,27.7059296 L28.0004,27.7059296 Z M50.7124,27.6665327 C51.3876,25.1941709 51.424,22.5529648 51.3744,21.0956784 C50.8332,21.5901508 50.0956,22.2249246 49.3548,22.7539698 C49.3092,23.5161809 49.0988,25.679799 48.134,27.7115578 C48.9936,27.7811055 49.8532,27.8586935 50.7124,27.9491457 C50.6892,27.8590955 50.6852,27.7622111 50.7124,27.6665327 L50.7124,27.6665327 L50.7124,27.6665327 Z M60.876,29.7372864 C60.932,29.2520603 61.1916,26.5979899 60.6396,22.9831156 L52.4316,20.638191 C52.5052,22.0351759 52.5376,25.0651256 51.7488,27.9543719 C51.7384,27.9889447 51.7256,28.0235176 51.7084,28.0580905 C51.7896,28.0665327 51.8716,28.0729648 51.9508,28.0838191 C54.2584,28.3495477 56.5552,28.720603 58.8264,29.2215075 C59.5112,29.3815075 60.1968,29.5523618 60.876,29.7372864 L60.876,29.7372864 L60.876,29.7372864 Z M62.1948,30.1264322 C63.2968,30.4890452 64.4052,30.8733668 65.4092,31.4631156 C64.872,31.2492462 64.3176,31.0960804 63.7588,30.9577889 C63.2024,30.8150754 62.6416,30.6944724 62.0784,30.5863317 C60.9504,30.3728643 59.8184,30.1915578 58.6792,30.0528643 C57.5428,29.9041206 56.4044,29.7786935 55.2608,29.681407 C54.1176,29.5845226 52.9772,29.4872362 51.8316,29.4201005 C47.2532,29.1370854 42.662,29.0663317 38.0676,29.0615075 C33.4744,29.0639196 28.8828,29.1503518 24.304,29.4221106 C23.1592,29.4888442 22.018,29.5865327 20.8752,29.6838191 C19.7324,29.7807035 18.5912,29.9041206 17.4568,30.0548744 C16.318,30.1935678 15.1856,30.3748744 14.0576,30.5883417 C13.4948,30.6944724 12.9336,30.8174874 12.3752,30.9577889 C11.8188,31.0960804 11.262,31.2492462 10.7248,31.4631156 C11.7284,30.8737688 12.8368,30.4874372 13.9412,30.1240201 C14.034,30.0938693 14.128,30.0681407 14.2224,30.0379899 C14.2164,30.0142714 14.2096,29.9925628 14.2052,29.9668342 C14.186,29.839397 13.7776,26.8074372 14.4888,22.4713568 C14.5232,22.2639196 14.6712,22.0954774 14.8736,22.039196 L16.0404,21.7051256 C16.294,12.6096482 20.0212,8.3318593 20.1376,8.2 C16.8072,13.5857286 16.8376,19.9732663 16.8952,21.4607035 L24.1464,19.3895477 C24.1528,19.3875377 24.1568,19.3875377 24.1632,19.3855276 C24.1936,19.3790955 24.2236,19.3746734 24.2536,19.3726633 C24.262,19.3726633 24.2732,19.3702513 24.2836,19.3702513 C24.3204,19.3682412 24.3616,19.3726633 24.4024,19.3811055 C24.4084,19.3811055 24.4148,19.3855276 24.4236,19.3875377 C24.4536,19.3939698 24.4816,19.4044221 24.5132,19.4176884 C24.5264,19.4241206 24.5348,19.4309548 24.5476,19.4373869 C24.5708,19.4506533 24.5952,19.4655276 24.6184,19.4824121 C24.6248,19.4868342 24.632,19.4888442 24.638,19.4956784 C24.6424,19.5001005 24.6464,19.5045226 24.6508,19.5085427 C24.6572,19.5149749 24.6656,19.519397 24.6724,19.5262312 C24.6772,19.5326633 24.87,19.7244221 25.1772,20.0122613 C25.1044,17.6110553 25.218,10.7226131 28.482,5.01326633 C28.4132,5.21346734 25.8236,12.8235176 26.716,21.3529648 C27.0056,21.5861307 27.3104,21.8148744 27.6076,22.0158794 C27.7512,22.1151759 27.8396,22.279196 27.8416,22.4540704 C27.844,22.4822111 27.906,25.201005 29.1008,27.5137688 C29.1176,27.5483417 29.1304,27.5849246 29.1416,27.6215075 C32.1132,27.4184925 35.0928,27.3364824 38.0664,27.3344724 C41.0408,27.3364824 44.0184,27.4229146 46.9892,27.6283417 C47,27.5893467 47.0132,27.5507538 47.0328,27.5137688 C48.2272,25.201005 48.2896,22.4822111 48.2896,22.4540704 C48.2936,22.278794 48.382,22.1151759 48.526,22.0158794 C48.8224,21.8148744 49.1232,21.5861307 49.4156,21.3529648 C50.3092,12.8235176 47.7196,5.21346734 47.6512,5.01326633 C50.9124,10.7222111 51.0288,17.6106533 50.956,20.0122613 C51.2608,19.7248241 51.4544,19.5330653 51.4604,19.5262312 C51.4668,19.519799 51.476,19.5153769 51.4816,19.5085427 C51.4864,19.5045226 51.4888,19.5001005 51.4948,19.4956784 C51.5012,19.4892462 51.508,19.4868342 51.5144,19.4824121 C51.5384,19.4655276 51.562,19.4506533 51.5852,19.4349749 C51.5964,19.4309548 51.6068,19.4241206 51.6176,19.4176884 C51.65,19.4044221 51.6796,19.3939698 51.712,19.3855276 C51.7184,19.3855276 51.7252,19.3811055 51.7316,19.3811055 C51.77,19.3726633 51.8116,19.3682412 51.85,19.3702513 C51.8608,19.3702513 51.8696,19.3726633 51.878,19.3726633 C51.908,19.3746734 51.9404,19.3790955 51.9704,19.3855276 C51.9752,19.3879397 51.9816,19.3879397 51.9872,19.3895477 L59.2388,21.4607035 C59.2972,19.9732663 59.3272,13.5853266 55.9972,8.2 C56.1128,8.3318593 59.8408,12.6096482 60.092,21.7051256 L61.2608,22.039196 C61.4604,22.0954774 61.6108,22.2639196 61.6456,22.4713568 C62.3564,26.8074372 61.9464,29.839397 61.9288,29.9668342 C61.9248,29.9929648 61.9184,30.0166834 61.912,30.04 C62.0076,30.0681407 62.1,30.0958794 62.1948,30.1264322 L62.1948,30.1264322 L62.1948,30.1264322 Z" id="Fill-26" fill="#3F3F3D"></path>
                                <path d="M46.718,6.87819095 L46.718,13.7224121 L41.8904,13.7224121 L41.8904,11.7232161 L40.8028,11.7232161 L40.8028,20.961407 L42.446,20.961407 L42.446,26.1276382 L34.0024,26.1276382 L34.0024,20.961407 L35.6392,20.961407 L35.6392,11.7232161 L34.5548,11.7232161 L34.5548,13.7224121 L29.7308,13.7224121 L29.7308,6.87819095 L46.718,6.87819095" id="Fill-27" fill="#3F3F3D"></path>
                                <path d="M13.9112,34.0548744 C13.9112,34.0548744 1.464,42.8601005 0.9772,46.2144724 L1.9112,46.0215075 C1.9112,46.0215075 16.8168,36.0922613 28.6324,34.881407 L28.9,33.3742714 L13.9112,34.0548744" id="Fill-28" fill="#62625F"></path>
                                <path d="M33.4504,32.7965829 L23.646,39.7855276 L24.176,40.2128643 C24.5756,39.8888442 41.5916,34.6659296 41.5916,34.6659296 L45.1792,32.4054271 C42.772,32.7065327 33.4504,32.7965829 33.4504,32.7965829" id="Fill-29" fill="#62625F"></path>
                                <path d="M41.9716,41.2496482 C48.9336,41.2496482 59.3696,34.3969849 59.3696,34.3969849 L55.996,33.7517588 C55.8292,33.919397 50.556,33.5660302 50.556,33.5660302 L48.0528,32.8673367 L42.0724,39.7159799 L41.5856,40.9043216 C42.0156,40.7286432 41.9716,41.2496482 41.9716,41.2496482" id="Fill-30" fill="#62625F"></path>
                                <path d="M39.5688,68.1421106 L39.5056,68.0838191 C39.5812,68.000201 39.6584,67.9133668 39.7376,67.8293467 C39.7376,67.8313568 39.7376,67.8313568 39.7396,67.8313568 L39.7468,67.8377889 C39.8688,67.9262312 39.9916,68.0190955 40.114,68.1119598 L40.0496,68.200402 L40.0892,68.2478392 L39.7084,67.958392 C39.7084,67.958392 39.658,68.0255276 39.5688,68.1421106 L39.5688,68.1421106 L39.5688,68.1421106 Z M12.5812,67.2070352 C12.5332,67.1849246 12.4848,67.1624121 12.4368,67.1403015 C12.0944,66.8432161 11.8144,66.600402 11.6316,66.4424121 L12.5812,67.2070352 L12.5812,67.2070352 L12.5812,67.2070352 Z M64.69,63.1041206 L62.5392,63.7127638 L52.602,63.4968844 L46.3856,58.638593 L38.872,60.5280402 L30.1816,59.7722613 L25.3152,65.1165829 L16.184,67.8578894 L11.6248,66.4371859 C11.4796,66.3113568 11.3952,66.238593 11.3952,66.238593 L13.4416,71.2745729 C13.4416,71.2745729 18.0768,76.2691457 20.666,76.8564824 C23.2548,77.4438191 27.932,76.8142714 31.44,76.2683417 C34.9476,75.7228141 37.7456,74.4637186 38.8732,72.4078392 C40.0004,70.3507538 40.1676,69.7634171 40.1676,69.7634171 C40.1676,69.7634171 43.5088,74.5059296 46.39,75.0518593 C49.2712,75.5973869 57.832,72.6590955 57.832,72.6590955 C57.832,72.6590955 63.0524,71.2323618 63.9704,69.4277387 C64.8892,67.6231156 67.3116,61.7055276 67.3116,61.7055276 L64.69,63.1041206 L64.69,63.1041206 L64.69,63.1041206 Z" id="Fill-31" fill="#62625F"></path>
                                <path d="M7.2776,36.6868342 C7.9812,36.5264322 8.932,36.3222111 10.098,36.0958794 C9.3816,36.5867337 8.5344,37.2030151 7.6092,37.9439196 L7.2776,36.6868342" id="Fill-32" fill="#8B8C88"></path>
                                <path d="M33.044,55.4450251 C33.044,55.4450251 33.2408,56.7173869 31.4688,57.2617085 C29.6976,57.8064322 18.476,61.1676382 17.196,60.9855276 C15.9164,60.8042211 12.6684,58.6241206 12.6684,58.6241206 L11.8808,55.8084422 L16.6872,58.8203015 L33.044,55.4450251" id="Fill-33" fill="#BDBDB9"></path>
                                <path d="M43.0968,55.198593 C43.0968,55.198593 42.9552,56.4777889 44.7492,56.9453266 C46.5428,57.4120603 57.8992,60.28 59.1692,60.0424121 C60.4396,59.8048241 63.5904,57.4852261 63.5904,57.4852261 L64.2556,54.6373869 L59.8376,57.2858291 L43.0968,55.198593" id="Fill-34" fill="#BDBDB9"></path>
                                <path d="M6.3648,53.1037186 C6.3648,53.1037186 7.9196,56.2293467 10.4312,55.1471357 L12.2252,55.8084422 L12.046,57.1310553 L8.2784,57.6114573 L7.262,57.0108543 L6.3648,53.1037186" id="Fill-35" fill="#BDBDB9"></path>
                                <path d="M64.8144,54.6160804 C64.728,54.9224121 64.638,55.9354774 64.5444,56.2369849 C65.4704,56.5103518 67.7372,56.4484422 68.5904,56.2984925 C69.2976,55.5829146 70.616,50.6570854 70.9044,48.041608 C71.1392,45.9222111 70.5932,45.080804 70.3792,44.9027136 C70.1304,44.6928643 69.1984,44.159799 68.3908,43.7252261 L67.0912,52.4118593 C67.0704,52.5827136 66.98,52.7342714 66.8376,52.8323618 L64.8144,54.6160804" id="Fill-36" fill="#F7F6F5"></path>
                            </g>
                            <path d="M50.266,13.2683417 L50.266,9.33266332 L36.1764,9.33266332 L36.1764,13.2683417 L38.1028,13.2683417 L38.1028,11.2687437 L42.0884,11.2687437 L42.0884,23.4194975 L40.4484,23.4194975 L40.4484,25.6731658 L45.9944,25.6731658 L45.9944,23.4194975 L44.354,23.4194975 L44.354,11.2687437 L48.3396,11.2687437 L48.3396,13.2683417 L50.266,13.2683417" id="Fill-42" fill="#62625F"></path>
                        </g>
                    </g>
                </g>
            </g>
        </g>
    </g>
</svg>