<?xml version="1.0" encoding="UTF-8"?>
<svg width="80px" height="80px" viewBox="0 0 80 80" version="1.1" xmlns="http://www.w3.org/2000/svg" xmlns:xlink="http://www.w3.org/1999/xlink">
    <!-- Generator: Sketch 51.3 (57544) - http://www.bohemiancoding.com/sketch -->
    <title>data-experts</title>
    <desc>Created with Sketch.</desc>
    <defs></defs>
    <g id="Current-Version" stroke="none" stroke-width="1" fill="none" fill-rule="evenodd">
        <g id="employers01" transform="translate(-1104.000000, -4217.000000)" fill-rule="nonzero">
            <g id="great-engineering" transform="translate(181.000000, 4069.000000)">
                <g id="Group-39" transform="translate(0.000000, 148.000000)">
                    <g id="data-experts" transform="translate(923.000000, 0.000000)">
                        <rect id="Rectangle-12" fill="#FFEAED" x="0" y="0" width="80" height="80" rx="8"></rect>
                        <path d="M40.5,29.0000028 C37.7341229,29.0000028 35.2268427,29.4747174 33.3344595,30.3044893 C32.3882679,30.7193753 31.5887224,31.2208199 30.9932432,31.8381424 C30.3977641,32.4554649 30,33.2336383 30,34.0769233 L30,45.9230795 C30,46.766356 30.3977655,47.5357069 30.9932432,48.1530322 C31.5887209,48.7703576 32.3882696,49.2718163 33.3344595,49.6866853 C35.2268393,50.5164797 37.7341229,51 40.5,51 C43.265891,51 45.7731636,50.5164797 47.6655405,49.6866853 C48.611729,49.2718163 49.4112813,48.7703576 50.0067568,48.1530322 C50.6022316,47.5357069 51,46.766356 51,45.9230795 L51,34.0769205 C51,33.2336383 50.6022316,32.4554621 50.0067568,31.8381396 C49.4112827,31.2208199 48.6117273,30.7193725 47.6655405,30.3044865 C45.7731667,29.4747174 43.265891,29 40.5,29 L40.5,29.0000028 Z M40.5,30.6923096 C43.0629044,30.6923096 45.3829413,31.1543094 46.9826858,31.8557706 C47.7825582,32.2065012 48.3930504,32.6154161 48.7740709,33.0104174 C49.1550915,33.4054188 49.2972973,33.7519045 49.2972973,34.0769233 C49.2972973,34.4019421 49.1550915,34.7396137 48.7740709,35.1346151 C48.3930504,35.5296164 47.7825582,35.9385313 46.9826858,36.2892619 C45.3829413,36.9907231 43.0629044,37.4615369 40.5,37.4615369 C37.9371101,37.4615369 35.6170706,36.9907231 34.0173142,36.2892619 C33.2174358,35.9385313 32.6069542,35.5296164 32.2259291,35.1346151 C31.8449039,34.7396137 31.7027027,34.4019365 31.7027027,34.0769233 C31.7027027,33.7519101 31.8449039,33.4054188 32.2259291,33.0104174 C32.6069542,32.6154161 33.2174358,32.2065012 34.0173142,31.8557706 C35.6170706,31.1543094 37.9371101,30.6923096 40.5,30.6923096 Z M31.7027027,36.9150629 C32.1761508,37.2633424 32.7230601,37.5724564 33.3344595,37.8405432 C35.2268427,38.6703009 37.7341229,39.1538494 40.5,39.1538494 C43.265891,39.1538494 45.7731667,38.6703009 47.6655405,37.8405432 C48.2769368,37.5724564 48.823848,37.2633424 49.2972973,36.9150629 L49.2972973,38.0256392 C49.2972973,38.350658 49.1550915,38.688324 48.7740709,39.0833366 C48.3930504,39.4783239 47.7825582,39.8872416 46.9826858,40.2379722 C45.3829413,40.9394334 43.0629044,41.4102613 40.5,41.4102613 C37.9371101,41.4102613 35.6170706,40.9394334 34.0173142,40.2379722 C33.2174358,39.8872416 32.6069542,39.4783239 32.2259291,39.0833366 C31.8449039,38.688324 31.7027027,38.3506524 31.7027027,38.0256392 L31.7027027,36.9150629 Z M31.7027027,40.8725872 C32.1748046,41.2191999 32.7251351,41.5220946 33.3344595,41.7892534 C35.2268427,42.6190479 37.7341229,43.1025682 40.5,43.1025682 C43.265891,43.1025682 45.7731667,42.6190479 47.6655405,41.7892534 C48.2748618,41.5220946 48.8251943,41.2191999 49.2972973,40.8725872 L49.2972973,41.9743636 C49.2972973,42.2993711 49.1550915,42.6370428 48.7740709,43.0320554 C48.3930504,43.4270398 47.7825582,43.8359575 46.9826858,44.1866881 C45.3829413,44.8881493 43.0629044,45.3589773 40.5,45.3589773 C37.9371101,45.3589773 35.6170706,44.8881493 34.0173142,44.1866881 C33.2174358,43.8359575 32.6069542,43.4270398 32.2259291,43.0320554 C31.8449039,42.6370428 31.7027027,42.2993711 31.7027027,41.9743636 L31.7027027,40.8725872 Z M31.7027027,44.8213032 C32.1748046,45.167944 32.7251351,45.4708105 33.3344595,45.7379694 C35.2268427,46.5677638 37.7341229,47.0512841 40.5,47.0512841 C43.265891,47.0512841 45.7731667,46.5677638 47.6655405,45.7379694 C48.2748618,45.4708105 48.8251943,45.167944 49.2972973,44.8213032 L49.2972973,45.9230795 C49.2972973,46.2480871 49.1550927,46.5857587 48.7740709,46.9807713 C48.3930492,47.3757557 47.7825599,47.7846734 46.9826858,48.135404 C45.3829373,48.8368652 43.0629044,49.3076932 40.5,49.3076932 C37.9371101,49.3076932 35.6170669,48.8368652 34.0173142,48.135404 C33.2174378,47.7846734 32.6069531,47.3757557 32.2259291,46.9807713 C31.8449051,46.5857587 31.7027027,46.2480871 31.7027027,45.9230795 L31.7027027,44.8213032 Z" id="Shape" fill="#F0576A"></path>
                    </g>
                </g>
            </g>
        </g>
    </g>
</svg>