<?xml version="1.0" encoding="UTF-8"?>
<svg width="472px" height="417px" viewBox="0 0 472 417" version="1.1" xmlns="http://www.w3.org/2000/svg" xmlns:xlink="http://www.w3.org/1999/xlink">
    <!-- Generator: Sketch 51.3 (57544) - http://www.bohemiancoding.com/sketch -->
    <title>illustration-process</title>
    <desc>Created with Sketch.</desc>
    <defs>
        <path d="M465.84079,371.222993 C485.075249,326.898817 450.312493,311.803757 450.312493,201.562007 C450.312493,91.3202578 485.075249,109.001976 465.84079,52.8585102 C451.131583,9.92380217 406.112505,-12.5252338 301.454138,9.08012153 C269.256247,15.7269564 231.092737,10.228841 186.839218,30.3616998 C119.898383,60.8160097 8.88602776,184.504191 3.40140877,229.695213 C-4.4948975,294.757553 -4.19982838,348.682348 67.3629531,391.268577 C160.426924,446.649928 150.094829,391.268577 265.009987,391.268577 C301.906916,391.268577 322.395894,413.081336 365.605581,415.646613 C408.815268,418.21189 446.606331,415.54717 465.84079,371.222993 Z" id="path-1"></path>
        <rect id="path-3" x="-5.62749847e-13" y="117.576866" width="39.5772637" height="38.5311399" rx="7.49371392"></rect>
        <rect id="path-4" x="-7.12816473e-13" y="78.7004605" width="39.5772637" height="38.5311399" rx="7.49371392"></rect>
        <rect id="path-5" x="-7.12816473e-13" y="39.2642701" width="39.5772637" height="38.5311399" rx="7.49371392"></rect>
        <rect id="path-6" x="-7.03437308e-13" y="0.498184227" width="39.5772637" height="38.5311399" rx="7.49371392"></rect>
        <polygon id="path-7" points="0.048523392 0.431789785 0.048523392 97.3488663 94.4111551 97.3488663 94.4111551 0.431789785 0.048523392 0.431789785"></polygon>
        <polygon id="path-9" points="0.048523392 0.431789785 0.048523392 97.3488663 94.4111551 97.3488663 94.4111551 0.431789785 0.048523392 0.431789785"></polygon>
    </defs>
    <g id="Current-Version" stroke="none" stroke-width="1" fill="none" fill-rule="evenodd">
        <g id="talents01" transform="translate(-706.000000, -1238.000000)">
            <g id="signup-process" transform="translate(256.000000, 1155.000000)">
                <g id="illustration-process" transform="translate(450.000000, 83.000000)">
                    <mask id="mask-2" fill="white">
                        <use xlink:href="#path-1"></use>
                    </mask>
                    <use id="bg" fill="#FFF2C6" fill-rule="nonzero" xlink:href="#path-1"></use>
                    <g id="background" opacity="0.33515625" mask="url(#mask-2)">
                        <g transform="translate(-43.000000, 18.000000)" id="pattern">
                            <g transform="translate(0.000000, 29.081783)">
                                <g id="Group-14" transform="translate(0.000000, 77.995795)" stroke="#F9D760" stroke-width="7.805952">
                                    <path d="M86.4809176,0.1346963 L81.7933355,0.1346963 C76.4083671,0.1346963 72.0429877,4.49595754 72.0429877,9.88784832 L72.0429877,79.6745881 L0,79.6745881" id="Path-7"></path>
                                </g>
                                <polyline id="Path-41" stroke="#F6C724" stroke-width="3.25248" points="102.918554 140.626121 102.918554 104.914333 218.29567 104.914333"></polyline>
                                <polyline id="Path-16" stroke="#F6C724" stroke-width="3.25248" transform="translate(170.357290, 75.695599) rotate(360.000000) translate(-170.357290, -75.695599) " points="177.669925 12.3883393 122.418911 12.3883362 122.418911 49.7233906 218.29567 49.7233906 218.29567 139.002861"></polyline>
                                <polyline id="Path-20" stroke="#F6C724" stroke-width="2.81014272" transform="translate(384.821032, 88.833138) scale(-1, 1) rotate(540.000000) translate(-384.821032, -88.833138) " points="510.449356 145.418374 474.383863 145.53182 474.40196 133.879505 388.9607 133.745432 388.815102 71.144531 347.502329 71.374002 347.291747 32.1344554 295.440118 81.3442581 259.192708 81.3442581 259.192708 131.189415"></polyline>
                                <g id="Group-18" transform="translate(342.605398, 59.597206) scale(-1, 1) rotate(540.000000) translate(-342.605398, -59.597206) translate(305.816913, 21.597206)">
                                    <ellipse id="Oval-4" fill="#FFEBA5" cx="36.6089688" cy="37.7282382" rx="36.4290722" ry="37.591356"></ellipse>
                                    <ellipse id="Oval-5" fill="#FFFFFF" cx="36.2491755" cy="37.6342598" rx="25.635273" ry="26.7838411"></ellipse>
                                </g>
                                <path d="M390.029565,105.862436 L512.698064,105.640529" id="Path-21" stroke="#F6C724" stroke-width="2.81014272" transform="translate(451.363814, 105.751483) scale(-1, 1) rotate(540.000000) translate(-451.363814, -105.751483) "></path>
                                <polyline id="Path-42" stroke="#F6C724" stroke-width="3.25248" transform="translate(394.611403, 22.127915) rotate(360.000000) translate(-394.611403, -22.127915) " points="260.546444 31.8674934 260.546444 12.3883362 528.676361 12.3883362"></polyline>
                                <g id="Group-29" transform="translate(218.061203, 24.646452) scale(-1, -1) rotate(-360.000000) translate(-218.061203, -24.646452) translate(164.877849, 0.246452)">
                                    <polyline id="Path-18" stroke="#F6C724" stroke-width="2.81014272" transform="translate(52.502481, 33.744657) rotate(180.000000) translate(-52.502481, -33.744657) " points="18.413253 19.9983105 52.6822159 20.59992 86.5917084 47.4910029"></polyline>
                                    <polyline id="Path-18" stroke="#F6C724" stroke-width="2.81014272" transform="translate(54.751189, 14.948979) rotate(180.000000) translate(-54.751189, -14.948979) " points="20.6619612 1.20263255 54.9309241 1.804242 88.8404166 28.6953249"></polyline>
                                    <rect id="Rectangle-8" fill="#FFFFFF" transform="translate(95.543943, 37.149367) rotate(180.000000) translate(-95.543943, -37.149367) " x="84.7501438" y="25.8719599" width="21.5875983" height="22.5548136"></rect>
                                    <ellipse id="Oval" fill="#F9D760" transform="translate(95.260124, 37.384313) rotate(180.000000) translate(-95.260124, -37.384313) " cx="95.260124" cy="37.3843127" rx="7.64560775" ry="7.98816314"></ellipse>
                                    <rect id="Rectangle-8" fill="#FFFFFF" transform="translate(11.217387, 11.305309) rotate(180.000000) translate(-11.217387, -11.305309) " x="0.423587719" y="0.0279026748" width="21.5875983" height="22.5548136"></rect>
                                    <ellipse id="Oval" fill="#F9D760" transform="translate(10.933568, 11.540255) rotate(180.000000) translate(-10.933568, -11.540255) " cx="10.933568" cy="11.5402554" rx="7.64560775" ry="7.98816314"></ellipse>
                                </g>
                                <g id="Group-17" transform="translate(422.544824, 75.422928) scale(-1, 1) rotate(540.000000) translate(-422.544824, -75.422928) translate(404.550456, 41.422928)">
                                    <g id="Group-14" transform="translate(1.083569, 0.000000)">
                                        <g id="Group-13" transform="translate(29.975231, 9.960284) rotate(-90.000000) translate(-29.975231, -9.960284) translate(20.778109, 6.760284)">
                                            <rect id="Rectangle-6" fill="#F3F3F3" x="6.23409924" y="0.0243148833" width="11.6932824" height="5.63870339" rx="2.8193517"></rect>
                                            <path d="M0.719586622,0.91846198 L11.5245121,0.91846198 C12.6112632,0.91846198 13.492249,1.78849061 13.492249,2.87858269 L13.492249,2.87858269 C13.492249,3.96112746 12.6143322,4.83870339 11.5245121,4.83870339 L0.719586622,4.83870339 L0.719586622,0.91846198 Z" id="Rectangle-5" fill="#FFEBA4"></path>
                                        </g>
                                        <g id="Group-13" transform="translate(20.980398, 9.772327) rotate(-90.000000) translate(-20.980398, -9.772327) translate(11.783277, 6.572327)">
                                            <rect id="Rectangle-6" fill="#F3F3F3" x="6.23409924" y="0.0243148833" width="11.6932824" height="5.63870339" rx="2.8193517"></rect>
                                            <path d="M0.719586622,0.91846198 L11.5245121,0.91846198 C12.6112632,0.91846198 13.492249,1.78849061 13.492249,2.87858269 L13.492249,2.87858269 C13.492249,3.96112746 12.6143322,4.83870339 11.5245121,4.83870339 L0.719586622,4.83870339 L0.719586622,0.91846198 Z" id="Rectangle-5" fill="#FFEBA4"></path>
                                        </g>
                                        <g id="Group-13" transform="translate(12.885049, 9.490392) rotate(-90.000000) translate(-12.885049, -9.490392) translate(3.687927, 6.290392)">
                                            <rect id="Rectangle-6" fill="#F3F3F3" x="6.23409924" y="0.0243148833" width="11.6932824" height="5.63870339" rx="2.8193517"></rect>
                                            <path d="M0.719586622,0.91846198 L11.5245121,0.91846198 C12.6112632,0.91846198 13.492249,1.78849061 13.492249,2.87858269 L13.492249,2.87858269 C13.492249,3.96112746 12.6143322,4.83870339 11.5245121,4.83870339 L0.719586622,4.83870339 L0.719586622,0.91846198 Z" id="Rectangle-5" fill="#FFEBA4"></path>
                                        </g>
                                        <g id="Group-13" transform="translate(3.890216, 9.678349) rotate(-90.000000) translate(-3.890216, -9.678349) translate(-5.306905, 6.478349)">
                                            <rect id="Rectangle-6" fill="#F3F3F3" x="6.23409924" y="0.0243148833" width="11.6932824" height="5.63870339" rx="2.8193517"></rect>
                                            <path d="M0.719586622,0.91846198 L11.5245121,0.91846198 C12.6112632,0.91846198 13.492249,1.78849061 13.492249,2.87858269 L13.492249,2.87858269 C13.492249,3.96112746 12.6143322,4.83870339 11.5245121,4.83870339 L0.719586622,4.83870339 L0.719586622,0.91846198 Z" id="Rectangle-5" fill="#FFEBA4"></path>
                                        </g>
                                    </g>
                                    <g id="Group-14" transform="translate(17.878312, 58.110967) scale(1, -1) translate(-17.878312, -58.110967) translate(1.083569, 48.510967)">
                                        <g id="Group-13" transform="translate(29.975231, 9.960284) rotate(-90.000000) translate(-29.975231, -9.960284) translate(20.778109, 6.760284)">
                                            <rect id="Rectangle-6" fill="#F3F3F3" x="6.23409924" y="0.0243148833" width="11.6932824" height="5.63870339" rx="2.8193517"></rect>
                                            <path d="M0.719586622,0.91846198 L11.5245121,0.91846198 C12.6112632,0.91846198 13.492249,1.78849061 13.492249,2.87858269 L13.492249,2.87858269 C13.492249,3.96112746 12.6143322,4.83870339 11.5245121,4.83870339 L0.719586622,4.83870339 L0.719586622,0.91846198 Z" id="Rectangle-5" fill="#FFEBA4"></path>
                                        </g>
                                        <g id="Group-13" transform="translate(20.980398, 9.772327) rotate(-90.000000) translate(-20.980398, -9.772327) translate(11.783277, 6.572327)">
                                            <rect id="Rectangle-6" fill="#F3F3F3" x="6.23409924" y="0.0243148833" width="11.6932824" height="5.63870339" rx="2.8193517"></rect>
                                            <path d="M0.719586622,0.91846198 L11.5245121,0.91846198 C12.6112632,0.91846198 13.492249,1.78849061 13.492249,2.87858269 L13.492249,2.87858269 C13.492249,3.96112746 12.6143322,4.83870339 11.5245121,4.83870339 L0.719586622,4.83870339 L0.719586622,0.91846198 Z" id="Rectangle-5" fill="#FFEBA4"></path>
                                        </g>
                                        <g id="Group-13" transform="translate(12.885049, 9.490392) rotate(-90.000000) translate(-12.885049, -9.490392) translate(3.687927, 6.290392)">
                                            <rect id="Rectangle-6" fill="#F3F3F3" x="6.23409924" y="0.0243148833" width="11.6932824" height="5.63870339" rx="2.8193517"></rect>
                                            <path d="M0.719586622,0.91846198 L11.5245121,0.91846198 C12.6112632,0.91846198 13.492249,1.78849061 13.492249,2.87858269 L13.492249,2.87858269 C13.492249,3.96112746 12.6143322,4.83870339 11.5245121,4.83870339 L0.719586622,4.83870339 L0.719586622,0.91846198 Z" id="Rectangle-5" fill="#FFEBA4"></path>
                                        </g>
                                        <g id="Group-13" transform="translate(3.890216, 9.678349) rotate(-90.000000) translate(-3.890216, -9.678349) translate(-5.306905, 6.478349)">
                                            <rect id="Rectangle-6" fill="#F3F3F3" x="6.23409924" y="0.0243148833" width="11.6932824" height="5.63870339" rx="2.8193517"></rect>
                                            <path d="M0.719586622,0.91846198 L11.5245121,0.91846198 C12.6112632,0.91846198 13.492249,1.78849061 13.492249,2.87858269 L13.492249,2.87858269 C13.492249,3.96112746 12.6143322,4.83870339 11.5245121,4.83870339 L0.719586622,4.83870339 L0.719586622,0.91846198 Z" id="Rectangle-5" fill="#FFEBA4"></path>
                                        </g>
                                    </g>
                                    <rect id="Rectangle-7" fill="#FFFCF2" x="0.209615781" y="17.8791572" width="35.0798473" height="31.9526526"></rect>
                                </g>
                                <g id="Group-17" transform="translate(161.510202, 77.430648) rotate(180.000000) translate(-161.510202, -77.430648) translate(143.515834, 43.430648)">
                                    <g id="Group-14" transform="translate(1.083569, -0.000000)">
                                        <g id="Group-13" transform="translate(29.975231, 9.960284) rotate(-90.000000) translate(-29.975231, -9.960284) translate(20.778109, 6.760284)">
                                            <rect id="Rectangle-6" fill="#F3F3F3" x="6.23409924" y="0.0243148833" width="11.6932824" height="5.63870339" rx="2.8193517"></rect>
                                            <path d="M0.719586622,0.91846198 L11.5245121,0.91846198 C12.6112632,0.91846198 13.492249,1.78849061 13.492249,2.87858269 L13.492249,2.87858269 C13.492249,3.96112746 12.6143322,4.83870339 11.5245121,4.83870339 L0.719586622,4.83870339 L0.719586622,0.91846198 Z" id="Rectangle-5" fill="#FFEBA4"></path>
                                        </g>
                                        <g id="Group-13" transform="translate(20.980398, 9.772327) rotate(-90.000000) translate(-20.980398, -9.772327) translate(11.783277, 6.572327)">
                                            <rect id="Rectangle-6" fill="#F3F3F3" x="6.23409924" y="0.0243148833" width="11.6932824" height="5.63870339" rx="2.8193517"></rect>
                                            <path d="M0.719586622,0.91846198 L11.5245121,0.91846198 C12.6112632,0.91846198 13.492249,1.78849061 13.492249,2.87858269 L13.492249,2.87858269 C13.492249,3.96112746 12.6143322,4.83870339 11.5245121,4.83870339 L0.719586622,4.83870339 L0.719586622,0.91846198 Z" id="Rectangle-5" fill="#FFEBA4"></path>
                                        </g>
                                        <g id="Group-13" transform="translate(12.885049, 9.490392) rotate(-90.000000) translate(-12.885049, -9.490392) translate(3.687927, 6.290392)">
                                            <rect id="Rectangle-6" fill="#F3F3F3" x="6.23409924" y="0.0243148833" width="11.6932824" height="5.63870339" rx="2.8193517"></rect>
                                            <path d="M0.719586622,0.91846198 L11.5245121,0.91846198 C12.6112632,0.91846198 13.492249,1.78849061 13.492249,2.87858269 L13.492249,2.87858269 C13.492249,3.96112746 12.6143322,4.83870339 11.5245121,4.83870339 L0.719586622,4.83870339 L0.719586622,0.91846198 Z" id="Rectangle-5" fill="#FFEBA4"></path>
                                        </g>
                                        <g id="Group-13" transform="translate(3.890216, 9.678349) rotate(-90.000000) translate(-3.890216, -9.678349) translate(-5.306905, 6.478349)">
                                            <rect id="Rectangle-6" fill="#F3F3F3" x="6.23409924" y="0.0243148833" width="11.6932824" height="5.63870339" rx="2.8193517"></rect>
                                            <path d="M0.719586622,0.91846198 L11.5245121,0.91846198 C12.6112632,0.91846198 13.492249,1.78849061 13.492249,2.87858269 L13.492249,2.87858269 C13.492249,3.96112746 12.6143322,4.83870339 11.5245121,4.83870339 L0.719586622,4.83870339 L0.719586622,0.91846198 Z" id="Rectangle-5" fill="#FFEBA4"></path>
                                        </g>
                                    </g>
                                    <g id="Group-14" transform="translate(17.878312, 58.110967) scale(1, -1) translate(-17.878312, -58.110967) translate(1.083569, 48.510967)">
                                        <g id="Group-13" transform="translate(29.975231, 9.960284) rotate(-90.000000) translate(-29.975231, -9.960284) translate(20.778109, 6.760284)">
                                            <rect id="Rectangle-6" fill="#F3F3F3" x="6.23409924" y="0.0243148833" width="11.6932824" height="5.63870339" rx="2.8193517"></rect>
                                            <path d="M0.719586622,0.91846198 L11.5245121,0.91846198 C12.6112632,0.91846198 13.492249,1.78849061 13.492249,2.87858269 L13.492249,2.87858269 C13.492249,3.96112746 12.6143322,4.83870339 11.5245121,4.83870339 L0.719586622,4.83870339 L0.719586622,0.91846198 Z" id="Rectangle-5" fill="#FFEBA4"></path>
                                        </g>
                                        <g id="Group-13" transform="translate(20.980398, 9.772327) rotate(-90.000000) translate(-20.980398, -9.772327) translate(11.783277, 6.572327)">
                                            <rect id="Rectangle-6" fill="#F3F3F3" x="6.23409924" y="0.0243148833" width="11.6932824" height="5.63870339" rx="2.8193517"></rect>
                                            <path d="M0.719586622,0.91846198 L11.5245121,0.91846198 C12.6112632,0.91846198 13.492249,1.78849061 13.492249,2.87858269 L13.492249,2.87858269 C13.492249,3.96112746 12.6143322,4.83870339 11.5245121,4.83870339 L0.719586622,4.83870339 L0.719586622,0.91846198 Z" id="Rectangle-5" fill="#FFEBA4"></path>
                                        </g>
                                        <g id="Group-13" transform="translate(12.885049, 9.490392) rotate(-90.000000) translate(-12.885049, -9.490392) translate(3.687927, 6.290392)">
                                            <rect id="Rectangle-6" fill="#F3F3F3" x="6.23409924" y="0.0243148833" width="11.6932824" height="5.63870339" rx="2.8193517"></rect>
                                            <path d="M0.719586622,0.91846198 L11.5245121,0.91846198 C12.6112632,0.91846198 13.492249,1.78849061 13.492249,2.87858269 L13.492249,2.87858269 C13.492249,3.96112746 12.6143322,4.83870339 11.5245121,4.83870339 L0.719586622,4.83870339 L0.719586622,0.91846198 Z" id="Rectangle-5" fill="#FFEBA4"></path>
                                        </g>
                                        <g id="Group-13" transform="translate(3.890216, 9.678349) rotate(-90.000000) translate(-3.890216, -9.678349) translate(-5.306905, 6.478349)">
                                            <rect id="Rectangle-6" fill="#F3F3F3" x="6.23409924" y="0.0243148833" width="11.6932824" height="5.63870339" rx="2.8193517"></rect>
                                            <path d="M0.719586622,0.91846198 L11.5245121,0.91846198 C12.6112632,0.91846198 13.492249,1.78849061 13.492249,2.87858269 L13.492249,2.87858269 C13.492249,3.96112746 12.6143322,4.83870339 11.5245121,4.83870339 L0.719586622,4.83870339 L0.719586622,0.91846198 Z" id="Rectangle-5" fill="#FFEBA4"></path>
                                        </g>
                                    </g>
                                    <rect id="Rectangle-7" fill="#FFFFFF" x="0.209615781" y="17.8791572" width="35.0798473" height="31.9526526"></rect>
                                </g>
                                <g id="Group-13" transform="translate(117.184796, 78.661201) rotate(90.000000) translate(-117.184796, -78.661201) translate(99.590303, 47.461201)">
                                    <path d="M0,15.5828143 C0,9.11670408 5.23853152,3.87488611 11.7181589,3.87488611 L23.3997417,3.87488611 C29.8715021,3.87488611 35.1179006,9.1176574 35.1179006,15.5828143 L35.1179006,48.4360763 L23.4119337,48.4360763 L23.4119337,61.9981777 L11.7059669,61.9981777 L11.7059669,48.4360763 L0,48.4360763 L0,15.5828143 Z" id="Rectangle-8" fill="#FFEDAD"></path>
                                    <path d="M9.75497239,0.968721526 L9.75497239,12.5933798" id="Line" stroke="#FFDD63" stroke-width="3.902976" stroke-linecap="square"></path>
                                    <path d="M17.5589503,0.968721526 L17.5589503,12.5933798" id="Line" stroke="#FFDD63" stroke-width="3.902976" stroke-linecap="square"></path>
                                    <path d="M25.3629282,0.968721526 L25.3629282,12.5933798" id="Line" stroke="#FFDD63" stroke-width="3.902976" stroke-linecap="square"></path>
                                </g>
                                <g id="Group-30" transform="translate(86.668256, 126.016753)">
                                    <g id="Group-13" transform="translate(131.321049, 14.325683) scale(-1, 1) rotate(180.000000) translate(-131.321049, -14.325683) translate(112.127056, 5.925683)">
                                        <rect id="Rectangle-6" fill="#FFFFFF" x="8.09534938" y="0.375913537" width="29.6829477" height="15.9763263" rx="7.49371392"></rect>
                                        <path d="M2.34357563e-12,5.45074662 L22.3697412,5.45074662 C23.9248592,5.45074662 25.1855314,6.70215767 25.1855314,8.27009832 L25.1855314,8.27009832 C25.1855314,9.82718327 23.936577,11.08945 22.3697412,11.08945 L2.34357563e-12,11.08945 L2.34357563e-12,5.45074662 Z" id="Rectangle-5" fill="#FFEBA4"></path>
                                    </g>
                                    <g id="Group-13" transform="translate(19.806723, 14.325683) rotate(180.000000) translate(-19.806723, -14.325683) translate(0.612730, 5.925683)">
                                        <rect id="Rectangle-6" fill="#FFFFFF" x="8.09534938" y="0.375913537" width="29.6829477" height="15.9763263" rx="7.49371392"></rect>
                                        <path d="M-1.50066626e-13,5.45074662 L22.3697412,5.45074662 C23.9248592,5.45074662 25.1855314,6.70215767 25.1855314,8.27009832 L25.1855314,8.27009832 C25.1855314,9.82718327 23.936577,11.08945 22.3697412,11.08945 L-1.50066626e-13,11.08945 L-1.50066626e-13,5.45074662 Z" id="Rectangle-5" fill="#FFEBA4"></path>
                                    </g>
                                    <rect id="Rectangle-4" fill="#FFDD68" transform="translate(76.227402, 14.566650) rotate(180.000000) translate(-76.227402, -14.566650) " x="35.7506556" y="1.8756118e-13" width="80.9534938" height="29.1333009" rx="3.74685696"></rect>
                                </g>
                            </g>
                            <g transform="translate(68.000000, 230.000000)">
                                <polyline id="Path-41" stroke="#F6C724" stroke-width="3.25248" transform="translate(389.194637, 123.118624) scale(-1, 1) translate(-389.194637, -123.118624) " points="331.506079 140.974518 331.506079 105.26273 446.883194 105.26273"></polyline>
                                <polyline id="Path-16" stroke="#F6C724" stroke-width="3.25248" transform="translate(379.444458, 76.043996) scale(-1, 1) rotate(360.000000) translate(-379.444458, -76.043996) " points="331.506079 12.7367336 331.506079 50.071788 427.382837 50.071788 427.382837 139.351258"></polyline>
                                <polyline id="Path-20" stroke="#F6C724" stroke-width="2.81014272" transform="translate(164.980716, 89.699779) rotate(540.000000) translate(-164.980716, -89.699779) " points="290.60904 146.803259 254.543548 146.916705 254.561644 135.264389 169.120384 135.130316 168.974786 72.5294155 127.662013 72.7588866 127.451431 33.51934 39.3523928 32.4828529 39.3523928 119.382687 51.2704401 119.382687"></polyline>
                                <path d="M37.1036847,106.210834 L159.772183,105.988927" id="Path-21" stroke="#F6C724" stroke-width="2.81014272" transform="translate(98.437934, 106.099880) rotate(540.000000) translate(-98.437934, -106.099880) "></path>
                                <g id="Group-13" transform="translate(81.997875, 141.288878) rotate(540.000000) translate(-81.997875, -141.288878) translate(62.803882, 132.888878)">
                                    <rect id="Rectangle-6" fill="#FFFFFF" x="8.09534938" y="0.375913537" width="29.6829477" height="15.9763263" rx="7.49371392"></rect>
                                    <path d="M2.34357563e-12,5.45074662 L22.3697412,5.45074662 C23.9248592,5.45074662 25.1855314,6.70215767 25.1855314,8.27009832 L25.1855314,8.27009832 C25.1855314,9.82718327 23.936577,11.08945 22.3697412,11.08945 L2.34357563e-12,11.08945 L2.34357563e-12,5.45074662 Z" id="Rectangle-5" fill="#FFE58A"></path>
                                </g>
                                <g id="Group-13" transform="translate(197.966291, 141.288878) scale(-1, 1) rotate(540.000000) translate(-197.966291, -141.288878) translate(178.772299, 132.888878)">
                                    <rect id="Rectangle-6" fill="#FFFFFF" x="8.09534938" y="0.375913537" width="29.6829477" height="15.9763263" rx="7.49371392"></rect>
                                    <path d="M-1.50066626e-13,5.45074662 L22.3697412,5.45074662 C23.9248592,5.45074662 25.1855314,6.70215767 25.1855314,8.27009832 L25.1855314,8.27009832 C25.1855314,9.82718327 23.936577,11.08945 22.3697412,11.08945 L-1.50066626e-13,11.08945 L-1.50066626e-13,5.45074662 Z" id="Rectangle-5" fill="#FFE58A"></path>
                                </g>
                                <g id="Group-29" transform="translate(226.183354, 71.400000) scale(1, -1) rotate(-360.000000) translate(-226.183354, -71.400000) translate(173.000000, 47.000000)">
                                    <polyline id="Path-18" stroke="#F6C724" stroke-width="2.81014272" transform="translate(52.502481, 33.744657) rotate(180.000000) translate(-52.502481, -33.744657) " points="18.413253 19.9983105 52.6822159 20.59992 86.5917084 47.4910029"></polyline>
                                    <polyline id="Path-18" stroke="#F6C724" stroke-width="2.81014272" transform="translate(54.751189, 14.948979) rotate(180.000000) translate(-54.751189, -14.948979) " points="20.6619612 1.20263255 54.9309241 1.804242 88.8404166 28.6953249"></polyline>
                                    <rect id="Rectangle-8" fill="#FFFFFF" transform="translate(95.543943, 37.149367) rotate(180.000000) translate(-95.543943, -37.149367) " x="84.7501438" y="25.8719599" width="21.5875983" height="22.5548136"></rect>
                                    <ellipse id="Oval" fill="#FFDA59" transform="translate(95.260124, 37.384313) rotate(180.000000) translate(-95.260124, -37.384313) " cx="95.260124" cy="37.3843127" rx="7.64560775" ry="7.98816314"></ellipse>
                                    <rect id="Rectangle-8" fill="#FFFFFF" transform="translate(11.217387, 11.305309) rotate(180.000000) translate(-11.217387, -11.305309) " x="0.423587719" y="0.0279026748" width="21.5875983" height="22.5548136"></rect>
                                    <ellipse id="Oval" fill="#FFDA59" transform="translate(10.933568, 11.540255) rotate(180.000000) translate(-10.933568, -11.540255) " cx="10.933568" cy="11.5402554" rx="7.64560775" ry="7.98816314"></ellipse>
                                </g>
                                <rect id="Rectangle-4" fill="#F9D760" transform="translate(140.544260, 141.935661) rotate(540.000000) translate(-140.544260, -141.935661) " x="100.067513" y="127.369011" width="80.9534938" height="29.1333009" rx="3.74685696"></rect>
                                <g id="Rectangle-9" transform="translate(19.788632, 136.842436) rotate(540.000000) translate(-19.788632, -136.842436) " stroke-width="4.312">
                                    <rect stroke="#FFFFFF" stroke-linejoin="square" fill="#FFF2C4" fill-rule="evenodd" x="2.156" y="119.732866" width="35.2652637" height="34.2191399" rx="7.49371392"></rect>
                                    <use stroke="#FFE899" xlink:href="#path-3"></use>
                                </g>
                                <g id="Rectangle-9" transform="translate(19.788632, 97.966030) rotate(540.000000) translate(-19.788632, -97.966030) " stroke-width="4.312">
                                    <rect stroke="#FFFFFF" stroke-linejoin="square" fill="#FFF2C4" fill-rule="evenodd" x="2.156" y="80.8564605" width="35.2652637" height="34.2191399" rx="7.49371392"></rect>
                                    <use stroke="#FFE899" xlink:href="#path-4"></use>
                                </g>
                                <g id="Rectangle-9" transform="translate(19.788632, 58.529840) rotate(540.000000) translate(-19.788632, -58.529840) " stroke-width="4.312">
                                    <rect stroke="#FFFFFF" stroke-linejoin="square" fill="#FFF2C4" fill-rule="evenodd" x="2.156" y="41.4202701" width="35.2652637" height="34.2191399" rx="7.49371392"></rect>
                                    <use stroke="#FFE899" xlink:href="#path-5"></use>
                                </g>
                                <g id="Rectangle-9" transform="translate(19.788632, 19.763754) rotate(540.000000) translate(-19.788632, -19.763754) " stroke-width="4.312">
                                    <rect stroke="#FFFFFF" stroke-linejoin="square" fill="#FFF2C4" fill-rule="evenodd" x="2.156" y="2.65418423" width="35.2652637" height="34.2191399" rx="7.49371392"></rect>
                                    <use stroke="#FFE899" xlink:href="#path-6"></use>
                                </g>
                                <g id="Group-17" transform="translate(127.256924, 75.771326) rotate(540.000000) translate(-127.256924, -75.771326) translate(109.262556, 41.771326)">
                                    <g id="Group-14" transform="translate(1.083569, 0.000000)">
                                        <g id="Group-13" transform="translate(29.975231, 9.960284) rotate(-90.000000) translate(-29.975231, -9.960284) translate(20.778109, 6.760284)">
                                            <rect id="Rectangle-6" fill="#F3F3F3" x="6.23409924" y="0.0243148833" width="11.6932824" height="5.63870339" rx="2.8193517"></rect>
                                            <path d="M0.719586622,0.91846198 L11.5245121,0.91846198 C12.6112632,0.91846198 13.492249,1.78849061 13.492249,2.87858269 L13.492249,2.87858269 C13.492249,3.96112746 12.6143322,4.83870339 11.5245121,4.83870339 L0.719586622,4.83870339 L0.719586622,0.91846198 Z" id="Rectangle-5" fill="#FFE58A"></path>
                                        </g>
                                        <g id="Group-13" transform="translate(20.980398, 9.772327) rotate(-90.000000) translate(-20.980398, -9.772327) translate(11.783277, 6.572327)">
                                            <rect id="Rectangle-6" fill="#F3F3F3" x="6.23409924" y="0.0243148833" width="11.6932824" height="5.63870339" rx="2.8193517"></rect>
                                            <path d="M0.719586622,0.91846198 L11.5245121,0.91846198 C12.6112632,0.91846198 13.492249,1.78849061 13.492249,2.87858269 L13.492249,2.87858269 C13.492249,3.96112746 12.6143322,4.83870339 11.5245121,4.83870339 L0.719586622,4.83870339 L0.719586622,0.91846198 Z" id="Rectangle-5" fill="#FFE58A"></path>
                                        </g>
                                        <g id="Group-13" transform="translate(12.885049, 9.490392) rotate(-90.000000) translate(-12.885049, -9.490392) translate(3.687927, 6.290392)">
                                            <rect id="Rectangle-6" fill="#F3F3F3" x="6.23409924" y="0.0243148833" width="11.6932824" height="5.63870339" rx="2.8193517"></rect>
                                            <path d="M0.719586622,0.91846198 L11.5245121,0.91846198 C12.6112632,0.91846198 13.492249,1.78849061 13.492249,2.87858269 L13.492249,2.87858269 C13.492249,3.96112746 12.6143322,4.83870339 11.5245121,4.83870339 L0.719586622,4.83870339 L0.719586622,0.91846198 Z" id="Rectangle-5" fill="#FFE58A"></path>
                                        </g>
                                        <g id="Group-13" transform="translate(3.890216, 9.678349) rotate(-90.000000) translate(-3.890216, -9.678349) translate(-5.306905, 6.478349)">
                                            <rect id="Rectangle-6" fill="#F3F3F3" x="6.23409924" y="0.0243148833" width="11.6932824" height="5.63870339" rx="2.8193517"></rect>
                                            <path d="M0.719586622,0.91846198 L11.5245121,0.91846198 C12.6112632,0.91846198 13.492249,1.78849061 13.492249,2.87858269 L13.492249,2.87858269 C13.492249,3.96112746 12.6143322,4.83870339 11.5245121,4.83870339 L0.719586622,4.83870339 L0.719586622,0.91846198 Z" id="Rectangle-5" fill="#FFE58A"></path>
                                        </g>
                                    </g>
                                    <g id="Group-14" transform="translate(17.878312, 58.110967) scale(1, -1) translate(-17.878312, -58.110967) translate(1.083569, 48.510967)">
                                        <g id="Group-13" transform="translate(29.975231, 9.960284) rotate(-90.000000) translate(-29.975231, -9.960284) translate(20.778109, 6.760284)">
                                            <rect id="Rectangle-6" fill="#F3F3F3" x="6.23409924" y="0.0243148833" width="11.6932824" height="5.63870339" rx="2.8193517"></rect>
                                            <path d="M0.719586622,0.91846198 L11.5245121,0.91846198 C12.6112632,0.91846198 13.492249,1.78849061 13.492249,2.87858269 L13.492249,2.87858269 C13.492249,3.96112746 12.6143322,4.83870339 11.5245121,4.83870339 L0.719586622,4.83870339 L0.719586622,0.91846198 Z" id="Rectangle-5" fill="#FFE58A"></path>
                                        </g>
                                        <g id="Group-13" transform="translate(20.980398, 9.772327) rotate(-90.000000) translate(-20.980398, -9.772327) translate(11.783277, 6.572327)">
                                            <rect id="Rectangle-6" fill="#F3F3F3" x="6.23409924" y="0.0243148833" width="11.6932824" height="5.63870339" rx="2.8193517"></rect>
                                            <path d="M0.719586622,0.91846198 L11.5245121,0.91846198 C12.6112632,0.91846198 13.492249,1.78849061 13.492249,2.87858269 L13.492249,2.87858269 C13.492249,3.96112746 12.6143322,4.83870339 11.5245121,4.83870339 L0.719586622,4.83870339 L0.719586622,0.91846198 Z" id="Rectangle-5" fill="#FFE58A"></path>
                                        </g>
                                        <g id="Group-13" transform="translate(12.885049, 9.490392) rotate(-90.000000) translate(-12.885049, -9.490392) translate(3.687927, 6.290392)">
                                            <rect id="Rectangle-6" fill="#F3F3F3" x="6.23409924" y="0.0243148833" width="11.6932824" height="5.63870339" rx="2.8193517"></rect>
                                            <path d="M0.719586622,0.91846198 L11.5245121,0.91846198 C12.6112632,0.91846198 13.492249,1.78849061 13.492249,2.87858269 L13.492249,2.87858269 C13.492249,3.96112746 12.6143322,4.83870339 11.5245121,4.83870339 L0.719586622,4.83870339 L0.719586622,0.91846198 Z" id="Rectangle-5" fill="#FFE58A"></path>
                                        </g>
                                        <g id="Group-13" transform="translate(3.890216, 9.678349) rotate(-90.000000) translate(-3.890216, -9.678349) translate(-5.306905, 6.478349)">
                                            <rect id="Rectangle-6" fill="#F3F3F3" x="6.23409924" y="0.0243148833" width="11.6932824" height="5.63870339" rx="2.8193517"></rect>
                                            <path d="M0.719586622,0.91846198 L11.5245121,0.91846198 C12.6112632,0.91846198 13.492249,1.78849061 13.492249,2.87858269 L13.492249,2.87858269 C13.492249,3.96112746 12.6143322,4.83870339 11.5245121,4.83870339 L0.719586622,4.83870339 L0.719586622,0.91846198 Z" id="Rectangle-5" fill="#FFE58A"></path>
                                        </g>
                                    </g>
                                    <rect id="Rectangle-7" fill="#FFFFFF" x="0.209615781" y="17.8791572" width="35.0798473" height="31.9526526"></rect>
                                </g>
                                <g id="Group-17" transform="translate(272.557843, 105.277998) rotate(630.000000) translate(-272.557843, -105.277998) translate(254.563475, 80.077998)">
                                    <g id="Group-14" transform="translate(17.878312, 40.231810) scale(1, -1) translate(-17.878312, -40.231810) translate(1.083569, 30.631810)">
                                        <g id="Group-13" transform="translate(29.975231, 9.960284) rotate(-90.000000) translate(-29.975231, -9.960284) translate(20.778109, 6.760284)">
                                            <rect id="Rectangle-6" fill="#F3F3F3" x="6.23409924" y="0.0243148833" width="11.6932824" height="5.63870339" rx="2.8193517"></rect>
                                            <path d="M0.719586622,0.91846198 L11.5245121,0.91846198 C12.6112632,0.91846198 13.492249,1.78849061 13.492249,2.87858269 L13.492249,2.87858269 C13.492249,3.96112746 12.6143322,4.83870339 11.5245121,4.83870339 L0.719586622,4.83870339 L0.719586622,0.91846198 Z" id="Rectangle-5" fill="#FFEBA4"></path>
                                        </g>
                                        <g id="Group-13" transform="translate(20.980398, 9.772327) rotate(-90.000000) translate(-20.980398, -9.772327) translate(11.783277, 6.572327)">
                                            <rect id="Rectangle-6" fill="#F3F3F3" x="6.23409924" y="0.0243148833" width="11.6932824" height="5.63870339" rx="2.8193517"></rect>
                                            <path d="M0.719586622,0.91846198 L11.5245121,0.91846198 C12.6112632,0.91846198 13.492249,1.78849061 13.492249,2.87858269 L13.492249,2.87858269 C13.492249,3.96112746 12.6143322,4.83870339 11.5245121,4.83870339 L0.719586622,4.83870339 L0.719586622,0.91846198 Z" id="Rectangle-5" fill="#FFEBA4"></path>
                                        </g>
                                        <g id="Group-13" transform="translate(12.885049, 9.490392) rotate(-90.000000) translate(-12.885049, -9.490392) translate(3.687927, 6.290392)">
                                            <rect id="Rectangle-6" fill="#F3F3F3" x="6.23409924" y="0.0243148833" width="11.6932824" height="5.63870339" rx="2.8193517"></rect>
                                            <path d="M0.719586622,0.91846198 L11.5245121,0.91846198 C12.6112632,0.91846198 13.492249,1.78849061 13.492249,2.87858269 L13.492249,2.87858269 C13.492249,3.96112746 12.6143322,4.83870339 11.5245121,4.83870339 L0.719586622,4.83870339 L0.719586622,0.91846198 Z" id="Rectangle-5" fill="#FFEBA4"></path>
                                        </g>
                                        <g id="Group-13" transform="translate(3.890216, 9.678349) rotate(-90.000000) translate(-3.890216, -9.678349) translate(-5.306905, 6.478349)">
                                            <rect id="Rectangle-6" fill="#F3F3F3" x="6.23409924" y="0.0243148833" width="11.6932824" height="5.63870339" rx="2.8193517"></rect>
                                            <path d="M0.719586622,0.91846198 L11.5245121,0.91846198 C12.6112632,0.91846198 13.492249,1.78849061 13.492249,2.87858269 L13.492249,2.87858269 C13.492249,3.96112746 12.6143322,4.83870339 11.5245121,4.83870339 L0.719586622,4.83870339 L0.719586622,0.91846198 Z" id="Rectangle-5" fill="#FFEBA4"></path>
                                        </g>
                                    </g>
                                    <rect id="Rectangle-7" fill="#FFFFFF" x="0.209615781" y="0" width="35.0798473" height="31.9526526"></rect>
                                </g>
                                <g id="Group-17" transform="translate(388.291546, 77.779046) scale(-1, 1) rotate(180.000000) translate(-388.291546, -77.779046) translate(370.297178, 43.779046)">
                                    <g id="Group-14" transform="translate(1.083569, 0.000000)">
                                        <g id="Group-13" transform="translate(29.975231, 9.960284) rotate(-90.000000) translate(-29.975231, -9.960284) translate(20.778109, 6.760284)">
                                            <rect id="Rectangle-6" fill="#F3F3F3" x="6.23409924" y="0.0243148833" width="11.6932824" height="5.63870339" rx="2.8193517"></rect>
                                            <path d="M0.719586622,0.91846198 L11.5245121,0.91846198 C12.6112632,0.91846198 13.492249,1.78849061 13.492249,2.87858269 L13.492249,2.87858269 C13.492249,3.96112746 12.6143322,4.83870339 11.5245121,4.83870339 L0.719586622,4.83870339 L0.719586622,0.91846198 Z" id="Rectangle-5" fill="#FFEBA4"></path>
                                        </g>
                                        <g id="Group-13" transform="translate(20.980398, 9.772327) rotate(-90.000000) translate(-20.980398, -9.772327) translate(11.783277, 6.572327)">
                                            <rect id="Rectangle-6" fill="#F3F3F3" x="6.23409924" y="0.0243148833" width="11.6932824" height="5.63870339" rx="2.8193517"></rect>
                                            <path d="M0.719586622,0.91846198 L11.5245121,0.91846198 C12.6112632,0.91846198 13.492249,1.78849061 13.492249,2.87858269 L13.492249,2.87858269 C13.492249,3.96112746 12.6143322,4.83870339 11.5245121,4.83870339 L0.719586622,4.83870339 L0.719586622,0.91846198 Z" id="Rectangle-5" fill="#FFEBA4"></path>
                                        </g>
                                        <g id="Group-13" transform="translate(12.885049, 9.490392) rotate(-90.000000) translate(-12.885049, -9.490392) translate(3.687927, 6.290392)">
                                            <rect id="Rectangle-6" fill="#F3F3F3" x="6.23409924" y="0.0243148833" width="11.6932824" height="5.63870339" rx="2.8193517"></rect>
                                            <path d="M0.719586622,0.91846198 L11.5245121,0.91846198 C12.6112632,0.91846198 13.492249,1.78849061 13.492249,2.87858269 L13.492249,2.87858269 C13.492249,3.96112746 12.6143322,4.83870339 11.5245121,4.83870339 L0.719586622,4.83870339 L0.719586622,0.91846198 Z" id="Rectangle-5" fill="#FFEBA4"></path>
                                        </g>
                                        <g id="Group-13" transform="translate(3.890216, 9.678349) rotate(-90.000000) translate(-3.890216, -9.678349) translate(-5.306905, 6.478349)">
                                            <rect id="Rectangle-6" fill="#F3F3F3" x="6.23409924" y="0.0243148833" width="11.6932824" height="5.63870339" rx="2.8193517"></rect>
                                            <path d="M0.719586622,0.91846198 L11.5245121,0.91846198 C12.6112632,0.91846198 13.492249,1.78849061 13.492249,2.87858269 L13.492249,2.87858269 C13.492249,3.96112746 12.6143322,4.83870339 11.5245121,4.83870339 L0.719586622,4.83870339 L0.719586622,0.91846198 Z" id="Rectangle-5" fill="#FFEBA4"></path>
                                        </g>
                                    </g>
                                    <g id="Group-14" transform="translate(17.878312, 58.110967) scale(1, -1) translate(-17.878312, -58.110967) translate(1.083569, 48.510967)">
                                        <g id="Group-13" transform="translate(29.975231, 9.960284) rotate(-90.000000) translate(-29.975231, -9.960284) translate(20.778109, 6.760284)">
                                            <rect id="Rectangle-6" fill="#F3F3F3" x="6.23409924" y="0.0243148833" width="11.6932824" height="5.63870339" rx="2.8193517"></rect>
                                            <path d="M0.719586622,0.91846198 L11.5245121,0.91846198 C12.6112632,0.91846198 13.492249,1.78849061 13.492249,2.87858269 L13.492249,2.87858269 C13.492249,3.96112746 12.6143322,4.83870339 11.5245121,4.83870339 L0.719586622,4.83870339 L0.719586622,0.91846198 Z" id="Rectangle-5" fill="#FFEBA4"></path>
                                        </g>
                                        <g id="Group-13" transform="translate(20.980398, 9.772327) rotate(-90.000000) translate(-20.980398, -9.772327) translate(11.783277, 6.572327)">
                                            <rect id="Rectangle-6" fill="#F3F3F3" x="6.23409924" y="0.0243148833" width="11.6932824" height="5.63870339" rx="2.8193517"></rect>
                                            <path d="M0.719586622,0.91846198 L11.5245121,0.91846198 C12.6112632,0.91846198 13.492249,1.78849061 13.492249,2.87858269 L13.492249,2.87858269 C13.492249,3.96112746 12.6143322,4.83870339 11.5245121,4.83870339 L0.719586622,4.83870339 L0.719586622,0.91846198 Z" id="Rectangle-5" fill="#FFEBA4"></path>
                                        </g>
                                        <g id="Group-13" transform="translate(12.885049, 9.490392) rotate(-90.000000) translate(-12.885049, -9.490392) translate(3.687927, 6.290392)">
                                            <rect id="Rectangle-6" fill="#F3F3F3" x="6.23409924" y="0.0243148833" width="11.6932824" height="5.63870339" rx="2.8193517"></rect>
                                            <path d="M0.719586622,0.91846198 L11.5245121,0.91846198 C12.6112632,0.91846198 13.492249,1.78849061 13.492249,2.87858269 L13.492249,2.87858269 C13.492249,3.96112746 12.6143322,4.83870339 11.5245121,4.83870339 L0.719586622,4.83870339 L0.719586622,0.91846198 Z" id="Rectangle-5" fill="#FFEBA4"></path>
                                        </g>
                                        <g id="Group-13" transform="translate(3.890216, 9.678349) rotate(-90.000000) translate(-3.890216, -9.678349) translate(-5.306905, 6.478349)">
                                            <rect id="Rectangle-6" fill="#F3F3F3" x="6.23409924" y="0.0243148833" width="11.6932824" height="5.63870339" rx="2.8193517"></rect>
                                            <path d="M0.719586622,0.91846198 L11.5245121,0.91846198 C12.6112632,0.91846198 13.492249,1.78849061 13.492249,2.87858269 L13.492249,2.87858269 C13.492249,3.96112746 12.6143322,4.83870339 11.5245121,4.83870339 L0.719586622,4.83870339 L0.719586622,0.91846198 Z" id="Rectangle-5" fill="#FFEBA4"></path>
                                        </g>
                                    </g>
                                    <rect id="Rectangle-7" fill="#FFFFFF" x="0.209615781" y="17.8791572" width="35.0798473" height="31.9526526"></rect>
                                </g>
                                <g id="Group-13" transform="translate(432.616953, 79.009598) scale(-1, 1) rotate(90.000000) translate(-432.616953, -79.009598) translate(415.022460, 47.809598)">
                                    <path d="M0,15.5828143 C0,9.11670408 5.23853152,3.87488611 11.7181589,3.87488611 L23.3997417,3.87488611 C29.8715021,3.87488611 35.1179006,9.1176574 35.1179006,15.5828143 L35.1179006,48.4360763 L23.4119337,48.4360763 L23.4119337,61.9981777 L11.7059669,61.9981777 L11.7059669,48.4360763 L0,48.4360763 L0,15.5828143 Z" id="Rectangle-8" fill="#FFE897"></path>
                                    <path d="M9.75497239,0.968721526 L9.75497239,12.5933798" id="Line" stroke="#F9D760" stroke-width="3.902976" stroke-linecap="square"></path>
                                    <path d="M17.5589503,0.968721526 L17.5589503,12.5933798" id="Line" stroke="#F9D760" stroke-width="3.902976" stroke-linecap="square"></path>
                                    <path d="M25.3629282,0.968721526 L25.3629282,12.5933798" id="Line" stroke="#F9D760" stroke-width="3.902976" stroke-linecap="square"></path>
                                </g>
                                <g id="Group-30" transform="translate(387.477626, 141.165151) scale(-1, 1) translate(-387.477626, -141.165151) translate(311.901281, 126.365151)">
                                    <g id="Group-13" transform="translate(131.241528, 14.325683) scale(-1, 1) rotate(180.000000) translate(-131.241528, -14.325683) translate(112.047535, 5.925683)">
                                        <rect id="Rectangle-6" fill="#FFFFFF" x="8.09534938" y="0.375913537" width="29.6829477" height="15.9763263" rx="7.49371392"></rect>
                                        <path d="M2.34357563e-12,5.45074662 L22.3697412,5.45074662 C23.9248592,5.45074662 25.1855314,6.70215767 25.1855314,8.27009832 L25.1855314,8.27009832 C25.1855314,9.82718327 23.936577,11.08945 22.3697412,11.08945 L2.34357563e-12,11.08945 L2.34357563e-12,5.45074662 Z" id="Rectangle-5" fill="#FFEBA4"></path>
                                    </g>
                                    <g id="Group-13" transform="translate(19.727202, 14.325683) rotate(180.000000) translate(-19.727202, -14.325683) translate(0.533210, 5.925683)">
                                        <rect id="Rectangle-6" fill="#FFFFFF" x="8.09534938" y="0.375913537" width="29.6829477" height="15.9763263" rx="7.49371392"></rect>
                                        <path d="M-1.50066626e-13,5.45074662 L22.3697412,5.45074662 C23.9248592,5.45074662 25.1855314,6.70215767 25.1855314,8.27009832 L25.1855314,8.27009832 C25.1855314,9.82718327 23.936577,11.08945 22.3697412,11.08945 L-1.50066626e-13,11.08945 L-1.50066626e-13,5.45074662 Z" id="Rectangle-5" fill="#FFEBA4"></path>
                                    </g>
                                    <rect id="Rectangle-4" fill="#F9D760" transform="translate(76.147882, 14.566650) rotate(180.000000) translate(-76.147882, -14.566650) " x="35.671135" y="1.8756118e-13" width="80.9534938" height="29.1333009" rx="3.74685696"></rect>
                                </g>
                                <g id="Group-30" transform="translate(495.072601, 32.600000) scale(-1, 1) translate(-495.072601, -32.600000) translate(419.496255, 17.800000)">
                                    <g id="Group-13" transform="translate(131.241528, 14.325683) scale(-1, 1) rotate(180.000000) translate(-131.241528, -14.325683) translate(112.047535, 5.925683)">
                                        <rect id="Rectangle-6" fill="#FFFFFF" x="8.09534938" y="0.375913537" width="29.6829477" height="15.9763263" rx="7.49371392"></rect>
                                        <path d="M2.34357563e-12,5.45074662 L22.3697412,5.45074662 C23.9248592,5.45074662 25.1855314,6.70215767 25.1855314,8.27009832 L25.1855314,8.27009832 C25.1855314,9.82718327 23.936577,11.08945 22.3697412,11.08945 L2.34357563e-12,11.08945 L2.34357563e-12,5.45074662 Z" id="Rectangle-5" fill="#FFEBA4"></path>
                                    </g>
                                </g>
                            </g>
                            <g opacity="0.402734375" transform="translate(322.000000, 0.081783)">
                                <g id="Group-13" transform="translate(135.803874, 13.940481) scale(-1, 1) rotate(540.000000) translate(-135.803874, -13.940481) translate(116.609881, 5.540481)">
                                    <rect id="Rectangle-6" fill="#FFFFFF" x="8.09534938" y="0.375913537" width="29.6829477" height="15.9763263" rx="7.49371392"></rect>
                                    <path d="M2.34357563e-12,5.45074662 L22.3697412,5.45074662 C23.9248592,5.45074662 25.1855314,6.70215767 25.1855314,8.27009832 L25.1855314,8.27009832 C25.1855314,9.82718327 23.936577,11.08945 22.3697412,11.08945 L2.34357563e-12,11.08945 L2.34357563e-12,5.45074662 Z" id="Rectangle-5" fill="#FFEBA4"></path>
                                </g>
                                <g id="Group-13" transform="translate(19.835457, 13.940481) rotate(540.000000) translate(-19.835457, -13.940481) translate(0.641465, 5.540481)">
                                    <rect id="Rectangle-6" fill="#FFFFFF" x="8.09534938" y="0.375913537" width="29.6829477" height="15.9763263" rx="7.49371392"></rect>
                                    <path d="M-1.50066626e-13,5.45074662 L22.3697412,5.45074662 C23.9248592,5.45074662 25.1855314,6.70215767 25.1855314,8.27009832 L25.1855314,8.27009832 C25.1855314,9.82718327 23.936577,11.08945 22.3697412,11.08945 L-1.50066626e-13,11.08945 L-1.50066626e-13,5.45074662 Z" id="Rectangle-5" fill="#FFEBA4"></path>
                                </g>
                                <rect id="Rectangle-4" fill="#FFDD68" transform="translate(77.257488, 14.587264) scale(-1, 1) rotate(540.000000) translate(-77.257488, -14.587264) " x="36.7807414" y="0.0206131458" width="80.9534938" height="29.1333009" rx="3.74685696"></rect>
                            </g>
                        </g>
                    </g>
                    <g id="bears" mask="url(#mask-2)">
                        <g transform="translate(-2.000000, 119.000000)">
                            <g id="Group-19" stroke-width="1" fill="none" transform="translate(323.753369, 30.016556)">
                                <g id="Group-3" transform="translate(0.000000, 17.650071)">
                                    <mask id="mask-8" fill="white">
                                        <use xlink:href="#path-7"></use>
                                    </mask>
                                    <g id="Clip-2"></g>
                                    <path d="M94.3221955,47.7834278 C93.7666027,40.0245579 91.9219051,32.6181854 89.0153539,25.7385966 C88.2454494,23.9164437 87.4270215,22.118628 86.5107381,20.3749824 C89.7577618,18.5080803 91.9413144,15.0828097 91.9413144,11.1535227 C91.9413144,5.23250712 86.9967808,0.431789785 80.8965817,0.431789785 L13.5234693,0.431789785 C7.42407898,0.431789785 2.47873661,5.23250712 2.47873661,11.1535227 C2.47873661,15.0796694 4.65905436,18.5025848 7.90203439,20.371057 C6.985751,22.1139176 6.16813185,23.9109482 5.39822736,25.732316 C2.49005873,32.613475 0.64455239,40.0222026 0.0881508288,47.7826427 C0.0460972224,48.7058878 0,49.6291328 0,50.5625838 C0,57.2694568 1.12412525,63.718041 3.17019494,69.7607428 C3.77997224,71.4612094 4.9534296,74.3903143 6.39053073,76.3459295 C6.54742303,76.546908 6.69541937,76.742391 6.87495592,76.9535755 C6.89598273,76.9779127 6.91700953,77.0053903 6.93803633,77.0297275 C7.57531021,77.773191 8.34844959,78.5700394 9.27848127,79.3598222 C10.2174089,80.1511751 11.3043329,80.941743 12.5416794,81.6019888 C13.7652776,82.2598794 15.1918653,82.7905883 16.5998524,82.9672296 C18.0741548,83.1721335 19.6285208,82.9264058 20.8157264,82.1177813 C22.0255764,81.3295687 22.8909102,79.9486265 23.3915098,78.3886877 C24.390283,75.2264164 24.2794879,71.6441313 23.9737905,68.4041378 C23.6389791,65.1374518 23.0292018,62.1023621 22.4242769,59.5226144 C21.1950176,54.3607638 19.9892113,51.0085049 19.9892113,51.0085049 C19.9892113,51.0085049 21.4295474,54.2673402 23.0324367,59.3655999 C23.8249855,61.9163 24.6579704,64.9286225 25.2370162,68.2408427 C25.7723909,71.5475674 26.2042491,75.190303 25.3316368,78.9131161 C24.8836041,80.7423346 23.9495288,82.6720424 22.2479752,83.9752625 C20.5448042,85.3012497 18.415436,85.7118425 16.5036143,85.7565916 C14.4907023,85.7699378 12.703424,85.3240168 11.0827427,84.7250066 C10.8854143,84.6512098 10.7171998,84.5554309 10.5247237,84.4769237 C13.4886943,88.8160185 17.0179623,92.750016 20.986367,96.223176 C23.1036044,97.3528951 26.5528088,98.1882121 31.1212862,95.8848098 C39.0880184,91.8691648 47.0547507,91.4232437 47.0547507,91.4232437 C47.0547507,91.4232437 55.0206742,91.8691648 62.9874064,95.8848098 C68.3395366,98.5831035 72.1567101,96.9768455 74.0903672,95.6320165 C77.7749101,92.3127307 81.0696485,88.593843 83.8613609,84.513037 C83.6826331,84.5860488 83.5257408,84.675547 83.3421606,84.7446334 C81.7214794,85.3436436 79.9342011,85.7895647 77.921289,85.7762184 C76.0094674,85.7306842 73.8800992,85.3208765 72.1769282,83.9948893 C70.4753745,82.6908841 69.5412992,80.7619614 69.0932666,78.9327429 C68.2206543,75.2091448 68.6517037,71.5671942 69.1878872,68.2604695 C69.766933,64.9474643 70.5999179,61.9359268 71.3924666,59.3852268 C72.995356,54.2861819 74.435692,51.0273467 74.435692,51.0273467 C74.435692,51.0273467 73.2298858,54.3796055 72.0006265,59.5422412 C71.3957015,62.1212039 70.7859242,65.1570786 70.4511128,68.4237646 C70.1454155,71.6637581 70.0346204,75.2460432 71.0333935,78.4075295 C71.5339932,79.9682533 72.399327,81.3484104 73.6091769,82.1374081 C74.7963826,82.9460327 76.3515573,83.1917603 77.825051,82.9860713 C79.2330381,82.8102151 80.6596258,82.2787212 81.883224,81.6216156 C83.1205705,80.9605847 84.2074945,80.1700169 85.1464221,79.379449 C86.4096477,78.3062551 87.3663673,77.2314911 88.100688,76.2823387 C89.2466487,74.6996328 90.2203515,72.5139914 90.8705649,70.8410023 C93.1576341,64.4913372 94.4111551,57.6698437 94.4111551,50.5625838 C94.4111551,49.6291328 94.3650579,48.7066728 94.3221955,47.7834278" id="Fill-1" fill="#F6C724" mask="url(#mask-8)"></path>
                                </g>
                                <path d="M13.5234693,23.4250626 C10.4632608,23.4250626 7.98290671,25.8328795 7.98290671,28.8035932 C7.98290671,30.7301607 9.03505559,32.4078603 10.6031699,33.3577978 C12.5206526,30.3007262 14.6605342,27.390463 17.0139187,24.6576262 C16.0588166,23.8992463 14.853819,23.4250626 13.5234693,23.4250626" id="Fill-5" fill="#26292D"></path>
                                <path d="M80.8965817,23.4250626 C79.5638059,23.4250626 78.3571908,23.9008165 77.40128,24.6623366 C79.7538558,27.3951734 81.8929287,30.3046515 83.8104114,33.3617232 C85.3825693,32.4125708 86.4379531,30.733301 86.4379531,28.8035932 C86.4379531,25.8328795 83.9567903,23.4250626 80.8965817,23.4250626" id="Fill-6" fill="#26292D"></path>
                                <path d="M60.7577566,55.3555247 C60.7577566,62.7022316 54.6227824,68.6585755 47.0547507,68.6585755 C39.4859102,68.6585755 33.350936,62.7022316 33.350936,55.3555247 C33.350936,48.0080327 39.4859102,42.052474 47.0547507,42.052474 C54.6227824,42.052474 60.7577566,48.0080327 60.7577566,55.3555247" id="Fill-10" fill="#FFFFFE"></path>
                                <path d="M54.1642363,48.0912504 C54.1642363,47.9075435 54.1286525,47.7340425 54.0768942,47.566037 C54.0550587,47.4836044 54.0372668,47.4349299 54.0372668,47.4349299 L54.0356493,47.4349299 C53.9709515,47.2716349 53.8844181,47.1201159 53.7776666,46.9827282 L53.7784754,46.9811581 C53.7784754,46.9811581 52.9737958,45.3694046 47.135623,45.3544882 L47.135623,45.3529181 C47.121066,45.3529181 47.1089351,45.3537031 47.0951868,45.3537031 C47.0806298,45.3537031 47.068499,45.3529181 47.0547507,45.3529181 L47.0547507,45.3544882 C43.6581132,45.363124 41.9686905,45.9103194 41.1478364,46.3688017 C40.6520891,46.5619295 40.2630932,46.9497552 40.0730433,47.4349299 L40.0706171,47.4349299 C40.0706171,47.4349299 40.0495903,47.4922402 40.0245199,47.588019 C39.9776139,47.7489588 39.9444563,47.9153942 39.9444563,48.0912504 C39.9444563,48.1069518 39.9484999,48.1218682 39.9493086,48.1375697 C39.9145335,48.9736717 40.1967779,50.4456823 42.1490357,51.9553764 C43.9330791,53.3347485 45.3248917,53.8474008 46.1651551,54.0420987 L46.1651551,68.6146114 C46.4603391,68.6326681 46.7539056,68.6585755 47.0539419,68.6585755 C47.3539783,68.6585755 47.6483535,68.6326681 47.9435375,68.6146114 L47.9435375,54.0420987 C48.7838009,53.8466157 50.1756135,53.3339635 51.9580394,51.9553764 C53.90221,50.4519629 54.1901155,48.9854478 54.1585753,48.1477756 C54.159384,48.1289339 54.1642363,48.1108772 54.1642363,48.0912504" id="Fill-11" fill="#26292D"></path>
                                <path d="M25.0049126,15.2281224 L69.2016355,15.2281224 C63.9093509,11.6952969 57.6935044,9.37462303 50.9592663,8.73243386 L53.6652541,1.58042488 C53.6652541,1.58042488 51.9426737,0.18692148 47.1032741,0.18692148 C42.2638744,0.18692148 40.541294,1.58042488 40.541294,1.58042488 L43.2472818,8.73243386 C36.5130438,9.37383796 30.2971972,11.6952969 25.0049126,15.2281224" id="Fill-12" fill="#F6C724"></path>
                                <path d="M7.43863599,89.5634816 C7.43863599,89.5634816 6.70593277,88.6394515 5.89963574,87.0763725 C5.08848637,85.5203591 4.26520616,83.3213715 3.73953608,81.0595781 C3.20577876,78.7985698 2.95103096,76.4912422 2.89927267,74.7585875 C2.85317545,73.0235777 2.96477925,71.865596 2.96477925,71.865596 C2.96477925,71.865596 3.05293008,72.1458668 3.17342984,72.636537 C3.2906947,73.1264221 3.45890913,73.8259216 3.65947248,74.665949 C4.04604217,76.3420784 4.51024929,78.5677585 5.03915426,80.7714565 C5.54298881,82.9806501 6.12769569,85.1670766 6.61050344,86.8086628 C6.85554657,87.6329888 7.06015354,88.319142 7.20329754,88.7996063 C7.36342474,89.2816407 7.43863599,89.5634816 7.43863599,89.5634816" id="Fill-13" fill="#FFFFFE"></path>
                                <path d="M75.7822162,75.5939045 C75.7822162,75.5939045 75.7619981,76.3719112 75.6374547,77.5008452 C75.5056328,78.6289941 75.2484589,80.10336 74.9403353,81.5635945 C74.6200809,83.0214739 74.2545381,84.4691472 73.924579,85.5556874 C73.7717303,86.1005276 73.5881501,86.5495889 73.495147,86.8698985 C73.3867781,87.1878527 73.3067145,87.3692045 73.3067145,87.3692045 C73.3067145,87.3692045 73.17651,86.6006186 73.1668053,85.4512727 C73.161953,84.3042821 73.3172279,82.7851671 73.6358648,81.2990252 C73.9585454,79.8136683 74.4397357,78.3659949 74.8998992,77.3124278 C75.3673412,76.2596458 75.7822162,75.5939045 75.7822162,75.5939045" id="Fill-14" fill="#FFFFFE"></path>
                                <path d="M13.3471677,19.3842953 C13.3471677,19.3842953 12.52227,19.6904735 11.4474769,20.3169613 C10.9056324,20.6207843 10.3023248,21.0031145 9.69901734,21.4545311 C9.09085749,21.8996671 8.49321105,22.4288058 7.94327927,22.9987684 C7.37636431,23.5577399 6.90164379,24.1912932 6.44633263,24.7903034 C6.03711869,25.4175762 5.6400356,26.0063805 5.35132141,26.5504356 C5.02621469,27.0772192 4.79896347,27.5466924 4.63236649,27.8764228 C4.46091717,28.203798 4.34365231,28.3914302 4.34365231,28.3914302 C4.34365231,28.3914302 4.34526975,28.1794607 4.38247102,27.8089066 C4.44069909,27.4454181 4.43827292,26.8927272 4.63802755,26.2788006 C4.77793667,25.6436771 5.07069446,24.9402523 5.43866352,24.2038544 C5.83736406,23.4823729 6.35737307,22.7593213 6.97281143,22.1116366 C8.22552367,20.8280434 9.85752708,19.9511176 11.1547191,19.6339483 C12.4535286,19.2900866 13.3471677,19.3842953 13.3471677,19.3842953" id="Fill-15" fill="#FFFFFE"></path>
                            </g>
                            <path d="M359.510694,66.9881866 L359.512179,66.9881866 L359.509506,66.9841143 L359.488414,66.9520792 C359.469104,66.9230304 359.438209,66.878507 359.389193,66.8125364 C359.300073,66.6724507 359.196991,66.5396951 359.065687,66.4191562 C358.105269,65.3362067 355.502664,63.0793606 350.472128,63.0793606 C345.233646,63.0793606 342.60876,65.7157413 341.740136,66.8155228 C341.618338,66.9455636 341.5108,67.0853778 341.432077,67.2387663 C341.410094,67.2727017 341.397915,67.293063 341.397915,67.293063 C341.310874,67.5091643 341.245519,67.734496 341.241954,67.9709585 C341.238984,68.1753859 341.258293,68.3822567 341.325727,68.588313 C341.454357,68.9838651 341.703597,69.3156185 342.023538,69.5645693 C342.149792,69.6680047 343.144967,70.3730485 345.708359,69.2303726 L345.697962,69.2523628 C346.251101,69.0020546 346.824143,68.7772658 347.436399,68.6108462 C350.526492,67.7697889 353.701545,68.206878 356.293456,69.5776005 C356.842139,69.8678169 357.484102,69.9734242 358.091604,69.8080904 C359.482769,69.4296418 360.024917,68.0407299 359.510694,66.9881866" id="Fill-15" fill="#26292D"></path>
                            <path d="M398.373571,66.9881866 L398.375056,66.9881866 L398.372383,66.9841143 L398.351291,66.9520792 C398.331981,66.9230304 398.301086,66.878507 398.252069,66.8125364 C398.162948,66.6724507 398.059864,66.5396951 397.928559,66.4191562 C396.968128,65.3362067 394.365489,63.0793606 389.334887,63.0793606 C384.096337,63.0793606 381.471417,65.7157413 380.602781,66.8155228 C380.480982,66.9455636 380.373442,67.0853778 380.294718,67.2387663 C380.272735,67.2727017 380.260555,67.293063 380.260555,67.293063 C380.173513,67.5091643 380.108158,67.734496 380.10489,67.9709585 C380.101622,68.1753859 380.120932,68.3822567 380.18807,68.588313 C380.316999,68.9838651 380.566241,69.3156185 380.886187,69.5645693 C381.012442,69.6680047 382.007927,70.3730485 384.571056,69.2303726 L384.560659,69.2523628 C385.114102,69.0020546 385.687152,68.7772658 386.299118,68.6108462 C389.389251,67.7697889 392.564347,68.206878 395.156292,69.5776005 C395.704982,69.8678169 396.346952,69.9734242 396.954463,69.8080904 C398.345646,69.4296418 398.887801,68.0407299 398.373571,66.9881866" id="Fill-16" fill="#26292D"></path>
                            <path d="M324.719589,88.6100257 C324.719589,88.6100257 354.459551,101.887853 370.46242,102.027601 C385.499329,102.158915 417.838923,89.4232121 417.838923,89.4232121 C417.838923,89.4232121 419.745747,96.3038033 419.006283,104.531538 C418.60459,109.001026 416.561414,113.711396 414.979996,118.29133 C410.487397,131.302312 403.13587,137.40121 403.13587,137.40121 L339.422642,138.62099 C339.422642,138.62099 329.212189,128.45616 325.944844,114.631991 C324.77923,109.700268 323.940176,104.879296 323.792228,100.641796 C323.525461,93.0011105 324.719589,87.390246 324.719589,87.390246" id="Path-45" fill="#E1F0FF"></path>
                            <path d="M326.668085,118.508179 C326.668085,117.535744 349.01424,115.590873 349.01424,115.590873 C349.01424,115.590873 347.730846,111.263434 346.099524,109.756261 C339.310555,103.483951 325.696513,89.3351169 325.696513,89.3351169 L330.554373,91.2799877 C330.554373,91.2799877 338.715794,98.5065812 345.127952,103.921648 C349.079228,107.2585 355.815244,114.618438 355.815244,114.618438 L386.905548,114.618438 C386.905548,114.618438 393.045401,107.500693 396.621268,103.921648 C400.170263,100.3695 408.280132,93.2248586 408.280132,93.2248586 L414.109564,91.2799877 C414.109564,91.2799877 395.454485,110.813073 394.678124,111.701132 C394.081689,112.383378 393.706552,114.618438 393.706552,114.618438 L414.109564,121.425486 C414.109564,121.425486 411.732695,127.842593 410.223276,130.177404 C408.170265,133.35306 402.4507,138.929323 402.4507,138.929323 L339.29852,138.929323 C339.29852,138.929323 334.987851,134.471539 333.469089,132.122275 C331.42542,128.961072 326.668085,119.480615 326.668085,118.508179 Z" id="Path-48" fill="#A9D0F7"></path>
                            <path d="M274.203197,108.783825 L277.117913,108.783825 L277.117913,112.673567 L293.634637,115.590873 L296.696743,115.590873 C297.151926,115.590873 297.520925,115.965864 297.520925,116.404405 L297.520925,117.535744 L314.037649,117.535744 L314.037649,123.370357 L304.321929,123.370357 L297.520925,123.370357 L297.520925,124.501696 C297.520925,124.950997 297.162278,125.315227 296.696743,125.315227 L293.634637,125.315227 L277.117913,128.232534 L277.117913,132.122275 L274.203197,132.122275 L274.203197,108.783825 Z" id="Path-44" fill="#BFBDBD"></path>
                            <rect id="Rectangle-13" fill="#D1D5DC" x="314.037649" y="117.535744" width="424.576962" height="5.83461252"></rect>
                            <g id="Group-33" stroke-width="1" fill="none" transform="translate(394.678124, 110.728696)">
                                <path d="M5.71469595,20.1229755 C9.08737511,21.0065568 14.1531124,18.4906206 17.1504036,14.4306706 C21.0493549,9.14938618 22.4598393,1.82628115 22.4598393,1.82628115 L1.94314399,0.972435419 C1.94314399,0.972435419 1.08796216,2.85483451 0.971571995,3.88974168 C0.419015017,8.80291617 -0.0885134897,18.6026388 5.71469595,20.1229755 Z" id="Path-46" fill="#F6C724"></path>
                                <polygon id="Path-49" fill="#CBE5FF" points="1.94314399 0 0.971571995 3.88974168 22.3461559 5.83461252 23.3177279 1.94487084"></polygon>
                            </g>
                            <g id="Group-33" stroke-width="1" fill="none" transform="translate(336.302840, 121.275054) scale(-1, 1) translate(-336.302840, -121.275054) translate(324.563012, 110.728696)">
                                <path d="M5.71469595,20.1229755 C9.08737511,21.0065568 14.1531124,18.4906206 17.1504036,14.4306706 C21.0493549,9.14938618 22.4598393,1.82628115 22.4598393,1.82628115 L1.94314399,0.972435419 C1.94314399,0.972435419 1.08796216,2.85483451 0.971571995,3.88974168 C0.419015017,8.80291617 -0.0885134897,18.6026388 5.71469595,20.1229755 Z" id="Path-46" fill="#F6C724"></path>
                                <polygon id="Path-49" fill="#CBE5FF" points="1.94314399 0 0.971571995 3.88974168 22.3461559 5.83461252 23.3177279 1.94487084"></polygon>
                            </g>
                            <g id="Group-4" stroke-width="1" fill="none">
                                <g id="Group-19" transform="translate(95.433950, 47.649336)">
                                    <g id="Group-3" transform="translate(0.000000, 0.146233)">
                                        <mask id="mask-10" fill="white">
                                            <use xlink:href="#path-9"></use>
                                        </mask>
                                        <g id="Clip-2"></g>
                                        <path d="M94.3221955,47.7834278 C93.7666027,40.0245579 91.9219051,32.6181854 89.0153539,25.7385966 C88.2454494,23.9164437 87.4270215,22.118628 86.5107381,20.3749824 C89.7577618,18.5080803 91.9413144,15.0828097 91.9413144,11.1535227 C91.9413144,5.23250712 86.9967808,0.431789785 80.8965817,0.431789785 L13.5234693,0.431789785 C7.42407898,0.431789785 2.47873661,5.23250712 2.47873661,11.1535227 C2.47873661,15.0796694 4.65905436,18.5025848 7.90203439,20.371057 C6.985751,22.1139176 6.16813185,23.9109482 5.39822736,25.732316 C2.49005873,32.613475 0.64455239,40.0222026 0.0881508288,47.7826427 C0.0460972224,48.7058878 0,49.6291328 0,50.5625838 C0,57.2694568 1.12412525,63.718041 3.17019494,69.7607428 C3.77997224,71.4612094 4.9534296,74.3903143 6.39053073,76.3459295 C6.54742303,76.546908 6.69541937,76.742391 6.87495592,76.9535755 C6.89598273,76.9779127 6.91700953,77.0053903 6.93803633,77.0297275 C7.57531021,77.773191 8.34844959,78.5700394 9.27848127,79.3598222 C10.2174089,80.1511751 11.3043329,80.941743 12.5416794,81.6019888 C13.7652776,82.2598794 15.1918653,82.7905883 16.5998524,82.9672296 C18.0741548,83.1721335 19.6285208,82.9264058 20.8157264,82.1177813 C22.0255764,81.3295687 22.8909102,79.9486265 23.3915098,78.3886877 C24.390283,75.2264164 24.2794879,71.6441313 23.9737905,68.4041378 C23.6389791,65.1374518 23.0292018,62.1023621 22.4242769,59.5226144 C21.1950176,54.3607638 19.9892113,51.0085049 19.9892113,51.0085049 C19.9892113,51.0085049 21.4295474,54.2673402 23.0324367,59.3655999 C23.8249855,61.9163 24.6579704,64.9286225 25.2370162,68.2408427 C25.7723909,71.5475674 26.2042491,75.190303 25.3316368,78.9131161 C24.8836041,80.7423346 23.9495288,82.6720424 22.2479752,83.9752625 C20.5448042,85.3012497 18.415436,85.7118425 16.5036143,85.7565916 C14.4907023,85.7699378 12.703424,85.3240168 11.0827427,84.7250066 C10.8854143,84.6512098 10.7171998,84.5554309 10.5247237,84.4769237 C13.4886943,88.8160185 17.0179623,92.750016 20.986367,96.223176 C23.1036044,97.3528951 26.5528088,98.1882121 31.1212862,95.8848098 C39.0880184,91.8691648 47.0547507,91.4232437 47.0547507,91.4232437 C47.0547507,91.4232437 55.0206742,91.8691648 62.9874064,95.8848098 C68.3395366,98.5831035 72.1567101,96.9768455 74.0903672,95.6320165 C77.7749101,92.3127307 81.0696485,88.593843 83.8613609,84.513037 C83.6826331,84.5860488 83.5257408,84.675547 83.3421606,84.7446334 C81.7214794,85.3436436 79.9342011,85.7895647 77.921289,85.7762184 C76.0094674,85.7306842 73.8800992,85.3208765 72.1769282,83.9948893 C70.4753745,82.6908841 69.5412992,80.7619614 69.0932666,78.9327429 C68.2206543,75.2091448 68.6517037,71.5671942 69.1878872,68.2604695 C69.766933,64.9474643 70.5999179,61.9359268 71.3924666,59.3852268 C72.995356,54.2861819 74.435692,51.0273467 74.435692,51.0273467 C74.435692,51.0273467 73.2298858,54.3796055 72.0006265,59.5422412 C71.3957015,62.1212039 70.7859242,65.1570786 70.4511128,68.4237646 C70.1454155,71.6637581 70.0346204,75.2460432 71.0333935,78.4075295 C71.5339932,79.9682533 72.399327,81.3484104 73.6091769,82.1374081 C74.7963826,82.9460327 76.3515573,83.1917603 77.825051,82.9860713 C79.2330381,82.8102151 80.6596258,82.2787212 81.883224,81.6216156 C83.1205705,80.9605847 84.2074945,80.1700169 85.1464221,79.379449 C86.4096477,78.3062551 87.3663673,77.2314911 88.100688,76.2823387 C89.2466487,74.6996328 90.2203515,72.5139914 90.8705649,70.8410023 C93.1576341,64.4913372 94.4111551,57.6698437 94.4111551,50.5625838 C94.4111551,49.6291328 94.3650579,48.7066728 94.3221955,47.7834278" id="Fill-1" fill="#F6C724" mask="url(#mask-10)"></path>
                                    </g>
                                    <path d="M37.3015489,18.9589214 C37.3015489,24.3625743 32.7896821,28.7432779 27.2232404,28.7432779 C21.6567986,28.7432779 17.1441231,24.3625743 17.1441231,18.9589214 C17.1441231,13.5552685 21.6567986,9.17456485 27.2232404,9.17456485 C32.7896821,9.17456485 37.3015489,13.5552685 37.3015489,18.9589214" id="Fill-4" fill="#FFFFFE"></path>
                                    <path d="M13.5234693,5.92122509 C10.4632608,5.92122509 7.98290671,8.32904195 7.98290671,11.2997557 C7.98290671,13.2263232 9.03505559,14.9040228 10.6031699,15.8539603 C12.5206526,12.7968886 14.6605342,9.88662546 17.0139187,7.15378866 C16.0588166,6.39540878 14.853819,5.92122509 13.5234693,5.92122509" id="Fill-5" fill="#26292D"></path>
                                    <path d="M80.8965817,5.92122509 C79.5638059,5.92122509 78.3571908,6.39697893 77.40128,7.15849909 C79.7538558,9.8913359 81.8929287,12.800814 83.8104114,15.8578857 C85.3825693,14.9087332 86.4379531,13.2294635 86.4379531,11.2997557 C86.4379531,8.32904195 83.9567903,5.92122509 80.8965817,5.92122509" id="Fill-6" fill="#26292D"></path>
                                    <path d="M27.2232404,14.6049102 C26.9118819,14.6049102 26.6086107,14.635528 26.3158529,14.6944085 C26.4953895,15.0264941 26.598906,15.4041138 26.598906,15.8052858 C26.598906,17.1249924 25.4966163,18.195046 24.1363439,18.195046 C23.680224,18.195046 23.2540269,18.0725747 22.8868666,17.8621753 C22.7930547,18.2131027 22.7380615,18.5789464 22.7380615,18.9589214 C22.7380615,21.363598 24.7461212,23.3129326 27.2232404,23.3129326 C29.7003595,23.3129326 31.7084192,21.363598 31.7084192,18.9589214 C31.7084192,16.5542448 29.7003595,14.6049102 27.2232404,14.6049102" id="Fill-7" fill="#26292D"></path>
                                    <path d="M77.2662232,18.9589214 C77.2662232,24.3625743 72.7543565,28.7432779 67.1879147,28.7432779 C61.6214729,28.7432779 57.1087975,24.3625743 57.1087975,18.9589214 C57.1087975,13.5552685 61.6214729,9.17456485 67.1879147,9.17456485 C72.7543565,9.17456485 77.2662232,13.5552685 77.2662232,18.9589214" id="Fill-8" fill="#FFFFFE"></path>
                                    <path d="M67.1879147,14.6049102 C66.8765563,14.6049102 66.5732851,14.635528 66.2805273,14.6944085 C66.4608726,15.0264941 66.5635804,15.4041138 66.5635804,15.8052858 C66.5635804,17.1249924 65.4612907,18.195046 64.1010183,18.195046 C63.6448984,18.195046 63.2187013,18.0725747 62.8515409,17.8621753 C62.757729,18.2131027 62.7027359,18.5789464 62.7027359,18.9589214 C62.7027359,21.363598 64.7107956,23.3129326 67.1879147,23.3129326 C69.6650339,23.3129326 71.6730936,21.363598 71.6730936,18.9589214 C71.6730936,16.5542448 69.6650339,14.6049102 67.1879147,14.6049102" id="Fill-9" fill="#26292D"></path>
                                    <path d="M60.7577566,37.8516872 C60.7577566,45.1983941 54.6227824,51.1547379 47.0547507,51.1547379 C39.4859102,51.1547379 33.350936,45.1983941 33.350936,37.8516872 C33.350936,30.5041952 39.4859102,24.5486364 47.0547507,24.5486364 C54.6227824,24.5486364 60.7577566,30.5041952 60.7577566,37.8516872" id="Fill-10" fill="#FFFFFE"></path>
                                    <path d="M54.1642363,30.5874128 C54.1642363,30.4037059 54.1286525,30.2302049 54.0768942,30.0621994 C54.0550587,29.9797668 54.0372668,29.9310924 54.0372668,29.9310924 L54.0356493,29.9310924 C53.9709515,29.7677973 53.8844181,29.6162784 53.7776666,29.4788907 L53.7784754,29.4773206 C53.7784754,29.4773206 52.9737958,27.865567 47.135623,27.8506507 L47.135623,27.8490805 C47.121066,27.8490805 47.1089351,27.8498656 47.0951868,27.8498656 C47.0806298,27.8498656 47.068499,27.8490805 47.0547507,27.8490805 L47.0547507,27.8506507 C43.6581132,27.8592865 41.9686905,28.4064819 41.1478364,28.8649641 C40.6520891,29.0580919 40.2630932,29.4459177 40.0730433,29.9310924 L40.0706171,29.9310924 C40.0706171,29.9310924 40.0495903,29.9884026 40.0245199,30.0841815 C39.9776139,30.2451213 39.9444563,30.4115566 39.9444563,30.5874128 C39.9444563,30.6031143 39.9484999,30.6180307 39.9493086,30.6337321 C39.9145335,31.4698341 40.1967779,32.9418448 42.1490357,34.4515389 C43.9330791,35.830911 45.3248917,36.3435632 46.1651551,36.5382611 L46.1651551,51.1107739 C46.4603391,51.1288305 46.7539056,51.1547379 47.0539419,51.1547379 C47.3539783,51.1547379 47.6483535,51.1288305 47.9435375,51.1107739 L47.9435375,36.5382611 C48.7838009,36.3427781 50.1756135,35.8301259 51.9580394,34.4515389 C53.90221,32.9481254 54.1901155,31.4816102 54.1585753,30.643938 C54.159384,30.6250963 54.1642363,30.6070396 54.1642363,30.5874128" id="Fill-11" fill="#26292D"></path>
                                    <path d="M7.43863599,72.0596441 C7.43863599,72.0596441 6.70593277,71.1356139 5.89963574,69.5725349 C5.08848637,68.0165216 4.26520616,65.8175339 3.73953608,63.5557405 C3.20577876,61.2947322 2.95103096,58.9874046 2.89927267,57.25475 C2.85317545,55.5197401 2.96477925,54.3617584 2.96477925,54.3617584 C2.96477925,54.3617584 3.05293008,54.6420292 3.17342984,55.1326994 C3.2906947,55.6225846 3.45890913,56.322084 3.65947248,57.1621114 C4.04604217,58.8382409 4.51024929,61.0639209 5.03915426,63.267619 C5.54298881,65.4768125 6.12769569,67.663239 6.61050344,69.3048253 C6.85554657,70.1291512 7.06015354,70.8153044 7.20329754,71.2957687 C7.36342474,71.7778031 7.43863599,72.0596441 7.43863599,72.0596441" id="Fill-13" fill="#FFFFFE"></path>
                                    <path d="M75.7822162,58.0900669 C75.7822162,58.0900669 75.7619981,58.8680736 75.6374547,59.9970076 C75.5056328,61.1251566 75.2484589,62.5995224 74.9403353,64.059757 C74.6200809,65.5176363 74.2545381,66.9653097 73.924579,68.0518498 C73.7717303,68.59669 73.5881501,69.0457514 73.495147,69.3660609 C73.3867781,69.6840152 73.3067145,69.8653669 73.3067145,69.8653669 C73.3067145,69.8653669 73.17651,69.0967811 73.1668053,67.9474352 C73.161953,66.8004445 73.3172279,65.2813295 73.6358648,63.7951876 C73.9585454,62.3098307 74.4397357,60.8621574 74.8998992,59.8085903 C75.3673412,58.7558083 75.7822162,58.0900669 75.7822162,58.0900669" id="Fill-14" fill="#FFFFFE"></path>
                                    <path d="M13.3471677,1.88045778 C13.3471677,1.88045778 12.52227,2.18663599 11.4474769,2.81312371 C10.9056324,3.11694671 10.3023248,3.49927693 9.69901734,3.95069353 C9.09085749,4.39582954 8.49321105,4.9249683 7.94327927,5.49493081 C7.37636431,6.05390232 6.90164379,6.68745569 6.44633263,7.28646589 C6.03711869,7.91373868 5.6400356,8.50254293 5.35132141,9.04659806 C5.02621469,9.5733816 4.79896347,10.0428549 4.63236649,10.3725852 C4.46091717,10.6999604 4.34365231,10.8875927 4.34365231,10.8875927 C4.34365231,10.8875927 4.34526975,10.6756232 4.38247102,10.305069 C4.44069909,9.94158053 4.43827292,9.3888896 4.63802755,8.77496304 C4.77793667,8.13983952 5.07069446,7.4364147 5.43866352,6.70001685 C5.83736406,5.97853537 6.35737307,5.25548375 6.97281143,4.60779907 C8.22552367,3.3242058 9.85752708,2.44728 11.1547191,2.13011078 C12.4535286,1.7862491 13.3471677,1.88045778 13.3471677,1.88045778" id="Fill-15" fill="#FFFFFE"></path>
                                </g>
                                <path d="M178.989141,92.1340207 C185.425307,89.1863534 189.676433,88.4916232 189.676433,88.4916232 C189.676433,88.4916232 192.225889,105.378794 187.733289,118.389777 C183.24069,131.40076 175.102853,137.838485 175.102853,137.838485 L110.767277,138.502588 C110.767277,138.502588 100.556824,128.337757 97.2894791,114.513588 C95.7241534,107.89068 95.4339498,102.83081 95.4339498,96.9961977 C95.4339498,91.1615852 96.4055218,88.4916232 96.4055218,88.4916232 C96.4055218,88.4916232 102.234954,89.2167144 106.121242,92.1340207 C111.823656,96.4146323 121.830836,101.303827 131.382114,103.803246 C134.569998,104.637465 138.173387,104.604211 141.097834,104.775681 C159.585144,105.859657 167.843006,97.238783 178.989141,92.1340207 Z" id="Path-45" fill="#E1F0FF"></path>
                                <path d="M192.462954,119.40039 L0.889204319,119.40039" id="Path-25" stroke="#D1D5DC" stroke-width="5.022" fill="#D1D5DC" fill-rule="nonzero"></path>
                                <path d="M181.823656,91.4089294 C181.823656,91.4089294 155.744241,101.829574 151.785125,104.56006 C151.785125,104.56006 155.221298,110.892377 156.038298,112.0354 L164.882699,103.244672" id="Fill-106" fill="#ADD6FF"></path>
                                <path d="M135.1882,91.4089294 C135.1882,91.4089294 109.108785,101.829574 105.14967,104.56006 C105.14967,104.56006 108.585842,110.892377 109.402842,112.0354 L118.247243,103.244672" id="Fill-106" fill="#ADD6FF" transform="translate(120.168935, 101.722165) scale(-1, 1) translate(-120.168935, -101.722165) "></path>
                                <path d="M208.136301,122.526863 L208.136301,122.678806 C208.136301,123.131951 208.50143,123.499298 208.960371,123.499298 L212.994161,123.499298 L230.482457,127.38904 L230.482457,131.278782 L233.397173,131.278782 L233.397173,125.444169 L233.397173,122.526863 L233.397173,115.719815 L233.397173,112.802509 L233.397173,106.967896 L229.510885,106.967896 L229.510885,110.857638 L212.994161,113.774944 L208.960371,113.774944 C208.50525,113.774944 208.136301,114.149935 208.136301,114.588476 L208.136301,115.719815 L192.591149,115.719815 L192.591149,122.526863 L208.136301,122.526863 Z" id="Path-43" fill="#BFBDBD"></path>
                                <g id="Group-9" transform="translate(93.490806, 0.000000)">
                                    <g id="Group-7" transform="translate(0.000000, 0.194487)">
                                        <g id="Group-8">
                                            <path d="M31.2729149,41.4260405 C44.4514704,34.0833649 80.3040669,43.3403238 80.3040669,57.8981274 C74.5687648,57.8981281 61.389989,56.1966907 49.3573275,52.7801164 C39.3244002,49.93135 30.3286385,49.5645306 26.9710005,44.8639946" id="Fill-187" fill="#271C1C" transform="translate(53.637534, 48.374814) rotate(-5.000000) translate(-53.637534, -48.374814) "></path>
                                            <path d="M39.6089695,42.6823982 C31.8973859,43.4548178 11.176614,44.3684944 13.1473154,68.3479812 C14.9381378,64.0099551 27.3253857,41.9166304 39.6089695,42.6823982 Z" id="Fill-189" fill="#382B2B"></path>
                                            <path d="M85.8456681,42.6931162 C84.0586056,44.6511557 57.5625157,44.1406387 59.5332172,68.1201255 C61.3240395,63.7820993 71.9316585,46.0520491 85.8456681,42.6931162 Z" id="Fill-189" fill="#382B2B" transform="translate(72.637122, 55.406621) scale(-1, 1) translate(-72.637122, -55.406621) "></path>
                                            <g id="Group" transform="translate(49.173996, 49.460581) rotate(315.000000) translate(-49.173996, -49.460581) translate(15.573798, 14.170846)" fill="#F0576A">
                                                <path d="M46.9365793,49.1113998 C45.3177258,44.138636 43.4617836,36.2111714 39.2517542,30.7437664 C36.0118476,26.5362228 33.405242,24.9793582 33.405242,24.9793582 L36.8532078,24.5401236 C36.8532078,24.5401236 42.9162191,29.7964187 47.8820293,37.5043044 C50.8929328,42.1778014 53.3435915,47.9125416 54.2447159,53.4646654 C54.6404844,55.9033477 54.7164423,58.5099171 54.2447159,61.8310649 C53.88501,64.3635416 53.8112809,67.5139445 49.7537003,70.1284712 C49.7537003,70.1284712 50.8735664,61.2049622 46.9365793,49.1113998 Z" id="Fill-456"></path>
                                                <path d="M27.2451021,16.8091456 C23.7340395,14.7942804 11.0671172,9.5154483 0.157507928,17.9746643 C0.157507928,17.9746643 22.8202922,16.9566464 34.1946957,25.6224772 L36.05208,24.1914263" id="Fill-458"></path>
                                                <path d="M33.9700648,31.3969929 C33.9700648,31.3969929 40.3362698,24.0994512 58.2980627,25.9238367 L67.1652769,25.2396921 L59.2075205,32.765282 C59.2075205,32.765282 44.2014658,34.3616192 33.9700648,31.3969929" id="Fill-459" transform="translate(50.567671, 29.217084) rotate(35.000000) translate(-50.567671, -29.217084) "></path>
                                                <path d="M29.3459043,21.7831076 C29.3459043,21.7831076 29.5732687,11.2928914 34.575287,9.24045784 C39.5773053,7.18802424 42.5330433,1.94291614 42.5330433,1.94291614 L38.8952119,13.8014214 C38.8952119,13.8014214 34.3479225,20.6428667 29.3459043,21.7831076" id="Fill-460" transform="translate(35.939474, 11.863012) rotate(-24.000000) translate(-35.939474, -11.863012) "></path>
                                                <path d="M34.3108144,24.8817623 L31.3978209,23.2297813 C30.2971495,22.6053854 30.0561431,20.9438264 30.8594218,19.5185253 C31.6629278,18.0934522 33.2067325,17.4441991 34.3076313,18.068595 L37.2208522,19.720804 C38.3212962,20.3451999 38.5625299,22.0065309 37.7590239,23.431832 C36.9552905,24.8571331 35.4114858,25.5063863 34.3108144,24.8817623 Z" id="Fill-457"></path>
                                            </g>
                                            <ellipse id="Oval-45" fill="#FFFFFF" cx="76.3537076" cy="50.0340767" rx="1" ry="1"></ellipse>
                                            <ellipse id="Oval-45" fill="#FFFFFF" cx="78.3448995" cy="53.4519127" rx="1" ry="1"></ellipse>
                                            <ellipse id="Oval-45" fill="#FFFFFF" cx="82.6117392" cy="55.73047" rx="1" ry="1"></ellipse>
                                            <ellipse id="Oval-45" fill="#FFFFFF" cx="70.3801319" cy="46.6162407" rx="1" ry="1"></ellipse>
                                            <ellipse id="Oval-45" fill="#FFFFFF" cx="50.468213" cy="40.8628835" rx="1" ry="1"></ellipse>
                                            <ellipse id="Oval-45" fill="#FFFFFF" cx="73.2246917" cy="50.603716" rx="1" ry="1"></ellipse>
                                            <ellipse id="Oval-45" fill="#FFFFFF" cx="63.3825147" cy="43.3123326" rx="1" ry="1"></ellipse>
                                            <ellipse id="Oval-45" fill="#FFFFFF" cx="58.7174365" cy="42.4009097" rx="1" ry="1"></ellipse>
                                            <ellipse id="Oval-45" fill="#FFFFFF" cx="64.9754682" cy="46.3314211" rx="1" ry="1"></ellipse>
                                            <ellipse id="Oval-45" fill="#FFFFFF" transform="translate(23.729350, 48.894798) scale(-1, 1) translate(-23.729350, -48.894798) " cx="23.7293504" cy="48.894798" rx="1" ry="1"></ellipse>
                                            <ellipse id="Oval-45" fill="#FFFFFF" transform="translate(62.041622, 31.962587) scale(-1, 1) translate(-62.041622, -31.962587) " cx="62.0416221" cy="31.9625874" rx="1" ry="1"></ellipse>
                                            <ellipse id="Oval-45" fill="#FFFFFF" transform="translate(55.351024, 33.078678) scale(-1, 1) translate(-55.351024, -33.078678) " cx="55.3510241" cy="33.0786781" rx="1" ry="1"></ellipse>
                                            <ellipse id="Oval-45" fill="#FFFFFF" transform="translate(16.333495, 55.730470) scale(-1, 1) translate(-16.333495, -55.730470) " cx="16.3334948" cy="55.73047" rx="1" ry="1"></ellipse>
                                            <ellipse id="Oval-45" fill="#FFFFFF" transform="translate(35.999670, 34.977048) scale(-1, 1) translate(-35.999670, -34.977048) " cx="35.9996696" cy="34.977048" rx="1" ry="1"></ellipse>
                                            <ellipse id="Oval-45" fill="#FFFFFF" transform="translate(26.858366, 46.331421) scale(-1, 1) translate(-26.858366, -46.331421) " cx="26.8583663" cy="46.3314211" rx="1" ry="1"></ellipse>
                                            <ellipse id="Oval-45" fill="#FFFFFF" transform="translate(36.529870, 42.059126) scale(-1, 1) translate(-36.529870, -42.059126) " cx="36.5298697" cy="42.0591261" rx="1" ry="1"></ellipse>
                                            <ellipse id="Oval-45" fill="#FFFFFF" transform="translate(19.746967, 49.179618) scale(-1, 1) translate(-19.746967, -49.179618) " cx="19.7469667" cy="49.1796177" rx="1" ry="1"></ellipse>
                                            <ellipse id="Oval-45" fill="#FFFFFF" transform="translate(30.556294, 43.768044) scale(-1, 1) translate(-30.556294, -43.768044) " cx="30.5562941" cy="43.7680441" rx="1" ry="1"></ellipse>
                                            <ellipse id="Oval-45" fill="#FFFFFF" transform="translate(33.272050, 28.391097) scale(-1, 1) translate(-33.272050, -28.391097) " cx="33.2720505" cy="28.3910973" rx="1" ry="1"></ellipse>
                                            <ellipse id="Oval-45" fill="#FFFFFF" transform="translate(65.806464, 30.857547) scale(-1, 1) translate(-65.806464, -30.857547) " cx="65.8064636" cy="30.8575472" rx="1" ry="1"></ellipse>
                                            <ellipse id="Oval-45" fill="#FFFFFF" transform="translate(35.279230, 31.962587) scale(-1, 1) translate(-35.279230, -31.962587) " cx="35.2792299" cy="31.9625874" rx="1" ry="1"></ellipse>
                                            <ellipse id="Oval-45" fill="#FFFFFF" cx="48.660426" cy="35.3108594" rx="1" ry="1"></ellipse>
                                        </g>
                                    </g>
                                </g>
                                <g id="Group-32" transform="translate(166.358705, 108.912767)">
                                    <path d="M6.14697986,22.027187 C9.51965902,22.9107683 14.5853963,20.3948321 17.5826875,16.3348821 C21.4816388,11.0535977 22.8921232,3.73049267 22.8921232,3.73049267 L1.65438043,2.91730626 C1.65438043,2.91730626 -1.61296461,19.9942209 6.14697986,22.027187 Z" id="Path-46" fill="#F6C724"></path>
                                    <polygon id="Path-47" fill="#ADD6FF" points="0 4.8621771 0.971571995 0 23.3177279 1.94487084 22.3461559 6.80704794"></polygon>
                                </g>
                                <g id="Group-32" transform="translate(107.983421, 120.270383) scale(-1, 1) translate(-107.983421, -120.270383) translate(96.243593, 108.912767)">
                                    <path d="M6.14697986,22.027187 C9.51965902,22.9107683 14.5853963,20.3948321 17.5826875,16.3348821 C21.4816388,11.0535977 22.8921232,3.73049267 22.8921232,3.73049267 L1.65438043,2.91730626 C1.65438043,2.91730626 -1.61296461,19.9942209 6.14697986,22.027187 Z" id="Path-46" fill="#F6C724"></path>
                                    <polygon id="Path-47" fill="#ADD6FF" points="0 4.8621771 0.971571995 0 23.3177279 1.94487084 22.3461559 6.80704794"></polygon>
                                </g>
                                <path d="M233.397173,125.444169 L241.658352,125.444169 C242.461673,125.444169 243.112893,124.796724 243.112893,123.985516 L243.112893,123.985516 C243.112893,123.179924 242.460331,122.526863 241.658352,122.526863 L233.397173,122.526863 L233.397173,125.444169 Z" id="Path-50" fill="#999999"></path>
                                <path d="M233.397173,116.69225 L241.658352,116.69225 C242.461673,116.69225 243.112893,116.044806 243.112893,115.233597 L243.112893,115.233597 C243.112893,114.428005 242.460331,113.774944 241.658352,113.774944 L233.397173,113.774944 L233.397173,116.69225 Z" id="Path-50" fill="#999999"></path>
                            </g>
                        </g>
                    </g>
                    <g id="electricity" mask="url(#mask-2)" fill="#FFFFFF">
                        <g transform="translate(225.000000, 183.000000)" id="Path-393">
                            <polygon transform="translate(11.658864, 25.641660) scale(-1, 1) translate(-11.658864, -25.641660) " points="7.6607894 27.1004876 0 38.2833209 18.2188374 29.1023026 14.0655367 24.8869074 23.3177279 13 4.57672567 23.4289853"></polygon>
                            <polygon transform="translate(42.127318, 16.556815) rotate(-27.000000) translate(-42.127318, -16.556815) " points="38.129243 18.0156426 30.4684536 29.1984759 48.687291 20.0174575 44.5339903 15.8020624 53.7861815 3.91515495 35.0451793 14.3441402"></polygon>
                        </g>
                    </g>
                </g>
            </g>
        </g>
    </g>
</svg>