<?xml version="1.0" encoding="UTF-8"?>
<svg width="236px" height="319px" viewBox="0 0 236 319" version="1.1" xmlns="http://www.w3.org/2000/svg" xmlns:xlink="http://www.w3.org/1999/xlink">
    <!-- Generator: Sketch 51.3 (57544) - http://www.bohemiancoding.com/sketch -->
    <title>leaf</title>
    <desc>Created with Sketch.</desc>
    <defs></defs>
    <g id="Current-Version" stroke="none" stroke-width="1" fill="none" fill-rule="evenodd">
        <g id="employers01" transform="translate(0.000000, -683.000000)">
            <g id="leaf" transform="translate(108.000000, 848.000000) rotate(37.000000) translate(-108.000000, -848.000000) translate(34.000000, 648.000000)">
                <path d="M76.3467725,399.577917 C76.3467725,399.577917 106.547544,296.573628 70.6787721,220.759226 C55.6212331,188.945461 50.6265372,153.221075 57.5799373,118.689551 C60.9048552,102.294567 65.7197699,86.2404997 71.9641718,70.7291021" id="Shape" stroke="#8BC5FF" stroke-width="2.05714286" opacity="0.6"></path>
                <path d="M49.659427,22.8793307 C49.659427,35.5089157 72.4171221,72.0695352 72.4171221,72.0695352 C72.4171221,72.0695352 95.1748173,35.4597255 95.1748173,22.8793307 C94.8880972,10.4633835 84.7863302,0.548370219 72.4232431,0.548370219 C60.060156,0.548370219 49.9583889,10.4633835 49.6716689,22.8793307 L49.659427,22.8793307 Z" id="Shape" fill="#CFE7FF" fill-rule="nonzero"></path>
                <path d="M12.0400633,92.8032064 C18.8710444,103.403695 57.7758078,121.702452 57.7758078,121.702452 C57.7758078,121.702452 57.0657775,78.5503446 50.2347964,67.9498556 C45.917708,60.8676992 38.1169813,56.6942434 29.8576023,57.0478817 C21.5982234,57.4015199 14.1793051,62.2266287 10.4777751,69.6521148 C6.77624512,77.0776008 7.37431486,85.9355137 12.0400633,92.7909088 L12.0400633,92.8032064 Z" id="Shape" fill="#CFE7FF" fill-rule="nonzero"></path>
                <path d="M13.7294457,212.298511 C24.9552695,217.979979 67.7284738,214.05706 67.7284738,214.05706 C67.7284738,214.05706 45.4359709,177.164407 34.2101471,171.482938 C26.9237461,167.558285 18.0916476,167.91201 11.139405,172.406921 C4.18716242,176.901832 0.20852688,184.830774 0.746622962,193.118485 C1.28471904,201.406195 6.25489159,208.748823 13.7294457,212.298511 Z" id="Shape" fill="#CFE7FF" fill-rule="nonzero"></path>
                <path d="M35.2017412,302.427263 C45.30131,309.928769 88.1357238,313.322893 88.1357238,313.322893 C88.1357238,313.322893 72.3681545,273.183686 62.2685857,265.669882 C52.1619048,258.2846 38.0175605,260.468484 30.5852026,270.561793 C23.1528447,280.655101 25.2137961,294.880734 35.2017412,302.427263 Z" id="Shape" fill="#CFE7FF" fill-rule="nonzero"></path>
                <path d="M105.543708,124.149664 C96.5336683,132.942413 54.5317038,142.054899 54.5317038,142.054899 C54.5317038,142.054899 64.8149012,100.157142 73.8249408,91.3520953 C79.65715,85.6603266 88.069115,83.5265061 95.89213,85.7544233 C103.715145,87.9823405 109.760708,94.2335218 111.751514,102.153208 C113.742319,110.072894 111.375917,118.457895 105.543708,124.149664 Z" id="Shape" fill="#CFE7FF" fill-rule="nonzero"></path>
                <path d="M129.37869,229.884009 C118.152867,235.565477 75.3796623,231.642559 75.3796623,231.642559 C75.3796623,231.642559 97.6721652,194.749905 108.897989,189.068437 C120.071326,183.685107 133.478588,188.271592 139.059102,199.38624 C144.639615,210.500888 140.341906,224.057801 129.390932,229.884009 L129.37869,229.884009 Z" id="Shape" fill="#CFE7FF" fill-rule="nonzero"></path>
                <path d="M138.498907,335.827412 C128.399338,343.328918 85.5649245,346.723042 85.5649245,346.723042 C85.5649245,346.723042 101.332494,306.583835 111.432063,299.070031 C121.538743,291.684748 135.683088,293.868633 143.115446,303.961942 C150.547804,314.05525 148.486852,328.280883 138.498907,335.827412 Z" id="Shape" fill="#CFE7FF" fill-rule="nonzero"></path>
            </g>
        </g>
    </g>
</svg>