<?xml version="1.0" encoding="UTF-8"?>
<svg width="9px" height="63px" viewBox="0 0 9 63" version="1.1" xmlns="http://www.w3.org/2000/svg" xmlns:xlink="http://www.w3.org/1999/xlink">
    <!-- Generator: sketchtool 51.3 (57544) - http://www.bohemiancoding.com/sketch -->
    <title>307BEBC5-CC0E-4401-B30C-C3D2F77451FD</title>
    <desc>Created with sketchtool.</desc>
    <defs></defs>
    <g id="Current-Version" stroke="none" stroke-width="1" fill="none" fill-rule="evenodd" opacity="0.5">
        <g id="talents01" transform="translate(-268.000000, -1576.000000)" fill-rule="nonzero">
            <g id="signup-process" transform="translate(256.000000, 1155.000000)">
                <g id="a-simple-signup">
                    <g id="arrow-grey" transform="translate(12.000000, 422.000000)">
                        <path d="M9.70501465,55.1458728 L6.61851676,51.9979438 C6.29362225,51.6665828 5.75986697,51.6665828 5.42336908,51.9979438 C5.09847457,52.3293047 5.09847457,52.8736834 5.42336908,53.2168787 L7.05944503,54.8855177 L-0.227474801,54.8855177 C-0.691609822,54.8855177 -1.07452121,55.2760503 -1.07452121,55.7494231 C-1.07452121,56.2227958 -0.691609822,56.6133284 -0.227474801,56.6133284 L7.07104841,56.6133284 L5.42336908,58.2819674 C5.09847457,58.6133284 5.09847457,59.1577071 5.42336908,59.5009024 C5.58581634,59.6665828 5.80628047,59.7494231 6.01514123,59.7494231 C6.23560537,59.7494231 6.44446613,59.6665828 6.60691338,59.5009024 L9.6818079,56.3648077 C9.84425516,56.1991272 9.92547879,55.9861095 9.92547879,55.7612574 C9.92547879,55.5364053 9.85585853,55.2997189 9.70501465,55.1458728 Z" id="Shape" fill="#D6D6D6" transform="translate(4.425479, 55.749423) rotate(90.000000) translate(-4.425479, -55.749423) "></path>
                        <path d="M4.5,56.5 L4.5,0.5" id="Line-3" stroke="#D6D6D6" stroke-width="1.5" stroke-linecap="square" stroke-dasharray="6,4"></path>
                    </g>
                </g>
            </g>
        </g>
    </g>
</svg>