<?xml version="1.0" encoding="UTF-8"?>
<svg width="219px" height="287px" viewBox="0 0 219 287" version="1.1" xmlns="http://www.w3.org/2000/svg" xmlns:xlink="http://www.w3.org/1999/xlink">
    <!-- Generator: Sketch 51.3 (57544) - http://www.bohemiancoding.com/sketch -->
    <title>cables</title>
    <desc>Created with Sketch.</desc>
    <defs></defs>
    <g id="Current-Version" stroke="none" stroke-width="1" fill="none" fill-rule="evenodd">
        <g id="talents01" transform="translate(0.000000, -2206.000000)">
            <g id="cables" transform="translate(37.000000, 2327.500000) scale(1, -1) translate(-37.000000, -2327.500000) translate(-149.000000, 2156.000000)">
                <g id="Group-50" transform="translate(105.000000, 0.000000)">
                    <g id="bord" transform="translate(113.401918, 178.709119) rotate(37.000000) translate(-113.401918, -178.709119) translate(95.901918, 13.709119)" opacity="0.6" stroke="#F6C724" stroke-width="2.05714286">
                        <g id="Group-4" transform="translate(0.000000, -0.000000)">
                            <path d="M22.3467725,329.577917 C22.3467725,329.577917 52.5475439,226.573628 16.6787721,150.759226 C1.62123308,118.945461 -3.37346278,83.221075 3.57993734,48.6895515 C6.9048552,32.2945673 11.7197699,16.2404997 17.9641718,0.729102104" id="Shape"></path>
                        </g>
                    </g>
                    <g id="Group-13" transform="translate(231.613044, 32.647154) scale(-1, 1) rotate(-53.000000) translate(-231.613044, -32.647154) translate(214.113044, 2.147154)">
                        <path d="M0,15.1981834 C0,8.89362829 5.10641499,3.78277653 11.4100097,3.78277653 L23.071475,3.78277653 C29.3730493,3.78277653 34.4814846,8.90092237 34.4814846,15.1981834 L34.4814846,47.2847066 L22.9876564,47.2847066 L22.9876564,60.5244245 L11.4938282,60.5244245 L11.4938282,47.2847066 L0,47.2847066 L0,15.1981834 Z" id="Rectangle-8" fill="#FEE280"></path>
                        <path d="M9.57819018,0.945694133 L9.57819018,12.2940237" id="Line" stroke="#DEBA3B" stroke-width="3.8054016" stroke-linecap="square"></path>
                        <path d="M17.2407423,0.945694133 L17.2407423,12.2940237" id="Line" stroke="#DEBA3B" stroke-width="3.8054016" stroke-linecap="square"></path>
                        <path d="M24.9032945,0.945694133 L24.9032945,12.2940237" id="Line" stroke="#DEBA3B" stroke-width="3.8054016" stroke-linecap="square"></path>
                    </g>
                </g>
                <g id="Group-50" transform="translate(0.000000, 38.000000)">
                    <g id="bord" transform="translate(113.401918, 161.709119) rotate(37.000000) translate(-113.401918, -161.709119) translate(95.901918, -3.290881)" opacity="0.6" stroke="#F6C724" stroke-width="2.05714286">
                        <g id="Group-4" transform="translate(0.000000, -0.000000)">
                            <path d="M22.3467725,329.577917 C22.3467725,329.577917 52.5475439,226.573628 16.6787721,150.759226 C1.62123308,118.945461 -3.37346278,83.221075 3.57993734,48.6895515 C6.9048552,32.2945673 11.7197699,16.2404997 17.9641718,0.729102104" id="Shape"></path>
                        </g>
                    </g>
                    <g id="Group-13" transform="translate(222.693351, 22.921967) scale(-1, 1) rotate(-53.000000) translate(-222.693351, -22.921967) translate(210.193351, 1.421967)">
                        <path d="M0,10.6634323 C0,6.24687473 3.58135994,2.66654739 7.99653566,2.66654739 L16.6330962,2.66654739 C21.0494609,2.66654739 24.6296319,6.2442618 24.6296319,10.6634323 L24.6296319,33.3318424 L16.4197546,33.3318424 L16.4197546,42.6647582 L8.2098773,42.6647582 L8.2098773,33.3318424 L0,33.3318424 L0,10.6634323 Z" id="Rectangle-8" fill="#FEE280"></path>
                        <path d="M6.84156441,0.666636848 L6.84156441,8.66627902" id="Line" stroke="#DEBA3B" stroke-width="2.66378112" stroke-linecap="square"></path>
                        <path d="M12.3148159,0.666636848 L12.3148159,8.66627902" id="Line" stroke="#DEBA3B" stroke-width="2.66378112" stroke-linecap="square"></path>
                        <path d="M17.7880675,0.666636848 L17.7880675,8.66627902" id="Line" stroke="#DEBA3B" stroke-width="2.66378112" stroke-linecap="square"></path>
                    </g>
                </g>
            </g>
        </g>
    </g>
</svg>