<?xml version="1.0" encoding="UTF-8"?>
<svg width="429px" height="379px" viewBox="0 0 429 379" version="1.1" xmlns="http://www.w3.org/2000/svg" xmlns:xlink="http://www.w3.org/1999/xlink">
    <!-- Generator: Sketch 51.3 (57544) - http://www.bohemiancoding.com/sketch -->
    <title>hire-quicker</title>
    <desc>Created with Sketch.</desc>
    <defs>
        <path d="M423.401905,337.394519 C440.884072,297.109476 409.288262,283.389985 409.288262,183.194247 C409.288262,82.9985077 440.884072,99.0689425 423.401905,48.0416675 C410.032731,9.01947487 369.114968,-11.3838456 273.991155,8.2526764 C244.726546,14.2938045 210.039797,9.29671644 169.817848,27.5949262 C108.975437,55.2740232 8.07649557,167.69086 3.09153467,208.763755 C-4.08540472,267.897153 -3.8172169,316.907937 61.2260739,355.613407 C145.811759,405.948016 136.420936,355.613407 240.867128,355.613407 C274.402684,355.613407 293.025081,375.438433 332.298293,377.769943 C371.571504,380.101454 405.919737,377.679562 423.401905,337.394519 Z" id="path-1"></path>
        <ellipse id="path-3" cx="214" cy="291.5" rx="79" ry="8.5"></ellipse>
        <filter x="-5.4%" y="-38.2%" width="110.8%" height="200.0%" filterUnits="objectBoundingBox" id="filter-4">
            <feOffset dx="0" dy="2" in="SourceAlpha" result="shadowOffsetOuter1"></feOffset>
            <feGaussianBlur stdDeviation="2.5" in="shadowOffsetOuter1" result="shadowBlurOuter1"></feGaussianBlur>
            <feColorMatrix values="0 0 0 0 0.411251572   0 0 0 0 0.491831675   0 0 0 0 0.572411777  0 0 0 0.414770154 0" type="matrix" in="shadowBlurOuter1"></feColorMatrix>
        </filter>
        <polyline id="path-5" points="0 0.230646604 87.0547297 0.230646604 87.0547297 106.894735 0 106.894735"></polyline>
    </defs>
    <g id="Current-Version" stroke="none" stroke-width="1" fill="none" fill-rule="evenodd">
        <g id="employers01" transform="translate(-785.000000, -998.000000)">
            <g id="hire-quicker" transform="translate(315.000000, 998.000000)">
                <g transform="translate(470.000000, 0.000000)">
                    <mask id="mask-2" fill="white">
                        <use xlink:href="#path-1"></use>
                    </mask>
                    <use id="bg" fill="#E1F0FF" fill-rule="nonzero" xlink:href="#path-1"></use>
                    <g id="Shadow" opacity="0.284430804" style="mix-blend-mode: multiply;" mask="url(#mask-2)" fill="black" fill-opacity="1">
                        <use filter="url(#filter-4)" xlink:href="#path-3"></use>
                    </g>
                    <g id="bearpot" mask="url(#mask-2)">
                        <g transform="translate(171.903226, 82.000000)">
                            <g id="Mascot_EPS" stroke-width="1" fill="none" fill-rule="evenodd" transform="translate(0.955567, 0.463239)">
                                <g id="Group-3">
                                    <mask id="mask-6" fill="white">
                                        <use xlink:href="#path-5"></use>
                                    </mask>
                                    <g id="Clip-2"></g>
                                    <path d="M86.9734889,60.8560157 C86.4609041,53.6464326 84.7596096,46.7643107 82.0794555,40.3724747 C81.3697227,38.6792542 80.6152678,37.0088137 79.7703101,35.3891102 C82.7643132,33.6542128 84.7781336,30.4712379 84.7781336,26.8204983 C84.7781336,21.3183731 80.2185902,16.8581699 74.5939184,16.8581699 L12.4698087,16.8581699 C6.84513693,16.8581699 2.28585815,21.3183731 2.28585815,26.8204983 C2.28585815,30.4683904 4.29623837,33.6492944 7.28653672,35.3849684 C6.44157896,37.0041541 5.68738867,38.674077 4.97765592,40.3667797 C2.29644328,46.7599101 0.594090246,53.643844 0.081505477,60.8552392 C0.0423405075,61.7131099 0,62.5704629 0,63.4379116 C0,69.6700294 1.03628392,75.6619227 2.92281816,81.2761355 C3.48541765,82.8564918 4.56721762,85.5779147 5.89274013,87.3951303 C6.03749174,87.5817703 6.17403988,87.7637507 6.33890323,87.9597097 C6.35875035,87.9824896 6.37780357,88.0078582 6.39738606,88.0301204 C6.98538986,88.7215424 7.69803352,89.4616307 8.55569343,90.1957651 C9.42129218,90.9306761 10.4237037,91.6650694 11.5647804,92.2793504 C12.692361,92.8900074 14.0083569,93.3836584 15.3068874,93.5472596 C16.6654884,93.7377825 18.0992438,93.5097245 19.1937459,92.7585052 C20.3094183,92.0254062 21.1070076,90.7430007 21.5687838,89.2928523 C22.4899545,86.3550203 22.387808,83.0265646 22.1057143,80.0159922 C21.7974225,76.9808278 21.2350877,74.1602606 20.6767222,71.7637104 C19.543849,66.966727 18.4318814,63.8520918 18.4318814,63.8520918 C18.4318814,63.8520918 19.7600502,66.8802669 21.2377339,71.6177119 C21.9683723,73.9875993 22.7363233,76.7861631 23.2708722,79.8642987 C23.7646684,82.9367392 24.1629338,86.3211093 23.3581995,89.7805495 C22.9448503,91.4799826 22.083221,93.2728652 20.5145052,94.4843423 C18.9442016,95.7162696 16.9809252,96.0973154 15.2177077,96.1392511 C13.3616057,96.1516765 11.713766,95.7374963 10.2191461,95.1806828 C10.0370819,95.1118253 9.8817452,95.0232943 9.70497358,94.950295 C12.4377887,98.9815628 15.692186,102.637221 19.3511997,105.86472 C21.3033617,106.914408 24.4839277,107.689961 28.6968082,105.550202 C36.042357,101.819215 43.3881705,101.404517 43.3881705,101.404517 C43.3881705,101.404517 50.7337193,101.819215 58.0795327,105.550202 C63.0153773,108.057028 66.5344028,106.564685 68.317732,105.315414 C71.7150285,102.230807 74.7532245,98.7752493 77.3272628,94.9839472 C77.1621348,95.0517692 77.0179124,95.1346052 76.8485504,95.1985443 C75.3539305,95.7553578 73.7060909,96.1697969 71.8499889,96.1571126 C70.0867714,96.1151769 68.123495,95.7341311 66.5531914,94.5022038 C64.9844756,93.2907267 64.1231109,91.498103 63.7097617,89.798411 C62.9050274,86.3389708 63.3030282,82.9546008 63.797089,79.8824191 C64.3313732,76.8042835 65.0993242,74.0057196 65.8299626,71.6355734 C67.3079109,66.8981284 68.6358151,63.8699533 68.6358151,63.8699533 C68.6358151,63.8699533 67.5241121,66.9845885 66.3909743,71.7815719 C65.8328735,74.1781221 65.2705386,76.9986894 64.9619822,80.0338537 C64.6801532,83.0444261 64.5780067,86.3731407 65.4989127,89.3107138 C65.9606889,90.7608622 66.7582782,92.0435266 67.8739506,92.7763667 C68.9687173,93.5278449 70.4022081,93.755644 71.7610738,93.5651211 C73.0593396,93.4015199 74.3753355,92.9081278 75.5031808,92.2972119 C76.6442575,91.6829309 77.646669,90.9485376 78.5120031,90.2136266 C79.6771609,89.2162289 80.558902,88.2175369 81.2363501,87.3358508 C82.2930104,85.8657699 83.1908938,83.8344748 83.7908059,82.2797459 C85.8993631,76.3800077 87.0547297,70.0422739 87.0547297,63.4379116 C87.0547297,62.5707218 87.0126539,61.7136276 86.9734889,60.8560157" id="Fill-1" fill="#F6C724" mask="url(#mask-6)"></path>
                                </g>
                                <path d="M34.3953113,33.9371497 C34.3953113,38.9577904 30.2345625,43.0281464 25.1018345,43.0281464 C19.9693711,43.0281464 15.8083577,38.9577904 15.8083577,33.9371497 C15.8083577,28.9162501 19.9693711,24.8458941 25.1018345,24.8458941 C30.2345625,24.8458941 34.3953113,28.9162501 34.3953113,33.9371497" id="Fill-4" fill="#FFFFFE"></path>
                                <path d="M29.2377082,33.9371497 C29.2377082,36.171393 27.3861049,37.9826549 25.1018345,37.9826549 C22.8178288,37.9826549 20.9662254,36.171393 20.9662254,33.9371497 C20.9662254,31.7026475 22.8178288,29.8913856 25.1018345,29.8913856 C27.3861049,29.8913856 29.2377082,31.7026475 29.2377082,33.9371497" id="Fill-5" fill="#26292D"></path>
                                <path d="M12.4698087,21.8226375 C9.64807852,21.8226375 7.3606326,24.060246 7.3606326,26.8204983 C7.3606326,28.6107922 8.33075948,30.1691452 9.77695244,31.0518668 C11.5449333,28.2113672 13.5180009,25.507547 15.6882165,22.9683635 C14.807534,22.2632217 13.6966249,21.8226375 12.4698087,21.8226375" id="Fill-6" fill="#26292D"></path>
                                <path d="M74.5939184,21.8226375 C73.3644559,21.8226375 72.2519591,22.2647748 71.3704826,22.9725053 C73.540169,25.5114299 75.5124428,28.2152501 77.280159,31.055232 C78.7297921,30.1735459 79.7030945,28.6133808 79.7030945,26.8204983 C79.7030945,24.060246 77.4156486,21.8226375 74.5939184,21.8226375" id="Fill-7" fill="#26292D"></path>
                                <path d="M24.5262682,31.0065659 C24.5262682,32.2333159 23.5098314,33.2276072 22.2560232,33.2276072 C21.0019502,33.2276072 19.9855134,32.2333159 19.9855134,31.0065659 C19.9855134,29.7800747 21.0019502,28.7857833 22.2560232,28.7857833 C23.5098314,28.7857833 24.5262682,29.7800747 24.5262682,31.0065659" id="Fill-8" fill="#FFFFFE"></path>
                                <path d="M71.246372,33.9371497 C71.246372,38.9577904 67.0856233,43.0281464 61.9528952,43.0281464 C56.8201672,43.0281464 52.6594185,38.9577904 52.6594185,33.9371497 C52.6594185,28.9162501 56.8201672,24.8458941 61.9528952,24.8458941 C67.0856233,24.8458941 71.246372,28.9162501 71.246372,33.9371497" id="Fill-9" fill="#FFFFFE"></path>
                                <path d="M66.0885043,33.9371497 C66.0885043,36.171393 64.236901,37.9826549 61.9528952,37.9826549 C59.6686249,37.9826549 57.8170215,36.171393 57.8170215,33.9371497 C57.8170215,31.7026475 59.6686249,29.8913856 61.9528952,29.8913856 C64.236901,29.8913856 66.0885043,31.7026475 66.0885043,33.9371497" id="Fill-10" fill="#26292D"></path>
                                <path d="M61.377329,31.0065659 C61.377329,32.2333159 60.3606275,33.2276072 59.1068192,33.2276072 C57.853011,33.2276072 56.8365742,32.2333159 56.8365742,31.0065659 C56.8365742,29.7800747 57.853011,28.7857833 59.1068192,28.7857833 C60.3606275,28.7857833 61.377329,29.7800747 61.377329,31.0065659" id="Fill-11" fill="#FFFFFE"></path>
                                <path d="M56.0241657,51.4914012 C56.0241657,58.3178677 50.3669446,63.8520918 43.3881705,63.8520918 C36.4093963,63.8520918 30.7521752,58.3178677 30.7521752,51.4914012 C30.7521752,44.6646759 36.4093963,39.1304518 43.3881705,39.1304518 C50.3669446,39.1304518 56.0241657,44.6646759 56.0241657,51.4914012" id="Fill-12" fill="#FFFFFE"></path>
                                <path d="M42.5680878,63.8114504 C42.8403901,63.8287942 43.1108401,63.8520918 43.3876412,63.8520918 C43.6647069,63.8520918 43.9354215,63.8287942 44.2079885,63.8114504 L44.2079885,47.745659 L42.5680878,47.745659 L42.5680878,63.8114504" id="Fill-13" fill="#26292D"></path>
                                <path d="M49.9440688,44.7420759 C49.9440688,44.5712265 49.9109903,44.4096963 49.8638865,44.253861 C49.8432455,44.1774965 49.8265739,44.1324544 49.8265739,44.1324544 L49.8252507,44.1324544 C49.7662387,43.9799843 49.6860563,43.8396807 49.5878793,43.7115437 L49.5884085,43.7099906 C49.5884085,43.7099906 48.8461265,42.212988 43.4627956,42.1987505 L43.4627956,42.1971974 C43.4498288,42.1971974 43.4387144,42.1979739 43.425483,42.1979739 C43.4125162,42.1979739 43.4011372,42.1971974 43.3881705,42.1971974 L43.3881705,42.1987505 C40.2560314,42.2070341 38.6986946,42.7156992 37.941858,43.1415282 C37.4848452,43.32092 37.1257448,43.6812568 36.9510902,44.1324544 L36.9484439,44.1324544 C36.9484439,44.1324544 36.9288614,44.1852624 36.9061034,44.2740522 C36.8627044,44.4239337 36.8320075,44.5787336 36.8320075,44.7420759 C36.8320075,44.756831 36.8359769,44.7705508 36.8365062,44.7850471 C36.8044862,45.561635 37.0648803,46.9292062 38.8651457,48.3322417 C40.6363021,49.7124972 41.9967555,50.1629182 42.7445947,50.312282 C42.8014898,50.3249662 42.859708,50.3327321 42.9176616,50.3420512 C43.2119281,50.3886464 43.3868473,50.3883876 43.3868473,50.3883876 L43.3881705,50.3883876 C43.3881705,50.3883876 43.5622958,50.3883876 43.8555038,50.34231 C43.9150451,50.3327321 43.9748511,50.3249662 44.0333339,50.3117642 C44.7817024,50.1618828 46.1410973,49.7104263 47.909872,48.3322417 C49.7027279,46.9349012 49.96815,45.5727661 49.9387762,44.794625 C49.9393055,44.7767635 49.9440688,44.7601963 49.9440688,44.7420759" id="Fill-14" fill="#26292D"></path>
                                <path d="M6.85889759,83.2768847 C6.85889759,83.2768847 6.1835665,82.4179785 5.43996133,80.9655003 C4.69185749,79.5197525 3.93290389,77.4765498 3.44836971,75.3751029 C2.95563205,73.273915 2.72117149,71.1300147 2.67380305,69.520148 C2.63119791,67.9082104 2.73413827,66.8321184 2.73413827,66.8321184 C2.73413827,66.8321184 2.81511449,67.0925342 2.92652295,67.548909 C3.03449125,68.0039896 3.1890341,68.6539936 3.37453845,69.4342056 C3.73046334,70.9915232 4.15889635,73.0600944 4.6468707,75.1071801 C5.11129314,77.1602196 5.65034073,79.1915147 6.09518069,80.7169922 C6.3217024,81.482449 6.51038229,82.1205454 6.64243175,82.5670834 C6.78930038,83.014398 6.85889759,83.2768847 6.85889759,83.2768847" id="Fill-16" fill="#FFFFFE"></path>
                                <path d="M69.8777151,70.2962181 C69.8777151,70.2962181 69.8589265,71.0192215 69.7440779,72.0683917 C69.6228782,73.1165265 69.3855067,74.4866864 69.1015607,75.8433854 C68.805971,77.1980136 68.4688347,78.5433227 68.1647769,79.5528869 C68.0234655,80.0587045 67.8546327,80.4762499 67.7691578,80.773942 C67.6691284,81.0695631 67.5947679,81.2378238 67.5947679,81.2378238 C67.5947679,81.2378238 67.4751559,80.5236218 67.4656293,79.4558135 C67.4619245,78.3895583 67.6048237,76.9779804 67.8982964,75.5974659 C68.1962677,74.2174693 68.6395199,72.8719013 69.0642481,71.8931417 C69.4950628,70.914641 69.8777151,70.2962181 69.8777151,70.2962181" id="Fill-17" fill="#FFFFFE"></path>
                                <path d="M12.307327,18.067835 C12.307327,18.067835 11.5470503,18.3528428 10.5554885,18.9350248 C10.0558705,19.2169262 9.49962212,19.5720857 8.94310907,19.9917021 C8.38236198,20.4051057 7.83114149,20.8969447 7.32437855,21.4270954 C6.80200253,21.9461149 6.36377828,22.5350274 5.944078,23.0913232 C5.56698285,23.6742818 5.20073746,24.2209997 4.9342569,24.7265584 C4.63443318,25.2163265 4.42537692,25.6527689 4.27162795,25.9587446 C4.11338031,26.2634259 4.00514738,26.4371227 4.00514738,26.4371227 C4.00514738,26.4371227 4.00699978,26.2401282 4.04087219,25.8958409 C4.09459171,25.5580252 4.09221005,25.0447006 4.27692052,24.4741674 C4.40605906,23.8844783 4.6759798,23.2308502 5.01496849,22.5466762 C5.38253702,21.8759632 5.86204327,21.2042146 6.42993532,20.602359 C7.58424341,19.4097789 9.08918382,18.5948793 10.2858324,18.3000348 C11.4830103,17.9803394 12.307327,18.067835 12.307327,18.067835" id="Fill-18" fill="#FFFFFE"></path>
                            </g>
                            <path d="M7.88530502,90.9572028 C6.07641299,88.0479251 3.4633188,82.1443447 3.4633188,82.1443447 C3.4633188,82.1443447 2.36337937,78.8983753 2.13695483,77.4089952 C1.91053029,75.919615 1.54128093,75.0001924 1.54128093,75.0001924 C1.54128093,75.0001924 0.220308324,66.0083033 0.332310836,61.3206158 C0.41886632,57.6979734 2.05039943,53.691845 2.13695492,50.0692025 C6.36774112,48.8027586 25.8321129,61.3206157 25.8321129,61.3206157 C26.3881684,60.9709412 34.9487936,68.1875742 43.5599073,68.1241579 C51.4594244,68.0659821 86.171633,52.2282424 86.171633,52.2282424 C86.7552747,52.1347603 88.5804446,58.1067635 88.2161728,64.2717812 C87.9079078,69.4889262 87.5387194,77.7900239 86.675644,80.2962584 C85.5069457,83.6899732 82.4053198,86.9120975 81.2381516,89.8154032 C80.2995759,92.1500902 78.7111503,94.370184 77.7725745,96.7048709 C77.7725745,96.7048709 66.3523458,97.9462635 53.3470112,98.0893122 C38.3005293,98.254812 14.2090228,97.2908964 11.0944037,96.7048715 C9.88554583,94.7606409 9.09416291,92.9014334 7.88530502,90.9572028 Z" id="tshirt" fill="#3685D6" fill-rule="evenodd" transform="translate(44.294698, 74.043672) scale(-1, 1) translate(-44.294698, -74.043672) "></path>
                            <path d="M23.3010753,14.4902097 L64.6129032,14.4902097 C59.7078049,11.3707896 53.821687,9.25763399 47.6085624,8.75450171 L50.1156127,2.41503495 C50.1156127,2.41503495 48.4805799,1.20751748 44.0114903,1.20751748 C39.5424008,1.20751748 37.907368,2.41503495 37.907368,2.41503495 L40.4144182,8.75450171 C33.9832894,9.25763399 28.2061736,11.3707896 23.3010753,14.4902097 Z" id="Shape" fill="#F6C724" fill-rule="nonzero"></path>
                        </g>
                    </g>
                    <g id="clock" mask="url(#mask-2)">
                        <g transform="translate(127.161290, 147.055526)">
                            <path d="M153.825806,70.1096179 C153.825806,104.839479 124.613414,132.990844 88.5745821,132.990844 C52.5414249,132.990844 23.3290323,104.839479 23.3290323,70.1096179 C23.3290323,35.3797573 52.5414249,7.22839182 88.5745821,7.22839182 C124.613414,7.22839182 153.825806,35.3797573 153.825806,70.1096179" id="Fill-446" fill="#F5F8FA"></path>
                            <path d="M92.6512516,71.3818149 C92.6512516,73.4346782 90.9715613,75.1058824 88.8952774,75.1058824 C86.830658,75.1058824 85.1509677,73.4346782 85.1509677,71.3818149 C85.1509677,69.3347344 86.830658,67.6577475 88.8952774,67.6577475 C90.9715613,67.6577475 92.6512516,69.3347344 92.6512516,71.3818149" id="Fill-447" fill="#3685D6"></path>
                            <path d="M88.4245514,132.62075 C54.3000095,132.62075 26.5326288,105.089252 26.5326288,71.2545952 C26.5326288,37.4083733 54.3000095,9.87687458 88.4245514,9.87687458 C122.560758,9.87687458 150.328139,37.4083733 150.328139,71.2545952 C150.328139,105.089252 122.560758,132.62075 88.4245514,132.62075 L88.4245514,132.62075 Z M125.259798,7.69966259 C114.748759,1.7218687 101.385449,0 88.4245514,0 C48.8060224,0 16.5652998,31.96684 16.5652998,71.2545952 C16.5652998,91.9971884 25.5528095,110.686918 39.8651708,123.715372 L32.6448353,139.386525 C32.0324482,140.733897 32.5398546,142.364623 33.8637772,143.099027 C35.2635192,143.879693 37.0423579,143.393946 37.835545,142.006094 L45.5632869,128.393587 C57.5369127,137.252704 72.3800095,142.503408 88.4245514,142.503408 C104.480758,142.503408 119.318022,137.252704 131.29748,128.393587 L139.025222,142.006094 C139.760087,143.295639 141.393119,143.833432 142.775364,143.214681 C144.239261,142.549669 144.880809,140.837986 144.2101,139.386525 L136.995597,123.715372 C151.302126,110.686918 160.289635,91.9971884 160.289635,71.2545952 C160.289635,44.8176358 146.883355,19.9973207 125.259798,7.69966259 Z M172.9573,16.9260023 C165.614487,5.58031848 150.386461,2.28995453 138.943571,9.57039077 L165.538668,50.6450044 C176.975726,43.3645682 180.29428,28.2716861 172.9573,16.9260023 L172.9573,16.9260023 Z M3.90346754,16.9260023 C-3.43934536,28.2716861 -0.120790521,43.3645682 11.3220998,50.6450044 L37.9113643,9.57039077 C26.4743063,2.28995453 11.2462804,5.58031848 3.90346754,16.9260023 L3.90346754,16.9260023 Z" id="Fill-448" fill="#83B9EF"></path>
                            <polygon id="Fill-449" fill="#3685D6" points="87.483871 13.300241 89.6709677 13.300241 89.6709677 22.5641479 87.483871 22.5641479"></polygon>
                            <polygon id="Fill-450" fill="#3685D6" points="87.483871 30.07011 89.6709677 30.07011 89.6709677 70.815109 87.483871 70.815109"></polygon>
                            <polyline id="Fill-451" fill="#3685D6" points="89.9275871 70.5491043 88.6503226 72.3128319 110.678761 88.0880742 111.961858 86.335912 89.9275871 70.5491043"></polyline>
                            <polygon id="Fill-452" fill="#3685D6" points="137.64129 69.3925615 146.978735 69.3925615 146.978735 71.5552963 137.64129 71.5552963"></polygon>
                            <polygon id="Fill-453" fill="#3685D6" points="86.9006452 119.123897 89.0877419 119.123897 89.0877419 128.382021 86.9006452 128.382021"></polygon>
                            <polygon id="Fill-454" fill="#3685D6" points="30.3277419 69.3925615 39.6593548 69.3925615 39.6593548 71.5552963 30.3277419 71.5552963"></polygon>
                        </g>
                    </g>
                    <g id="sparks" mask="url(#mask-2)" fill="#FFFFFF">
                        <g transform="translate(294.838710, 210.665374)" id="Path-406">
                            <path d="M5.38447994,57.8603816 C6.53037312,59.0047758 7.52538121,62.8870088 7.52538121,62.8870088 C7.52538121,62.8870088 8.0564762,58.7308447 9.4981891,57.3761811 C10.6512416,56.2927488 15.3096774,55.5727211 15.3096774,55.5727211 C15.3096774,55.5727211 10.9305202,54.385724 9.4981891,52.9356163 C8.34088178,51.7639456 7.54076229,47.707386 7.54076229,47.707386 C7.54076229,47.707386 6.62403959,51.6757845 5.38447994,52.9356163 C4.11045216,54.2304799 0,55.3714721 0,55.3714721 C0,55.3714721 4.02191272,56.4995969 5.38447994,57.8603816 Z"></path>
                            <path d="M21.1266066,38.2892016 C22.0542344,39.215616 22.8597172,42.358376 22.8597172,42.358376 C22.8597172,42.358376 23.2896512,38.9938622 24.4567521,37.8972298 C25.3901756,37.0201655 29.1612903,36.437286 29.1612903,36.437286 C29.1612903,36.437286 25.6162582,35.4763835 24.4567521,34.3024868 C23.5198843,33.3539915 22.8721685,30.0701099 22.8721685,30.0701099 C22.8721685,30.0701099 22.1300597,33.282623 21.1266066,34.3024868 C20.0952508,35.3507097 16.7677419,36.2743701 16.7677419,36.2743701 C16.7677419,36.2743701 20.023576,37.187614 21.1266066,38.2892016 Z"></path>
                            <path d="M12.2825324,14.0208035 C13.81039,15.6011573 15.1370674,20.9623363 15.1370674,20.9623363 C15.1370674,20.9623363 15.8451941,15.2228715 17.7674779,13.3521456 C19.3048813,11.8559772 25.516129,10.8616532 25.516129,10.8616532 C25.516129,10.8616532 19.6772527,9.22246672 17.7674779,7.21993703 C16.2244015,5.60191564 15.1575755,0 15.1575755,0 C15.1575755,0 13.9352786,5.48016935 12.2825324,7.21993703 C10.5838287,9.008082 5.10322581,10.5837379 5.10322581,10.5837379 C5.10322581,10.5837379 10.4657761,12.1416245 12.2825324,14.0208035 Z"></path>
                        </g>
                    </g>
                    <g id="sparks" mask="url(#mask-2)" fill="#FFFFFF">
                        <g transform="translate(112.580645, 178.499031) scale(-1, 1) translate(-112.580645, -178.499031) translate(98.000000, 147.055526)" id="Path-406">
                            <path d="M5.38447994,57.8603816 C6.53037312,59.0047758 7.52538121,62.8870088 7.52538121,62.8870088 C7.52538121,62.8870088 8.0564762,58.7308447 9.4981891,57.3761811 C10.6512416,56.2927488 15.3096774,55.5727211 15.3096774,55.5727211 C15.3096774,55.5727211 10.9305202,54.385724 9.4981891,52.9356163 C8.34088178,51.7639456 7.54076229,47.707386 7.54076229,47.707386 C7.54076229,47.707386 6.62403959,51.6757845 5.38447994,52.9356163 C4.11045216,54.2304799 0,55.3714721 0,55.3714721 C0,55.3714721 4.02191272,56.4995969 5.38447994,57.8603816 Z"></path>
                            <path d="M21.1266066,38.2892016 C22.0542344,39.215616 22.8597172,42.358376 22.8597172,42.358376 C22.8597172,42.358376 23.2896512,38.9938622 24.4567521,37.8972298 C25.3901756,37.0201655 29.1612903,36.437286 29.1612903,36.437286 C29.1612903,36.437286 25.6162582,35.4763835 24.4567521,34.3024868 C23.5198843,33.3539915 22.8721685,30.0701099 22.8721685,30.0701099 C22.8721685,30.0701099 22.1300597,33.282623 21.1266066,34.3024868 C20.0952508,35.3507097 16.7677419,36.2743701 16.7677419,36.2743701 C16.7677419,36.2743701 20.023576,37.187614 21.1266066,38.2892016 Z"></path>
                            <path d="M12.2825324,14.0208035 C13.81039,15.6011573 15.1370674,20.9623363 15.1370674,20.9623363 C15.1370674,20.9623363 15.8451941,15.2228715 17.7674779,13.3521456 C19.3048813,11.8559772 25.516129,10.8616532 25.516129,10.8616532 C25.516129,10.8616532 19.6772527,9.22246672 17.7674779,7.21993703 C16.2244015,5.60191564 15.1575755,0 15.1575755,0 C15.1575755,0 13.9352786,5.48016935 12.2825324,7.21993703 C10.5838287,9.008082 5.10322581,10.5837379 5.10322581,10.5837379 C5.10322581,10.5837379 10.4657761,12.1416245 12.2825324,14.0208035 Z"></path>
                        </g>
                    </g>
                </g>
            </g>
        </g>
    </g>
</svg>