<?xml version="1.0" encoding="UTF-8"?>
<svg width="80px" height="80px" viewBox="0 0 80 80" version="1.1" xmlns="http://www.w3.org/2000/svg" xmlns:xlink="http://www.w3.org/1999/xlink">
    <!-- Generator: Sketch 51.3 (57544) - http://www.bohemiancoding.com/sketch -->
    <title>product-talents</title>
    <desc>Created with Sketch.</desc>
    <defs></defs>
    <g id="Current-Version" stroke="none" stroke-width="1" fill="none" fill-rule="evenodd">
        <g id="employers01" transform="translate(-546.000000, -4217.000000)" fill-rule="nonzero">
            <g id="great-engineering" transform="translate(181.000000, 4069.000000)">
                <g id="Group-39" transform="translate(0.000000, 148.000000)">
                    <g id="product-talents" transform="translate(365.000000, 0.000000)">
                        <rect id="Rectangle-12" fill="#E1F0FF" x="0" y="0" width="80" height="80" rx="8"></rect>
                        <g id="Group-14" transform="translate(26.000000, 26.000000)" fill="#3685D6">
                            <path d="M28.4901728,13.9120064 C28.4266235,13.831203 26.9059136,11.9116261 24.4427037,9.97469872 C21.1374794,7.37572863 17.6993683,6.00194658 14.5,6.00194658 C11.3006317,6.00194658 7.86252058,7.37572863 4.5572963,9.97463675 C2.09408642,11.9115641 0.573376543,13.831141 0.50982716,13.9119444 L0.04731893,14.5 L0.50982716,15.0879936 C0.573376543,15.168797 2.09408642,17.0883739 4.5572963,19.0253013 C7.86252058,21.6242094 11.3006317,22.9979915 14.5,22.9979915 C17.6993683,22.9979915 21.1374794,21.6242094 24.4427037,19.0253013 C26.9059136,17.0883739 28.4266235,15.168797 28.4901728,15.0879936 L28.9526811,14.5 L28.4901728,13.9120064 Z M15.3950617,9.03473932 C17.6228107,9.42692094 19.3851872,11.2570812 19.7628436,13.5705128 L18.0442654,13.5705128 C17.7164938,12.2227564 16.6929012,11.1597329 15.3950617,10.8192308 L15.3950617,9.03473932 Z M13.6049383,9.03473932 L13.6049383,10.8192308 C12.3070988,11.1597329 11.2835062,12.2227564 10.9557346,13.5705128 L9.23715638,13.5705128 C9.61481276,11.2570812 11.3771893,9.42692094 13.6049383,9.03473932 Z M5.67170782,17.5697244 C4.16066461,16.3859915 3.0131358,15.1885021 2.39864609,14.5 C3.01325514,13.811312 4.16066461,12.6140085 5.67170782,11.4302756 C6.77931687,10.5625684 8.21081893,9.60612607 9.84078601,8.90188462 C8.3293251,10.2602991 7.37160905,12.2661944 7.37160905,14.5 C7.37160905,16.7338056 8.32938477,18.7397009 9.84078601,20.0981154 C8.21081893,19.3938739 6.7792572,18.4374316 5.67170782,17.5697244 Z M13.6049383,19.9652607 C11.3771893,19.5730791 9.61481276,17.7429188 9.23715638,15.4294872 L10.9557942,15.4294872 C11.2837449,16.7770577 12.3072181,17.8398333 13.6049383,18.1803355 L13.6049383,19.9652607 Z M12.6346317,14.4997521 C12.6346317,13.4316474 13.4714547,12.5626389 14.5,12.5626389 C15.5285453,12.5626389 16.365428,13.4315855 16.365428,14.4997521 C16.365428,15.5679188 15.5285453,16.4368654 14.5,16.4368654 C13.4714547,16.4368654 12.6346317,15.5678568 12.6346317,14.4997521 Z M15.3950617,19.9652607 L15.3950617,18.1802735 C16.6927819,17.8398333 17.7162551,16.7769957 18.0442058,15.4294252 L19.7628436,15.4294252 C19.3851872,17.7429188 17.6228107,19.5730791 15.3950617,19.9652607 Z M23.3282922,17.5697244 C22.2206831,18.4374316 20.7891811,19.3938739 19.159214,20.0981154 C20.6706749,18.7397009 21.6284506,16.7338056 21.6284506,14.5 C21.6284506,12.2661944 20.6706749,10.2602991 19.159214,8.90188462 C20.7891811,9.60612607 22.2207428,10.5625684 23.3282922,11.4302756 C24.8393354,12.6140705 25.9868642,13.8114979 26.6013539,14.5 C25.9867449,15.188688 24.8393354,16.3859915 23.3282922,17.5697244 Z" id="Shape"></path>
                            <rect id="Rectangle-path" x="13.6049383" y="0.0236089744" width="1.79012346" height="3.76628205"></rect>
                            <rect id="Rectangle-path" transform="translate(19.652800, 2.847980) rotate(29.151440) translate(-19.652800, -2.847980) " x="18.7577743" y="0.964884309" width="1.79005122" height="3.76619204"></rect>
                            <rect id="Rectangle-path" transform="translate(9.346318, 2.847928) rotate(60.848560) translate(-9.346318, -2.847928) " x="7.53296619" y="1.91847805" width="3.62670345" height="1.85889935"></rect>
                            <rect id="Rectangle-path" x="13.6049383" y="25.210109" width="1.79012346" height="3.76628205"></rect>
                            <rect id="Rectangle-path" transform="translate(19.652984, 26.152916) rotate(-119.151440) translate(-19.652984, -26.152916) " x="17.8396318" y="25.2234667" width="3.62670345" height="1.85889935"></rect>
                            <rect id="Rectangle-path" transform="translate(9.346583, 26.152821) rotate(-150.848560) translate(-9.346583, -26.152821) " x="8.45155777" y="24.2697251" width="1.79005122" height="3.76619204"></rect>
                        </g>
                    </g>
                </g>
            </g>
        </g>
    </g>
</svg>